<?xml version="1.0" encoding="UTF-8" standalone="no"?>
<!DOCTYPE svg PUBLIC "-//W3C//DTD SVG 1.1//EN" "http://www.w3.org/Graphics/SVG/1.1/DTD/svg11.dtd">
<svg width="199" height="41" viewBox="0 0 199 41" preserveAspectRatio="xMinYMid meet" version="1.1" xmlns="http://www.w3.org/2000/svg" xmlns:xlink="http://www.w3.org/1999/xlink" xml:space="preserve" xmlns:serif="http://www.serif.com/" style="fill-rule:evenodd;clip-rule:evenodd;stroke-linejoin:round;stroke-miterlimit:2;">
    <g id="Artboard1" transform="matrix(1.00583,0,0,1,0,0)">
        <rect x="0" y="0" width="197.498" height="40.984" style="fill:none;"/>
        <g id="Logo" transform="matrix(0.586026,0,0,0.996169,0,0)">
                <g transform="matrix(1,0,0,0.9258,0,0)">
                    <rect x="0" y="0" width="335.06" height="44.439" style="fill:none;"/>
                </g>
                <g transform="matrix(2.0669,0,0,1.223,-1270.07,-155.7)">
                    <path d="M650.83,144.36C650.83,134.43 657.32,127.6 667.66,127.6C678.1,127.6 684.39,134.07 684.39,144.19C684.39,154.12 677.9,160.95 667.56,160.95C657.12,160.95 650.83,154.48 650.83,144.36ZM674.44,144.28C674.44,135.32 672.59,128.23 667.61,128.23C662.54,128.23 660.78,135.06 660.78,144.28C660.78,153.24 662.59,160.33 667.66,160.33C672.64,160.33 674.44,153.5 674.44,144.28Z" style="fill-rule:nonzero;"/>
                </g>
                <g transform="matrix(2.0669,0,0,1.223,-1270.07,-155.7)">
                    <path d="M687.11,144.36C687.11,134.47 694.82,127.6 705.16,127.6C709.45,127.6 713.45,128.84 715.79,129.91L716.08,138.56L715.79,138.56C713.3,133.15 710.03,128.23 704.96,128.23C698.91,128.23 697.06,135.02 697.06,144.24C697.06,153.64 699.4,160.34 704.96,160.34C710.03,160.34 713.45,155.28 716.57,149.08L716.86,149.08L715.69,158.93C713.35,159.82 709.45,160.97 705.15,160.97C693.94,160.95 687.11,154.56 687.11,144.36Z" style="fill-rule:nonzero;"/>
                </g>
                <g transform="matrix(2.0669,0,0,1.223,-1270.07,-155.7)">
                    <path d="M749.24,160.68L749.24,160.95L732.51,160.95L732.51,160.68C735.53,160.5 736.41,158.82 735.49,156.47L733.34,151.01L724.71,151.01L724.52,151.5C722.42,156.69 722.76,159.88 726.28,160.68L726.28,160.95L717.6,160.95L717.6,160.68C719.65,159.79 721.45,156.56 723.6,151.23L733.16,127.59L733.55,127.59L744.82,155.26C746.22,158.78 747.24,160.51 749.24,160.68ZM732.9,149.95L729.05,140.15L725.15,149.95L732.9,149.95Z" style="fill-rule:nonzero;"/>
                </g>
                <g transform="matrix(2.0669,0,0,1.223,-1270.07,-155.7)">
                    <path d="M777,151.81L775.68,160.95L749.24,160.95L749.24,160.68C752.56,160.68 752.75,158.46 752.75,155.18L752.75,134.42C752.75,131.14 752.56,128.92 749.24,128.92L749.24,128.65L774.9,128.65L775.68,136.81L775.39,136.81C772.07,131.22 769.44,129.36 763.98,129.36L762.13,129.36L762.13,143.77L763.11,143.77C768.18,143.77 770.04,142.48 771.4,139.2L771.69,139.2L771.69,149.49L771.4,149.49C769.94,145.76 768.18,144.48 763.11,144.48L762.13,144.48L762.13,158.18C762.13,159.38 762.47,160.22 764.08,160.22L764.47,160.22C769.3,160.22 772.91,158.71 776.71,151.79L777,151.79L777,151.81Z" style="fill-rule:nonzero;"/>
                </g>
                <g transform="matrix(2.0669,0,0,1.223,-1270.07,-155.7)">
                    <path d="M634.04,160.12C633.41,160.24 632.77,160.32 632.11,160.36C632.76,160.42 633.42,160.32 634.04,160.12Z" style="fill-rule:nonzero;"/>
                </g>
                <g transform="matrix(2.0669,0,0,1.223,-1270.07,-155.7)">
                    <path d="M642.99,131.41C642.99,131.41 642.66,131.5 642.28,131.73C642.38,131.83 642.48,131.92 642.58,132.02C642.95,131.7 643.23,131.53 642.99,131.41Z" style="fill-rule:nonzero;"/>
                </g>
                <g transform="matrix(2.0669,0,0,1.223,-1270.07,-155.7)">
                    <path d="M632.11,160.36C632.01,160.37 631.91,160.37 631.81,160.38C632.74,160.62 633.77,160.48 634.69,160.18C635.08,160.08 635.45,159.9 635.8,159.7C635.23,159.87 634.64,160.01 634.04,160.12C633.42,160.32 632.76,160.42 632.11,160.36Z" style="fill-rule:nonzero;"/>
                </g>
                <g transform="matrix(2.0669,0,0,1.223,-1270.07,-155.7)">
                    <path d="M635.8,159.7C636.73,159.42 637.63,159.06 638.49,158.62C638.32,158.63 638.14,158.64 637.97,158.66C637.17,158.8 636.5,159.29 635.8,159.7Z" style="fill-rule:nonzero;"/>
                </g>
                <g transform="matrix(2.0669,0,0,1.223,-1270.07,-155.7)">
                    <path d="M627.76,129.73C627.74,129.7 627.74,129.66 627.77,129.64C627.8,129.62 627.84,129.62 627.86,129.65C628.09,129.94 628.26,130.28 628.32,130.65C628.32,130.68 628.3,130.7 628.28,130.71C628.25,130.71 628.23,130.7 628.22,130.67C628.16,130.31 627.99,130 627.76,129.73ZM628.76,131.53L628.34,131.87C628.26,131.92 628.21,131.99 628.07,131.99C627.95,131.87 628.05,131.78 628.06,131.69C628.06,131.67 628.08,131.65 628.1,131.65C628.12,131.65 628.14,131.67 628.14,131.69L628.14,131.71C628.11,131.78 628.09,131.91 628.1,131.91C628.14,131.91 628.24,131.85 628.31,131.8L628.74,131.47C628.75,131.46 628.77,131.46 628.78,131.47C628.78,131.5 628.77,131.52 628.76,131.53ZM636.43,129L637.5,128.93C637.6,128.92 637.69,129 637.7,129.1C637.71,129.2 637.63,129.29 637.53,129.3L637.52,129.3L636.44,129.35C636.34,129.35 636.26,129.28 636.26,129.18C636.26,129.09 636.34,129.01 636.43,129ZM634.28,129.07L635.36,129.05C635.45,129.05 635.53,129.12 635.53,129.21C635.53,129.3 635.46,129.38 635.37,129.38L634.28,129.38C634.2,129.38 634.13,129.31 634.13,129.23C634.13,129.14 634.2,129.07 634.28,129.07ZM632.12,129.06L633.2,129.08C633.28,129.08 633.34,129.14 633.34,129.22C633.34,129.3 633.28,129.36 633.2,129.36L633.19,129.36L632.11,129.32C632.04,129.32 631.99,129.26 631.99,129.19C632,129.11 632.06,129.06 632.12,129.06ZM631.6,130.07C631.79,130.06 631.98,130.06 632.16,130.09C631.98,130.06 631.79,130.06 631.6,130.07C631.6,130.08 631.6,130.07 631.6,130.07ZM629.97,128.98L631.05,129.02C631.11,129.02 631.16,129.07 631.16,129.14C631.16,129.2 631.11,129.25 631.04,129.25L629.96,129.18C629.91,129.18 629.86,129.13 629.87,129.07C629.86,129.02 629.91,128.98 629.97,128.98ZM629.6,130.84C629.9,130.64 630.22,130.47 630.55,130.33C630.56,130.33 630.56,130.33 630.57,130.34C630.57,130.35 630.57,130.35 630.56,130.36C630.23,130.5 629.92,130.68 629.62,130.88C629.61,130.89 629.6,130.88 629.59,130.87C629.58,130.86 629.59,130.85 629.6,130.84ZM627.81,128.88L628.89,128.93C628.94,128.93 628.98,128.97 628.97,129.02C628.97,129.07 628.93,129.11 628.88,129.1L627.8,129.03C627.76,129.03 627.73,128.99 627.73,128.95C627.73,128.92 627.77,128.88 627.81,128.88ZM620.28,131.54C620.51,135.41 618.22,135.77 618.26,135.82C617.66,133.39 620.28,131.54 620.28,131.54ZM620.84,141.08C620.65,140.52 620.23,139.87 619.38,139.14C619.38,139.14 619.15,140.75 619.91,141.95C617.69,140.06 618.23,136.42 618.23,136.42C620.49,138.35 620.89,140 620.84,141.08ZM620.77,134.04C622.91,136.9 621.33,138.34 621.39,138.35C619.69,136.78 620.77,134.04 620.77,134.04ZM621.7,141.38C620.93,140.39 621.75,139.02 621.75,139.02C622.64,140.73 621.68,141.36 621.7,141.38ZM623.77,134.05C623.51,136.21 622.22,136.18 622.23,136.21C622.15,134.82 623.77,134.05 623.77,134.05ZM622.41,137.05C624.94,137.36 624.9,138.88 624.93,138.86C623.29,138.96 622.41,137.05 622.41,137.05ZM623.19,150.2C623.19,150.44 622.99,150.64 622.75,150.64C622.51,150.64 622.31,150.44 622.31,150.2C622.31,149.96 622.51,149.76 622.75,149.76C622.99,149.76 623.19,149.96 623.19,150.2ZM622.52,148.69C622.65,148.69 622.75,148.79 622.75,148.92C622.75,149.05 622.65,149.15 622.52,149.15C622.39,149.15 622.29,149.05 622.29,148.92C622.29,148.79 622.39,148.69 622.52,148.69ZM622.66,153.07C622.21,153.07 621.84,152.7 621.84,152.25C621.84,151.8 622.21,151.43 622.66,151.43C623.11,151.43 623.48,151.8 623.48,152.25C623.48,152.71 623.12,153.07 622.66,153.07ZM642.96,133.63C640.78,138.3 642.28,142.97 642.28,142.97C642.28,142.97 641.92,142.97 641.76,142.18C639.54,139 642.94,133.67 642.96,133.63ZM640.37,139.14C640.37,139.15 640.36,139.16 640.36,139.18C640.33,139.43 640.41,141.12 641.19,142.65C642.03,144.32 641.73,144.29 641.73,144.29C641.73,144.29 639.59,142.02 640.36,139.17C640.36,139.16 640.36,139.14 640.37,139.14ZM640.58,133.68C640.49,134.48 640.19,136.61 638.75,137.39C637.12,138.27 637.11,137.81 637.11,137.81C637.11,137.81 639.76,136.94 640.58,133.68ZM632.95,143.47C631.95,145.44 630.72,144.96 630.73,144.99C631.14,143.63 632.95,143.47 632.95,143.47ZM630.36,145.29C628.66,146.71 627.73,145.78 627.72,145.82C628.63,144.72 630.36,145.29 630.36,145.29ZM632.11,154.2C632.08,154.01 632.05,153.87 632.03,153.78C632.01,153.69 631.93,153.64 631.8,153.64C631.76,153.64 631.7,153.64 631.64,153.65C631.58,153.66 631.54,153.7 631.54,153.76C631.54,153.81 631.54,153.89 631.56,154.02C631.57,154.04 631.63,154.05 631.74,154.04C631.8,154.05 631.87,154.06 631.92,154.06C631.92,154.09 631.87,154.14 631.78,154.22C631.68,154.3 631.62,154.36 631.61,154.39C631.67,154.41 631.73,154.43 631.79,154.45C631.92,154.46 631.98,154.48 631.98,154.5C631.98,154.53 631.92,154.56 631.8,154.59C631.68,154.62 631.61,154.66 631.59,154.72C631.67,154.77 631.74,154.81 631.82,154.85C631.84,154.88 631.81,154.91 631.75,154.94C631.68,154.97 631.62,155 631.55,155.05C631.56,155.08 631.61,155.1 631.71,155.12C631.81,155.14 631.9,155.16 631.98,155.17C631.98,155.23 631.9,155.29 631.76,155.34C631.61,155.39 631.53,155.43 631.51,155.46C631.46,155.51 631.49,155.56 631.59,155.61C631.69,155.66 631.75,155.71 631.77,155.76L631.77,155.85C631.77,155.88 631.76,155.89 631.73,155.9C631.7,155.91 631.65,155.9 631.58,155.88C631.51,155.86 631.46,155.85 631.44,155.87C631.39,155.91 631.36,156.02 631.36,156.19L631.43,156.25C631.37,156.29 631.31,156.34 631.26,156.38C631.26,156.39 631.25,156.43 631.22,156.5C631.19,156.57 631.18,156.62 631.18,156.66C631.24,156.73 631.3,156.79 631.37,156.85C631.39,156.9 631.38,156.96 631.35,157.04C631.33,157.04 631.27,157.02 631.16,156.99C631.06,156.95 630.99,156.94 630.98,156.96C630.95,156.99 630.94,157.03 630.93,157.11C630.93,157.19 630.93,157.31 630.94,157.46C630.9,157.46 630.84,157.44 630.75,157.42C630.66,157.39 630.6,157.39 630.58,157.42C630.55,157.51 630.54,157.57 630.55,157.61C630.56,157.67 630.59,157.73 630.65,157.79C630.71,157.86 630.74,157.92 630.74,157.97C630.7,157.97 630.66,157.97 630.62,157.96C630.53,157.92 630.47,157.91 630.44,157.93C630.42,157.94 630.41,157.99 630.41,158.08C630.38,158.08 630.35,158.08 630.31,158.09C630.3,158.06 630.29,158.03 630.26,158C630.23,157.97 630.2,157.95 630.15,157.95C630.08,157.95 630.03,157.99 630.02,158.07C630.01,158.15 630,158.24 630,158.32C629.99,158.33 629.93,158.29 629.83,158.21C629.73,158.13 629.67,158.09 629.66,158.1C629.65,158.11 629.67,158.18 629.73,158.3C629.79,158.43 629.81,158.49 629.8,158.5C629.78,158.51 629.73,158.49 629.64,158.45C629.55,158.41 629.5,158.4 629.47,158.42C629.44,158.45 629.42,158.51 629.39,158.62C629.37,158.73 629.35,158.78 629.33,158.78C629.28,158.78 629.25,158.72 629.23,158.61C629.21,158.5 629.18,158.43 629.17,158.41L628.91,158.41C628.88,158.41 628.86,158.47 628.83,158.61C628.81,158.74 628.79,158.81 628.77,158.81C628.74,158.81 628.72,158.78 628.7,158.71C628.69,158.64 628.67,158.58 628.65,158.5C628.54,158.5 628.47,158.51 628.44,158.54C628.41,158.57 628.37,158.62 628.32,158.69C628.27,158.76 628.22,158.79 628.17,158.79C628.22,158.7 628.26,158.61 628.29,158.53C628.32,158.44 628.33,158.39 628.31,158.36C628.25,158.3 628.18,158.28 628.12,158.3C628.07,158.32 628.04,158.34 628.01,158.38C627.98,158.41 627.95,158.45 627.92,158.49L627.92,158.33C627.92,158.26 627.9,158.21 627.85,158.19C627.8,158.16 627.72,158.15 627.59,158.14C627.45,158.13 627.38,158.13 627.38,158.12C627.38,158.1 627.41,158.05 627.48,157.98C627.54,157.91 627.56,157.85 627.55,157.82C627.51,157.74 627.42,157.68 627.29,157.62C627.16,157.56 627.03,157.52 626.89,157.47C626.93,157.45 626.99,157.42 627.07,157.39C627.15,157.35 627.19,157.3 627.19,157.24C627.19,157.21 627.15,157.19 627.06,157.16C626.97,157.14 626.94,157.11 626.97,157.06C627,157.01 627.02,156.96 627.02,156.92C627.02,156.87 626.99,156.84 626.93,156.81C626.87,156.79 626.83,156.77 626.82,156.76C626.8,156.74 626.82,156.7 626.87,156.65C626.92,156.59 626.94,156.55 626.94,156.54C626.92,156.51 626.88,156.48 626.8,156.45C626.73,156.42 626.67,156.39 626.63,156.37C626.76,156.33 626.83,156.29 626.83,156.24C626.83,156.22 626.8,156.19 626.75,156.14C626.7,156.09 626.68,156.06 626.7,156.04C626.77,155.99 626.8,155.94 626.8,155.91C626.8,155.86 626.76,155.82 626.68,155.79C626.6,155.75 626.55,155.73 626.53,155.71C626.69,155.64 626.77,155.59 626.77,155.56C626.77,155.53 626.74,155.49 626.67,155.44C626.71,155.37 626.73,155.31 626.73,155.28C626.73,155.2 626.71,155.16 626.67,155.14C626.62,155.12 626.6,155.1 626.6,155.09C626.73,155.04 626.79,154.99 626.8,154.95C626.8,154.93 626.79,154.91 626.76,154.89C626.73,154.87 626.7,154.85 626.69,154.83C626.78,154.75 626.83,154.7 626.83,154.66C626.83,154.65 626.82,154.64 626.8,154.62C626.78,154.61 626.77,154.59 626.77,154.57C626.82,154.46 626.88,154.35 626.94,154.23C627.01,154.11 627.08,153.98 627.16,153.83C627.24,153.68 627.3,153.6 627.35,153.57C627.39,153.55 627.45,153.53 627.52,153.52C627.4,153.71 627.3,153.93 627.23,154.16C627.16,154.39 627.11,154.59 627.11,154.77C627.09,155.32 627.25,155.94 627.6,156.63C627.95,157.33 628.36,157.68 628.83,157.7C629.2,157.72 629.54,157.53 629.83,157.15C630.12,156.77 630.27,156.41 630.29,156.07C630.3,155.76 630.3,155.47 630.28,155.22C630.26,154.96 630.18,154.7 630.04,154.44C629.9,154.18 629.74,153.88 629.55,153.53C629.36,153.18 629.27,152.88 629.28,152.64C629.3,152.11 629.35,151.66 629.43,151.28C629.5,150.91 629.58,150.62 629.66,150.42C629.74,150.22 629.8,150.05 629.87,149.92C629.93,149.79 629.97,149.69 629.99,149.61C630.01,149.53 630.03,149.45 630.03,149.36C630.04,149.23 630.03,149.1 630.01,148.97C629.96,148.99 629.91,149 629.87,149.02C629.7,149.14 629.62,149.26 629.65,149.38C629.65,149.41 629.68,149.44 629.73,149.47C629.79,149.5 629.81,149.54 629.8,149.58C629.79,149.63 629.76,149.65 629.72,149.65C629.68,149.65 629.64,149.66 629.6,149.67C629.56,149.68 629.53,149.7 629.5,149.74C629.47,149.78 629.46,149.81 629.45,149.84C629.42,149.84 629.4,149.8 629.38,149.73C629.36,149.66 629.33,149.62 629.31,149.63C628.83,149.75 628.36,150.16 627.91,150.87C627.46,151.58 627.15,152 626.99,152.13C626.94,152.14 626.88,152.14 626.81,152.14L626.62,152.14C626.4,152.13 626.29,152.08 626.31,151.97C626.31,151.94 626.32,151.9 626.34,151.87C626.36,151.84 626.38,151.82 626.4,151.79C626.45,151.77 626.54,151.74 626.69,151.71C626.8,151.61 626.89,151.48 626.97,151.35C627.05,151.22 627.13,151.06 627.23,150.9C627.32,150.73 627.39,150.61 627.43,150.52C627.47,150.43 627.48,150.34 627.49,150.26C627.49,150.24 627.45,150.23 627.37,150.23C627.29,150.23 627.25,150.21 627.25,150.18C627.25,150.15 627.29,150.11 627.35,150.04C627.42,149.98 627.48,149.9 627.55,149.83C627.55,149.76 627.56,149.65 627.56,149.51C627.56,149.45 627.56,149.4 627.54,149.39C627.53,149.37 627.48,149.34 627.41,149.29C627.34,149.24 627.29,149.19 627.29,149.15C627.31,149.14 627.33,149.11 627.35,149.05C627.37,148.99 627.39,148.96 627.41,148.96C627.42,148.96 627.47,148.98 627.56,149.02C627.65,149.06 627.71,149.06 627.74,149.03C627.79,148.99 627.83,148.91 627.87,148.8C627.91,148.69 627.94,148.57 627.94,148.47C627.94,148.41 627.87,148.35 627.71,148.27C627.56,148.19 627.48,148.15 627.48,148.14C627.54,148.11 627.61,148.09 627.71,148.07C627.8,148.05 627.89,148 627.98,147.92C628.07,147.84 628.12,147.69 628.13,147.48C628.13,147.44 628.11,147.38 628.06,147.28C628.01,147.19 628,147.13 628.05,147.12C628.13,147.1 628.25,147.07 628.39,147C628.54,146.94 628.61,146.89 628.61,146.85C628.66,146.88 628.62,147.01 628.51,147.26C628.52,147.3 628.52,147.35 628.53,147.4C628.62,147.4 628.71,147.41 628.79,147.41C628.86,147.39 628.94,147.37 629,147.33C629.07,147.29 629.13,147.24 629.2,147.18C629.24,147.21 629.29,147.24 629.33,147.27C629.41,147.23 629.49,147.19 629.56,147.15C629.63,147.12 629.69,147.06 629.75,146.98C629.8,146.9 629.84,146.86 629.86,146.86C629.94,146.86 629.99,146.88 630.01,146.91C630.02,147 630.04,147.1 630.05,147.19C630.1,147.18 630.15,147.16 630.21,147.13C630.27,147.09 630.31,147.08 630.33,147.08C630.34,147.1 630.35,147.11 630.37,147.12C630.39,147.13 630.42,147.14 630.45,147.14C630.43,147.21 630.4,147.3 630.36,147.41C630.32,147.52 630.31,147.57 630.33,147.59C630.37,147.61 630.47,147.54 630.63,147.39C630.78,147.24 630.9,147.2 630.98,147.25C631,147.27 630.98,147.35 630.94,147.5C630.9,147.64 630.89,147.73 630.92,147.76C630.95,147.79 631.07,147.78 631.31,147.74C631.41,147.74 631.51,147.75 631.61,147.74C631.61,147.76 631.53,147.84 631.37,147.98C631.36,148.02 631.35,148.05 631.34,148.08C631.5,148.14 631.67,148.21 631.84,148.27C632.01,148.34 632.13,148.45 632.2,148.61C632.16,148.63 632.12,148.64 632.08,148.65C632,148.65 631.91,148.64 631.83,148.63C631.75,148.62 631.7,148.62 631.69,148.63C631.64,148.69 631.66,148.77 631.74,148.85C631.82,148.94 631.89,149 631.96,149.03C632.03,149.07 632.06,149.09 632.06,149.11C632.06,149.17 632.04,149.21 632.01,149.26C631.98,149.3 631.97,149.35 631.96,149.4C632.01,149.42 632.08,149.45 632.14,149.49C632.21,149.53 632.27,149.57 632.33,149.62C632.39,149.66 632.42,149.74 632.43,149.85C632.38,149.89 632.29,149.91 632.16,149.91C632.12,149.91 632.09,149.94 632.07,150.01C632.05,150.12 632.05,150.21 632.07,150.29C632.09,150.37 632.14,150.46 632.21,150.58C632.24,150.63 632.22,150.66 632.17,150.68C632.12,150.7 632.08,150.71 632.06,150.73C632.03,150.76 632.06,150.83 632.15,150.94C632.24,151.06 632.34,151.21 632.46,151.4C632.45,151.44 632.38,151.45 632.24,151.45C632.14,151.45 632.08,151.46 632.07,151.5C632.07,151.61 632.1,151.72 632.14,151.83C632.18,151.94 632.27,152 632.42,152.03C632.57,152.06 632.65,152.17 632.68,152.37C632.7,152.57 632.71,152.8 632.7,153.07C632.69,153.36 632.65,153.55 632.58,153.64C632.51,153.72 632.47,153.79 632.45,153.84C632.43,153.89 632.42,153.94 632.42,154.01C632.42,154.08 632.43,154.17 632.46,154.28C632.46,154.36 632.41,154.45 632.32,154.53C632.19,154.49 632.14,154.4 632.11,154.2ZM635.39,155.67C635.79,155.67 636.2,155.56 636.53,155.38C636.77,155.25 636.96,155.64 636.71,155.75C635.88,156.14 634.89,156.06 634.12,155.63C633.23,155.13 632.57,155.68 632.25,156.53C632.38,156.13 632.54,155.71 632.91,155.44C633.29,155.16 633.81,155.26 634.2,155.4C634.62,155.56 634.99,155.68 635.39,155.67ZM640.46,146.62L640.18,146.21C640.1,146.1 640.02,146 639.95,145.92C639.88,145.84 639.8,145.76 639.72,145.68C639.68,145.73 639.65,145.78 639.63,145.82C639.61,145.86 639.6,145.91 639.59,145.96C639.57,146.01 639.57,146.08 639.6,146.18C639.63,146.28 639.64,146.33 639.64,146.35C639.67,146.49 639.74,146.84 639.87,147.38C640,147.93 640.05,148.32 640.04,148.56C640.04,148.8 639.95,149.12 639.78,149.49C639.6,149.87 639.45,150.17 639.31,150.4C639.17,150.62 639.1,150.77 639.08,150.84C639.07,150.91 639.06,151 639.05,151.12C639.06,151.19 639.14,151.26 639.28,151.33C639.42,151.4 639.57,151.48 639.72,151.57C639.87,151.66 639.94,151.75 639.94,151.83C639.94,151.88 639.9,151.97 639.84,152.08C639.79,152.06 639.74,152.05 639.7,152.04C639.66,152.04 639.59,152.03 639.5,152.03C639.36,152.02 639.28,152.02 639.24,152.02C639.2,152.03 639.13,152.09 639.02,152.21C638.91,152.33 638.81,152.39 638.72,152.39C638.68,152.39 638.59,152.33 638.43,152.2C638.27,152.07 638.18,152.01 638.14,152.01C638.05,152 637.93,152.06 637.76,152.17C637.59,152.16 637.5,152.08 637.51,151.94C637.57,151.79 637.66,151.67 637.77,151.6C637.88,151.52 638,151.42 638.13,151.29C638.26,151.09 638.23,150.92 638.01,150.79C637.63,150.66 637.4,150.63 637.31,150.69C636.99,150.86 636.63,150.93 636.25,150.9L635.63,150.86C635.63,150.9 635.61,150.94 635.57,150.99C635.53,151.04 635.5,151.12 635.46,151.22C635.43,151.32 635.43,151.4 635.48,151.46C635.58,151.57 635.64,151.75 635.65,151.99C635.66,152.13 635.55,152.19 635.32,152.18C635.22,152.07 635.13,151.97 635.03,151.88C635,151.84 634.94,151.83 634.86,151.84C634.78,151.85 634.72,151.87 634.69,151.88C634.65,151.9 634.59,151.94 634.5,152.02C634.41,152.1 634.33,152.11 634.26,152.05C634.22,151.94 634.18,151.85 634.14,151.75C634.1,151.66 634.05,151.6 633.98,151.56C633.91,151.52 633.84,151.51 633.76,151.52C633.68,151.53 633.61,151.56 633.53,151.61C633.43,151.59 633.42,151.46 633.5,151.25C633.54,151.15 633.69,151.07 633.95,151.01C634.21,150.95 634.41,150.94 634.55,150.97C634.7,151.01 634.78,150.91 634.79,150.69C634.84,150.54 634.8,150.41 634.67,150.32C634.55,150.23 634.42,150.04 634.29,149.76C634.16,149.48 634.08,149.2 634.06,148.91C634.04,148.62 634.04,148.27 634.07,147.85C634.12,147.14 634.21,146.44 634.32,145.76C634.26,145.67 634.18,145.58 634.1,145.49C634,145.64 633.88,145.83 633.73,146.06C633.58,146.29 633.49,146.49 633.44,146.64C633.39,146.79 633.36,146.94 633.33,147.08C633.3,147.22 633.29,147.34 633.3,147.44C633.29,147.53 633.32,147.65 633.36,147.82C633.41,147.99 633.43,148.12 633.42,148.23C633.42,148.28 633.33,148.3 633.15,148.29C633.03,148.3 632.95,148.2 632.92,148C632.89,147.8 632.88,147.6 632.9,147.41C632.9,147.36 632.9,147.3 632.88,147.22C632.86,147.15 632.85,147.05 632.86,146.93C632.92,146.12 633.02,145.5 633.18,145.06C633.34,144.63 633.61,144.16 634,143.64L634.77,142.6C635.18,142.16 635.53,141.77 635.83,141.43C636.13,141.1 636.31,140.77 636.36,140.46L636.38,140.2C636.39,140.01 636.38,139.87 636.35,139.77C636.31,139.67 636.21,139.53 636.05,139.35C636.01,139.21 635.93,139.1 635.83,139.02C635.72,138.94 635.48,138.79 635.12,138.55L635.14,138.32C635.29,138.37 635.46,138.4 635.65,138.43C635.84,138.46 636.05,138.48 636.29,138.5C636.65,138.52 636.96,138.5 637.23,138.43C637.5,138.36 637.7,138.33 637.84,138.34C637.99,138.35 638.15,138.41 638.32,138.52C638.48,138.63 638.62,138.74 638.75,138.85C638.87,138.96 638.95,139.1 638.99,139.27C639.03,139.44 639.04,139.63 639.03,139.86C639.02,139.96 639.01,140.13 639,140.35C638.98,140.57 638.97,140.75 638.96,140.87C638.95,141.01 638.95,141.15 638.97,141.3C638.98,141.45 639.04,141.68 639.14,141.99C639.24,142.3 639.36,142.59 639.51,142.85C639.66,143.11 639.84,143.41 640.05,143.75C640.26,144.08 640.44,144.45 640.6,144.86C640.76,145.26 640.85,145.52 640.89,145.64C640.92,145.76 641,146.14 641.11,146.79L641.19,147.16L641.25,147.79C641.08,147.71 640.98,147.65 640.94,147.6C640.9,147.55 640.82,147.42 640.71,147.21C640.63,147 640.54,146.8 640.46,146.62ZM642.03,153.68C640.14,151.93 641.34,148.86 641.34,148.86C643.73,152.06 641.97,153.66 642.03,153.68Z" style="fill-rule:nonzero;"/>
                </g>
                <g transform="matrix(2.0669,0,0,1.223,-1270.07,-155.7)">
                    <path d="M644.06,133.66C643.51,134.49 643.15,135.46 642.98,136.57C642.71,138.35 642.63,140.13 642.62,141.92C642.61,145.11 642.7,148.29 643.34,151.43C643.51,152.27 643.67,153.12 644,153.94C644.1,153.88 644.2,153.81 644.3,153.75C646.36,150.99 647.58,147.57 647.58,143.87C647.58,140.01 646.26,136.47 644.06,133.66Z" style="fill-rule:nonzero;"/>
                </g>
                <g transform="matrix(2.0669,0,0,1.223,-1270.07,-155.7)">
                    <path d="M620.65,147.84C620.49,147.63 620.55,147.34 620.79,147.23C621.15,147.07 621.18,147.13 622.05,146.95C623.7,146.6 623.82,151.61 623.82,151.61C623.82,151.61 624.3,150.75 624.76,149.29C625.21,147.83 626.83,147.46 626.83,147.46C626.83,147.46 626.4,147.32 625.32,147.37C624.16,147.42 624.36,145.21 624.3,144.8C624.24,144.39 625.82,144.57 625.82,144.57C629.42,145.9 633.89,141.05 634.84,139.77C634.87,139.73 634.82,139.69 634.79,139.72C634.07,140.36 631.38,142.22 627.8,141.14C620.91,138.45 622.33,144.28 622.33,144.28L621.08,143.64L621.46,145.16C621.46,145.16 619.76,145.04 617.89,145.16C616.05,145.26 617.19,151.75 617.51,153.38C618.03,154.12 618.6,154.81 619.23,155.45C619.56,155 620.03,154.36 620.7,153.46C622.6,150.84 621.31,148.67 620.65,147.84Z" style="fill-rule:nonzero;"/>
                </g>
                <g transform="matrix(2.0669,0,0,1.223,-1270.07,-155.7)">
                    <path d="M641.29,147.8L641.23,147.17L641.15,146.8C641.04,146.15 640.97,145.76 640.93,145.65C640.89,145.53 640.8,145.28 640.64,144.87C640.49,144.47 640.3,144.1 640.09,143.76C639.88,143.42 639.7,143.12 639.55,142.86C639.4,142.6 639.28,142.31 639.18,142C639.08,141.69 639.02,141.46 639.01,141.31C639,141.16 638.99,141.02 639,140.88C639.01,140.76 639.02,140.58 639.04,140.36C639.06,140.13 639.07,139.97 639.07,139.87C639.09,139.64 639.07,139.45 639.03,139.28C638.99,139.11 638.91,138.97 638.79,138.86C638.67,138.75 638.53,138.64 638.36,138.53C638.19,138.42 638.03,138.36 637.88,138.35C637.74,138.34 637.54,138.37 637.27,138.44C637,138.51 636.68,138.53 636.33,138.51C636.09,138.49 635.88,138.47 635.69,138.44C635.5,138.41 635.33,138.37 635.18,138.33L635.16,138.56C635.53,138.79 635.76,138.95 635.87,139.03C635.98,139.11 636.05,139.22 636.09,139.36C636.25,139.54 636.35,139.69 636.39,139.78C636.43,139.88 636.44,140.02 636.42,140.21L636.4,140.47C636.35,140.78 636.17,141.1 635.87,141.44C635.57,141.78 635.22,142.17 634.81,142.61L634.04,143.65C633.65,144.16 633.37,144.63 633.22,145.07C633.07,145.5 632.96,146.12 632.9,146.94C632.89,147.06 632.9,147.16 632.92,147.23C632.94,147.3 632.95,147.36 632.94,147.42C632.93,147.61 632.94,147.81 632.96,148.01C632.99,148.21 633.07,148.31 633.19,148.3C633.36,148.31 633.45,148.29 633.46,148.24C633.47,148.14 633.45,148 633.4,147.83C633.35,147.66 633.33,147.53 633.34,147.45C633.33,147.34 633.34,147.22 633.37,147.09C633.39,146.95 633.43,146.81 633.48,146.65C633.53,146.5 633.62,146.3 633.77,146.07C633.92,145.84 634.04,145.65 634.14,145.5C634.22,145.59 634.29,145.68 634.36,145.77C634.24,146.46 634.16,147.16 634.11,147.86C634.08,148.28 634.08,148.63 634.1,148.92C634.13,149.21 634.2,149.49 634.33,149.77C634.46,150.05 634.58,150.24 634.71,150.33C634.83,150.42 634.87,150.55 634.83,150.7C634.81,150.92 634.73,151.02 634.59,150.98C634.44,150.94 634.24,150.96 633.99,151.02C633.73,151.08 633.58,151.16 633.54,151.26C633.46,151.48 633.47,151.6 633.57,151.62C633.64,151.57 633.72,151.54 633.8,151.53C633.88,151.52 633.95,151.53 634.02,151.57C634.09,151.61 634.14,151.67 634.18,151.76C634.22,151.85 634.26,151.95 634.3,152.06C634.37,152.12 634.45,152.11 634.54,152.03C634.63,151.95 634.7,151.9 634.73,151.89C634.77,151.87 634.82,151.86 634.9,151.85C634.98,151.84 635.04,151.85 635.07,151.89C635.17,151.98 635.27,152.08 635.36,152.19C635.59,152.21 635.69,152.15 635.69,152C635.67,151.76 635.61,151.58 635.52,151.47C635.47,151.42 635.46,151.34 635.5,151.23C635.53,151.13 635.57,151.05 635.61,151C635.65,150.95 635.67,150.91 635.67,150.87L636.29,150.91C636.67,150.94 637.03,150.87 637.35,150.7C637.44,150.64 637.67,150.67 638.05,150.8C638.27,150.94 638.31,151.1 638.17,151.3C638.04,151.43 637.92,151.53 637.81,151.61C637.7,151.69 637.61,151.8 637.55,151.95C637.54,152.09 637.62,152.16 637.8,152.18C637.96,152.07 638.09,152.02 638.18,152.02C638.21,152.02 638.31,152.08 638.47,152.21C638.63,152.33 638.72,152.4 638.76,152.4C638.85,152.41 638.94,152.35 639.06,152.22C639.17,152.1 639.25,152.03 639.28,152.03C639.32,152.02 639.4,152.03 639.54,152.04C639.63,152.05 639.69,152.05 639.74,152.05C639.78,152.05 639.83,152.06 639.88,152.09C639.94,151.97 639.97,151.89 639.98,151.84C639.99,151.75 639.91,151.66 639.76,151.58C639.61,151.49 639.46,151.41 639.32,151.34C639.18,151.27 639.1,151.2 639.09,151.13C639.1,151.01 639.11,150.91 639.12,150.85C639.13,150.78 639.21,150.63 639.35,150.41C639.49,150.19 639.64,149.88 639.82,149.5C639.99,149.12 640.08,148.81 640.08,148.57C640.1,148.33 640.04,147.94 639.91,147.39C639.78,146.84 639.71,146.5 639.68,146.36C639.68,146.34 639.67,146.29 639.64,146.19C639.61,146.09 639.61,146.02 639.63,145.97C639.63,145.92 639.64,145.87 639.67,145.83C639.69,145.79 639.72,145.74 639.76,145.69C639.84,145.76 639.92,145.84 639.99,145.93C640.06,146.01 640.14,146.11 640.22,146.22L640.5,146.63C640.58,146.81 640.67,147.01 640.79,147.22C640.9,147.43 640.98,147.57 641.02,147.61C641.02,147.66 641.12,147.72 641.29,147.8Z" style="fill-rule:nonzero;"/>
                </g>
                <g transform="matrix(2.0669,0,0,1.223,-1270.07,-155.7)">
                    <path d="M626.53,159.08C626.27,158.77 626.08,158.46 625.95,158.15C625.82,157.85 625.59,157.51 625.26,157.16C624.93,156.8 624.76,156.46 624.76,156.14C624.76,155.82 624.64,155.46 624.41,155.07C624.17,154.68 623.84,154.4 623.4,154.23C623.29,154.19 623.15,154.15 622.99,154.13C622.83,154.1 622.7,154.09 622.6,154.07C622.5,154.06 622.43,154.04 622.37,154.01C622.34,154 622.29,153.97 622.22,153.94C622.15,153.91 622.11,153.89 622.09,153.88C622.07,153.86 622.05,153.87 622.03,153.89C622.01,153.91 621.98,153.94 621.97,153.99C621.94,154.07 621.94,154.14 621.97,154.23C622,154.31 622.06,154.39 622.15,154.47C622.24,154.55 622.36,154.66 622.52,154.8C622.49,154.85 622.46,154.87 622.41,154.87C622.36,154.87 622.29,154.86 622.2,154.82C622.11,154.77 622.01,154.73 621.92,154.68C621.91,154.68 621.9,154.69 621.88,154.69C621.87,154.75 621.88,154.79 621.9,154.82C621.92,154.84 621.96,154.88 622.01,154.91C622.06,154.95 622.14,155 622.25,155.06C622.36,155.12 622.46,155.19 622.56,155.25C622.66,155.31 622.76,155.45 622.87,155.66C622.97,155.87 623.03,156.52 623.05,157.59C623.05,157.89 623.06,158.15 623.06,158.36C624.47,159.14 626.01,159.71 627.64,160.05C627.16,159.71 626.79,159.39 626.53,159.08Z" style="fill-rule:nonzero;"/>
                </g>
                <g transform="matrix(2.0669,0,0,1.223,-1270.07,-155.7)">
                    <path d="M632.35,153.98C632.35,153.92 632.36,153.86 632.38,153.81C632.4,153.76 632.45,153.69 632.51,153.61C632.58,153.52 632.62,153.34 632.63,153.04C632.64,152.77 632.64,152.54 632.61,152.34C632.59,152.14 632.5,152.03 632.35,152C632.2,151.98 632.11,151.91 632.07,151.8C632.03,151.69 632.01,151.58 632,151.47C632.01,151.43 632.06,151.42 632.17,151.42C632.31,151.43 632.38,151.41 632.39,151.37C632.27,151.18 632.17,151.03 632.08,150.91C631.99,150.79 631.97,150.72 631.99,150.7C632.01,150.68 632.04,150.66 632.1,150.65C632.15,150.63 632.16,150.6 632.14,150.55C632.07,150.44 632.03,150.34 632,150.26C631.97,150.18 631.98,150.09 632,149.98C632.01,149.91 632.04,149.87 632.09,149.88C632.22,149.89 632.31,149.87 632.36,149.82C632.35,149.71 632.32,149.63 632.26,149.59C632.2,149.55 632.13,149.5 632.07,149.46C632,149.42 631.94,149.39 631.89,149.37C631.89,149.32 631.91,149.28 631.94,149.23C631.97,149.18 631.99,149.14 631.99,149.08C631.99,149.06 631.96,149.03 631.89,149C631.82,148.97 631.75,148.91 631.67,148.82C631.59,148.73 631.57,148.66 631.62,148.6C631.63,148.59 631.68,148.59 631.76,148.6C631.84,148.61 631.92,148.61 632.01,148.62C632.05,148.61 632.1,148.6 632.13,148.58C632.06,148.42 631.95,148.31 631.77,148.24C631.6,148.17 631.43,148.11 631.27,148.05C631.28,148.02 631.29,147.99 631.3,147.95C631.46,147.81 631.54,147.73 631.54,147.71C631.44,147.72 631.34,147.72 631.24,147.71C631.01,147.76 630.88,147.77 630.85,147.73C630.82,147.7 630.83,147.61 630.87,147.47C630.91,147.33 630.93,147.24 630.91,147.22C630.83,147.16 630.71,147.21 630.56,147.36C630.41,147.51 630.31,147.58 630.26,147.56C630.24,147.55 630.25,147.49 630.29,147.38C630.33,147.27 630.36,147.18 630.38,147.11C630.34,147.11 630.32,147.1 630.3,147.09C630.28,147.08 630.27,147.07 630.26,147.05C630.24,147.05 630.2,147.06 630.14,147.1C630.08,147.13 630.03,147.15 629.98,147.16C629.97,147.07 629.95,146.97 629.94,146.88C629.92,146.85 629.87,146.83 629.79,146.83C629.77,146.83 629.74,146.87 629.68,146.95C629.63,147.03 629.57,147.09 629.49,147.12C629.42,147.16 629.34,147.19 629.26,147.24C629.21,147.21 629.17,147.18 629.13,147.15C629.06,147.21 629,147.26 628.93,147.3C628.86,147.34 628.79,147.36 628.72,147.38C628.64,147.38 628.55,147.37 628.46,147.37C628.45,147.32 628.45,147.28 628.44,147.23C628.55,146.99 628.58,146.85 628.54,146.82C628.54,146.86 628.47,146.91 628.32,146.97C628.18,147.03 628.06,147.07 627.98,147.09C627.93,147.11 627.94,147.16 627.99,147.25C628.04,147.34 628.07,147.41 628.06,147.45C628.05,147.66 628,147.81 627.91,147.89C627.82,147.97 627.73,148.02 627.64,148.04C627.55,148.06 627.47,148.08 627.41,148.11C627.41,148.12 627.49,148.16 627.64,148.24C627.79,148.32 627.87,148.39 627.87,148.44C627.87,148.55 627.84,148.66 627.8,148.77C627.76,148.88 627.72,148.96 627.67,149C627.64,149.03 627.58,149.02 627.49,148.99C627.4,148.95 627.35,148.93 627.34,148.93C627.32,148.93 627.3,148.96 627.28,149.02C627.26,149.08 627.24,149.11 627.22,149.12C627.23,149.17 627.27,149.21 627.34,149.26C627.42,149.31 627.46,149.34 627.47,149.36C627.48,149.38 627.49,149.42 627.49,149.48C627.48,149.62 627.48,149.72 627.48,149.8C627.42,149.87 627.35,149.94 627.28,150.01C627.21,150.08 627.18,150.12 627.18,150.15C627.18,150.18 627.22,150.2 627.3,150.2C627.38,150.2 627.42,150.21 627.42,150.23C627.42,150.31 627.4,150.4 627.36,150.49C627.32,150.58 627.26,150.71 627.16,150.87C627.07,151.04 626.98,151.19 626.9,151.32C626.82,151.45 626.73,151.57 626.62,151.68C626.47,151.71 626.37,151.74 626.33,151.76C626.31,151.79 626.29,151.81 626.27,151.84C626.25,151.87 626.24,151.9 626.24,151.94C626.22,152.04 626.33,152.1 626.55,152.11L626.74,152.11C626.8,152.11 626.87,152.1 626.92,152.1C627.08,151.97 627.39,151.55 627.84,150.84C628.29,150.13 628.76,149.72 629.24,149.6C629.27,149.59 629.29,149.63 629.31,149.7C629.33,149.77 629.35,149.81 629.38,149.81C629.39,149.78 629.41,149.75 629.43,149.71C629.46,149.67 629.49,149.65 629.53,149.64C629.57,149.63 629.61,149.63 629.65,149.62C629.69,149.62 629.72,149.59 629.73,149.55C629.74,149.51 629.72,149.47 629.66,149.44C629.6,149.41 629.57,149.38 629.58,149.35C629.56,149.23 629.63,149.11 629.8,148.99C629.84,148.97 629.89,148.96 629.94,148.94C629.96,149.07 629.97,149.2 629.96,149.33C629.96,149.42 629.94,149.51 629.92,149.58C629.9,149.66 629.86,149.76 629.8,149.89C629.74,150.02 629.67,150.19 629.59,150.39C629.51,150.59 629.43,150.88 629.36,151.25C629.28,151.62 629.23,152.08 629.21,152.61C629.2,152.85 629.29,153.14 629.48,153.5C629.67,153.85 629.83,154.16 629.97,154.41C630.11,154.67 630.19,154.93 630.21,155.19C630.23,155.45 630.24,155.73 630.22,156.04C630.21,156.38 630.05,156.74 629.76,157.12C629.47,157.5 629.13,157.69 628.76,157.67C628.29,157.65 627.88,157.29 627.53,156.6C627.18,155.91 627.01,155.29 627.04,154.74C627.05,154.56 627.09,154.36 627.16,154.13C627.23,153.9 627.33,153.68 627.45,153.49C627.39,153.5 627.33,153.51 627.28,153.54C627.23,153.57 627.17,153.65 627.09,153.8C627.01,153.94 626.94,154.07 626.87,154.2C626.81,154.32 626.75,154.44 626.7,154.54C626.7,154.56 626.71,154.58 626.73,154.59C626.75,154.61 626.76,154.62 626.76,154.63C626.76,154.67 626.71,154.72 626.62,154.8C626.64,154.82 626.66,154.84 626.69,154.86C626.72,154.88 626.74,154.9 626.73,154.92C626.73,154.96 626.66,155.01 626.53,155.06C626.53,155.07 626.55,155.08 626.6,155.11C626.64,155.13 626.66,155.17 626.66,155.25C626.66,155.29 626.64,155.34 626.6,155.41C626.67,155.46 626.7,155.5 626.7,155.53C626.7,155.57 626.62,155.62 626.46,155.68C626.48,155.7 626.53,155.73 626.61,155.76C626.69,155.8 626.73,155.84 626.73,155.88C626.73,155.92 626.69,155.96 626.63,156.01C626.61,156.03 626.63,156.06 626.68,156.11C626.73,156.16 626.76,156.19 626.76,156.21C626.76,156.26 626.69,156.3 626.56,156.34C626.6,156.36 626.66,156.39 626.73,156.42C626.8,156.45 626.85,156.48 626.87,156.51C626.88,156.53 626.86,156.57 626.8,156.62C626.74,156.68 626.73,156.72 626.75,156.73C626.76,156.74 626.8,156.76 626.86,156.78C626.92,156.81 626.95,156.84 626.95,156.89C626.95,156.93 626.93,156.97 626.9,157.03C626.87,157.07 626.9,157.11 626.99,157.13C627.08,157.15 627.13,157.18 627.12,157.21C627.12,157.27 627.08,157.33 627,157.36C626.92,157.4 626.87,157.42 626.82,157.44C626.96,157.48 627.09,157.53 627.22,157.59C627.35,157.65 627.44,157.71 627.48,157.79C627.5,157.82 627.47,157.87 627.41,157.95C627.35,158.03 627.31,158.07 627.31,158.09C627.31,158.1 627.38,158.1 627.52,158.11C627.65,158.12 627.73,158.13 627.78,158.16C627.83,158.19 627.85,158.23 627.85,158.3L627.85,158.46C627.88,158.42 627.91,158.39 627.94,158.35C627.97,158.31 628.01,158.29 628.05,158.27C628.12,158.26 628.18,158.28 628.24,158.33C628.26,158.36 628.25,158.42 628.22,158.5C628.19,158.59 628.15,158.67 628.1,158.76C628.15,158.76 628.2,158.73 628.25,158.66C628.3,158.59 628.34,158.54 628.37,158.51C628.4,158.48 628.47,158.47 628.58,158.47C628.59,158.54 628.61,158.61 628.63,158.68C628.65,158.75 628.67,158.78 628.7,158.78C628.72,158.78 628.74,158.71 628.76,158.58C628.79,158.45 628.81,158.38 628.84,158.38C628.93,158.37 629.02,158.37 629.1,158.38C629.12,158.4 629.14,158.46 629.16,158.58C629.18,158.69 629.21,158.75 629.26,158.75C629.28,158.75 629.3,158.7 629.32,158.59C629.34,158.48 629.37,158.41 629.4,158.39C629.43,158.37 629.49,158.38 629.57,158.42C629.66,158.46 629.71,158.48 629.73,158.47C629.74,158.46 629.72,158.4 629.66,158.27C629.6,158.14 629.58,158.08 629.59,158.07C629.6,158.06 629.66,158.1 629.76,158.18C629.86,158.26 629.92,158.3 629.93,158.29C629.93,158.21 629.94,158.12 629.95,158.04C629.97,157.96 630.01,157.92 630.08,157.92C630.13,157.92 630.16,157.94 630.19,157.97C630.21,158 630.23,158.03 630.24,158.06C630.28,158.05 630.31,158.05 630.34,158.05C630.34,157.96 630.35,157.91 630.37,157.9C630.4,157.88 630.46,157.89 630.55,157.93C630.6,157.93 630.64,157.93 630.67,157.94C630.67,157.88 630.64,157.82 630.58,157.76C630.52,157.69 630.49,157.63 630.48,157.58C630.47,157.54 630.48,157.48 630.51,157.39C630.53,157.36 630.58,157.36 630.68,157.39C630.77,157.42 630.83,157.43 630.87,157.43C630.86,157.28 630.85,157.17 630.86,157.08C630.86,157.01 630.88,156.96 630.91,156.93C630.93,156.91 630.99,156.92 631.09,156.96C631.19,157 631.26,157.01 631.28,157.01C631.31,156.93 631.32,156.87 631.3,156.82C631.24,156.76 631.18,156.7 631.11,156.63C631.11,156.59 631.13,156.54 631.15,156.47C631.17,156.4 631.19,156.36 631.19,156.35C631.25,156.31 631.3,156.26 631.36,156.22L631.29,156.16C631.3,155.99 631.33,155.88 631.37,155.84C631.39,155.82 631.44,155.82 631.51,155.85C631.58,155.87 631.63,155.88 631.66,155.87C631.69,155.86 631.7,155.85 631.7,155.82L631.7,155.73C631.68,155.68 631.62,155.62 631.52,155.58C631.42,155.53 631.39,155.49 631.44,155.43C631.46,155.4 631.54,155.36 631.69,155.31C631.83,155.26 631.91,155.21 631.91,155.14C631.83,155.13 631.74,155.11 631.64,155.09C631.54,155.07 631.49,155.04 631.48,155.02C631.55,154.98 631.61,154.94 631.68,154.91C631.75,154.88 631.77,154.85 631.75,154.82C631.68,154.78 631.6,154.74 631.52,154.69C631.54,154.64 631.61,154.59 631.73,154.56C631.85,154.53 631.91,154.5 631.91,154.47C631.91,154.45 631.85,154.43 631.72,154.42C631.67,154.4 631.61,154.38 631.54,154.36C631.56,154.33 631.62,154.27 631.71,154.19C631.8,154.11 631.85,154.06 631.85,154.03C631.79,154.03 631.73,154.02 631.67,154.01C631.56,154.01 631.5,154.01 631.49,153.99C631.48,153.86 631.47,153.78 631.47,153.73C631.47,153.67 631.51,153.63 631.57,153.62C631.63,153.61 631.69,153.6 631.73,153.61C631.87,153.62 631.95,153.66 631.96,153.75C631.98,153.84 632.01,153.98 632.04,154.17C632.07,154.36 632.12,154.46 632.19,154.47C632.28,154.38 632.32,154.3 632.33,154.22C632.36,154.14 632.34,154.05 632.35,153.98Z" style="fill-rule:nonzero;"/>
                </g>
                <g transform="matrix(2.0669,0,0,1.223,-1270.07,-155.7)">
                    <path d="M636.45,129.35L637.53,129.3L637.54,129.3C637.64,129.29 637.72,129.2 637.71,129.1C637.7,129 637.61,128.92 637.51,128.93L636.44,129C636.35,129.01 636.27,129.09 636.27,129.18C636.27,129.28 636.35,129.36 636.45,129.35Z" style="fill-rule:nonzero;"/>
                </g>
                <g transform="matrix(2.0669,0,0,1.223,-1270.07,-155.7)">
                    <path d="M634.28,129.37L635.37,129.37C635.46,129.37 635.53,129.29 635.53,129.2C635.53,129.11 635.45,129.04 635.36,129.04L634.28,129.06C634.2,129.06 634.13,129.13 634.13,129.21C634.13,129.3 634.2,129.37 634.28,129.37Z" style="fill-rule:nonzero;"/>
                </g>
                <g transform="matrix(2.0669,0,0,1.223,-1270.07,-155.7)">
                    <path d="M632.12,129.31L633.2,129.35L633.21,129.35C633.29,129.35 633.35,129.29 633.35,129.21C633.35,129.13 633.29,129.07 633.21,129.07L632.13,129.05C632.06,129.05 632,129.1 632,129.17C631.99,129.25 632.05,129.3 632.12,129.31Z" style="fill-rule:nonzero;"/>
                </g>
                <g transform="matrix(2.0669,0,0,1.223,-1270.07,-155.7)">
                    <path d="M629.95,129.18L631.03,129.25C631.09,129.25 631.14,129.2 631.15,129.14C631.15,129.08 631.1,129.03 631.04,129.02L629.96,128.98C629.91,128.98 629.86,129.02 629.86,129.07C629.86,129.13 629.9,129.18 629.95,129.18Z" style="fill-rule:nonzero;"/>
                </g>
                <g transform="matrix(2.0669,0,0,1.223,-1270.07,-155.7)">
                    <path d="M627.8,129.03L628.88,129.1C628.93,129.1 628.97,129.06 628.97,129.02C628.97,128.97 628.93,128.93 628.89,128.93L627.81,128.88C627.77,128.88 627.73,128.91 627.73,128.95C627.73,129 627.76,129.03 627.8,129.03Z" style="fill-rule:nonzero;"/>
                </g>
                <g transform="matrix(2.0669,0,0,1.223,-1270.07,-155.7)">
                    <path d="M628.27,130.7C628.3,130.7 628.32,130.67 628.31,130.64C628.26,130.27 628.08,129.93 627.85,129.64C627.83,129.61 627.79,129.61 627.76,129.63C627.73,129.65 627.73,129.69 627.75,129.72C627.97,129.99 628.15,130.31 628.2,130.65C628.22,130.69 628.25,130.71 628.27,130.7Z" style="fill-rule:nonzero;"/>
                </g>
                <g transform="matrix(2.0669,0,0,1.223,-1270.07,-155.7)">
                    <path d="M628.72,131.48L628.29,131.81C628.22,131.86 628.13,131.92 628.08,131.92C628.06,131.92 628.09,131.78 628.12,131.72L628.12,131.7C628.12,131.68 628.1,131.66 628.08,131.66C628.06,131.66 628.04,131.68 628.04,131.7C628.04,131.79 627.93,131.87 628.05,132C628.19,132 628.24,131.92 628.32,131.88L628.74,131.54C628.75,131.53 628.75,131.51 628.74,131.5C628.76,131.47 628.74,131.47 628.72,131.48Z" style="fill-rule:nonzero;"/>
                </g>
                <g transform="matrix(2.0669,0,0,1.223,-1270.07,-155.7)">
                    <path d="M630.56,130.36C630.57,130.36 630.57,130.35 630.57,130.34C630.57,130.33 630.56,130.33 630.55,130.33C630.22,130.47 629.9,130.65 629.6,130.84C629.59,130.85 629.59,130.86 629.59,130.87C629.59,130.88 629.61,130.88 629.62,130.88C629.92,130.68 630.23,130.5 630.56,130.36Z" style="fill-rule:nonzero;"/>
                </g>
                <g transform="matrix(2.0669,0,0,1.223,-1270.07,-155.7)">
                    <path d="M632.16,130.09C631.97,130.06 631.78,130.06 631.6,130.07C631.79,130.06 631.98,130.06 632.16,130.09Z" style="fill-rule:nonzero;"/>
                </g>
                <g transform="matrix(2.0669,0,0,1.223,-1270.07,-155.7)">
                    <path d="M637.7,130.37C636.51,130.27 635.52,130.22 634.73,130.22C633.94,130.22 632.92,130.42 631.69,130.82C630.99,131.04 630.36,131.33 629.78,131.67C629.2,132.01 628.72,132.4 628.34,132.82C627.96,133.25 627.73,133.46 627.65,133.48C627.57,133.49 627.51,133.52 627.48,133.55C627.55,133.05 627.58,132.6 627.59,132.18C627.6,131.77 627.54,131.37 627.42,130.99C627.25,130.44 626.86,129.93 626.27,129.45C625.68,128.97 625.16,128.8 624.71,128.95C624.4,129.05 624.13,129.26 623.9,129.59C623.68,129.92 623.53,130.26 623.48,130.61C623.49,130.8 623.49,130.99 623.49,131.18C623.48,131.38 623.43,131.55 623.34,131.68C623.25,131.82 623.18,131.94 623.12,132.06C623.07,132.18 623.01,132.31 622.93,132.47C622.85,132.62 622.79,132.77 622.75,132.92C622.7,133.07 622.68,133.19 622.67,133.29C622.87,133.2 623.03,133.13 623.15,133.07C623.27,133.01 623.38,132.89 623.49,132.71C623.59,132.52 623.75,132.33 623.96,132.14C624.18,131.95 624.41,131.81 624.66,131.73C624.82,131.68 625.06,131.63 625.39,131.59C625.71,131.54 625.92,131.52 626.02,131.53C626.12,131.54 626.15,131.6 626.13,131.71C626.11,131.82 626.08,131.92 626.06,132C625.56,132.73 625.23,133.43 625.05,134.11C624.88,134.79 624.86,135.35 625.01,135.8C625.41,137.03 626.24,137.81 627.51,138.14C628.78,138.47 630.11,138.52 631.48,138.32C632.86,138.11 634.11,137.83 635.22,137.47C635.74,137.3 636.28,137 636.82,136.56C637.36,136.13 637.86,135.61 638.31,135C638.76,134.39 639.13,133.79 639.41,133.2C639.69,132.61 639.97,132.23 640.24,132.07C640.51,131.91 640.81,131.68 641.16,131.38C641.29,131.26 641.4,131.14 641.5,131.03C641.15,130.75 640.79,130.48 640.42,130.22L640.25,130.28C639.74,130.45 638.89,130.48 637.7,130.37Z" style="fill-rule:nonzero;"/>
                </g>
                <g transform="matrix(2.0669,0,0,1.223,-1270.07,-155.7)">
                    <path d="M618.23,136.42C618.23,136.42 617.69,140.06 619.91,141.95C619.15,140.75 619.38,139.14 619.38,139.14C620.23,139.86 620.65,140.52 620.84,141.08C620.89,140 620.49,138.35 618.23,136.42Z" style="fill-rule:nonzero;"/>
                </g>
                <g transform="matrix(2.0669,0,0,1.223,-1270.07,-155.7)">
                    <path d="M620.28,131.54C620.28,131.54 617.66,133.39 618.26,135.82C618.22,135.77 620.5,135.41 620.28,131.54Z" style="fill-rule:nonzero;"/>
                </g>
                <g transform="matrix(2.0669,0,0,1.223,-1270.07,-155.7)">
                    <path d="M620.77,134.04C620.77,134.04 619.7,136.79 621.39,138.35C621.33,138.33 622.9,136.9 620.77,134.04Z" style="fill-rule:nonzero;"/>
                </g>
                <g transform="matrix(2.0669,0,0,1.223,-1270.07,-155.7)">
                    <path d="M641.34,148.86C641.34,148.86 640.14,151.93 642.03,153.68C641.97,153.66 643.73,152.06 641.34,148.86Z" style="fill-rule:nonzero;"/>
                </g>
                <g transform="matrix(2.0669,0,0,1.223,-1270.07,-155.7)">
                    <path d="M630.36,145.29C630.36,145.29 628.63,144.72 627.72,145.82C627.72,145.78 628.66,146.71 630.36,145.29Z" style="fill-rule:nonzero;"/>
                </g>
                <g transform="matrix(2.0669,0,0,1.223,-1270.07,-155.7)">
                    <path d="M632.95,143.47C632.95,143.47 631.13,143.63 630.73,144.99C630.73,144.97 631.95,145.44 632.95,143.47Z" style="fill-rule:nonzero;"/>
                </g>
                <g transform="matrix(2.0669,0,0,1.223,-1270.07,-155.7)">
                    <path d="M623.77,134.05C623.77,134.05 622.14,134.81 622.23,136.21C622.22,136.19 623.52,136.21 623.77,134.05Z" style="fill-rule:nonzero;"/>
                </g>
                <g transform="matrix(2.0669,0,0,1.223,-1270.07,-155.7)">
                    <path d="M622.41,137.05C622.41,137.05 623.29,138.96 624.93,138.86C624.9,138.88 624.94,137.36 622.41,137.05Z" style="fill-rule:nonzero;"/>
                </g>
                <g transform="matrix(2.0669,0,0,1.223,-1270.07,-155.7)">
                    <path d="M621.7,141.38C621.67,141.37 622.64,140.74 621.75,139.02C621.75,139.01 620.94,140.39 621.7,141.38Z" style="fill-rule:nonzero;"/>
                </g>
                <g transform="matrix(2.0669,0,0,1.223,-1270.07,-155.7)">
                    <path d="M641.73,144.3C641.73,144.3 642.03,144.32 641.19,142.66C640.41,141.13 640.33,139.44 640.36,139.19C639.59,142.03 641.73,144.3 641.73,144.3Z" style="fill-rule:nonzero;"/>
                </g>
                <g transform="matrix(2.0669,0,0,1.223,-1270.07,-155.7)">
                    <path d="M640.36,139.18C640.36,139.17 640.37,139.16 640.37,139.14C640.36,139.14 640.36,139.16 640.36,139.18Z" style="fill-rule:nonzero;"/>
                </g>
                <g transform="matrix(2.0669,0,0,1.223,-1270.07,-155.7)">
                    <path d="M642.28,142.96C642.28,142.96 640.78,138.29 642.96,133.62C642.94,133.67 639.54,139 641.76,142.16C641.92,142.96 642.28,142.96 642.28,142.96Z" style="fill-rule:nonzero;"/>
                </g>
                <g transform="matrix(2.0669,0,0,1.223,-1270.07,-155.7)">
                    <path d="M638.75,137.39C640.19,136.61 640.49,134.48 640.58,133.68C639.76,136.94 637.11,137.81 637.11,137.81C637.11,137.81 637.12,138.27 638.75,137.39Z" style="fill-rule:nonzero;"/>
                </g>
                <g transform="matrix(2.0669,0,0,1.223,-1270.07,-155.7)">
                    <path d="M641.15,133.55C641.11,135.67 640.29,136.42 640.29,136.42C641.25,136.09 641.22,134.09 641.84,132.9C642.04,132.52 642.33,132.23 642.58,132.02C642.48,131.92 642.38,131.83 642.28,131.73C641.77,132.04 641.17,132.6 641.15,133.55Z" style="fill-rule:nonzero;"/>
                </g>
                <g transform="matrix(2.0669,0,0,1.223,-1270.07,-155.7)">
                    <path d="M632.25,127.36C632.01,127.34 631.77,127.33 631.53,127.32C631.8,127.52 632.09,127.64 632.37,127.68L632.25,127.36Z" style="fill-rule:nonzero;"/>
                </g>
                <g transform="matrix(2.0669,0,0,1.223,-1270.07,-155.7)">
                    <path d="M616.32,144.38C616.41,144.05 616.7,143.81 617.05,143.78C617.73,143.72 618.88,143.64 619.68,143.67C619.91,143.68 620.03,143.4 619.86,143.24C617.89,141.32 617.02,138.43 616.68,135.62C615.29,138.05 614.48,140.85 614.48,143.85C614.48,146.41 615.06,148.83 616.1,150.99C616.14,150.94 616.17,150.88 616.16,150.8C615.61,147.65 616.05,145.37 616.32,144.38Z" style="fill-rule:nonzero;"/>
                </g>
                <g transform="matrix(2.0669,0,0,1.223,-1270.07,-155.7)">
                    <path d="M632.38,127.68C632.09,127.64 631.81,127.52 631.54,127.32C631.37,127.32 631.21,127.31 631.04,127.31C628.76,127.31 626.6,127.77 624.62,128.6C628.25,128.04 632.48,128.33 636.22,128.14C634.96,127.72 633.63,127.46 632.25,127.36L632.38,127.68Z" style="fill-rule:nonzero;"/>
                </g>
                <g transform="matrix(2.0669,0,0,1.223,-1270.07,-155.7)">
                    <path d="M622.66,151.43C622.21,151.43 621.84,151.8 621.84,152.25C621.84,152.7 622.21,153.07 622.66,153.07C623.11,153.07 623.48,152.7 623.48,152.25C623.48,151.8 623.12,151.43 622.66,151.43Z" style="fill-rule:nonzero;"/>
                </g>
                <g transform="matrix(2.0669,0,0,1.223,-1270.07,-155.7)">
                    <path d="M622.31,150.2C622.31,150.44 622.51,150.64 622.75,150.64C622.99,150.64 623.19,150.44 623.19,150.2C623.19,149.96 622.99,149.76 622.75,149.76C622.51,149.76 622.31,149.96 622.31,150.2Z" style="fill-rule:nonzero;"/>
                </g>
                <g transform="matrix(2.0669,0,0,1.223,-1270.07,-155.7)">
                    <path d="M622.52,149.15C622.65,149.15 622.75,149.05 622.75,148.92C622.75,148.79 622.65,148.69 622.52,148.69C622.39,148.69 622.29,148.79 622.29,148.92C622.29,149.05 622.39,149.15 622.52,149.15Z" style="fill-rule:nonzero;"/>
                </g>
                <g transform="matrix(2.0669,0,0,1.223,-1270.07,-155.7)">
                    <path d="M631.06,160.08C631.3,160.21 631.55,160.31 631.81,160.38C631.91,160.38 632.01,160.37 632.11,160.36C631.75,160.32 631.4,160.24 631.06,160.08Z" style="fill-rule:nonzero;"/>
                </g>
                <g transform="matrix(2.0669,0,0,1.223,-1270.07,-155.7)">
                    <path d="M637.84,158.12C636.58,158.43 635.8,159.49 634.59,159.92C634.41,159.99 634.22,160.06 634.04,160.12C634.64,160.01 635.23,159.87 635.8,159.7C636.5,159.3 637.17,158.8 637.97,158.67C638.14,158.65 638.31,158.64 638.49,158.63C638.89,158.43 639.28,158.22 639.65,157.98C639.05,157.95 638.45,157.98 637.84,158.12Z" style="fill-rule:nonzero;"/>
                </g>
                <g transform="matrix(2.0669,0,0,1.223,-1270.07,-155.7)">
                    <path d="M638.62,155.78C637.48,156.08 636.61,156.85 635.56,157.32C634.56,157.78 633.48,158.24 632.35,158.09C634.62,158.55 636.7,156.79 638.73,156.3C639.67,156.12 640.52,156.37 641.24,156.86C641.46,156.68 641.68,156.5 641.89,156.32C640.94,155.7 639.71,155.46 638.62,155.78Z" style="fill-rule:nonzero;"/>
                </g>
                <g transform="matrix(2.0669,0,0,1.223,-1270.07,-155.7)">
                    <path d="M638.21,154.56C637.13,154.53 636.01,154.17 635.24,153.35C635.94,154.23 637.07,154.68 638.19,154.79C639.26,154.93 640.4,154.47 641.41,154.93C641.84,155.13 642.21,155.42 642.52,155.75C642.66,155.62 642.79,155.48 642.92,155.35C642.53,154.98 642.09,154.68 641.57,154.5C640.46,154.07 639.34,154.61 638.21,154.56Z" style="fill-rule:nonzero;"/>
                </g>
                <g transform="matrix(2.0669,0,0,1.223,-1270.07,-155.7)">
                    <path d="M632.92,155.45C632.55,155.72 632.39,156.14 632.26,156.54C632.57,155.69 633.23,155.13 634.13,155.64C634.9,156.07 635.89,156.15 636.72,155.76C636.97,155.65 636.78,155.26 636.54,155.39C636.21,155.57 635.79,155.67 635.4,155.68C635,155.69 634.63,155.57 634.22,155.42C633.82,155.27 633.3,155.17 632.92,155.45Z" style="fill-rule:nonzero;"/>
                </g>
        </g>
    </g>
</svg>
