<svg xmlns="http://www.w3.org/2000/svg" version="1.1" xmlns:xlink="http://www.w3.org/1999/xlink" xmlns:svgjs="http://svgjs.dev/svgjs" viewBox="0 0 800 800" opacity="1"><defs><linearGradient x1="50%" y1="0%" x2="50%" y2="100%" id="gggyrate-grad"><stop stop-color="hsl(227, 100%, 52%)" stop-opacity="1" offset="0%"></stop><stop stop-color="hsl(170, 58%, 38%)" stop-opacity="1" offset="100%"></stop></linearGradient></defs><g stroke-width="10" stroke="url(#gggyrate-grad)" fill="none"><polygon points="400,-230 -440,1030 1240,1030" transform="rotate(0, 400, 400)" opacity="0.05"></polygon><polygon points="400,-207.5 -410,1007.5 1210,1007.5" transform="rotate(0, 400, 400)" opacity="0.09"></polygon><polygon points="400,-185 -380,985 1180,985" transform="rotate(0, 400, 400)" opacity="0.12"></polygon><polygon points="400,-162.5 -350,962.5 1150,962.5" transform="rotate(0, 400, 400)" opacity="0.16"></polygon><polygon points="400,-140 -320,940 1120,940" transform="rotate(0, 400, 400)" opacity="0.19"></polygon><polygon points="400,-117.5 -290,917.5 1090,917.5" transform="rotate(0, 400, 400)" opacity="0.23"></polygon><polygon points="400,-95 -260,895 1060,895" transform="rotate(0, 400, 400)" opacity="0.26"></polygon><polygon points="400,-72.5 -230,872.5 1030,872.5" transform="rotate(0, 400, 400)" opacity="0.30"></polygon><polygon points="400,-50 -200,850 1000,850" transform="rotate(0, 400, 400)" opacity="0.33"></polygon><polygon points="400,-27.5 -170,827.5 970,827.5" transform="rotate(0, 400, 400)" opacity="0.37"></polygon><polygon points="400,-5 -140,805 940,805" transform="rotate(0, 400, 400)" opacity="0.40"></polygon><polygon points="400,17.5 -110,782.5 910,782.5" transform="rotate(0, 400, 400)" opacity="0.44"></polygon><polygon points="400,40 -80,760 880,760" transform="rotate(0, 400, 400)" opacity="0.47"></polygon><polygon points="400,62.5 -50,737.5 850,737.5" transform="rotate(0, 400, 400)" opacity="0.51"></polygon><polygon points="400,85 -20,715 820,715" transform="rotate(0, 400, 400)" opacity="0.54"></polygon><polygon points="400,107.5 10,692.5 790,692.5" transform="rotate(0, 400, 400)" opacity="0.58"></polygon><polygon points="400,130 40,670 760,670" transform="rotate(0, 400, 400)" opacity="0.61"></polygon><polygon points="400,152.5 70,647.5 730,647.5" transform="rotate(0, 400, 400)" opacity="0.65"></polygon><polygon points="400,175 100,625 700,625" transform="rotate(0, 400, 400)" opacity="0.68"></polygon><polygon points="400,197.5 130,602.5 670,602.5" transform="rotate(0, 400, 400)" opacity="0.72"></polygon><polygon points="400,220 160,580 640,580" transform="rotate(0, 400, 400)" opacity="0.75"></polygon><polygon points="400,242.5 190,557.5 610,557.5" transform="rotate(0, 400, 400)" opacity="0.79"></polygon><polygon points="400,265 220,535 580,535" transform="rotate(0, 400, 400)" opacity="0.82"></polygon><polygon points="400,287.5 250,512.5 550,512.5" transform="rotate(0, 400, 400)" opacity="0.86"></polygon><polygon points="400,310 280,490 520,490" transform="rotate(0, 400, 400)" opacity="0.89"></polygon><polygon points="400,332.5 310,467.5 490,467.5" transform="rotate(0, 400, 400)" opacity="0.93"></polygon><polygon points="400,355 340,445 460,445" transform="rotate(0, 400, 400)" opacity="0.96"></polygon><polygon points="400,377.5 370,422.5 430,422.5" transform="rotate(0, 400, 400)" opacity="1.00"></polygon></g></svg>