<svg xmlns="http://www.w3.org/2000/svg" width="24" height="24" viewBox="0 0 24 24">
  <title>grid-list-2</title>
  <g fill="currentColor"><path fill-rule="evenodd" clip-rule="evenodd" d="M14 4H23V6H14V4Z" fill="currentColor"></path> <path fill-rule="evenodd" clip-rule="evenodd" d="M14 14H23V16H14V14Z" fill="currentColor"></path> <path fill-rule="evenodd" clip-rule="evenodd" d="M14 8H18V10H14V8Z" fill="currentColor"></path> <path fill-rule="evenodd" clip-rule="evenodd" d="M14 18H18V20H14V18Z" fill="currentColor"></path> <path fill-rule="evenodd" clip-rule="evenodd" d="M2 15C2 13.8954 2.89543 13 4 13H9C10.1046 13 11 13.8954 11 15V20C11 21.1046 10.1046 22 9 22H4C2.89543 22 2 21.1046 2 20V15Z" fill="currentColor"></path> <path fill-rule="evenodd" clip-rule="evenodd" d="M2 4C2 2.89543 2.89543 2 4 2H9C10.1046 2 11 2.89543 11 4V9C11 10.1046 10.1046 11 9 11H4C2.89543 11 2 10.1046 2 9V4Z" fill="currentColor"></path></g>
</svg>