<svg version="1.1" id="BA" xmlns="http://www.w3.org/2000/svg" x="0" y="0" viewBox="0 0 250 250" xml:space="preserve"><style>.st0{fill:#fff}</style><path class="st0" d="M4 138.4c.5-.3.8-1 .8-1.5v-13.6c0-.5-.2-1.2-.8-1.5h6.5c2.9 0 5.7 1.2 5.7 4.5 0 1.7-1.5 3.1-3.2 3.4 2.3 0 4.7 1.4 4.7 4 0 3.7-3.9 4.7-6.7 4.7H4zm5.3-15.2c-.3 0-.5 0-1.1.1v5.8h.7c2 0 3.9-.6 3.9-2.9 0-2.4-1.6-3-3.5-3zm.4 7.3c-.5 0-.9 0-1.5.1v6.1c.7.1 1.5.2 2.2.2 1.6 0 3.4-.8 3.4-3.3-.1-2.5-2-3.1-4.1-3.1zm14.4-7.3c-.3 0-.5.1-.8.1v5.8c.3 0 .5.1.8.1 1.9 0 3.2-1 3.2-3.1 0-2.2-1.3-2.9-3.2-2.9zm8.4 15.2c-.6 0-1.3 0-1.9-.1-1.1-.3-2.7-2.9-3.3-3.8-1-1.6-1.8-3.8-4-3.9v6.3c0 .5.3 1.2.8 1.5h-4.9c.5-.3.8-.9.8-1.5v-13.6c0-.5-.3-1.2-.8-1.5h6c2.6 0 5.9 1 5.9 4.1 0 2.6-2.2 4-4.6 4 3.4 0 5.5 8.1 9.3 8.2-1.2.2-2.3.3-3.3.3zm3.4 0c.4-.2.8-.8.8-1.5v-13.6c0-.8-.4-1.3-.8-1.5H41c-.4.2-.8.8-.8 1.5v13.6c0 .8.4 1.3.8 1.5h-5.1zm11 0c.5-.3.8-.9.8-1.5v-13.2h-3.6c-.8 0-1.9.1-2.6.5l1.2-2.5h12.1c1 0 2 0 2.9-.2-.5 1.2-1.9 2.2-2.6 2.2-1 0-2.5-.1-3.9-.1v13.2c0 .5.3 1.2.8 1.5l-5.1.1zm11.4 0c.4-.2.8-.8.8-1.5v-13.6c0-.8-.4-1.3-.8-1.5h5.1c-.4.2-.8.8-.8 1.5v13.6c0 .8.4 1.3.8 1.5h-5.1zm15.1-3.8c0-3.2-7.4-3.8-7.4-8.9 0-3.2 2.9-4.1 5.6-4.1 1.2 0 2.9.1 3.9.6l.2 3.1c-.7-1.4-2.3-2.3-3.8-2.3-1.2 0-2.5.6-2.5 2 0 3.3 7.5 4 7.5 8.8 0 3.5-3 4.9-6.1 4.9-1.6 0-3.8-.3-5.1-1.2-.1-.5-.1-1.2-.1-1.7 0-.7.1-1.4.1-2.1.8 1.9 2.6 3.4 4.7 3.4 1.8 0 3-.7 3-2.5zm15.9 3.8c.3-.1.8-.8.8-1.5v-6.2c-.9-.1-2.1-.1-3.5-.1s-2.7.1-3.6.1v6.2c0 .8.3 1.3.8 1.5h-4.9c.3-.1.8-.8.8-1.5v-13.6c0-.8-.4-1.3-.8-1.5h4.9c-.3.2-.8.8-.8 1.5v5.6c.9.1 2.1.1 3.6.1 1.4 0 2.6-.1 3.5-.1v-5.6c0-.8-.4-1.3-.8-1.5h4.9c-.3.2-.8.8-.8 1.5v13.6c0 .8.3 1.3.8 1.5h-4.9zM112.5 138.4c.1-.1.3-.3.3-.5 0-.1-.1-.3-.1-.5 0 0-1.4-3.7-1.5-4.1-1-.1-2.1-.1-3.2-.1-1 0-2 0-2.9.1-.1.3-1.6 4-1.6 4-.2.5-.3.7-.3.8 0 .3.2.3.4.5h-3.4c.5-.3.9-.8 1.1-1.3l5.5-14.1v-.2c0-.4-.3-.8-.6-1h4.3l5.6 15.3c.2.6.7 1 1.1 1.3l-4.7-.2zm-4.4-13.5l-2.5 6.4c.8.1 1.5.1 2.3.1.9 0 1.7 0 2.6-.1l-2.4-6.4zm10 13.5c.4-.2.8-.8.8-1.5v-13.6c0-.8-.4-1.3-.8-1.5h5.1c-.4.2-.8.8-.8 1.5v13.6c0 .8.4 1.3.8 1.5h-5.1zm12.8-15.2c-.3 0-.5.1-.8.1v5.8c.3 0 .5.1.8.1 1.9 0 3.2-1 3.2-3.1 0-2.2-1.3-2.9-3.2-2.9zm8.8 15.2c-.6 0-1.3 0-1.9-.1-1.1-.3-2.7-2.9-3.3-3.8-1-1.6-2.2-3.9-4.4-3.9v6.3c0 .5.3 1.2.8 1.5h-5c.5-.3.8-.9.8-1.5v-13.6c0-.5-.3-1.2-.8-1.5h6c2.6 0 5.8 1 5.8 4.1 0 2.6-2.4 4-4.2 4 3.6.2 5.8 8.2 9.3 8.2-1 .2-2 .3-3.1.3zm20.7-15.1l-5 15c-.4 0-.8-.1-1-.3-.5-.5-1.3-2.5-1.6-3.2l-2.3-5.8-3.3 9.3h-1.6l-5.6-15c-.3-.6-.7-1.2-1.3-1.6h4.9c-.2.1-.3.3-.3.7 0 .1.1.4.1.5l3.7 9.9 3.9-11.2 4.3 10.8 3.3-9.7c.1-.3.1-.3.1-.5s-.1-.3-.3-.5h3.2c-.6.3-1 1-1.2 1.6zm6 1.6l-2.5 6.4c.8.1 1.5.1 2.3.1.9 0 1.7 0 2.5-.1l-2.3-6.4zm4.4 13.5c.1-.1.3-.3.3-.5 0-.1-.1-.3-.1-.5 0 0-1.4-3.7-1.5-4.1-1-.1-2.1-.1-3.2-.1-1 0-2 0-2.9.1-.1.3-1.6 4-1.6 4-.2.5-.3.7-.3.8 0 .3.2.3.4.5h-3.4c.5-.3.9-.8 1.1-1.3l5.5-14.1v-.2c0-.4-.3-.8-.6-1h4.3l5.6 15.3c.2.6.8 1 1.1 1.3l-4.7-.2zm14.9-14.9l-3.9 6.9v6.4c0 .5.2 1.2.8 1.5h-4.9c.5-.3.8-1 .8-1.5v-6.5l-3.4-5.5c-.3-.5-1.7-2.9-3.5-2.9.5-.2 1.9-.5 2.9-.5 1.6 0 2.4.1 3.4 1.7l3.2 5c.3-.5 2.7-4.9 2.7-4.9.3-.5.5-.9.5-1.1s-.1-.4-.3-.5h3.5c-.8.5-1.4 1.3-1.8 1.9zm9.2 11.1c0-3.2-7.4-3.8-7.4-8.9 0-3.2 2.9-4.1 5.6-4.1 1.2 0 2.8.1 3.9.6l.2 3.1c-.7-1.4-2.3-2.3-3.8-2.3-1.2 0-2.5.6-2.5 2 0 3.3 7.5 4 7.5 8.8 0 3.5-3 4.9-6.1 4.9-1.6 0-3.8-.3-5.1-1.2-.1-.5-.1-1.2-.1-1.7 0-.7.1-1.4.1-2.1.8 1.9 2.6 3.4 4.7 3.4 1.8 0 3-.7 3-2.5z"/><g><path id="SVGID_1_" class="st0" d="M240.7 110.2c-2.8 2.7-8.8 5.1-11.8 6.2-4 1.5-5.8 2.1-8.2 2.8-2.5.8-7.7 2.4-7.7 2.4 10.6 3.2 18.2 4.1 18.2 4.1s3.5-1.1 9.1-4c3-1.5 4.5-2.5 5.6-3.6.4-.3 1.4-1.4 1.6-2.7 0-.1.1-.3.1-.6v-.3c0-.2-.1-.3-.1-.3s-.1-.3-.1-.5c-.1-.2-.4-.9-1-1.4-.3-.3-1-1-3.4-1.9-.8-.3-2.1-.5-2.1-.5l-.2.3z"/><path id="SVGID_3_" class="st0" d="M247.5 114.8s0-.3-.1-.5-.1-.4-.3-.7c-.2-.3-.4-.5-.8-1-.3-.3-.5-.5-1-.8-1.4-1-3.4-1.5-5-1.7-2.6-.3-5.6-.3-5.8-.3-1 0-7.1.1-8.6.1-7 .1-15.6.1-17.8.1-23.2.1-33.3-.4-44.5-2.7-9.6-1.8-14.9-3.6-14.9-3.6 8.4-.3 57.6-2.3 66.5-2.5 5.9-.1 10-.2 13.4 0 1.7.1 3.3.3 5.3.5 1.8.3 3.4.8 4.4 1.2 2 .8 3.7 1.8 4.5 2.9 0 0 .3.3.5.7.3.5.8 1.2 1 1.4 1.2 1.9 1.8 3 2 3.4s.4.9.6 1.3.3.7.3.9c.1.5.1.9.1 1l.2.3z"/></g></svg>