<svg version="1.1" id="BBC" xmlns="http://www.w3.org/2000/svg" x="0" y="0" viewBox="0 0 250 250" xml:space="preserve"><style>.st0{fill:#fff}</style><path class="st0" d="M132.6 135.4s.2-4.6-6.6-4.6h-6.6v9.6h6.6s6.6.3 6.6-5zM129.4 120.4s.2-3.9-5-4.2h-5v9.1h4.3s5.7-.1 5.7-4.9zM39.9 152.7h51.8v-48.8H39.9v48.8zm13.6-41.9h12.3c11.1 1 10.4 9.4 10.4 9.4 0 5.1-4.5 7-4.5 7 7.9 2 7.7 8.8 7.7 8.8 0 9.9-11.8 9.9-11.8 9.9H53.5v-35.1z"/><path class="st0" d="M99.6 152.7h51.8v-48.8H99.6v48.8zm13.5-41.9h12.3c11.1 1 10.4 9.4 10.4 9.4 0 5.1-4.5 7-4.5 7 7.9 2 7.7 8.8 7.7 8.8 0 9.9-11.8 9.9-11.8 9.9h-14.1v-35.1zM159.2 103.9v48.8H211v-48.8h-51.8zm41.6 39.1s-10.6 6.3-23 1.5c0 0-10.4-3.8-10.8-16.2 0 0-.4-12.8 13.4-17 0 0 3.7-1.4 10.3-.8 0 0 4 .4 9.7 2.8v6.5s-6.3-3.9-13.3-4c0 0-13-.3-13.6 12.5 0 0-.5 11.7 13.5 12.4 0 0 5.8.7 13.8-4.4v6.7zM69.8 120.4s.2-3.9-5-4.2h-5v9.1H64s5.8-.1 5.8-4.9zM72.9 135.4s.2-4.6-6.6-4.6h-6.6v9.6h6.6s6.6.3 6.6-5z"/></svg>