<svg version="1.1" id="BDO" xmlns="http://www.w3.org/2000/svg" x="0" y="0" viewBox="0 0 250 250" xml:space="preserve"><style>.st2{fill:#fff}</style><g id="Artwork"><path d="M62.5 145.5z" fill="none"/><path d="M109.9 145.5z" fill="#27348b"/><path class="st2" d="M72.6 122.7h6c9.8 0 14.8 2.1 14.8 7.9 0 5.1-4 7.3-10.3 7.3h-9.6l-11 7.7h20.4c12.2 0 20.5-4.4 20.5-14.6 0-8.9-7.3-12.3-13.8-12.3 4.5 0 9.8-4.1 9.8-10.8.1-6.9-6.2-11.8-13.3-11.8H60.7l1.8 4.1v42l10-7 .1-12.5zm0-19H83c2.9 0 6.5.7 6.5 5.6 0 4.9-5.2 6.9-9.1 6.9h-7.9v-12.5zM119.9 103.7h6.8c2.8 0 17.1.7 17.1 17.1 0 18.7-17.1 17.1-17.1 17.1h-5.9l-11 7.7h19.6c12.2 0 24.8-7.5 24.8-24.8 0-15.3-11-24.8-24.8-24.8H108l1.8 4.1v42l10-7.1v-31.3zM159 120.7c0 19.8 16 25.3 26.3 25.3 10.4 0 26.3-5.6 26.3-25.3s-16-25.3-26.3-25.3c-10.4 0-26.3 5.6-26.3 25.3zm10.4 0c0-14 9.7-18 15.9-18s15.9 3.9 15.9 18-9.7 18-15.9 18c-6.3 0-15.9-3.9-15.9-18z"/><g><path class="st2" d="M40 96v61.8l9.8-6.9V96zM51.6 153.2L40 161.3h171.1v-8.1z"/></g></g></svg>