<svg version="1.1" id="Channel_x5F_4" xmlns="http://www.w3.org/2000/svg" x="0" y="0" viewBox="0 0 250 250" xml:space="preserve"><style>.st0{fill:#fff}</style><path class="st0" d="M151.9 165.2v4.4h-11.2V90.8l11.2-14.6-2.8-2.2-8.3 10.7V66.5l2.3-3-10.5-8.2-2.4 3V66l-3.7-2.9-11.2 14.3V85l-3.7-2.9-32.2 41.2 4.8 3.7h-7.7v11.2l10.5 8.2v-11.2h50v11.2h-21.6V168l-3.7-2.9h-11.2v11.2l10.5 8.2v-11.2h11.2v8.3l3.7 2.9v-34.3H137v31.4l3.7 2.9v-11.2h25l-10.5-8.2h-3.3m-29.8-56.6l-6.7 8.7v6.3l4.8 3.7h-12.6l-3.5 4.4H89.9l32.2-41.3v18.2zm14.9 23.1h-11.2v-46L137 71.2v60.4z"/><path class="st0" d="M151.9 143.6l3.7 2.9v-11.2h17.6l-10.5-8.2h-10.8v16.5"/></svg>