<svg version="1.1" id="Cisco" xmlns="http://www.w3.org/2000/svg" x="0" y="0" viewBox="0 0 250 250" xml:space="preserve"><style>.st0{fill:#fff}</style><path class="st0" d="M140 161h1v19h-1zM150 157h-2.2l-.1 4H145v2h3v12.8c0 1.4.2 2.5.9 3.2.7.7 1.6 1.1 2.9 1.1.8 0 1.1-.1 2.1-.4v-1.6c0 .1-.8.2-1.1.2-.3 0-.6.1-.9.1-.8 0-1.1-.2-1.6-.6-.4-.4-.4-1.1-.4-2V163h4v-2h-4v-4zM139 154h3v3h-3zM132.9 162.9c-.7-.8-1.5-1.4-2.5-1.8-.9-.4-2-.6-3.1-.6-1.6 0-2.9.4-4 1.1-1.1.7-2.2 1.7-2.7 2.9l-.6-3.5h-1v25h2v-9.8c0 1.1 1.3 2.1 2.3 2.8 1.1.7 2.3 1.1 3.8 1.1 1.1 0 2.2-.2 3.1-.6 1-.4 1.8-1.1 2.5-1.9.7-.8 1.3-1.9 1.7-3.1.4-1.2.6-2.7.6-4.3 0-1.6-.2-3-.6-4.2-.2-1.3-.8-2.3-1.5-3.1zm-.3 10.9c-.3 1.1-.8 1.9-1.3 2.6-.6.7-1.2 1.2-2 1.5-.8.3-1.6.5-2.5.5-.9 0-1.7-.2-2.5-.5-.7-.3-1.4-.9-1.9-1.5-.5-.7-1-1.5-1.3-2.5-.3-1-.5-2.2-.5-3.6 0-1.5.2-2.7.5-3.8.4-1 .8-1.9 1.4-2.5.6-.7 1.3-1.1 2-1.4.7-.3 1.5-.4 2.3-.4.9 0 1.7.2 2.5.5s1.4.8 2 1.4c.6.7 1 1.5 1.3 2.5s.5 2.2.5 3.5c0 1.3-.2 2.6-.5 3.7zM78.3 158.1c.8-1 1.8-1.7 3-2.3 1.2-.5 2.4-.8 3.8-.8 2.2 0 4.1.7 5.6 1.8s2.5 2.1 2.9 5.1h2c-.2-2-.6-2.6-1.2-3.6s-1.4-2-2.3-2.7c-.9-.7-2-1.3-3.2-1.7-1.2-.4-2.5-.6-3.9-.6-1.6 0-3.2.3-4.6.9-1.4.6-2.6 1.5-3.7 2.6-1 1.1-1.8 2.6-2.4 4.2-.6 1.7-.9 3.6-.9 5.8 0 2 .3 3.8.8 5.4.6 1.6 1.3 3 2.3 4.1 1 1.1 2.2 2 3.7 2.6s3 .9 4.7.9c1.5 0 2.9-.2 4.1-.7 1.2-.5 2.3-1.1 3.2-1.9.9-.8 1.6-1.8 2.2-2.9.5-1.1.9-2.5 1-3.5h-2c-.1 1-.4 2.2-.9 3.1-.5.9-1.1 1.7-1.8 2.3-.7.6-1.6 1.1-2.6 1.4-1 .3-2 .5-3.2.5-1.4 0-2.6-.3-3.8-.8-1.2-.5-2.2-1.3-3-2.2s-1.5-2.2-2-3.6-.7-3-.7-4.8c0-1.9.2-3.6.7-5.1.7-1.2 1.4-2.5 2.2-3.5zM111.7 162.1c-.6-.5-1.3-.9-2.2-1.2-.9-.3-1.8-.4-2.8-.4-1 0-2 .1-2.8.4s-1.6.6-2.2 1.1c-.6.5-1.1 1.1-1.5 1.8-.4.7-.6 1.3-.7 2.3h2c.1-1 .6-2.1 1.5-2.8s2.1-1.1 3.6-1.1c1.6 0 3 .4 3.9 1.1.9.8 1.5 1.8 1.5 3.1v1.6l-5.7.9c-1.3.2-2.5.5-3.4.8-.9.3-1.7.8-2.3 1.3s-1 1.1-1.3 1.7c-.3.6-.4 1.4-.4 2.1 0 .8.1 1.6.5 2.2.3.6.7 1.2 1.3 1.6.5.5 1.2.8 2 1 .8.2 1.6.4 2.5.4.8 0 1.6-.1 2.3-.3.7-.2 1.3-.5 1.8-.8.5-.3 1-.7 1.4-1.2.4-.4.8-.7 1-1.1l.3 3.3h2v-13.4c0-.9-.4-1.8-.7-2.5-.4-.7-1-1.4-1.6-1.9zm.3 10.8c0 .8-.4 1.6-.7 2.2-.3.7-.9 1.3-1.5 1.7-.6.5-1.3.9-2 1.1-.7.3-1.5.4-2.2.4-1.4 0-2.5-.3-3.4-.9-.9-.6-1.3-1.6-1.3-2.8 0-.5.1-1 .3-1.5.2-.5.5-.9.9-1.2.4-.4 1-.7 1.7-.9.7-.3 1.8-.5 2.9-.7l5.2-.9v3.5zM177 154h1v26h-1zM169.3 162.1c-.6-.5-1.3-.9-2.2-1.2s-1.8-.4-2.8-.4c-1 0-2 .1-2.8.4s-1.6.6-2.2 1.1c-.6.5-1.1 1.1-1.5 1.8-.4.7-.6 1.3-.7 2.3h2c.1-1 .6-2.1 1.5-2.8s2.1-1.1 3.6-1.1c1.6 0 2.7.4 3.6 1.1.9.8 1.2 1.8 1.2 3.1v1.6l-5.4.9c-1.3.2-2.3.5-3.2.8-.9.3-1.6.8-2.2 1.3-.6.5-1 1.1-1.2 1.7-.3.6-.4 1.4-.4 2.1 0 .8.2 1.6.5 2.2.3.6.7 1.2 1.3 1.6.5.5 1.2.8 2 1 .8.2 1.6.4 2.5.4.8 0 1.6-.1 2.3-.3.7-.2 1.3-.5 1.8-.8.5-.3 1-.7 1.4-1.2.4-.4.8-.7 1-1.1l.3 3.3h1.3v-13.4c0-.9-.1-1.8-.4-2.5-.3-.7-.7-1.4-1.3-1.9zm-.3 10.8c0 .8 0 1.6-.4 2.2-.3.7-.7 1.3-1.3 1.7-.6.5-1.2.9-1.9 1.1-.7.3-1.4.4-2.2.4-1.4 0-2.5-.3-3.4-.9-.9-.6-1.3-1.6-1.3-2.8 0-.5.1-1 .3-1.5.2-.5.5-.9.9-1.2.4-.4 1-.7 1.7-.9.7-.3 1.5-.5 2.6-.7l4.8-.9v3.5zM93 110h7v27h-7zM148 109.9c-8.3 0-14.2 5.9-14.2 13.9 0 8.7 6.5 13.9 14.2 13.9 3 0 5-.7 6-1v-7.2c0 .2-2.4 1.4-5.6 1.4-4.5 0-7.3-3.2-7.3-7.2 0-4.1 2.9-7.2 7.3-7.2 3.2 0 5.6 1.3 5.6 1.4v-7.2s-2.9-.8-6-.8zM84 136.8v-7.2c-1 .2-2.7 1.4-5.9 1.4-4.5 0-7.5-3.2-7.5-7.2 0-4.1 3.2-7.2 7.6-7.2 3.2 0 4.9 1.3 5.9 1.4v-7.2c-1-.2-3.2-1-6.4-1-8.2 0-14.4 5.9-14.4 13.9 0 8.7 6.9 13.9 14.5 13.9 2.9.1 5.2-.6 6.2-.8zM175.6 109.9c-8.3 0-14.2 6.2-14.2 13.9s5.9 13.9 14.2 13.9c8.3 0 14.2-6.2 14.2-13.9 0-7.6-5.9-13.9-14.2-13.9zm0 21c-4 0-7-3.2-7-7.1 0-3.9 3-7.1 7-7.1s7 3.2 7 7.1c0 3.9-3 7.1-7 7.1zM127.2 128.7c0-3.3-2-6.3-6.4-7.7l-1.9-.6c-1.1-.4-3.1-.9-3.1-2.6 0-1.3 1.5-2 4.2-2 1.9 0 4.1 0 5 .6v-5.7c0-.1-3.1-.9-6.4-.9-6.3 0-9.9 3.4-9.9 8.4 0 4.4 3.2 6.7 7 7.9.4.1 1.1.3 1.5.5 1.7.5 3 1.3 3 2.7 0 1.5-1.4 2.5-4.8 2.5-3 0-6.3-.8-6.3-1v6.2c0 .1 3.6.7 7.2.7 5.1 0 10.9-2.2 10.9-9z"/><path class="st0" d="M125.3 117c0-.2-.1-.4-.3-.5v.5h.3zM52.5 78.2c-1.8 0-3.5 1.5-3.5 3.4v7.1c0 1.9 1.6 3.4 3.5 3.4s3.5-1.5 3.5-3.4v-7.1c0-1.9-1.6-3.4-3.5-3.4zM71 91.9c1.9 0 3-1.5 3-3.4V72.3c0-1.8-1.1-3.4-3-3.4s-3 1.5-3 3.4v16.3c0 1.8 1.1 3.3 3 3.3zM89.5 98.6c1.9 0 3.5-1.5 3.5-3.4V59.6c0-1.8-1.6-3.4-3.5-3.4S86 57.7 86 59.6v35.7c0 1.8 1.6 3.3 3.5 3.3zM108 91.9c1.9 0 3-1.5 3-3.4V72.3c0-1.8-1.1-3.4-3-3.4s-3 1.5-3 3.4v16.3c0 1.8 1.1 3.3 3 3.3zM126.5 91.9c1.8 0 3.5-1.5 3.5-3.4v-7.1c0-1.9-1.6-3.4-3.5-3.4s-3.5 1.5-3.5 3.4v7.1c0 1.9 1.7 3.4 3.5 3.4zM145 91.9c1.9 0 3-1.5 3-3.4V72.3c0-1.9-1.1-3.4-3-3.4-1.8 0-3 1.5-3 3.4v16.3c0 1.8 1.2 3.3 3 3.3zM163.5 98.6c1.9 0 3.5-1.5 3.5-3.4V59.6c0-1.8-1.6-3.4-3.5-3.4s-3.5 1.5-3.5 3.4v35.7c0 1.8 1.6 3.3 3.5 3.3zM182 91.9c1.9 0 3-1.5 3-3.4V72.3c0-1.9-1.1-3.4-3-3.4s-3 1.5-3 3.4v16.3c0 1.8 1.1 3.3 3 3.3zM200.5 78.2c-1.9 0-3.5 1.5-3.5 3.4v7.1c0 1.9 1.6 3.4 3.5 3.4 1.8 0 3.5-1.5 3.5-3.4v-7.1c0-1.9-1.6-3.4-3.5-3.4zM198 134h1v3h-1zM201 134h-1v3h1v-1.9l.7 1.9h.2l-.9-2.6zM203 134l-1.1 3h.2l.9-2.4v2.4h1v-3h-.8z"/></svg>