<svg version="1.1" id="Clinique" xmlns="http://www.w3.org/2000/svg" x="0" y="0" viewBox="0 0 250 250" xml:space="preserve"><style>.st0{fill:#fff}</style><path class="st0" d="M187.2 172.4c0 2.7-1.3 3.7-1.3 3.7h14.4c2.3 0 2.3-1.8 2.3-1.8l.3-2c-1.8 2.8-5.7 2.3-6.7 2.2l-5.1-.5v-10.3H202v-2h-10.9v-9l6.9-.8c4.1-.5 4.7 1.6 4.7 1.6v-3.6c-5.5.7-16.2.5-16.2.5.9 3.3.8 7.2.8 7.2l-.1 14.8zM161.5 150.1c1 2.1.9 4.4.9 4.4v14.2c0 2-.6 8.2 10.1 8.2s9.9-8 9.9-8v-15c0-2.1.4-3.8.4-3.8h-4.4c1.8 1.3 1.6 4.3 1.6 4.3v12.3c0 3.2-1.1 8.4-7.2 8.4s-6-5.3-6-5.3v-19.7h-5.3zM159.2 163c0-7.4-3.4-13.5-13.1-13.5-9.6 0-13.1 6.1-13.1 13.5 0 7.2 3.1 13.2 12.2 13.5 4.1 1.2 5.8 3.2 8 4.1 2.6 1.1 5 .9 5 .9v-1.2c-2.4 0-3.3-1.6-5-3-1-.8-2.7-1.2-4-1.3 5.8-1.3 10-6.7 10-13zm-12.9 12c-6.1 0-8.9-5.3-8.9-11.8 0-6.5 2.5-11.8 8.9-11.8s8.9 5.3 8.9 11.8c0 6.5-2.8 11.8-8.9 11.8zM117.1 168.3l-13.5-18.4h-5.3c1 1.8 1 3.6 1 3.6v22.2h3.4c-1.8-1.5-1.3-4.3-1.3-4.3l1-15.5 14.9 19.8h2.8V150h-3.5c2.1 1.2 1.6 3.4 1.6 3.4l-1.1 14.9zM129.7 159.1c0-5 .8-9 .8-9H125c1.1 4.1.7 10.2.7 10.2v10.6c0 2.7-.3 5.1-.3 5.1h4.6c-.3-.8-.3-4.3-.3-4.3v-12.6zM94.3 159.1c0-5 .8-9 .8-9h-5.5c1.1 4.1.7 10.2.7 10.2v10.6c0 2.7-.4 5.1-.4 5.1h4.6c-.3-.8-.3-4.3-.3-4.3l.1-12.6zM77.1 150.3H72c.8 3.1.7 7.1.7 7.1v11.5c0 3.8-.5 6.9-.5 6.9h14.2c1.2-1.5 1.4-4.1 1.4-4.1-1.1 1.7-2.3 2.7-5.4 2.7-3.1 0-5.6-.7-5.6-.7v-12.4c-.1-2.6.3-11 .3-11zM61.4 151.4c5 0 7 2.3 7 2.3v-3c-2.6-1.2-7.2-1.2-7.2-1.2-2.3 0-13.7-.5-13.7 13.7s12.3 13.4 14 13.4c1.7 0 4.8-.6 4.8-.6 3.2-1.2 2.6-4.8 2.6-4.8s-2.1 3.8-7.5 3.8c-5.3 0-9.8-3.9-9.8-11.9.1-8.1 4.8-11.7 9.8-11.7zM48 183.8h155.2v1H48zM48 142.8h155.2v1H48zM125.6 137.1c16.7 0 20.1-5.2 20.1-11.8V96h-18v33.2c0 2.6-2.1 2.4-2.1 2.4-1.7 0-1.5-2.6-1.5-2.6V58.5c0-.9 0-2.3 1.9-2.3s1.7 2 1.7 2v34.6h18V64c0-5.2 0-12.8-19.7-12.8-19.9 0-19.9 8.2-19.9 12.7v63c0 7.3 6.6 10.3 19.5 10.2z"/></svg>