<svg version="1.1" id="Disney" xmlns="http://www.w3.org/2000/svg" x="0" y="0" viewBox="0 0 250 250" xml:space="preserve"><style>.st0{fill:#fff}</style><path class="st0" d="M55.3 124.3c-7.2.5-16.4 1.9-16.3 4.4.1 2.6 6.9 7.7 15.8 11 .3-5.4.4-11.1.5-15.4zM29 97.2c-2.4.1-4.2-1-4.2-2.4 0-1.1 2.3-4.4 3.7-4.9 1-.4 5.7-2.1 13.5-2.4 2.9-.1 7.8.3 12 .9 24.2 3.6 49.6 22.1 50.1 38.4.3 11.1-9.3 21.6-28.1 22.2-5 .2-9.5-.4-13.7-1.6-.1 2.7.1 4.2-3.8 4.3-2.4.1-3.3-3.8-3.7-6.9-11.3-5-18.2-13.2-18.3-16.4-.1-4.8 8.6-8.8 18.8-10.4.2-4 .8-14.1 2.9-14.2.8 0 2.6 1.9 3.3 4.9.6 2.7.7 7.7.7 8.6h.8c14.3-.4 22.9 4.1 23.1 9.4.1 4.1-3.5 6.2-5.4 6.3-1.9.1-4.2-1-4.2-1.6 0-1.1 4.1-1.4 4-3.2-.1-2.8-11.5-4-18.5-4v7.2c.1 1.9.2 6.7.2 10.7 3.2.7 6.5 1 9.7.9 7.6-.2 24.9-3 24.5-16-.6-18.3-36.5-35-55.7-34.4-7.6.2-12.1 1-12.1 1.8 0 .5 3.7.7 3.7 1.7.1.9-2 1.1-3.3 1.1zM109.6 117c1.2 0 3 2.9 3.1 4.8.1 1.8.5 11.6.6 14.3.1 2.8 0 5.5-.1 6.7-.2 1.2-.6 1.9-2.8 1.9-2.1.1-3.1-1.2-3.3-3.1-.2-1.9-.4-7.2-.3-9.8.1-2.7.2-7.8.6-11 .3-3.1 1.2-3.7 2.2-3.8zM121.9 95.3c-.4-.9-1.5-2.7-5.8-2.5-9.2.3-16.3 7.1-16.1 12.5.1 1.7.9 3.3 2.1 4.5-.3.9-.4 1.5-.4 1.8 0 .9 1.4 3.4 2.5 3.4.9 0 1.5-.9 2.4-2.3 1.5.6 3 .9 4.2.8 8.6-.3 16.5-8.4 16.3-13.5 0-2.5-1.5-4.8-5.2-4.7zm-13.1 12.8c1.1-1.5 6.6-8.9 12.3-9.1 1.7-.1 2.1 1 2.1 2.1.1 1.8-3.2 7-10.4 7.2-1.6.1-2.9 0-4-.2zm-4.5-2.4c-.1-.2-.3-.6-.3-1.1 0-1.2 2-5.7 7.2-6.1-1.3.9-2.7 2-4 3.5-1.2 1.4-2.2 2.6-2.9 3.7zM132 116.5c5.1-.2 11.4.5 11.5 2.1 0 1-.5 2.9-3.2 3.2-3.2.3-19.3 1-19.2 3 0 1.1 4.9 1.3 9.3 1.5 4.5.3 11.9.4 12.1 7.8.2 5.8-2 7-3 7.5-1.2.6-5.5 2.2-8.7 2.3-9.8.3-13.8-5.3-13.9-8.2-.1-2.5 2.5-4.8 6.9-4.9 4.4-.1 11.2 1.4 11.2 3.3 0 1.5-2.9 2.2-4.3 2.2-6 .2-5.7-2.2-9.1-2.1-2 .1-4.7 4.2 5.1 3.9 8.8-.3 11.4-3.1 11.4-4.7-.1-2.1-6.3-3-10-3.2-3.7-.2-9.1-.2-11-1.3-1.9-1.2-1.6-3.8-1-6.1 1.4-4.5 10.9-6.1 15.9-6.3zM149.3 118.5c3.4-.1 10.6 15.4 11.8 15.4s.3-3.6-.4-7.6c-1.7-9-4.4-13.6-1.9-13.7 1.9-.1 8 5.9 8.4 17.4.2 5.3-.6 12.3-5.4 12.5-4.6.1-9.8-14.3-11-14.3-.6 0-.7 9-.9 11.7-.2 2.7-1.1 4.1-2.6 4.2-2.3.1-3.3-2.1-3.4-6.4-.2-4.5 1.2-19.1 5.4-19.2zM184.1 126.8c1.6-.1 3-.3 2.9 1.8-.1 2.1-.2 2.9-1.9 3l-8.6.3c-.3 1-1 3.5-1.3 4.5-.4 1.3.9 1 2.6.5s6.3-1.3 8.2-1.4c1.9-.1 3.3 2.9 2.2 4-1.1 1-7 6-13.1 6.2-2.6.1-6.2-2.2-6.3-6.3-.1-2.2.8-5.1 1.6-7.4-.2-.1-.4-.4-.5-1.1-.3-1.5-.9-3.1 1.5-3.4.2 0 .4 0 .7-.1l2-4.2c-.8-.1-1.5-.3-2.1-.6-1.5-.7-2.7-2.6-2.7-3.4-.1-1.8 13.2-2.9 16.2-3 3.3-.1 4.2.5 5.3 2 1.1 1.5 1.4 2.6 1.5 3 0 .4-.4 1.4-4.3 1.5-2 .1-5.3.4-8.5.5l-1.4 3.7c3.1.1 6-.1 6-.1zM217.5 126.3c-.1-4.8-2-8.3-5.1-8.2-4.5.1-11.1 7-16.3 15.6-.5-3.5 2.3-8.9 4.6-12.6 1.6-2.6 1.3-5.8.7-5.8-1 0-10.2 7.9-9.9 18.7.1 2.1.6 3.8 1.5 5.3-3.6 7-5.9 14.4-5.8 20 .2 6.3 4 8.6 5.2 8.6l1.4-3.3c1.2-7.8 3.3-14.8 5.6-20.7.9.2 1.9.4 2.7.3 7.4-.1 15.7-8.7 15.4-17.9zm-14.8 10.9c4.3-8.5 8.8-13.3 10.4-13.4 2.7-.1.4 12.3-10.4 13.4z"/></svg>