<svg viewBox="0 0 250 250" xmlns="http://www.w3.org/2000/svg" fill-rule="evenodd" clip-rule="evenodd" stroke-linejoin="round" stroke-miterlimit="1.414"><g fill="#fff" fill-rule="nonzero"><path d="M56.687 141.38c-.683 0-1.23-.137-1.914-.137-5.742-.547-11.075-2.188-15.86-5.606-1.504-1.094-2.872-2.324-3.965-3.828-3.419-4.376-3.419-9.708 0-14.22 2.05-2.735 4.785-4.649 7.793-6.016a33.743 33.743 0 0110.255-2.871c5.332-.684 10.664-.411 15.86 1.093 3.555.958 6.973 2.598 9.844 5.059 2.188 1.915 3.966 4.102 4.786 6.973 1.094 3.829.273 7.247-2.188 10.392-1.914 2.598-4.512 4.375-7.383 5.879-3.418 1.641-6.973 2.598-10.665 3.145-.957.137-1.914.137-3.008.273-.137 0-.273 0-.41.137-.957-.273-2.051-.273-3.145-.273zm4.649-4.923h.547c1.504-.136 3.145-.273 4.649-.547 3.144-.546 6.152-1.64 8.887-3.418 2.324-1.504 4.239-3.281 5.332-5.879 1.641-3.555.957-7.247-1.914-9.844l-.41-.411c-5.743 6.7-11.348 13.4-17.091 20.099zm2.324-15.587l8.204-9.024c-1.23-.82-7.383-2.461-8.34-2.187.136.136.41.273.547.41.546.41 1.093.957 1.504 1.504.683.957.683 2.051-.137 3.008-1.367 1.504-2.735 3.008-3.965 4.512-.274.273-.547.41-.821.273-2.871-.41-6.289 1.368-7.52 3.965-.41.958-.683 1.915-.547 3.009.137.683.411 1.23.684 1.914-2.734 3.144-5.469 6.289-8.34 9.434 2.597 1.094 5.195 1.641 7.793 2.188l-.273-.274c-.547-.547-1.094-1.094-1.504-1.777-.547-.821-.41-1.778.273-2.598 1.504-1.778 3.145-3.692 4.649-5.469.137-.137.273-.137.41-.137.684 0 1.231.137 1.914 0 2.735-.41 4.786-1.777 5.88-4.239.683-1.504.683-3.008-.411-4.512zm-9.024-7.656c-.136 0-.136 0 0 0-1.367 0-2.734.136-4.101.273-3.009.41-5.88 1.231-8.478 2.735-2.871 1.64-5.059 3.828-6.289 6.836-1.094 2.871-1.094 5.606.273 8.34.274.411.547.958.957 1.368 5.88-6.563 11.759-12.989 17.638-19.552zM183.571 133.176c.273-.547.547-.957.82-1.367.274-.547.684-1.231.957-1.778.137-.273.274-.41.684-.41h13.809c.958 0 1.778-.137 2.735-.41.547-.137.957-.547 1.367-.821.411-.41.411-.82-.273-1.093-.547-.137-1.094-.274-1.641-.274h-5.742c-1.094 0-2.325-.273-3.419-.683-.82-.411-1.504-.958-1.777-1.915-.137-.683 0-1.23.137-1.914.957-2.461 2.871-3.965 5.332-4.785a15.482 15.482 0 014.922-.821c5.333 0 10.528 0 15.861-.136h.273l-.273.273c-1.641 1.094-3.145 2.051-4.786 3.145-.137.136-.41.136-.683.136h-10.665c-.547 0-1.231.137-1.778.411-.41.136-.82.41-1.094.82-.41.41-.273.82.274.957.684.137 1.367.274 2.051.274h3.145c1.777 0 3.418 0 5.059.546.273.137.683.274.957.411 1.367.683 1.914 1.777 1.367 3.281-.82 2.461-2.598 4.102-4.922 5.059-1.778.684-3.555.957-5.469 1.094h-17.228zM114.113 116.905c-.137.274-.137.41-.273.547-2.872 5.059-5.606 10.255-8.478 15.314a.751.751 0 01-.683.41h-6.016c1.641-2.871 3.145-5.743 4.649-8.614h-.137c-.821.547-1.641.957-2.461 1.641-.821.547-1.641.82-2.598.82-1.367-.137-2.598 0-3.965 0-.274 0-.41.137-.547.41-.957 1.915-2.051 3.692-3.008 5.606-.137.137-.274.274-.547.274h-6.016c.137-.137.137-.274.137-.411 2.871-5.195 5.605-10.254 8.477-15.45a.751.751 0 01.683-.41h5.88l-3.282 6.153h7.657c.41 0 .547-.137.684-.41l2.871-5.333a.753.753 0 01.684-.41h5.332c.547-.137.684-.137.957-.137zM120.129 123.605h12.032c-.137.137-.137.273-.137.41-.547.957-.957 1.778-1.504 2.735-.136.41-.41.41-.82.41h-11.075c-.41 0-.547.137-.684.41-.273.684-.683 1.367-1.093 2.051h12.032c-.137.137-.137.273-.137.41l-1.641 2.871c-.137.137-.273.274-.41.274h-18.185c0-.137.137-.274.137-.41 2.871-5.196 5.742-10.392 8.477-15.451.137-.273.274-.273.547-.273h19.005c-.137.137-.273.137-.273.273-1.368.958-2.872 2.051-4.239 3.008-.273.137-.547.274-.684.274h-9.16a.753.753 0 00-.684.41c-.41.82-.82 1.504-1.23 2.324 0-.136-.137 0-.274.274zM129.973 133.176c.821-1.367 1.504-2.735 2.325-4.102 2.188-3.965 4.238-7.793 6.426-11.759.137-.273.274-.41.684-.41h19.005c-.137.137-.274.274-.41.274-1.368.957-2.735 2.051-4.239 3.008-.137.136-.547.273-.683.273h-9.161a.753.753 0 00-.684.41c-.41.957-.957 1.778-1.504 2.735h12.032c0 .137-.137.273-.137.273-.546.958-1.093 1.915-1.504 2.872-.136.273-.273.41-.546.273h-11.212a.753.753 0 00-.684.41c-.41.684-.683 1.368-1.094 2.188h12.032c0 .137-.136.273-.136.41l-1.641 2.871c-.137.274-.274.274-.547.274h-18.322zM179.742 121.827c2.188-1.367 4.376-2.734 6.427-4.238.82-.547 1.504-.684 2.461-.684h6.153v.137c-.137.137-.274.137-.411.273-4.375 2.872-8.887 5.743-13.262 8.614-.274.137-.41.411-.547.547-1.231 2.051-2.325 4.239-3.555 6.29-.137.136-.274.273-.41.273h-6.016c.136-.137.136-.273.273-.41 1.094-2.051 2.325-4.239 3.418-6.289a.871.871 0 000-.821c-1.367-2.734-2.597-5.469-3.965-8.204 0-.136-.136-.273-.273-.41h6.836c.274 0 .41.137.547.274a74.018 74.018 0 002.324 4.648z"/><path d="M159.78 129.621h11.075l-.273.273c-1.504 1.094-2.872 2.051-4.376 3.008-.136.137-.41.137-.547.137h-14.082c.136-.137.136-.273.273-.41 2.871-5.196 5.606-10.255 8.477-15.45.137-.274.274-.41.684-.41h6.016c-2.598 4.375-4.922 8.613-7.247 12.852z"/></g></svg>