<svg version="1.1" id="hsbc" xmlns="http://www.w3.org/2000/svg" x="0" y="0" viewBox="0 0 250 250" xml:space="preserve"><style>.st0{fill:#fff}</style><path class="st0" d="M43.6 118.3v-12.6c0-1.6-.8-3.4-5-3.4v-1.1h15.7v1.1c-4.1 0-5 1.8-5 3.4V134c0 1.6.8 3.4 5 3.4v1.1H38.7v-1.1c4.1 0 5-1.8 5-3.4v-13.4H26.5V134c0 1.6.8 3.4 5 3.4v1.1H15.8v-1.1c4.1 0 5-1.8 5-3.4v-28.3c0-1.6-.8-3.4-5-3.4v-1.1h15.7v1.1c-4.1 0-5 1.8-5 3.4v12.6h17.1M55.7 127.2H57c1.7 5.2 5.7 10 11.7 10 4.6 0 7.7-3.9 6.4-8.3-2.3-7.9-17.7-8.2-17.7-19 0-5.6 4.5-9.4 10-9.4 6 0 8.7 4.2 10 0h1.2l1.2 12h-1.4c-1.3-5.2-5-9.7-10.3-9.7-3.4 0-5.9 1.9-5.9 5.4 0 3.3 3.6 5.6 6 7 7.7 4.6 12.9 7.1 12.9 13.8 0 5.1-4.2 10.3-11.9 10.3-5.9 0-9.9-4.1-10.5 0h-1.2l-1.8-12.1M99.6 117.9c5.7 0 9-2.4 9-7 0-4.3-2.7-6.6-6.7-7.3-5.2-.3-7-.5-7 1.5v12.8h4.7M95 133.4c0 2 .5 3 4.6 3 5.9 0 10.2-1.7 10.2-8.3 0-6.7-6.7-8-12-8H95v13.3zm-5.8-27.7c0-1.6-.8-3.4-5.4-3.4v-1.1h15.1c8.7 0 15.5 2.3 15.5 9.5 0 4.7-3.2 7.2-7.5 8.1v.1c4.8.9 9.4 3.9 9.4 9.3 0 6.8-5.9 10.3-14.7 10.3H83.8v-1.1c4.6 0 5.4-1.8 5.4-3.4v-28.3zM150.1 112.8h-1.4c-1.6-6.2-5.7-10.4-12.2-10.4-9.3 0-13.3 7.5-13.3 17.6 0 7.9 4.1 16.4 13.4 16.4 5.5 0 9.3-1.8 13.2-5.6l1 1.1c-3.4 4.2-9.2 7.1-14.7 7.1-11 0-19.4-7.1-19.4-19.4 0-11.2 7.9-19.5 19.3-19.5 7.7 0 10.5 4.6 12.4.1h1.2l.5 12.6M218.5 100.1h-37.9l19 19zM180.6 138h37.9l-18.9-18.9zM161.6 119.1l19 18.9v-37.9zM218.5 100.1V138l19-18.9z"/></svg>