<svg version="1.1" id="Pepsi" xmlns="http://www.w3.org/2000/svg" x="0" y="0" viewBox="-172 295.9 250 250" xml:space="preserve"><style>.st0{fill:#fff}</style><path class="st0" d="M-47.9 364.7c.3.2.5.5.8.7.5.3.9.8 1.2 1.3.5.3 1.1.7 1.6 1 .2.4.3.3.7.2.6-.2 1.2-.3 1.8-.4.3 0 .6.1.8.1.2.1.3.2.2.4-.2.6-.1 1.2-.4 1.7-.1.1-.1.3.1.4l.3.3c.4.3.6.3.9-.1.9-1 1.9-1.7 3.1-2.2 1.2-.5 2.5-.8 3.9-.9 1-.1 2 0 3 .2.9.2 1.8.5 2.7.8 1.1.4 2.1.8 3 1.4 1.1.7 2.1 1.5 3 2.3 1.1 1 1.9 2.2 2.8 3.3.3.4.5.8.7 1.2.5.8 1 1.6 1.6 2.4.6.8 1.2 1.5 1.9 2.1.6.6 1.3 1.1 2.2 1.4.4.1.7.2 1.1.4.4.1.4.2.3.6-.1.3-.2.5-.2.8-.1.2 0 .3.1.4.3.2.6.3.9.5.4.2.5.3.3.7-.4.8-1 1.2-1.9 1.4-.6.1-1.3 0-1.8-.2-.3-.1-.5-.1-.8.1-.2.2-.4.4-.7.5-.3.2-.4.4-.3.9.1.7.3 1.2.7 1.8.5.8 1.2 1.2 2 1.6.4.2.8.3 1.3.4v.6c-.2.6-.4 1.2-.8 1.6-.1.1-.2.3-.2.4 0 .3-.1.5-.3.8.5 1.4 1.6 1.1 3.2-1 .2-.3.2-.7.3-1.1.1-.3 0-.6-.2-.8 0 .3-.1.6-.1.9-.1.3-.1.7-.3 1-.1.1-.3.2-.4.3l-.1-.1c0-.1.1-.3.1-.4.4-.9.4-1.8.1-2.6-.5-.4-.9-.9-1.2-1.4 0-.3.3-.5.6-.5.6-.2 1.2-.3 1.9-.2 1 .1 2 .6 2.6 1.4l.3.3c.6.5.8 1.2.9 1.9v1.6c0 .3 0 .5.3.6.3.1.5-.1.7-.4 0-.1.1-.2.1-.3.3-.8.7-1.5 1.4-2 .4-.2.6-.5.7-1 .4-.9.8-.9 1.3 0 .1.9.5 1.6.8 2.4 0 .1.1.2.2.3.4.3.8.5 1.1.7.6 0 1.2.2 1.6.7-.3 1.4-1.1 2.3-2.6 2.6-.3 0-.6.2-.8.2-.2.6-.4 1.1-.6 1.7-.2.5-.6.7-1.1.8H-2c-.5 0-.7-.3-.6-.7.1-.5 0-.8-.3-1.2-.2-.3-.4-.7-.5-1-.2-.6-.4-.8-1-.9-.8-.1-1.5.1-2.2.6-.8.6-1.8.8-2.8.9-1.6.1-3.1-.3-4.3-1.3-.8-.6-1.6-1.3-2.1-2.3-.1-.2-.3-.5-.5-.7-.2 0-.3.1-.3.3-.1.3-.3.6-.6.8-.3.1-.5.2-.8.1-.2-.1-.5-.1-.7 0-.5.2-.7.1-1.1-.3-.2-.2-.2-.2-.4-.3-.2.8-.2 1.6-.1 2.3l.3 1.2c.1.4.3.4.6.3.2 0 .4-.1.6-.2.3-.1.5-.2.4-.6.1-.4.3-.5.7-.5.4 0 .7 0 .9-.5.1-.4.5-.4.8-.2.2.1.3.3.5.4.2.2.4.2.6.1.5-.3.8-.1.9.4 0 .2.1.4.1.6.1.5.3.9.8 1 .3.1.6.4.8.6.2.2.4.2.6.1.7-.2 1.4-.2 2.1 0 .9.1 1.7.2 2.6.2.2.3.4.7.2 1.1-.1.2-.1.3-.2.5s-.1.4.1.7c.5.6.7 1.3.8 2.1 0 .6-.1.7-.7.7-.8-.3-1.5-.2-2.2.2-.2.4-.6.8-1.1.9-.2.1-.3.2-.4.4-.3.6-.6 1.3-1 1.9-1.1 1.4-2.4 1.9-4.1 1.5-1.3-.3-2.1-1.1-2.5-2.4-.1-.2-.1-.3-.2-.5-.2-.4-.3-.9-.9-1-.1 0-.2-.2-.4-.3.5-.5 1-.8 1.7-.6.3.1.5-.1.7-.2.6-.5 1.2-.6 1.9-.4.9.2 1.1.1 1.4-.8-.2-.3-.8-.3-.8-.9h.4c.5-.2.6-.5.1-1-.2-.2-.4-.5-.7-.3-.4.2-.8.3-1 .7-.4.4-1 .5-1.6.4-.6.1-1.1.3-1.7.4-.6 0-.6 0-.8.5-.5 1.3-.3 2.5.3 3.6.2.3.4.5.6.7.1.2.3.3.5.4.2.2.2.4.2.6-.2 2.4-1.1 4.7-2.6 6.6-.9 1.1-1.9 2-3.1 2.6-.7.4-1.5.7-2.2 1-.9.3-2 .4-3 .4-.9 0-1.7-.1-2.5-.4-1.5-.4-2.7-1.3-3.7-2.6-.2-.2-.4-.4-.6-.7-.3.2-.5.5-.5.8v.5c.1.6-.2 1-.7 1.3-1 .6-2 .6-3.1.4-.2 0-.4-.1-.6-.1-.1.5-.2.9-.3 1.2-.3.8-.8 1.2-1.5 1.5-.3.1-.6.2-1-.1 0-.2 0-.5.1-.7.3-.7.1-1.3-.2-2-.4-.8-1-1.4-1.8-1.8-.1 0-.2-.1-.4-.1 0 .3-.1.5-.1.7.1.8.3 1.6.8 2.3.2.3.5.7 1 .6.1 0 .3.1.4.1-.1.2-.1.3-.1.4-.5.6-1.1 1.1-1.9 1.4-.3.1-.6.3-.6.7-.4.9-1.1 1.6-1.9 2l-.2-.2c-.2-.3-.5-.6-.8-.7-.6-.3-1-.8-1.2-1.4-.1-.4-.4-.7-.8-.9-.6-.3-1.1-.7-1.4-1.3-.1-.2-.1-.3-.2-.6.2 0 .3-.1.4 0 .7.2 1.1-.2 1.5-.7.8-.8 1.1-1.7.7-2.6-.9.2-1.5.7-2.1 1.3-.6.7-.9 1.4-.8 2.3-.6.3-1 .1-1.5-.3-.4-.4-.4-.9-.6-1.5-.2.1-.4.1-.6.1-.7.3-1.4.3-2.1.3-.9-.1-1.8-.9-1.7-1.8.1-.7-.1-1.1-.6-1.2 0 .1-.1.2-.1.2-.4.8-1.1 1.4-1.8 1.9-1.4.8-2.8 1.3-4.4 1.3H-68c-1.2 0-2.4-.3-3.4-.9l-2.1-1.2c-1-.7-1.8-1.6-2.5-2.6-.6-.8-1.1-1.7-1.4-2.7-.3-.8-.5-1.7-.7-2.6-.1-.6-.1-1.1-.2-1.7 1.3-.3 2.1-1 2.5-2.2.2-.5.3-1 .3-1.5s-.2-.9-.4-1.4c-.2-.3-.3-.4-.6-.2s-.7.2-1 0c-.6-.2-1.2-.5-1.7-.7-.1-.1-.3-.1-.4-.1l-.9-.3c-.4.2-.7.4-.9.9h.5c.4.5.1 1-.3 1.3-.3.2-.3.5 0 .8.1.1.2.1.4.1.5-.1 1-.1 1.5.1.2.1.4.1.7-.1.7-.3 1.2-.1 1.3.5-.2.7-.5 1.4-.7 2.1-.7 1.3-1.6 1.9-2.9 2-.8.1-1.5-.2-2.1-.7-1.1-.7-1.8-1.7-2.1-3 0-.3-.1-.5-.4-.6l-.3-.3c-.2-.2-.3-.3-.6-.2-.5.1-1 .2-1.6.2-.3 0-.6 0-.8.1-.3 0-.4 0-.4-.3 0-.7.1-1.5.5-2.1.2-.3.2-.5.1-.8-.2-.5-.2-1.1 0-1.6.1-.2.3-.3.6-.2.7.4 1.4.3 2.1 0 1.6.1 3-.3 4.3-1.2.1-.1.1-.3.1-.4.1-.5.2-1 .6-1.5.2-.2.4-.2.6-.1.3.2.5.2.8 0 .3-.2.7-.2 1.1-.3.4.2.6.5.5.9.6-.1 1 .2 1.4.5.8-.8 1-2.5.5-3.3-.7.4-1.4.5-2.2.3-.1-.3-.1-.5 0-.7.2-.4.1-.8 0-1.2 0-.1 0-.2-.1-.2-.3-.4-.3-.8 0-1.2.4-.7.3-1.4.1-2.1 0 0-.1 0-.1-.1 0 .2-.1.3-.1.5-.1 1.3-.5 2.5-1.2 3.6-.8 1.3-1.7 2.3-3.1 3.1-1.6.9-3.3.9-5 .4-.9-.3-1.9-.6-2.8-.9-.5-.2-1-.1-1.4-.1-.2 0-.3.1-.3.3-.2.6-.4 1-.7 1.5-.2.4-.4.8-.2 1.3-.1.7-.4.9-.9.6-.3-.4-.7-.5-1.1-.7-.8-.5-1.2-1.1-1.2-2 0-.3-.1-.6-.5-.7-.6-.2-1-.6-1.4-1.1-.3-.3-.3-.5-.1-.8.3-.5.8-.9 1.3-1.2l.6-.3c.1-.1.2-.3.3-.4.2-.4.3-.8.4-1.1.1-.3.3-.5.2-.9-.1-.5.5-.8.9-.5.5.3.9.6 1.4.9.7.5 1.1 1.1 1.1 1.9 0 .1.1.2.1.3 0 .5.3.7.7.9.4.1.7.3 1.1.4 0-.2.1-.3.1-.4v-1.5c0-.8.3-1.6.8-2.3.3-.2.5-.5.7-.8.4-.7 1.5-1.2 2.3-1 .4.1.8.3 1.2.5.5.1.7.4.6.9-.2.2-.5.4-.7.6-.2.2-.4.4-.5.6-.4 1-.5 2 .1 3 0 .1.1.2.1.3-.2-.1-.3-.1-.4-.1-.1-.2-.3-.3-.4-.5-.1-.3.1-2.7-.1-2.9-.1.1-.2.3-.3.4-.2.9-.3 1.8.2 2.7.7 1.2 1.4 1.5 2.8 1.3.3 0 .4-.2.6-.4-.6-.6-.6-1.3-.6-2.1-.1-.4-.3-.9-.3-1.3 0-.8 0-.8.8-1.2 1.3-.6 2.1-1.5 2.5-2.8.1-.4.3-.8.1-1.3-.7-.4-1.5-.5-2.2-.2-1.1.6-2 .4-2.9-.5-.2-.4-.2-.8.2-1.1.5-.3.9-.7 1.2-1.2.3-.4.4-.7.2-1.2-.2-.7-.2-.8.5-1.1.9-.4 1.5-1.1 2.2-1.7.5-.5 1-1.1 1.5-1.7.3-.3.5-.7.7-1.1.6-.8 1.2-1.7 1.8-2.5 1-1.2 2.3-2.3 3.6-3.3 1.5-1.1 3.1-1.8 4.7-2.5 1.2-.4 2.4-.7 3.6-.9 3.1-.8 5.9-.2 8.6 1.8.3.3.5.6.7.8.1.2.3.3.5.4.1-.6.1-.6.8-.7 0-.1 0-.3.1-.4 0-.3.1-.6.1-1 0-.2 0-.3-.1-.5.5-1.2 1.4-1.3 2.8-.4.3.2.5.1.8-.1.3-.2.6-.3.8-.6.2-.2.5-.4.6-.6.3-.8.7-1.4 1.4-1.9.1 1.2.3 1.2.5 1.2.3.3-.2 0 0 0zm1.6 46.4c0-.2-.2-.2-.4-.1.2 0 .3 0 .4.1 0 .1.1.2.2.3.3.3.3.7.2 1.1.5-.6.3-1.2-.4-1.4 0-.3.7.2 0 0zm19.9 5.9c.1 0 .1-.1.2-.1.4-.3.9-.5 1.3-.9.8-.7 1.5-1.5 2.2-2.2.3-.3.5-.6.6-1-.1-.1-.3-.2-.4-.3-.3-.1-.5-.3-.5-.6 0-.2-.1-.3-.1-.5l-.3-.9c-.1-.1-.3-.3-.5-.3-.3.2-.6.6-.8.9-.3.3-.4.5-.4.9 0 .3-.2.4-.4.5-.3.1-.5.1-.8.2-.2.1-.3.2-.2.5.1.2.2.4.2.7-.1.9-.3 1.8-1 2.4-.5.5-1 .9-1.6 1.2-.6.1-1.2.4-1.9.3v.1c.5.2 1.1.4 1.7.2.8-.2 1.5-.3 2.2-.7.1 0 .4-.1.5-.4.1 0-.1.3 0 0zm-2-10.3c.1-.1.2-.1.3-.2.4-.2.7-.5 1.2-.4.1.2.1.4.2.5.3-.1.3-.4.4-.7.5-.3 1-.5 1.6-.6.1-.3.2-.7.4-1.1-.2 0-.3 0-.5.1-1.2.6-2.4 1.4-3.5 2.2-.1 0-.1.1-.1.2-.6.3-.8.9-.6 1.5.3-.5.4-1 .6-1.5.1-.1-.2.5 0 0zm-10.8-33.3c0 .5.4.8.7 1 .3.2.5.5.6.8.1.7-.7.3-.9.3-.1.1-.1.3-.2.4.5.2 1-.1 1.4-.1 0-.6.1-1.2-.6-1.6-.4-.1-.7-.4-1-.8v-.5c.2-1.7 1.1-3.1 2.7-4 .1-.1.2-.2.4-.3h-.5c-.4.2-.9.3-1.2.6-.9.6-1.7 1.4-2.2 2.4-.3.6-.7 1.3-.8 2v.6c.3-.1.5-.2.7-.3 0-.1-.1-.3-.1-.3-.3-.1-.3-.4-.2-.6.2-.5.4-.9.6-1.4.1-.2.2-.4.6-.3-.1.4-.1.7-.2 1.1 0 .4-.1.7.2 1 0 .6-.3-.3 0 0zm-14.5 8.2c-.3-.5-.3-.5-.8-.2.3.1.6.1.8.2.1.3 0 .5 0 .8 0 .4-.4.4-.5.6-.2-.3-.4-.5-.6-.7-.2-.2-.4-.4-.7-.4-.2 0-.3-.1-.3-.3 0-.2.2-.2.3-.2l.1-.1c0-.1-.1-.2-.1-.3.4-.1.7-.4.8-.9 0-.2-.1-.4.1-.6.2.2.4.5.7.8-.1-.5-.1-.8-.1-1.2 0-.1-.1-.3-.2-.4-.2-.3-.5-.2-.7 0-.2.3-.4.6-.3 1 .1.4 0 .6-.4.8-.3.2-.6.4-.5.8.1.5 0 .9 0 1.4 0 0 0 .1.1.1.5-.2 1-.1 1.4.4.1.4.3.7.8.7.4 0 .5 0 .5-.4.1-.5.5-.8.7-1.1.5.1.9.2 1.2-.3-.1-.2-.1-.3-.2-.5-.2-.5-.5-.6-.9-.3.1.2.3.3.4.5-.2.3-.4.2-.6.2-.4-.2-.7-.3-1-.4-.3-.5.3.1 0 0zm-11.8 7.9c-.1.2-.2.5-.3.6-.4.3-.3.7-.3 1.1v1.1c0 .2-.1.5 0 .7.3-.2.4-.5.4-.8v-.4c.2-.7.4-1.4.2-2.1-.1 0 0-.1 0-.2-.1-.4-.1-.8-.2-1.2-.3-1.4-1.2-2.5-2.2-3.5-.5-.5-1.1-.5-1.7-.4-.6.2-.9.7-.8 1.2.1.3.2.6.4.9.3.5.8.9 1.3 1.3s1.1 1 1.8.8c-.1-.4-.4-.3-.6-.4-.4-.1-.7-.2-.9-.6.1-.4.5-.3.8-.4-.3-.1-.5-.1-.7-.1-.5 0-.9-.2-1.2-.5-.2-.2-.4-.4-.3-.7.2 0 .4 0 .5.1.1-.5.2-.6.7-.4.3.1.5.2.7.5.1.1.2.2.4.3v-.7c.5.4.6.7.3 1.4.3.3.2 1 .9.8l.6 1.5s.1.1.2.1c-.2.2-.1 0 0 0zm15.7-19.5c.2.4.3.7.5 1.1.1.2.2.4.1.7-.2 0-.4 0-.5-.3-.1-.2-.2-.4-.4-.2.1.3.1.3.4.5.2.1.3.2.2.4-.3 1.5-4.1.2-4.3.1h-.5c0 .3.1.4.3.4.5.1.9.2 1.4.3 2.3.5 4.6.7 6.9.5 1 0 1.9-.2 2.9-.4.4-.1.9-.2 1.4-.3.4-.1.5-.2.4-.6-.1 0-.2.1-.4.1-.6.2-1.2.4-1.8.5l-2.1.3c-.2 0-.4-.1-.6-.2-.1 0-.2-.2-.3-.3-.5.8-1.2 1-2.1.8-.2 0-.4 0-.5-.3.2-.1.4-.1.7-.2-.3-.1-.6-.1-.6-.5 0 0-.1-.1-.2-.1-.1-.1-.2-.1-.2-.1v-.7c.3-.3.5-.7.6-1.2-.3 0-.5-.1-.8 0-.1 0-.3-.2-.5-.3 0-.2-.1-.5-.2-.7l-.3-.6c.2-.1.4-.3.6-.3.8-.2.8-.1.8-1 0-.2 0-.5.3-.6.2.4 0 1 .6 1.4 0-.3 0-.5.1-.7.7-.1.8-.1.9.3-.1.2-.6 0-.5.4.5.1.9.1 1.3-.1.5-.3.9-.1 1.2.4-.5.9-1.2 1.6-1.7 2.4.2-.1.4-.2.5-.4.5-.5.9-1 1.4-1.4.3-.3.4-.5.2-.9-.5-.4-1.1-.8-1.7-1-.4-.7-1-1.2-1.7-1.6-.3-.2-.4-.2-.6.1-.4.4-.6.9-.7 1.5 0 .3-.2.4-.5.5-.7.1-1 .5-1.3 1.1.5.3.9.8 1.3 1.2.1.4-.4-.4 0 0zm34.7 20.5c0 .2 0 .4.1.6.1 0 .2-.1.4-.1l-.5-.5c-.1-.4-.1-.7-.2-1.1-.1-.3-.2-.5-.6-.3h-.2c-.3-.3-.3-.6-.3-1-.1-.3-.2-.7-.2-1-.3.7-.2 3.2 0 3.8.4 0 .2-.5.4-.7.1.3.3.5.3.8 0 .8.3 1.5.6 2.1.1.2.2.4.4.6.1-.1.2-.1.3-.2.5.4.9.8 1.5 1 .3.1.3.3.2.6-.1.3-.3.3-.5.3-.1 0-.2-.1-.3-.2.2.5.6.5 1 .3l.3-.9c.1-.2.1-.4.2-.6.4-.4.5-.8.6-1.2-.1-.1-.2-.2-.3-.2-.8-.2-1.6-.5-2.3-1.1-.2-.2-.4-.1-.4.3.2.1.5.1.7.2.3.2 0 .4.1.7.1 0 .3.1.4 0 .6-.2 1 .1 1.5.3-.1.2-.2.5-.4.7-.3.4-.5.5-.9.2-.3-.2-.6-.5-.9-.8-.6-.6-1-1.3-1.4-2.1-.2-.3-.4-.7-.2-1.2.1 0 .2 0 .2.1.1.3.2.5.4.6 0 .2-.2-.1 0 0zm-79.8 5.3c.3-.1.7-.2 1.1-.3-.3-.4-.6-.6-1-.7-.6-.1-1.3-.1-1.9-.2.3-.1.6-.1.8-.2 0-.2 0-.4.1-.6.3.1.5.1.7.2 0 .2-.1.3-.1.5.7.1 1.4.2 2.1.4.1-.2.2-.4.2-.6.5-1.2.1-2.3-1.2-3.3-.2-.1-.4-.2-.5-.3-.1-.1-.3-.1-.5-.2 0 .6-.2 1-.4 1.5-.4.6.1 1.4.8 1.4.4 0 .7 0 1.1-.1-.2-.5-.7-.2-1-.5.1-.1.2-.2.4-.3-.4-.1-.8.2-1-.3.8-.3.8-.3.7-.9l1.2.9c.4.4.4.8 0 1.2-.1.1-.2.2-.2.3 0 .2-.1.4-.3.4-.3.1-1.5-.6-1.9-.7-.9-.1-1.8.3-2.3 1.1-.2.4-.2.6.2.8.2.2.5.3.7.4 2.1-.3 2.8-.4 2.2.1zm19.9 2.6c-.2-.2 0-.1.6.4.1-.4.2-.7.2-1.1.1-.6.2-1.2.1-1.8-.1-.9-.3-1.9-.4-2.8 0-.2-.1-.4-.1-.6-.3-.8-.6-1.5-1-2.3-.4-.9-.9-1.7-1.3-2.5-.1-.2-.2-.4-.5-.3-.3.1-.4 0-.5-.3-.1-.2-.3-.4-.4-.6h-.1c.5 1.5 1.2 2.9 1.2 4.5.1-.2.1-.5.2-.7 0-.2.1-.5.1-.8.3.5.1 1 .6 1.4v-1.5l.3.3.3 1.2c.1.6.8 1.1 1 1.7.1.2.1.4.1.6-.5.5-.8-.1-1.2-.1 0 .7.2 1.4.4 2 .2.7.2 1.5.1 2.2-.2.8-.2.8.3 1.1zm72.4.5c.3.5.5 1 .8 1.4.6.4 1 .1 1.2-.9 0-.5 0-.9-.5-1.2-.3-.1-.6-.3-.9-.4-.2-.1-.4-.2-.4-.4s.1-.4.2-.5c.2-.1.4-.1.6.1.1.1.2.3.3.4.2.1.3.3.5.4.2.2.4.2.6.2.2 0 .4 0 .5-.1.4-.1.9-.1 1.2-.4-.1 0-.1-.1-.1-.1-.1 0-.1 0-.2.1-.7.3-1.3.5-2.1.4-.1-.1-.2-.3-.2-.4-.1-.2-.2-.4-.1-.7.4.3.7-.1 1.1-.2-.2-.5-.3-.5-.8-.4-.3.1-.7.2-1 .2-.2.1-.4.1-.7 0 .2-.3.4-.3.7-.3.3-.1.6-.1.9-.1 1-.2 2 0 2.9.4.1 0 .2.1.3.3-.3.1-.5.1-.7.2.1.2.1.3.2.5.6-.2.9-.6 1-1.2-.4.1-.8 0-1.2-.2-.3-.2-.5-.4-.7-.6-.2-.2-.4-.2-.6-.2-.4 0-.7.1-1 .3-.4.2-.8.3-1.2.2-.4-.1-.5-.4-.2-.7l.6-.3c.1-.3.2-.5.6-.6.1 0 .3-.1.3 0 .1.1.1.3.1.4 0 .2-.2.3-.1.5.3 0 .4-.2.5-.4v-.7c-.1-.3-.2-.7-.2-1 0-.2-.1-.5-.2-.7 0-.1-.2-.1-.3-.2-.1.3-.2.5-.3.8-.1.4-.3.7-.7.9-.5.3-.7.8-1 1.3-.2.4 0 .9.1 1.3.2.5.2.9-.1 1.3-.3.2-.1.9.3 1.3.3.5 0 0 0 0zm-17.2-19.1c-.2 0-.4-.1-.4-.3-.1-.3-.1-.6-.2-.9-.3-1-.6-2-1-2.9v-.4c.2.2.4.3.5.4v-.3c-.5-1-1.2-1.9-2-2.6-.8-.8-1.7-1.3-2.5-1.9-.4-.3-.8-.4-1.2-.6 0 0 0 .1-.1.1.2.2.5.3.7.5.9.8 1.8 1.7 2.6 2.6.6.7 1.1 1.5 1.5 2.3.5 1 .8 2.1 1 3.2.1.7.2 1.4.2 2.1v1.4c0 .1 0 .3.1.4.4.2.5.6.5 1l.3-.9c.2-.3.5-.4.8-.5.5 1.1.5 2-.8 2.3-.1 0-.2.1-.3.1-.3.1-.7.1-1 .2.1.1.1.1.2.1.8 0 1.6-.1 2.2-.6.1-.1.2-.2.2-.3 0-.3.1-.6.1-.9 0-.3 0-.6-.1-.9-.1-.6-.1-1.2-.3-1.8-.3-.9-.6-1.9-.9-2.8-.1-.2-.2-.4-.3-.5h-.1c-.4 2.2-.3 2.9.3 2.4zM-67.7 417c-.4-.4-.8-.9-1.1-1.4-.5-.7-.8-1.4-.6-2.2 0-.3-.1-.5-.3-.5-.1 0-.2-.1-.4-.1-.8-.7-1.3-1.5-1.6-2.6-.4-.4-.7-.3-.8.2v.2c-.1.5-.1.9-.2 1.4 0 .3-.1.4-.4.5l-.9.3c0 .2.1.4.1.5.6 1.2 1.5 2.3 2.6 3.1 1.5 1 3.1 1.7 4.9 1.9.6.1 1.3 0 1.9-.2-1.1-.2-2.2-.5-3.2-1.1zM-81 392c.2 0 .4-.1.6-.1.3-.6.6-1.2.8-1.7.1.1.1.1.1.2-.1.7-.3 1.3-.6 2-.5 1-.9 1.9-1.7 2.6-.8.9-1.8 1.2-3 .9-1-.2-1.7-.8-2.1-1.6-.1-.2-.3-.4-.4-.7 0 0-.1 0-.1.1.1.3.1.7.2 1-.5-.2-.6-.8-1-1.2-.3.5.2.8.1 1.3-.3-.1-.4-.5-.8-.6v.5c-.5-.3-.5-.8-.9-1.2 0 .1-.1.2-.1.3.1.8.4 1.4 1 2 .7.6 1.4 1.1 2.3 1.3.7.2 1.4.2 2.1 0 .7-.2 1.3-.6 1.9-1 .6-.4 1.2-.8 1.6-1.4.5-.9 1.1-1.8 1.4-2.9 0-.1 0-.2.1-.3.3-.6.4-1.1.4-1.8 0-.2 0-.5.1-.7v-.9c0-.5-.1-1.1-.2-1.6 0-.3-.1-.6-.1-.9h-.1c0 .3-.1.5 0 .8.1.4 0 .8-.1 1.1-.2 0-.4 0-.6.1-.1.1-.1.2-.1.3-.2.7-.6 1.4-1 2-.5.6-1 1-1.7 1.3-.7.3-.7.3-.6 1.1 0 .1 0 .3.1.4-.6-.8 1.1 3.4 1.3 2-.2-.1-.4-.2-.5-.4-.1-.3-.1-.6.2-.9.1-.1.3-.2.5-.3.9-1.2 1.2-1.5.9-1.1zm12.9-17.9c-.1 0-.2.1-.3.1-.5.7-.7 1.5-.9 2.3v.2c.6 0 .6 0 .7-.6 0-.2 0-.5.3-.7.1.1.1.3.3.4.5.1.7.5 1.1.7.3.2.6.5.8.8.3.5.4 1.5 0 2-.8 1.1-2.1 1.4-3.3.8-.4-.2-.6-.6-.9-.9l-.4-.4c-.1.3-.2.5-.3.7-.1 0-.3 0-.4-.1-.5-.3-.9-.6-1.1-1.2-.1-.5-.2-1.1-.3-1.7-.2.1-.3.3-.4.5-.1.4-.3.7-.3 1.1-.1.3-.1.7-.1 1.1.8 1.3.8 2.4.1 3.5-.4.1-.5.3-.6.7 0 .4-.1.9-.1 1.3s-.1.8-.1 1.2c-.4.6-.9.7-1.7.3-.5-.1-.7-.1-.9.5.5.8 1 1.6 1.5 2.5.7 1.5 1.5 3 1.8 4.6.3 1.4.2 2.7 0 4-.1.5-.3 1.1-.4 1.6v.5c.2.3.4.7.6 1 .7 1 1 2.1 1.2 3.3.1 1.1 0 2.1-.4 3.1-.4 1.1-1 2-1.9 2.8-.2.1-.3.3-.2.4.1.4.3.9.5 1.3.4.3.7.2.9-.4 0-.2.1-.3.1-.5 0-.7.4-1.2.8-1.7.1-.1.3-.1.4-.1.5.4 1 .7 1.2 1.3.1.3.3.6.4.9.1.3.2.4.5.5.4.2.8.4 1.1.7.2.2.3.4.2.7-.2.6-.1 1.1.3 1.6.3.5.7.9 1.2 1.3.9.7 2 1.1 3.2 1 .5-.1 1-.3 1.3-.7.3-.4.2-.8-.2-1-.4-.2-.8-.2-1.4.4-.3.3-.4.3-.7 0-.2-.3-.4-.6-.3-.9.1-.7.2-1.4-.1-2.1.2-1 .8-1.4 1.9-1.3.3-.1.6-.1.9-.3.5-.2 1-.3 1.5-.1.3.1.4.3.3.6-.1.2-.2.5-.2.8.1.6.5 1.1.9 1.7l.5-.5c.8-.8 1.4-.9 2.4-.6.4.2.6.5.7 1-.2 0-.4.1-.6.1-.4.1-.7.7-.5 1.1.3.6 1.2 1 1.8.8.9-.3 1.7-.7 2.4-1.2.1-.1.2-.2.2-.3-.1-.1-.2-.2-.4-.1-.9 0-1.6-.4-2.3-1.1-.5-.5-1.1-.7-1.7-1-.3-.1-.5 0-.8.1-.2.1-.3.1-.5.2-.3-.6-.1-1 .4-1.1.4 0 .7-.2 1-.5l.5-.5c.4-.5.8-1 1-1.6.1-.4 0-1.1-.6-1.4-1.6-.5-3.2-.4-4.8.3-.8.3-1.5.7-2.3 1-.4.2-.7.2-1.1 0-.4-.3-.8-.5-1.3-.7-1.1-.6-2.2-1-3.3-1.4-.4-.2-.9-.3-1.1-.8-.7-.6-1-1.4-.9-2.2.1-.3.3-.5.4-.8.2-.7.4-1.3.6-2 .4-1.5.6-3.1.6-4.7 0-1.3-.2-2.5-.7-3.8-.3-.8-.6-1.6-1-2.3-.4-.7-.8-1.3-1.3-1.9-.3-.4-.3-.6.1-.8.2-.1.3-.2.5-.4s.4-.4.3-.7c0-.7 0-1.4.3-2 .3-.7.8-1.1 1.5-1.4.7-.2 1.4-.2 2 .1.2.1.4.1.6 0 .3-.2.5-.1.8.1 1 .7 2 1.3 3.2 1.4.8.1 1.6 0 2.4-.5.8-.6 1-2 .3-2.8-.2-.3-.5-.5-.8-.7-.4-.6-.2-1.2.4-1.6.4-.4.9-.8 1.4-1.3.1-.1.2-.2.3-.4-.2-.1-.3-.1-.4-.2-.5-.2-1-.5-1.3-1-.2-.3-.2-.6-.3-.9-.2-.7 0-1.3.4-1.8.4-.4.8-.8 1.4-.8.4 0 .8-.2 1.2-.4-.1-.4-.2-.7.1-1-.3-.7-.8-1-1.4-1.2-1-.3-1.9-.5-3-.5-.9 0-1.7.2-2.6.4l-.9.3c-1.1.5-2 1.1-2.9 1.9-.7.6-1.4 1.3-1.8 2.1-.4.6-.7 1.2-1 1.8-.3.6-.3 1.4-.1 2 .1.2.2.4.5.5.2-.4.5-.9.7-1.3.2-.5.2-1 .4-1.4.1-.3.2-.7.3-.9.3-.5.6-1 .9-1.6.9-1.4 2.3-2.3 3.9-2.8.2-.1.4-.1.6.1-.2.3-.6.4-.8.5-.5.3-1 .5-1.4.8-.2.1-.4.3-.7.4-.4.1-.8.6-.7 1 0 .7 0 1 .2.8zm25.2 10.2c-.1.2-.2.4-.2.5-.1.2-.2.5-.4.6-.5.5-.9.5-1.1-.1-.2-.4-.5-.5-.9-.3-.2.1-.4.2-.7.2-.6.3-1.3.3-2 .1-.3-.3-.8-.4-1.3-.5-.1.2-.2.3-.3.5-.3.4-.6.8-1.1 1-.6.3-1.3 0-1.7-.8.2-.2.3 0 .4 0 .3.1.5.1.6-.2.2-.4.2-.7-.2-.9-.7-.3-1.3-.4-2.1-.1-.7 0-1.4 0-2.1.1-.3 0-.6.1-.8.2-.7.5-1.5.9-2.3 1.2-.2.1-.4 0-.6 0-.8.1-1.6.3-2.4.5h-2.2c.1.2.1.4.1.6.2.6.5 1.2.7 1.7.3.9.6 1.8.8 2.8.2.9.4 1.9.4 2.8v3c0 .9-.2 1.8-.3 2.6-.1.6-.1 1.3-.3 1.9-.3 1.2-.7 2.4-1.1 3.6-.1.2-.1.4-.1.6.5-.2.9-.3 1.3-.4.8-.2 1.6-.4 2.5-.5 1.4-.2 2.8-.1 4.2.3.6.2 1.1.6 1.6.9.4.2.5.2.6-.3.1-.3.1-.7.1-1.1.2 0 .3.1.5.1.5.3.9.6 1.2 1.1.2.3.4.7.6 1 .3-.2.4-.3.3-.8-.1-.2 0-.4 0-.6.1-.4.4-.6.8-.7.3-.1.5-.2.6-.5.2-.3.6-.5 1-.5.2 0 .5 0 .7-.1.5 0 1.1-.2 1.6.3h.2c.9.2 1.5.6 2 1.2.1.2.2.3.3.5h.2c.5.1.9-.1 1.2-.5.2-.4.6-.6 1.1-.9.3.4.6.8.8 1.2.2.4.3.4.7.2.5-.2.9-.5 1.4-.7.8-.3 1.7-.4 2.5-.4 1.6-.1 3.2 0 4.8.5.5.1.9.4 1.5.2v-.2c0-.1-.1-.2-.1-.4-.6-1.2-1-2.5-1.4-3.8-.7-2.1-.9-4.4-.9-6.6 0-.9.1-1.7.2-2.6.1-1.2.4-2.3.8-3.5.1-.4.3-.8.5-1.2.1-.2.2-.5.3-.7.1-.3.2-.6.2-1h-.5c-.6.1-1.2.2-1.9.3-.7 0-1.5.1-2.2-.2-.3-.2-.7-.2-1 0-.6 0-1.3 0-1.9-.2-.5 0-1-.2-1.3-.7-.5-.6-1.1-.3-1.7-.4-.1 0-.3.2-.4.3-.1.1-.1.2-.1.2-.2.3-.3.4-.6.2-.2-.1-.5-.3-.7-.5-.1.2-.2.1-.4-.1-.2.2.2.2 0 0zM-30 412c0 .4-.1.9-.4 1.3-.3.3-.2.6-.2.9.2.5.1 1.1-.2 1.6-.3.3-.4.3-.7 0-.1-.1-.2-.3-.3-.4-.2-.3-.7-.4-.9-.3-.3.1-.5.7-.3 1 .2.4.4.7.8.9.4.1.8.3 1.2.3.5.1 1.1.1 1.6-.1.4-.2.8-.5 1.2-.7.8-.5 1.4-2 1-3-.1-.2-.1-.3-.1-.5-.1-.3.1-.4.3-.5.3-.1.5-.2.8-.3.1-.1.3-.2.4-.3.1-.4.4-.7.6-1 .1-.6.4-1 .9-1.3.7.1 1.1.5 1.5 1 .2.4.3.8.4 1.2.1.3.3.4.5.1.2-.5.3-1 .5-1.5 0-.2 0-.4-.1-.5-.2-.3-.4-.7-.6-1-.5-.7-.7-1.4-.9-2.2-.3-1.7-.1-3.4.8-4.9.1-.1.1-.3.2-.4.2-.2.2-.5.1-.7-.1-.2-.1-.3-.2-.5-.4-.8-.6-1.7-.6-2.5 0-1.2.2-2.4.6-3.5.5-1.8 1.3-3.4 2.3-4.9.4-.7.8-1.3 1.2-2 .1-.2.2-.4.1-.7-.5.1-.9.3-1.3.4-.8.2-.9.2-1.3-.5 0-.1-.1-.1-.1-.2-.5-.5-.2-1.1-.2-1.7 0-.4.3-.5.6-.8-.6-.1-1.3-.2-1.9-.2-.2 0-.3-.2-.3-.4s.1-.3.1-.5c.2-.6.3-1.2.5-1.8.3-.9.3-1.9.2-2.8 0-.3-.1-.4-.4-.4-.3 0-.3.1-.4.3-.1.3-.2.6-.3 1-.1.4-.4.8-.7 1.1-.2.2-.4.1-.4-.2 0-.3-.1-.6-.2-.8-.2.2-.3.4-.4.5-.3.6-.8 1-1.3 1.3-.7.4-1.5.4-2.3.2-.6-.1-1-.5-1.4-.9-.4-.5-.5-1.2-.5-1.8.1-.8.5-1.5 1.4-1.6.2 0 .4-.1.5-.4.1-.3.3-.3.6-.2.2.1.4.1.6.2v-.8c-.2-1.3-.9-2.4-2-3.2l-.3-.3c.4-.2.6 0 .9.1.9.6 1.5 1.6 1.9 2.6.2.6.3 1.3.2 1.9 0 0 0 .1.1.2.1-.2.2-.3.2-.4.1-.5.1-1-.1-1.5l-.6-1.5c.1 0 .2 0 .4-.1-.8-.9-1.8-1.5-2.8-2-.5-.2-1-.3-1.5-.5-.2-.1-.4-.1-.6-.2.2-.3.4-.3.6-.2.8.2 1.5.4 2.3.8 2.5 1.2 3.9 3.1 4.2 5.8 0 0 .1.1.1.2.1-.4-.2-.8.1-1.2h.3c-.1-.2-.1-.4-.2-.5-.8-1.6-1.8-2.9-3.3-3.9-.5-.4-1-.8-1.7-.9-.1 0-.2-.1-.3-.1-.8-.2-1.5-.5-2.3-.6-.8-.1-1.6 0-2.4.2-.7.2-1.4.4-2.1.8-.3.2-.6.5-.9.7-.1.1-.3.3-.1.5.2.2.3.1.5 0s.4-.3.6-.2c0 .2-.1.4 0 .5.3.3.5.6.6 1 0 .1.2.2.3.2.2.2.5.4.7.6.6.7.4 2-.2 2.6-.2.2-.4.5-.7.8l.4.4c.6.6 1.2 1.1 1.8 1.7.4.4.4.6-.1.9-.4.3-.7.7-.9 1.2-.4.9-.2 1.5.5 1.9.4.3.9.4 1.4.4.7-.1 1.5 0 2.2-.3l1.8-.6c.6-.3.6-.3 1 .1.5.4.6.4 1.1.2 1-.5 1.9-.3 2.8.2.2.1.5.4.6.6.3.6.6 1.2.3 2 .1.7.3 1.2.9 1.5.3.3.3.3 0 .7-.7.9-1.5 1.8-1.9 2.8-.3.7-.7 1.3-.8 2-.2 1.1-.3 2.2-.3 3.3 0 .2.1.5.1.7.1.8.1 1.7.3 2.5.3 1.1.6 2.3 1 3.4.1.4.1.7 0 1.1-.2.4-.3.8-.5 1.2-.1.2-.3.4-.5.6-.4.3-.9.5-1.3.8-.4.2-.8.5-1.1.7-.8.6-1.6 1.1-2.4 1.8-.4.2-.8.1-1.1-.2-.9-.6-1.9-.9-3-1.2-1.4-.5-2.9-.5-4.3-.2-.7.3-1.2.9-1.2 1.6 0 1 .8 1.9 1.8 2h.2c.3.1.5.3.5.6s-.2.5-.4.3c-.6-.3-1 0-1.4.4-.3.3-.7.7-1 .9-.8.6-1.7.8-2.7 1-.2 0-.4.1-.6.2-.2.2-.2.4 0 .5.4.2.7.4 1.1.5.7.3 1.4.4 2.2.4.4 0 .8-.2.9-.7.2-.5 0-.9-.5-1.4-.1-.1-.3-.2-.3-.4.1-.2.3-.3.5-.3.6-.2 1.1 0 1.5.2l.6.3c.2-.4.3-.7.5-1 .5-.6.7-1.2.3-1.9-.2-.3-.1-.4.3-.5.5 0 .9.2 1.3.4.2.2.5.2.7.1.6-.2 1.2 0 1.8.1.3.3.8.5 1.4.7.1.3-.6-.2 0 0zm-51.4-27.2c.5-.3.5-.3.6-.9 0-.1 0-.3.1-.4.3-.9.6-1.7 1-2.6.1-.3.2-.6.6-.8-.1.3-.1.5-.1.7-.2.7-.4 1.4-.6 2-.2.5-.3 1.1-.1 1.6.1-.3.2-.5.3-.8.3-.9.5-1.8.8-2.7.3-.8.7-1.6 1-2.4.5-1.1 1.1-2.1 1.8-3 .6-.9 1.4-1.7 2.2-2.4 1.2-1.2 2.6-2.1 4.1-2.9 1.2-.7 2.5-1.2 3.8-1.5 1.3-.4 2.7-.4 4.1-.4h.5c-.2-.2-.3-.3-.5-.3-.9-.2-1.9-.3-2.9-.1-.9.1-1.8.2-2.6.5-.9.3-1.8.6-2.7 1-1.3.5-2.5 1.3-3.7 2.1-.5.3-1 .8-1.4 1.2-.5.4-1 .9-1.4 1.4-.4.5-.8 1-1.1 1.5l-2.1 3.3c-.3.5-.7.9-1 1.4.1.3.4.3.7.2-.2.3-.3.6-.4.8-.5.6-1.1 1.2-1.6 1.7-.1.2-.3.3-.1.5.4.1.5-.6 1-.5-.1.4-.3.9-.6 1.2-.3.5-.2.9.2 1.2.3.3.7.3 1.1.3.1 0 .4 0 .4-.3-1 .1-1.2 0-1.4-.6.5-.3.2.6 0 0zm4.1 24.2c-.1.8 0 1.4.2 2.1.2.7.5 1.3.7 2 .4 1.2 1.1 2.2 2 3.1.7.7 1.4 1.3 2.2 1.9 1.4.9 2.9 1.4 4.5 1.5 1.6.2 3.1-.1 4.5-.9 2-.8 2.2-2.1.7-3.8-.1 0-.3-.1-.5-.3.3-.1.4-.2.6-.2.3-.7-.1-1-1.2-1-.2.1-.3-.1-.2-.3.1-.2.5-.4.7-.3.4.2 1 .1 1.2.7.4.1.6.5.7.8.2.3.4.5.5.8.1-.2.2-.3.1-.4-.1-.4-.3-.8-.5-1.1-.3-.5-.4-1-.3-1.5v-.3c-.4-.2-.6 0-.7.5l.1.1c0 .2.1.4-.2.5-.2.1-.3 0-.4-.2-.3-.5-.5-.5-1-.4-.2.1-.4.2-.7.2-.4.1-.6.4-.5.8.1.4.4.6.8.5.1 0 .2-.1.3-.1.2-.1.5.1.5.3 0 .2-.2.4-.4.4-.4-.1-.8 0-1.2.3-.1.3-.1.5.1.8.6-.4 1.2-.6 1.9-.4.7.3 1.1.9.9 1.7-.2.8-.8 1.3-1.5 1.7-1.1.5-2.4.8-3.6.8-1.1 0-2.2-.1-3.3-.5-.9-.4-1.7-.8-2.4-1.3-.8-.6-1.5-1.3-2-2.1s-1-1.6-1.3-2.4c-.4-1-.6-2-.7-3 0-.3.1-.5.2-.7.3-.3.4-.7.9-.7.1 0 .1-.1.2-.1.6-.6 1-1.4 1.2-2.2.1-.6.1-1.3 0-1.9-.2-.8-.3-1.6-1-2.1-.2.1-.3.1-.5.2.9 1.1 1.3 2.4.9 3.7-.4 1.2-1.1 2.3-2.5 2.8-.1.8 1.4-.5 0 0zm63.3-23.2c.4-.5.4-1 .1-1.4-.2-.3-.5-.6-.7-.9-.2-.3-.4-.6-.5-.9 0 0 .1 0 .1-.1l.2.2c.6.8 1.2 1.4 2 2 .2.2.4.1.5-.1.1-.2 0-.4-.2-.6-1.2-.8-2.1-1.8-2.9-3 .2 0 .4 0 .5-.2-.2-.2-.3-.5-.5-.7-1-1.1-1.8-2.3-2.6-3.6-.6-1-1.2-2-2-3-1.1-1.4-2.4-2.5-3.8-3.5-1.3-.8-2.7-1.5-4.2-1.9-.7-.2-1.3-.3-2-.3-.2 0-.4.1-.5.1v.1c.2 0 .3.1.5.1 1.3.2 2.5.6 3.6 1.1.9.4 1.7.8 2.5 1.4 1.1.7 2 1.5 2.9 2.4.9.9 1.8 1.9 2.5 3.1.7 1.1 1.3 2.2 1.8 3.5.5 1.3 1 2.7 1.3 4.1.1.3.2.6.2.9 0-.4 0-.7-.1-1 0-.3-.3-.6-.1-1 .4.5.6.8.9 1.8.1.3.2.6.6.6-.1.4-.1.6-.1.8.4-.5 0-.2 0 0zm-68.5 22.5c-1.1-.6-1.8-2-1.3-3 .1.2.2.3.2.5.1 0 .1-.1.2-.1-.1-.7-.2-1.4.2-2 .1.3 0 .6.1.8 0 .5.1.9.5 1.3.3.3.6.7.8 1 .2-.3 0-.6-.4-.8-.5-.5-.7-1.1-.7-1.7.1-1.2.6-2.4 1.4-3.4.3-.6.1-.9-.5-.7-.6.3-1.1.7-1.5 1.3-.5.7-.7 1.5-.9 2.3-.2.9 0 1.8.2 2.7.2.9.8 1.6 1.5 2.1.2.2.4.3.7.2l.4.4c.2-.4.5-.5.9-.3.1.1.4 0 .5-.1.4-.3.7-.6 1.2-.4.2-.3.5-.5.4-.9-.2.2-.5.4-.8.5-.3-.1-.3-.3-.3-.6s-.1-.5-.4-.6c-.2-.1-.3-.3-.1-.5.2-.1.4-.1.6-.1.2 0 .3.1.5.2.4.2.8.1 1-.3.1-.2.2-.3 0-.6-.3.3-.6.4-1 .4-.3-.2-.7-.2-1.1-.2-.5 0-.9.6-.9 1.1 0 .2 0 .4-.1.6.2 0 .3.1.5.1v-.3c0-.1.1-.3.1-.3.4 0 .6.3.6.8-.1.1-.3.1-.4.2-.1.6-.4.9-.8.8-.2-.1-.4-.3-.5-.4-.3-.4-.5-.4-.8 0-1.2-.6.3-.4 0 0zm7.9-23.6v-.7-.5c.1-.3.1-.6-.1-.9-.1-.1-.1-.3-.1-.4-.2-1.1-.2-2.1-.1-3.2.1-.8.2-1.6.5-2.4.5-1.1 1-2.1 1.7-3.1.3-.4.6-.8.9-1.1-.2 0-.4.1-.5.2-1.8 1.5-3.1 3.3-3.8 5.6-.4 1.5-.6 3-.5 4.5 0 .7.2 1.2.7 1.7.5.3.8.4 1.3.3 0-.2-.5.1 0 0zm57.7 22.4c.1-.2.1-.3.2-.4.2-.2.3-.5.5-.7.2-.2.5-.2.7 0 .2.2.2.4.1.6 0 .1-.1.2-.2.3-.1.1-.1.2-.2.3.4 0 .8-.3 1.1.3-.1.1-.3.2-.4.3-.3.2-.4.5-.4.9.1.3.3.6.6.6.5 0 1-.1 1.4 0 .5.1.8-.4 1.4-.5-.3-.2-.4-.2-.6-.4.2-.4.3-.8.5-1.2.4-.8.9-1.5.7-2.4 0-.1.1-.4.2-.5.2-.2.2-.3.1-.5-.2-.7-.5-1.4-1-2-.4-.5-.5-.5-1.1-.4.1.2.2.3.3.4.3.3.4.6.5.9 0 .5.1 1 .1 1.4v.4h.1c.1-.5.2-.9.2-1.4.3.5.5 1.1.4 1.6-.1.6-.3 1.2-.5 1.7s-.4.5-.7.1c-.2-.2-.1-.4 0-.6.2-.3.3-.7.5-1.1v-.3h-.1c-.1.7-.6 1.1-1 1.7.2.1.3.2.4.3.4.4.5.9.3 1.4-.2.5-.6.7-1 .8-.4.1-.8-.2-.9-.5-.2-.4-.1-.7.3-1l.9-.3c-.2-.3-.5-.2-.8-.2-.4.1-.5 0-.6-.4 0-.1 0-.2-.1-.3-.1-.2-.2-.4-.3-.5-.4-.4-1.4-.3-1.8.2-.3.4-.7.5-1.1.3-.1-.1-.3 0-.5 0 .6.6.9 1.2 1 1.9.1.2.2.4.3.7h.1c.1-.1.1-.2.2-.4-.8-.3-.6-1-.8-1.6l.1-.1c.5.4.7.5.9.6.1-.1-.2-.1 0 0zm-46.7-6.3c.6 0 .8-.2.7-.7 0 0 0-.1-.1-.1-.2-.5-.3-.9.1-1.3.1-.1.1-.2.1-.3 0-.4.1-.7.1-1.1v-2.1c-.1-1-.3-2-.4-3-.1-.7-.2-1.4-.4-2.1-.2-.7-.5-1.4-.7-2.1-.3-.9-.7-1.7-1.3-2.5-.3-.7-.7-1.3-1.3-1.8-.1-.1-.2-.1-.3-.1l-.1.1c.1.2.2.4.4.6.5.6.9 1.2 1.2 1.9.2.4.3.9.5 1.2.4.7.6 1.5.9 2.2.3.9.4 1.8.6 2.7.1.8.2 1.7.2 2.6v3.6c0 .2-.1.5-.1.7 0 .5-.1 1.1-.1 1.6.6.1 0-.5 0 0zm55.6-4.6c-.5 0-.7.4-1.2.3.7-.8 1.2-1.6 1.1-2.6-.1.2-.1.3-.2.5-.2.4-.3.9-.6 1.2-.7.8-1.7 1.2-2.8 1.3-1 .1-1.7-.4-2.4-1-.9-.8-1.5-1.7-2-2.8-.1-.2-.2-.3-.3-.5h-.1c0 .5.2.9.5 1.4.4 1.1 1.2 2 2.1 2.7 1.3 1 2.8 1.6 4.5 1.6 1 0 2-.3 2.8-1 .1-.1.1-.2.1-.2-.8.5-1.6.8-2.5 1-.3.1-.5 0-.8-.2.2-.1.4-.2.6-.2.7 0 1.3-.4 1.8-.9.3-.3.6-.6.7-1.2-.4.4-.6.7-.9 1-.3.4-.8.5-1.2.5.2-.4.5-.6.8-.9-.4-.1-.3.3 0 0zm-22.9-5.9s-.1.1-.2.1c-.1.1-.1.3-.2.4-.1 1.2-.2 2.3-.3 3.5-.1 1.1-.1 2.3.1 3.4.1.9.2 1.8.4 2.7.4 1.4.8 2.9 1.4 4.3.2.4.4.9.6 1.3.1.2.2.3.4.2.2-.1.2-.2.1-.4 0-.1-.1-.2-.1-.2-.2-.4-.3-.7-.5-1.1-.3-.8-.5-1.6-.8-2.4-.2-.8-.5-1.5-.7-2.3-.2-1.1-.5-2.3-.4-3.4v-.5c-.2-.9 0-1.8.1-2.7.1-.7.2-1.4.4-2.2.2-.4 0-.7-.3-.7 0 0 .3 0 0 0zM-61 367.9c.2.1.4.3.6.4 1.1.6 2 1.5 2.5 2.7.2.4.2.7.1 1.1-.1.4-.3.7-.7.8.5.8 1.1 1.2 1.7.6-.2 0-.4 0-.6-.1-.1-.5 0-1 .2-1.5 0-.1-.1-.3-.1-.5 0-.3-.3-.6 0-1 .2.1.4.2.5.3.8.9 1.3 2 1.1 3.3-.1.5-.3 1-.7 1.4-.1.1-.3.2-.4.1-.1-.1-.2-.3-.1-.4.1-.2.2-.5.4-.7.1-.2.2-.3.1-.5-.6 0-.9.4-1.1 1 .1.5.2 1 0 1.5.3-.1.5-.2.7-.1.4 0 .5-.2.6-.4.1-.1.1-.3.2-.4.4-.9.6-1.8.5-2.8-.3-1.8-1.3-3.2-2.9-4.1-.2-.1-.3-.1-.5 0-.2.2-.3.1-.4-.2v-.2c-.5-.2-1.1-.3-1.7-.3.2.2.6 0 0 0zm42 42h-.2c0 .1-.1.2-.1.3-.4 1.6-1 3.2-2 4.6-.7 1-1.5 1.8-2.4 2.5-1 .7-2.1 1.2-3.4 1.4-1 .2-1.9.3-2.9.1-1-.2-2-.4-2.7-1.1l-.1-.1c-.3.1-.6-.1-.9-.4.2.6.6.9 1 1.1 1.2.7 2.5 1 3.9 1.1h.4c1.3-.2 2.5-.5 3.7-1.1 1.2-.6 2.2-1.4 3.1-2.4 1.3-1.5 2.1-3.2 2.5-5.1.1-.2.1-.5.1-.9 0 0 0 .4 0 0zm-68.7-6.1c.7-.9 1.5-1.7 2.3-2.6-.3.1-.5.2-.8.3.2-.3.3-.4.5-.7-.6 0-1 .1-1.5.1-.4-.1-.7 0-1 .3-.1.3 0 .4.2.6.1.1.3.2.5.1.3-.3.7-.2 1.1 0-.6.6-1.2 1.1-1.9 1.6-.2.3-.5.6-.3 1.1h1.4c.5 0 .9-.3 1-.8.1-.3.2-.5.5-.7.3.3.3.3.2.7-.3.5-.2.9.3 1.1.2-.8.4-1.7.6-2.5-.2.1-.4.1-.6.2.1-.3.1-.5.2-.8-.2.1-.4.2-.5.3-.4.4-.8.7-1.1 1.1-.4.3-.7.5-1.1.6.7-.9.4-.1 0 0zm55 2.8h-.1c-.1-.1-.2-.3-.1-.5-.1-.5-.3-.7-.8-.7-.3 0-.4.1-.4.4 0 .2.1.5.1.7 0 .6 0 .6.6.9 1 .4 2 .6 2.9 1.1.3.1.4.1.5-.2.2-.5.4-1.1.6-1.6-.3-.1-.6-.2-.9-.4-.2-.1-.4-.1-.6.1-.1.1-.2.2-.4.2 0-.1 0-.2-.1-.2-.1-.5-.5-.9-1-.8-.2.3-.3.6-.3 1 0 0 .1-.2 0 0zM-44 371.4c.3.1.6 0 .9-.2.5-.4 1-.7 1.3-1.3.3-.3.5-.7.6-1.2-.6-1.1-1.4-1-2.5.1-.5.4-1 .9-1.5 1.4-1.1.5-1.5 1.2-1.1 2.1.1-.2.1-.4.3-.5.4-.4.9-.7 1.4-1 .3-.2.6-.2 1 0 0 .3-.3.3-.4.6 0-.1 0-.1 0 0 .3.1 0-.1 0 0zm-20.1 37c.1 0 .2-.1.3-.1.9-.3 1.8-.7 2.7-1.1.3-.2.6-.3.9-.2.2.1.6 0 .7-.3.2-.4.2-.8.3-1.2-.1 0-.1-.1-.2-.1-.3-.1-.7-.1-1 .1-.3.2-.1.5-.2.7 0 .1-.1.2-.2.3l-.3-.3c-.1-.2-.1-.4-.1-.6-.3-.2-.6-.1-.9.1-.1.3.1.7-.2 1.1-.1-.3-.2-.6-.3-.8h-.2c-.6.3-1.1.5-1.7.8-.1 0-.1.2-.1.2.1.6.1 1 .5 1.4.1 0-.4-.4 0 0zm36.1-5.5c.1-.2.3-.4.4-.6.1-.2.2-.4.1-.7h-.5c.1-.5.5-.8.4-1.3-.5.4-.7.8-.6 1.4-.4.8-.3 1.6-.4 2.5 0 .2.1.3.1.5 0 .3.3.4.5.5.3 0 .5-.1.7-.3.3-.4.4-.9.5-1.4.2-.8.3-1.6.1-2.4-.1-.6-.2-1.2-.2-1.7 0-.8-.3-1.6-.7-2.3-.1-.1-.2-.2-.4-.3 0 .6.1 1.1.1 1.6s-.1 1-.1 1.4h.1c.1-.3.3-.5.5-.9l.3.9v1.9c0 .7-.1 1.4-.3 2-.1.4-.2.4-.6.2.1-.3.7-.6 0-1 .2-.2.7.4 0 0zm-24.3-28.8l.6.9c.2-.3.3-.5.3-.9.3.4.4.8.4 1.2-.1.8 1.5.4 1.8.4v-.1c-.2-.1-.4-.2-.7-.3l.6-.3c.2-.1.3-.4.2-.6-.3-.2-.6-.4-1-.3-.9-.2-1.8-.2-2.7-.5-.4-.1-.8-.1-1.3-.2-.2.3-.2.7-.2 1 0 .3-.3.7-.1 1.1 1.1.1 1.3-.1 1.4-1.2.2.1.3.2.5.3.1-.1.1-.3.2-.5.2.3-.1.2 0 0zM-68 402.9c-.1.8.2 1.6.8 2.1.4.3.9.4 1.4.2.5-.2.6-.6.6-1.1 0-1.4-.8-2.4-1.7-3.4-.2.7 0 1.3.3 1.9.2.4.3.8.4 1.2.1.2 0 .5-.3.6-.1-.4-.1-.7-.3-1.1-.2.1-.4.4-.7.2 0-.4.5-.5.4-.9-.4.1-.7.2-.9.3-.2.8.2-.1 0 0zm40.2-25.6c0-.1-.1-.2-.1-.2-.2-.4-.2-.4-.6-.2-.2.1-.4.1-.5.2-.4.1-.9.5-1 .9 0 .1.1.2.1.3.2 0 .3-.1.4-.2.1.3 0 .6.3.8.1-.4 0-.9.6-1v.7c.5-.6.5-.6.8-.7 0 1.1.6 1.6 1.7 1.5 0 .2-.1.3-.2.4-.4.4-1 .5-1.6.5-.6 0-1.1-.2-1.4-.7-.1-.2-.3-.5-.4-.7-.1-.1-.1-.3-.3-.2 0 .6.3 1.1.6 1.4.4.4 1 .6 1.6.6 1.1-.1 2-.7 2.4-1.7.1-.3.1-.6.1-.9-.2.2-.4.4-.5.6-.3.3-.7.4-1.1.4-.2 0-.4-.1-.4-.3-.1-.3-.1-.5.2-.7.2-.1.3-.3.2-.6-.3-.2-.6-.2-.9-.2 0-.1.3 0 0 0zm-2.7 35.2c-.2-.1-.4-.2-.5-.2-.1-.1-.3-.1-.4-.2-.5-.4-1.1-.3-1.7-.2-.2 0-.3.2-.4.4-.1.1-.3.4-.4.4-.5.1-.4.4-.5.9.3-.2.6-.2.8.1.2.3-.1.5-.2.7.3-.1.6-.2 1-.2.3 0 .4.1.3.3.5.2 1.1.4 1.7.7v-.6c-.1-.5-.3-.6-.9-.5-.1 0-.2.1-.3.1-.1 0-.3-.1-.3-.2s.1-.2.2-.3c.1-.1.2-.1.4-.1.4-.1.8-.5 1.2-1.1-.3-.1-.4.6 0 0zm12.9-24.3l-.6.9c-.7 1-1.1 2.3-1.5 3.4 0 .1 0 .3.2.3.1-.3.3-.5.5-.9 0 .5.7.1.6.7 0 .3.2.6.1 1-.2-.1-.4-.2-.6-.2v.1c-.3 0-.6.1-1 .1.1.2.3.3.5.2.3-.1.5-.1.8 0 .1.1.4.1.5 0 .1-.1.1-.3 0-.5-.2-.5-.3-1.1-.2-1.6.1-.5.2-1.1.3-1.6.1-.4.3-.9.4-1.3.3-1.1.2-2.3.2-3.5 0-.1-.1-.1-.2-.3-.5.9-.8 1.8-.8 2.7.3.2.5.3.8.5-.3.3-.3-.2 0 0zm-50.3 1.4c-.2-.5-.6-.8-.9-1-.6-.5-1.2-1-1.6-1.6-.5-.7-.6-1.8.1-2.5.4-.4.9-.6 1.5-.5.6.1 1.1.5 1.5.8.2.1.3.3.5.5-.3-.9-.6-1.3-1.5-1.6-.4-.1-.8-.2-1.3-.2-.7 0-1.2.5-1.5 1.1-.4.8-.4 1.6 0 2.4.2.4.5.8.7 1.2.2.3.4.7.5 1 .1.2.3.3.4.2.7-.1 1.1 0 1.6.2-.2-.5-.5-.2 0 0zm-5.1 14.9c0-.2 0-.4.1-.6v-.5c-.1-1.2-.5-2.1-1.4-2.6-.1.1-.2.1-.2.2-.7-.3-1.1-1-1.8-1.2l1 1c.9.8 1.5 1.8 1.8 2.9.2.8.2 1.6 0 2.4-.2 1-.5 1.9-1.2 2.6-.2.2-.4.4-.6.7-.2.3-.2.4.2.6 0-.5.3-.8.6-1.1.6-.7 1.1-1.4 1.4-2.4.1-.4.3-.7.5-1.1-.6-.4-.6-.4-.4-.9 0-.2-.2.5 0 0zm-4.9-3.8c.2-.7.1-1.4.5-2v-.3c-.3.1-.6.1-.9.2-.1-.4-.2-.8-.4-1.3-.2.1-.5.2-.6.3-.4.3-.7.3-1.1 0h-.1c-.6.6-.6 1.9 0 2.7 0-.3-.1-.5-.1-.7 0-.5.2-.6.6-.5.1 0 .2.1.4.2 0-.3 0-.5.1-.8 0-.2 0-.5.4-.6v.4c0 .3-.1.7-.1 1 0 .4 0 .8.4 1.2v-.9c-.1-1.2 1.5 1.9.9 1.1.2-.7-.3-.4 0 0zm42.7-17.5c-.2-.2-.4-.2-.7-.2-.5 0-.6.2-.5.7.1.6.5 1 1 1.3 1 .7 2.1.7 3.3.6.3 0 .4-.2.3-.4 0-.2-.2-.3-.3-.5l-.4.4c-.2-.4-.5-.4-.8-.5-.4 0-.7-.1-1-.2-.2 0-.4-.1-.4-.4-.2-.2-.3-.3-.6-.4 0-.2.1-.3.1-.4-.2-.2 0 .1 0 0zm-1.6-7.7c0 .1 0 .2-.1.2-.2.8-2 1-2.5.7-.3-.2-.6-.5-.8-.8-.1-.2-.2-.3-.3-.5h-.1c0 .1-.1.3 0 .4.2.6.5 1.1 1.1 1.4.4.2.7.3 1.1.4 1.1.2 2 .1 2.9-.7.7-1.1.6-1.8-.1-2.3.2.4.4.7.1 1.1-.4.6-.8.3-1.3.1 0 .1.5.2 0 0zm-56.1 20.4c-.3.6-.9 1.1-1.4 1.4-.2.2-.5.4-.5.7 0 .1-.1.2-.1.3-.4-.4-.4-.9.1-1.2.3-.2.7-.4 1-.7.2-.1.4-.2.3-.5h-.2c-.4.3-.8.4-1.3.4s-.8.5-.9 1c-.1.7.7 1.4 1.2 1.6.4.1.7.3.9.6v-.6c0-.5.1-1 .4-1.4l.3-.3c.3-.3.5-.7.2-1.3-.3.7.3.6 0 0zm39 24.5c0-.3-.1-.5-.1-.7 0-.4.1-.7.4-.8.4 0 .5-.2.7-.5.2-.3.5-.5.7-.8 0-.1.1-.1.1-.1.7-.1 1.4-.4 1.9-.9v-.1c-.1 0-.3-.1-.4 0-.5.2-1 .5-1.5.7-.2.1-.4.3-.7.2.2-.9 1.1-1.1 1.7-1.6-.5-.1-.6-.1-1 .1-1 .2-1.8.6-2.4 1.3.2 0 .3.1.4.1.3.1.6.3.6.6s-.2.6-.5.7h-.2c-.4.2-.6.6-.6 1 .3.3.5.6.9.8-.1-.3-.4-.2 0 0zm32.1-25.1c.3.3.7.3.5.8-.2.4-.4.2-.6.1-.4.9-.1 3 .6 3.8.1 0 .2-.1.3-.3-.4-.3-.7-1.1-.6-1.7.2 0 .4 0 .6-.1v-.2c-.2-.8 0-1.6 0-2.4.1-.9.3-1.8.6-2.7.3-1.2.9-2.4 1.5-3.5.1-.2.2-.3.2-.5-.5.3-.8.7-1 1.3-.6.9-.9 1.8-1.3 2.7-.2.6-.5 1.1-.6 1.7v.1c.1-.1.2-.1.4-.3-.1.4-.1.7-.1 1-.1.2-.3.2-.5.2.2.3.2 0 0 0zm-29.5-23.7c0-.5-.5-.4-.6-.7-.2-.3-.4-.5-.6-.7-.2-.3-.3-.5-.5-.8l.1-.1c.1 0 .2 0 .3.1.4.4.8.8 1.3 1.1l.3.3.1-.1c-.2-.3-.5-.7-.7-1-.2-.3-.5-.7-.7-1-.3.1-.6.3-.9.4-.4-.2-.1-.7-.2-1-.2-.1-.3-.2-.5-.1s-.1.3-.1.5c0 .4 0 .8.1 1.1.1.5.5.9 1 1.2.4.4 1 .6 1.6.8 0-.5-.6-.2 0 0zm33.6 29.5c.3-.1.4-.4.4-.6 0-.2.1-.4.4-.4.2 0 .4.1.5.4v.4c.1 0 .2-.1.2-.2.2-.5.2-1.1.1-1.7-.1-.2-.2-.5 0-.7.4.2.4.7.6 1 .2-.1.4-.1.5.2.2.5-.4.3-.6.6.4 0 .8-.1 1.1-.1.3-.7.1-1.2-.5-1.4-.4.2-.6.1-.8-.3 0-.1-.1-.2-.1-.2-.1-.2-.2-.3-.5-.3-.1.2-.2.3-.3.5-.2.3-.3.3-.6.2-.1 0-.3-.1-.5-.1-.1.9.5 1.8.1 2.7.3-.2.4-.9 0 0zm-7.7-17.2c-.5-.1-.8 0-1.1.3-.9.8-1.7 1.7-2.1 2.9-.3.7-.6 1.4-.8 2.1-.2.7-.4 1.5-.6 2.2-.1.5.2 1 .7 1.2.1-.6.2-1.2.2-1.9 0-.9.2-1.7.5-2.6.4-1 .7-2 1.5-2.8.4-.5.8-1.1 1.7-1.4-.5-.1-.9.3 0 0zm-.1 6c.8-1.1 1.3-2.3 2.2-3.2v-1.2c0-.4-.1-.7-.5-.9.3.9.1 1.6-.3 2.2-.4.6-.9 1.2-1.5 1.7-.4.3-.8.7-1.1 1-.1.1-.3.3-.2.5.7-.3.7-.3 1.4-.1.8-1.1-.7-.2 0 0zm-19.5 26c.2.1.4.3.5.4.3.3.6.5.8.9.2.2.1.4-.2.4h-.3c.3.3.5.6.8.9.1-.2.1-.3.2-.4.6.3.7 1 1.2 1.4.1.3.1.6 0 .9-.1.3-.4.2-.6.4 0 .1 0 .3.1.4.6-.2.9-.7 1.1-1.2.2-.6-.1-1.3-.7-1.6-.8-.4-.9-.9-.5-1.7-.4-.3-.9-.5-2.4-.8.2.2 1.5.3 0 0zm-4.4-3.5c.2 0 .1-.3.4-.2 0 0 .1 0 .1-.1.1-.3.3-.2.4-.2.1-.2.2-.3.3-.5l.3.6c.1-.3.1-.5.2-.7-.3-.1-.6-.2-.8-.4-.4-.3-.7-.3-1.1-.1-.3.1-.5.4-.8.5-.4.3-.5.7-.4 1.1 0 .1.2.3.3.3.2 0 .3-.1.4-.2.2-.4.3-.4.7-.1.1-.1-.4-.3 0 0zm24-20.9c-.1.4-.3.7-.3 1l-.3 1.8c-.1.7-.3 1.4-.1 2.1 0 .4 0 .9.1 1.3.1.2.2.2.4.1s.2-.2.1-.4c-.1-.1-.1-.2-.2-.2-.1-.2-.2-.3 0-.6.2-.2.2-.4.2-.7 0-.7.2-1.4.2-2.2 0-.4.1-.9.1-1.3 0-.2-.1-.5-.2-.9-.1.4.1.4 0 0zm-33.5-8c-.5-.3-.9-.2-1.1.3-.2.4-.5.7-.9 1-.5.3-1 .4-1.5.4s-.5.1-.4.6c1 .1 2-.1 2.7-.6l.9-.9c.1-.1 0-.3 0-.4 0-.1.1-.2.3-.4-.5-.3-.2.2 0 0zm-6.3 15.4c-.1.5.1.8.3 1 .2.2.3.5.3.8-.2-.1-.4-.1-.5-.2-.4-1-.5-2.1-.3-3.2-.1.1-.2.2-.2.4-.1.4-.1.7-.1 1.1 0 .7 0 1.4.3 2 .2.4.5.7.9.8.7-.4.5-1.1.4-1.7-.2-.4-.6-.8-1.1-1-.1.4.5.2 0 0zm55.1 7.3c.2-.1.3-.1.3-.2.5-.5.5-1.2.1-1.9-.1-.1-.2-.2-.3-.4-.1-.6.2-.7.6-.4.1.1.2.2.2.4.2.6.7 1 1.2 1.2.3.1.6.3 1 0-.6-.2-1.1-.5-1.6-1-.2-.2-.3-.5-.5-.7-.3-.4-.7-.7-1.3-.8.2.4.2.4 0 .6-.1.1-.1.3-.1.4 0 .3.1.7.2 1 .5 0 .5 0 .6.5 0 .2.1.4 0 .5-.1.1-.3.2-.5.3.1.1.1.2.1.5.1-.1 0-.3 0 0zm-42.3 8v.2h.3c.7-.4 1.4-.5 2.1-.7.5-.1 1-.1 1.5-.1.6 0 1.1 0 1.7.1.9.2 1.8.5 2.6.9.1.1.3.1.5.2 0 0 0-.1.1-.1-.2-.1-.4-.3-.6-.4-.7-.4-1.3-.7-2.1-.7-.2 0-.4 0-.6-.1-.6-.2-1.2-.2-1.7-.1-.8.1-1.7.3-2.5.5-.5-.2-.9.1-1.3.3 0 0 .4-.2 0 0zm27.4-29.6s0-.1-.1-.1c-.4-.1-.8 0-1.1.3-.3.3-.5.6-.8.9-.8 1-1.3 2.1-1.6 3.4v.5c.1-.2.2-.3.2-.3.3-.7.7-1.3 1-2 .4-.8.9-1.4 1.4-2.1.1-.1.3-.2.5-.3.2-.1.4-.2.5-.3 0-.1-.1.1 0 0zm-42.7-6.2c.2-.3.3-.6.4-.9.2.2.3.3.4.5h.4c.1 0 .1.2.2.3-.2-.9-.7-1.6-1.5-2.1-.2.5-.6.8-1 1 .1.2.2.5.2.7 0 .4-.2.6-.6.5-.3-.2-.5-.4-.6-.8-.1.8-.1.9.5 1 .5.1.9-.2.9-.7v-.4c.1-.7.6.1.6.3.1.3.1.4.1.6.2-.4 0-.2 0 0zm20.4-3.7c.4.2.5.4.6.6.3.6.7.7 1.4.4-.4-.1-.7-.2-.9-.3-.1-.2 0-.3.2-.3.4.1.7-.2.8-.6 0-.3-.2-.3-.4-.3-.7 0-1.3.1-2 .1-.1 0-.3.2-.3.3 0 .3.1.7.2 1.1.2-.5.3-.7.4-1 .4.2-.1.3 0 0zm25 29.2c-.5.9-.1 1.9-.2 2.8.4.8.7 1.7 1.3 2.4.2.3.4.6.8.7.4-.3.4-.6-.1-.8-.5 0-.8-.3-1-.8-.2-.3-.3-.7-.4-1-.1-.6-.5-1.2-.2-1.8 0-.1-.1-.1-.1-.1-.3-.4-.3-.5.2-.8.3-.2.3-.4.2-.7-.1.1-.3.1-.5.1-.5.9.2 0 0 0zm-33.7 8.6c.4.9 1.7 1.7 2.5 1.6-.2-.2-.7-.2-.7-.7h.7c.2 0 .4 0 .5-.3.1-.5.5-.7 1-.6.1 0 .2.1.3.1-.5-.3-1-.3-1.4 0-.7.6-1 .6-1.7 0-.4-.3-.7-.3-1.2-.1.4.9.5-.2 0 0zm29.6-8c.5 0 .8-.3 1.1-.4.4-.2.4-.3.3-.7-.2-.6-.5-1.3-.7-1.9 0-.1-.1-.2-.2-.3-.1.4-.1.7-.2 1.1v1.1c-.1.3-.2.7-.3 1.1.5 0 .1-.4 0 0zm-10.9 10.4c.4.5.4.9.2 1.4l-.6 1.2c.2.2.4.3.5.4.1.1-.1.4-.1.6.4-.4.3-.8.1-1.1.2-.5.3-.9.5-1.3.1-1.3-.3-2-1.4-1.9.2.6.5 1.1.3 1.7-.2.7-.8.8-1.3 1.1 1.3.1 1.5-1 1.8-2.1.4.5-.3 1.1 0 0zm-14.4 6.5c.5.7 1.8 1.2 2.6 1l.3-1.5c.2-.9.3-1.8.3-2.7 0-.5-.1-1-.3-1.5v.2c0 .5.1 1.1.1 1.6-.1.8-.2 1.5-.3 2.3-.1.4-.1.8-.4 1.2-.2.2-.3.2-.5.2-.2-.1-.2-.2-.2-.4 0-.1 0-.2.1-.4-.2.1-.3.2-.4.3-.1.1-.3.3-.5.1-.2-.2-.1-.3 0-.5v-.1c-.4 0-.6.1-.8.2.5.7.2-.1 0 0zm-9.1-41.7c.5 0 1 0 1.3-.5.2-.3.5-.5.8-.7.5-.3 1-.7 1.4-1l.3-.3c-.4-.1-.8 0-1.2.3-.9.5-1.9 1.2-2.6 2.2.6 0 .7-1 0 0zM-44 407c.1.1.1.2.2.3.3.3.5.6.4 1 .4.5.9.5 1.4 0-.2-.1-.3-.2-.4-.2-.5.1-.6-.2-.8-.6-.1-.1-.1-.2-.1-.3 0-.1.2-.1.3-.1.2 0 .3.1.5.1s.4 0 .6.1c.1-.3.1-.5.2-.7.1-.2.3-.3.5-.6-.1-.1-.2-.3-.3-.3-.1 0-.3.1-.4.3-.1.4-.1.7-.2 1.1-1.1-.6-1.4-.6-1.9-.1 0 .1.5-.5 0 0zm-10.2 5.2c-.5-.3-.9-.6-1.4-.6-.5 0-1 .1-1.3.6.2 0 .4-.1.5-.1.5-.2 1-.2 1.4.2.1.2.3.3.5.4.4.2.8 0 .9-.4 0-.1 0-.2.1-.3.5 0 1.1-.1 1.6-.1-.1-.2-.2-.3-.4-.3-.4-.1-.9-.1-1.3-.1-.6-.1-.6 0-.6.7-.4-.3 0-.7 0 0zm12-3.3c-.3.1-.6.2-.8.3-.3.2-.6.5-.5.9 0 .3.2.3.4.2.5-.3 1.9-.1 1.8-1 0-.4-.1-.7-.1-1.1 0-.3 0-.3-.4-.2v.4c.2.3 0 .7-.1 1-.1.3-.3.3-.6.2.2-.1.3-.3.3-.7-.3.2 0 .4 0 0zm23.6-7.9l-.1-.1c-1.3 1-2.2 2.2-2.3 3.9-.1 1.8.5 3.3 1.9 4.5-1-1.6-1.5-3.4-1.5-5.5.2-.5.4-1 .8-1.3.2-.1.3-.3.2-.5.3-.4.6-.7 1-1 0 0-.2.3 0 0zm-30.1 22.1c-.3 0-.6.1-.9.1-.1.3.1.5.2.7.2.2 1 .7 1.2.7-.1-.2-.2-.3-.3-.5.2-.1.3-.1.5-.1-.1-.1-.2-.3-.2-.5.2-.1.4-.2.6-.2-.7-.1-.7-.1-.6-.8v-.5c0-.2 0-.4-.2-.6-.2.6-.2 1.1-.3 1.7-.3.1.1-.6 0 0zm-10.9-48c.1-.1.2-.1.2-.1.2-.3.4-.4.7-.3.3.1.5-.2.5-.4-1.1-1.1-1.6-1.2-2.3-.1.5 0 .7.4.9.9.1-.1-.2-.5 0 0zm-8.5 31.2c.4.1.4.1.8.6l.6-.3-.1-.1c-1-.4-1.9-.9-2.9-1.3-.2-.1-.4-.1-.6-.1.2 1 .4 1.2 1 1.1.5.5.9.6 1.2.1.4.1-.3.5 0 0zm10.4 7.7c-.2-.3-.4-.3-.7-.2-1.2.6-1.4 1.5-.7 2.8.4.3.4.6.2 1v.1c.3-.1.6-.1 1-.2l-.6-.6c-.9-.7-.8-1.9-.1-2.6.1-.1.2-.2.4-.1s.3-.1.5-.2c-.3-.3-.2.1 0 0zm36.9-12.2l.2.2c.2-.2.3-.5.5-.7l1.5-1.2c.2-.1.4-.3.4-.6-.8-.1-1.9.7-2.4 1.3.4.2.4.2.2.5-.2.1-.3.3-.4.5.1.1.1-.2 0 0zm-8.8-.6c-.1.5.2 1.3.5 1.7.4-.6.9-3.6.7-4.5-.1.2-.1.4-.1.6-.1.4-.1.9-.2 1.3-.2.4-.3.8-.9.9-.1.5.6-.1 0 0zm-56-11.2c-.3.3-.6.2-.8.2-.7-.1-1.3 0-1.9.2-.3.1-.5.2-.6.6h.3c.6-.3 1.2-.3 1.9-.3.3 0 .7 0 1-.1.2-.1.5-.3.6-.4.1-.1.1-.3 0-.4-.3-.2-.6-.4-1-.2.2.1.3.2.5.4-.3.3-.2-.2 0 0zm58.1 3.5c0-.1.1-.2.1-.2.2-.8.5-1.4 1.1-1.9.1-.1.2-.3.3-.4.1-.1.1-.3 0-.4-.4-.2-.7-.1-1 .3-.6.7-.7 1.5-.7 2.4l.2.2c0-.1-.1-.1 0 0zm-37.7-.6c.7-.4 1.1-.9 1-1.5-.1-.5-.3-1-.4-1.4 0-.1-.1-.2-.2-.3h-.1c0 1 0 2-.2 3-.2 0-.2.1-.1.2.4-.3-.1-.1 0 0zm-3.7 9.8c-.1 0-.1.1-.1.1l-.6 1.5c0 .1 0 .2.1.3.4.3.8.6 1.4.6.1-.4-.2-.5-.3-.8-.1-.3-.1-.6-.2-.9-.1-.3 0-.6-.3-.8 0 0 .3.2 0 0zm19.4 13.4h-.1c0 1.3.2 2.7-.6 4 .3-.1.5-.3.7 0 .1-.3.3-.6.3-.9 0-.9.1-1.8-.1-2.7 0-.1-.1-.2-.2-.4 0 0 .1.2 0 0zm-2.4-43.8l-.2-.2c-.7-.4-1.5-.9-2.2-1.3-.1-.1-.3-.1-.5-.1.2.4.2.8.4 1.1.7.4 1.6.6 2.5.5-.1-.2-.8-.2 0 0zm42.9 18c-.5-.1-.9.1-1.3.3.4.3.7.5 1 .7l1.8.3c.7.1 1.2.6 1.8 1.1 0-.5-.1-.7-.5-.9-.6-.3-1.2-.4-1.8-.5-.5 0-1-.1-1.3-.6.1-.2.2-.2.3-.4-.5-.1-.1.2 0 0zm-57.8 6.6c-.2.3-.4.5-.5.7-.3.9-.6 1.7-.7 2.7 0 .3-.1.6.1 1 .2-.3.4-.6.4-.8.4-1.2.6-2.3.7-3.6-.2.3 0 .4 0 0zm-7.4-17.5h-.1c0 .1-.1.2-.1.3v1.2c0 .4.2.8.3 1.2.1.2.2.3.4.2.2-.1.3-.2.2-.5-.1-.2-.1-.4-.2-.6-.1-.5-.2-1-.3-1.6-.1 0-.2-.1-.2-.2-.1 0 0 .1 0 0zm15.7 36c.1 1 .6 1.6 1.4 1.8.3.1.4.2.2.5l-.3.3c.3-.2.5-.3.7-.4.1.1.2.1.2.2.3-.3.6-.7.9-1h-.4c-.5 0-1 0-1.5.1-.4 0-.6-.2-.8-.5 0-.4-.2-.6-.4-1-.1.7.2.4 0 0zM-83 384.1c-.2-.3-.5-.3-.9 0l-.9.9c-.2.2-.3.4-.5.5.3.4.7.3 1.1.3-.1-.1-.1-.2-.2-.3.3-.2.4-.7.9-.7-.2-.2-.2-.3-.4-.4.4-.1.6-.2.9-.3-.1-.1-.3.1 0 0zm72.1 1.6c0 .2.1.4.1.5.5.1.6-.2.7-.6-.4-.3-.8-.5-1.2-.7-.2-.1-.4-.1-.5.1-.1.4-.4.6-.8.5.1.2.1.4.2.6.3-.3.6-.5.9-.8.1.1.1.2.2.3 0 .2.2.2.4.1 0 .2-.2.1 0 0zm-56.7 5.8c-.2-.6-.3-1.2-.8-1.6-.5-.4-.8-.3-.9.4.1.5.3 1 .8 1.3 0-.2-.1-.4-.2-.6-.1-.2-.2-.4.1-.5.5.2.5.8 1 1-.2-.6-.5-.2 0 0zm12.2 26.2h-.1c-.1.2-.1.4-.2.5-.2.4-.3.6-.8.5-.3-.1-.5 0-.7.2-.4.2-.4.2-.8-.1.1-.1.1-.3.2-.4-.4 0-.7 0-1.1.1l-.1.1c.3.1.7.2.6.6 1.2.4 2.2.1 3.2-.8-.4-.2-.3-.5-.2-.7-.1 0-.1.2 0 0zm26.8-24h.1c-.2-1.1 0-2.1.4-3.1s1.1-1.8 1.8-2.7h-.7c.2.3.1.5-.2.7-.5.3-.9.8-1 1.4 0 .1-.1.2-.1.4-.3.9-.5 1.8-.4 2.7 0 .3.1.5.1.6.1 0 0-.1 0 0zm-18.6 12c-.1-.1-.1-.2-.2-.2-.4-.2-.8-.2-1.2.2-.3.3-.5 1-.3 1.3.1.2.3.2.4 0 .1-.2.3-.4.3-.6.1-.3.2-.5.6-.6.1 0 .2-.1.4-.1-.1-.2-.2 0 0 0zm8.9-34.1c-.4.4-.5 1.1-.3 1.6.1.1.2.2.3.2.5-.1.9-.3 1.4-.4-.3-.1-.7-.2-1-.4-.1-.3-.2-.7-.4-1-.3.4.2.3 0 0zm-9.3 35.5c0-.1.1-.2.1-.2.1-.3.3-.4.5-.1.2.2.3.4.4.6.6 0 .7-.2.6-.7-.5 0-.8-.2-1.2-.4-.4-.3-.7-.2-.8.3-.1.2 0 .3.4.5.1-.1-.4-.2 0 0zm13.4-.3c-.1-.4-.2-.7-.4-1.1-.1-.3-.3-.4-.5-.3-.2.1-.3.2-.2.5 0 .2.1.4.1.7 0 .3.1.4.4.5.4 0 .6-.1.6-.3-.1-.4 0 .2 0 0zm-10.2 4.4c.1-.7-.3-1.1-.8-1.4-.5-.3-1.1-.6-1.8-.3.1.1.3.2.4.2.8.3 1.5.6 1.8 1.4.2 0 .3.1.4.1.1-.7-.1 0 0 0zm3.7-31s0-.1.1-.1c-.5-.6-.8-.6-1.1-.1-.1.2-.2.5-.3.7l.3.6c0 .1.2.2.2.2.3 0 .6 0 .7-.5-.6 0-.6-.5-.8-1 .4.1.7.1.9.2 0-.1-.2-.1 0 0zm2.2 1.2c.1.1.2.2.2.3.7.3 1 .1.9-.6-.1-.2-.1-.5-.2-.7-.2-.1-.3-.3-.6-.2l-.1.1c.1.1.2.2.3.2-.1.3-.2.5-.3.8 0 0-.1 0-.2.1.1.1.1-.1 0 0zm-53 13.6c.1.4.4.3.6.3.1 0 .3.1.5.1.1 0 .2.1.3.1-.1-.1-.1-.2-.1-.2-.6-.3-1.2-.6-1.8-.8-.1 0-.2 0-.3.1-.3.2-.3.8 0 1.1 0-.2.1-.4.1-.7.2.2.3.3.4.5.1-.2.1-.3.3-.5.1.4-.2.2 0 0zm46.2-18.2c0-.6-2.8-.5-2.8-.5-.5 0-1 0-1.5.1-.1 0-.3.1-.4.1v.1c.2.1.4.1.7.2 0 .2 0 .5.4.4l.1-.1c0-.1-.1-.2-.2-.4.5 0 1-.1 1.5-.1.6.1 1.3-.1 1.9.2h.3c0-.3-.1 0 0 0zm15.8 23.1c0-.6.2-.8.5-1 .4-.3.4-.9.1-1.2-.2.6-.5 1.3-.7 1.9-.1.2-.1.4-.1.6 0 .2 0 .4.3.4.2 0 .4-.1.4-.3.1-.3.1-.6.2-.9-.5.1-.4.5-.7.5 0-.6.3 0 0 0zM-48 378.4c-.2 0-.3 0-.4.1-.4.3-.8.6-1.3.9-.2.3-.5.5-.9.3-.1.5 0 .6.4.8 0-.1.1-.1.1-.2.4-.6.8-1.1 1.6-1.2.3-.1.5-.3.5-.7-.2 0 0 .4 0 0zm.4 42h-.1c0 .7.1 1.4.3 2.1 1.3.1 2-.1 2.5-.8-.3.1-.5.2-.8.4-.5.3-1.3.2-1.6-.3-.1-.2-.1-.4-.2-.6 0-.2-.1-.5-.1-.8-.1 0 0 .3 0 0zm4.4-45.3c0 .1 0 .1 0 0 .9.1 1.6.5 2.1 1.3-.1 0-.3.1-.5.1.4.1.6.4.9.3-.3-.6-.5-1.2-.8-1.9-.2.4-.6.2-.9.2h-.8c0 .1.4 0 0 0zm26 17.7c-.1-.7-.2-1.5-.4-2.2-.2.1-.2.2-.3.3-.1.5-.1 1-.1 1.4 0 .5.2.6.8.5-.2-.7-.6.1 0 0zm-33.3 14.9c.3.2.5 0 .7-.1v-1c0-.3.2-.6 0-1-.4.1-.6.3-.7.7.2.6.2.7 0 1.4.3.2.2-.7 0 0zm3.7-24.2c-.2-.2-.5-.1-.5-.4 0-.5 0-.5-.4-.6-.2-.1-.4-.2-.7-.2h-.4v.1c.2 0 .3.1.5.1.6.2.8.6.6 1.1 0 .1-.1.2-.1.3.5.3.8.1 1-.4-.2-.2-.2.5 0 0zm11.7-13.9c-.5.1-1 .2-1.5.4.1-.2.2-.4.2-.5-.6.2-1 .8-1 1.4.7-.4 1.4-.7 2.1-1.1.1 0 .1-.1.2-.2 0 0-.1.1 0 0zm-7.2 11.9h-.1c-.3.4-.7.8-1.1 1.3 0 .4 0 .4.3.7.4-.4.7-.8 1-1.4-.1-.2-.1-.4-.1-.6-.1 0 0 .2 0 0zm-10.6 24.6c-.5.6-.6 1.2-.1 1.8.1-.3.1-.6.2-.9l.4.4c.2-.9 0-1.3-.5-1.3-.2.3.5 0 0 0zm-.3-26.5c.3.3.3.6.2.9.5.1 1-.3 1.2-.8-.8-.5-1-.5-1.4-.1.4.2.4-.4 0 0zm1.8-.9c0 .1.1.2.1.4.1.1.3.1.3 0v-.9l-.1-.1h-.8c-.3.1-.3.3-.1.5.2-.1.4 0 .6.1 0 .1-.2-.1 0 0zm14.7 27c.1.4.3.7.4 1.1.1.2.2.3.4.2.2-.1.2-.2.2-.4 0-.3-.1-.5-.2-.8-.2-.4-.3-.4-.8-.1.1.4.5-.3 0 0zm-22 1c.6.3.8.2 1-.3.1-.2.1-.3.1-.5-.2-.4-.4-.4-.7-.1-.1.3-.2.6-.4.9.6.3.2-.3 0 0zm.7-24.6c.2.4.4.9.6 1.2.1.2.4.3.6.4.1 0 .3-.1.3-.2s0-.2-.1-.3c0-.1-.1-.1-.2-.2-.3-.1-.5-.3-.6-.5 0-.2-.2-.4-.6-.4.2.5.4 0 0 0zm13.6 1.3c-.6.5-.6 1.1 0 1.5h.4c.4-.2.4-.6.2-1 0 .1-.1.1-.1.2-.1.2-.3.2-.4.1-.2-.1-.1-.2-.1-.4v-.4c-.7.5 0 .2 0 0zm-9.1 25c-.1.1-.1.2-.2.3-.1.4-.3.8-.4 1.2 0 .1-.2.3-.2.4 0 .1.1.3.2.3.5 0 .7-.4.7-1.1 0-.3-.1-.6-.1-1.1 0 .1 0 .5 0 0zm11.2 2.9c-.5-.1-.8.2-1.2.4.8 0 .8 0 .9.8 0 .3.2.4.6.3.2-.1.3-.3.3-.5-.1.1-.3.1-.5.3-.1-.6-.1-.9-.1-1.3-.5-.1 0 .4 0 0zm3.4-31.3c.3-.3.5-.5.5-.9-.3-.1-.7-.2-1-.4-.3-.1-.4 0-.6.2-.2.2-.2.4.1.7.1-.1.2-.3.3-.4h.6c0 .3 0 .5.1.8.3-.2-.1-.3 0 0zm-11.5 3.7v.4c0 .1 0 .2-.1.3-.5.3-.2.7-.2 1.1.7-.2.9-1.2.3-1.8 0 .1.6.6 0 0zm24.9 3.8c.4-.4.8-.8.9-1.4-.5.1-.9.2-1.4.2.2.3.7-.2.8.3-.2.5-.8.4-1.1.6.3 0 .5.2.8.3.4-.4-.3-.1 0 0zm-10.2-8.2c.4.6 1.1.8 1.6.5-.4-.8-1.2-1-1.6-.5zM-48.4 408c.2 0 .4-.1.5-.1.3 0 .5.1.7.2.3.1.5.2.7.3-.1-.5-.5-.7-.8-.9-.6-.2-.8-.2-1.1.5.2 0 .3-.7 0 0zm-4.1-30.5v-.1h-.6c-1.2-.3-2.2-.1-3 .5 1.2-.1 2.3-.1 3.4-.2 0-.1.1-.2.2-.2 0-.1-.1 0 0 0zm33.9 8c0-.1 0-.1-.1-.2-.6.2-1.3.3-1.9.5-.2.1-.2.2 0 .4.8.1 1.4-.3 2-.7 0-.1-.6.4 0 0zm-26.9 29.2c.3.3 2.2 1.3 3 1.5-.5-.5-2.5-1.5-3-1.5zm-2.7-4.9h-.3c-.4.1-.9.3-1.3.4-.3.1-.5.3-.7.5.3-.1.5-.2.7-.3.4-.2.8-.2 1.2 0 .1.1.2.1.4.1v-.7c-.2 0 0 .2 0 0zm.3-32c.5.1.6.3.6.7v.9c.5-.9.4-1.7-.2-2.1-.1.1-.2.3-.4.5.5.1.2-.2 0 0zm-16.8 19.9c-.2.6.2 1.3.7 1.3.2-.8 0-1.2-.7-1.3zm13.7-13.6c-.1-.8-.6-1.1-1.6-1.1.1.2.2.3.3.4.4.2.8.4 1.3.7-.1-.8-.5-.3 0 0zm8.7-.7c-.2.5-.1.7.2 1 .1.2.4.2.5.1.2-.2.3-.4.4-.6 0-.1-.1-.2-.1-.2-.1 0-.2 0-.3.1-.1.1-.1.3-.2.4-.2-.3-.3-.6-.5-.8-.2.4.1.1 0 0zm3.1-1.6c.2.3.4.6.6.8.4.5 1.6-1.6-.6-.8.2.3.6-.2 0 0zm-27.9 13.9c.3 0 .4-.2.5-.4-.3-.7-.7-.8-.9-.1-.1.3.1.5.4.5zm17.5-14.3c-.3.1-.5.2-.5.4 0 .4-.1.8.3 1.2.5-.5.1-1 .2-1.6-.4.1-.1.6 0 0zm23.8-5.4c-.2.9-.3 1.7-1 2.4.9-.2 1.4-1.4 1-2.4zm-31.4 3.8v-.1h1c-.5-.3-.8-.3-1.4 0 0 .1 0 .2.1.3.1.2.3.4.4.6.1.1.3.1.4-.1.1-.2 0-.3-.1-.4-.1-.1-.3-.2-.4-.3 0-.1.1.1 0 0zm7.9 3.1c.1.2.1.4.2.5.2.3.4.4.7.2.5-.9-.1-.8-.9-.7.1.2.4 0 0 0zm-28.5.6c.1-.3.1-.5-.2-.6-.3-.1-.5-.1-.8.1-.3.1-.4.3-.4.7.4-.3.9-.3 1.4-.2.1-.2-.5-.1 0 0zm37.4-2.4l.3.3c.1 0 .3 0 .4-.1.2-.1.3-.3.4-.5.1-.3-.1-.6-.4-.6-.1 0-.2.1-.3.1 0 .3.1.5.4.6-.3.2-.3.2-.8.2.1.1.5 0 0 0zm-34.3 4.2c-.4-.1-.8-.2-1.2-.1.1.5.3.6.8.6.3 0 .4-.1.4-.5-.4-.1 0 .4 0 0zm14-10.5c-.3.8.2 1.6 1.2 1.7-.1-.1-.1-.3-.2-.3-.6-.3-.9-.8-1-1.4-.4.8.1.6 0 0zm21.9 37.1c-1.1-.7-1.8-.8-2.7-.1.4-.1.9-.2 1.3-.1.5 0 .9.2 1.4.2-1.1-.7-.5 0 0 0zm-1.7-1.7c.1.5.7.8 1.2.6-.2-.7-.4-.8-1.2-.6zm-28.7-14.7c0 .2.1.4.1.6.1.3.3.3.5 0s0-.6-.1-.9c-.3-.2-.5-.1-.5.3 0 .2 0-.1 0 0zm30.4-12.4l.1-.1c-.1-.2-.2-.4-.3-.5-.2-.1-.4-.1-.6-.1-.1 0-.2.3-.1.4 0 .2.2.3.4.3h.5s-.2 0 0 0zm21.9-.9c.1-.4 0-.6-.4-.6-.5-.1-.7.1-.8.5.4.1.8.1 1.2.1.1-.3-.4 0 0 0zm-52.4 17.4c.4.1.5-.1.6-.3.1-.2.1-.3.1-.5s0-.3-.2-.3-.3.1-.3.3c-.2.2-.2.5-.2.8.4.1 0-.3 0 0zm33.4-19.8c-.3-.2-.5-.3-.8-.5 0 .2.1.3.1.4-.1.1-.2.2-.3.2.1.3.2.5.3.8.2-.3.4-.6.7-.9-.3-.2-.3.3 0 0zm-45 21.6c-.5-.2-.6.2-.7.4-.3.3-.5.8-.4 1.2.4-.5.7-1 1.1-1.6-.5-.2-.4.6 0 0zm36.1 6.1h.1c.1-.3.2-.7.2-1 .1-.4-.3-.8-.7-.9 0 .1 0 .1.1.1.2.4.4.8.2 1.3 0 .1 0 .3.1.5 0 0-.1-.2 0 0zm-33.4-25.3c.2.1.5 0 .6-.1-.1-.5-.5-.6-1.2-.3-.5.4.6.4.6.4.1.1-.2 0 0 0zm33.1-4.6c-.2-.2-.3-.4-.7-.3v.7c0 .1.1.3.2.4.1 0 .3-.1.4-.1-.1-.2-.2-.3-.2-.5.1-.1.2-.2.3-.2-.2-.3-.1 0 0 0zm6.8 6.2c.6-.3 1.1-.7 1.1-1.4-.5.3-.9.8-1.1 1.4zm-6.5-4.3c0-.3 0-.5-.1-.8-.4.1-.6.4-.4.6.2.3.5.5.7.8.1-.2.1-.5.2-.7-.2 0-.3 0-.4.1-.1-.3.1-.1 0 0zm-20.8 14.7l.1.1c.1-.1.2-.1.3-.2.3-.3.6-.7.9-1 .1-.1.2-.3 0-.5-.4.6-.8 1.1-1.3 1.6.1 0 .5-.5 0 0zm22.2 19.3c.1.8.5.9 1.3.5-.7-.5-.8-.6-1.3-.5zm28.3-26.2c.4-.2.6-.4.8-.8-.4.2-.6.1-.7-.3-.1-.3-.1-.6-.2-.9h-.1c0 .6.1 1.2.2 2 .4-.3-.1-.8 0 0zm-53.6 7.2v-.5c0-.2-.1-.4-.3-.4-.2 0-.4.2-.3.5 0 .2.1.4.2.6.1-.1.2-.2.4-.2 0-.2-.2 0 0 0zm18.2-16.7c.3-.3.3-.3.8-.2-.2-.3-.4-.5-.6-.6-.2-.1-.3 0-.5.1-.2.3-.1.5.3.7.3-.3-.4-.2 0 0zm-27.9 3c.5.3.8.2.9-.3-.1-.2-.3-.3-.6-.2-.1 0-.4.1-.3.5.3 0-.1-.4 0 0zm31.5 3.7c.7.3 1.1.1 1.4-.7-.6.1-.9.6-1.4.7zm11.6-2.1c-.4-.1-.7-.3-1-.1-.1.1-.2.2-.2.3 0 .1.2.2.2.2.3 0 .5-.1.8-.1.1 0 .2-.1.2-.3-.3-.1 0 .2 0 0zm5.2 6.9c-.1-.1-.2-.3-.3-.3-.2-.1-.3.1-.3.3 0 .2-.1.4 0 .5.2.2.3.3.5 0 0-.1 0-.3.1-.5-.1-.1-.1.2 0 0zm-11.6 21.8c.6-.1.6-.1 1-.4-.1-.1-.2-.3-.3-.5-.3.2-.5.4-.7.6-.1.1 0 .2 0 .3.6-.1 0-.1 0 0zm.7-28.3c.4.3.4.3.9.1-.1-.3.2-.6-.2-.9-.3.3-.5.6-.7.8.4.3.2-.2 0 0zm2.8 1.8c.4.1.6 0 .9-.2.2-.2.4-.3.3-.6-.4.1-.8.4-1.2.8.4.2.4-.4 0 0zm-19.1-.3c.1-.4-.2-1-.6-1.2-.2.6-.1.9.6 1.2zM-69.1 398c.6-.2.7-.7.3-1.2-.1.1-.3.1-.3.2v1c.6-.2 0-.4 0 0zm24.8-19.3c.1-.1.2-.3.2-.4 0-.1-.1-.3-.1-.4-.1-.1-.3-.1-.3-.1-.1.1-.2.2-.2.4-.1.2 0 .4.4.5.1-.2-.4-.1 0 0zm-1.1 28.6l-.9.6c.4.4.5.4.7.1.4-.2.4-.3.2-.7-.3.2.2.4 0 0zm7.5-1.5c0 .2 0 .3.1.3.2.2.1.4 0 .6-.2.1-.2.3 0 .5.2.1.5-.1.4-.3-.1-.3-.2-.6-.3-1 0 0-.1-.1-.2-.1 0 .1.1 0 0 0zm-40.7-20.3c.2 0 .3-.1.5-.1 0-.7-.1-.8-.5-.9-.1.3-.2.6 0 1 .2 0-.2-.4 0 0zm32.1 19.7v-.1c-.2-.2-.4-.5-.6-.5-.2-.1-.5.1-.8.1v.1c.5.1.9.2 1.4.4 0-.1-.5-.2 0 0zm-8.3 4.8c-1 .1-1.2.3-1.2.7.5-.1.9-.4 1.2-.7zm6.5-34.4c-.3-.6-.4-.5.1-1.1-.3-.3-.5-.2-.6.1v.7c.1.3.2.5.5.3-.3-.5-.3.2 0 0zm-17.8 20.1c.1.3.3.4.5.4.1 0 .3-.1.3-.2.1-.1 0-.3 0-.4-.2-.2-.4-.2-.8.2.1.2.4-.4 0 0zm44.4-16.4c-.3.8-.3 1.1-.1 1.5.3-.5.5-1 .1-1.5zm-24.2 1.5c-.6-.3-.8-.4-1.4-.3.2.5.6.3 1 .5.1.1.2-.1.4-.2-.6-.3-.2.1 0 0zm.5 2.1c.2-.1.3-.3.2-.5-.1-.3-.3-.6-.4-.9h-.2s-.1.1-.1.2c.1.2.1.4.2.5.4.1.4.3.3.7.2-.2.1-.4 0 0zm-42.8 8.5c-.7-.1-1.2.4-1 1 .2-.4.4-.6.8-.7.1 0 .2-.1.2-.3-.7-.1 0 .2 0 0zm45.1-12.3c-.2.1-.3.1-.5.2 0 0-.1.1-.1.2 0 .3.2.4.6.4.1-.3.3-.6 0-.8-.2 0 .3.2 0 0zm2.4 29.3c0 .4.1.6.5.7.2.1.5.1.6-.2-.4-.3-.7-.4-1.1-.5.1.4.4.1 0 0zm-11.6.6l-.1-.1c-.2 0-.4 0-.5.1-.3.6-.2.8.3.6.2-.2.2-.4.3-.6 0-.1-.1.2 0 0zm34.8-15.6c0 .4-.3.8.1 1.2.4-.4.3-.8-.1-1.2zm-31.2-9.2s0 .1-.1.1l.2.2c.2.1.4.3.7.4.2.1.5 0 .6-.2-.5-.2-1-.3-1.4-.5 0 0 .4.2 0 0zm7.5-5.5c-.1-.3-.3-.4-.3-.6v-.7c0-.1-.1-.1-.2-.2-.2 1.1-.1 1.3.5 1.5-.1-.2-.6-.2 0 0zm-18.4 4.3c.3 0 .5-.1.8-.1.4-.1-1-1-.8.1.3 0-.1-.3 0 0zm-9.6 9c-.6 0-.7.2-.4.7.5.1.6 0 .4-.7zm16.2-15.2c.6.1 1.4.1 1.7-.1-.6-.3-1.2 0-1.7.1zm8.2-5.1h-.1c-.2.1-.4.2-.5.3-.2.5.1.6.8.4-.2-.2-.5-.4-.2-.7 0 0-.3.3 0 0zm15.1 16.3c-.2-.6-.3-.6-.6-.1 0 .2 0 .4.2.4.3.1.3-.2.4-.3 0-.3-.1.1 0 0zm.6-1.5c-.1-.2-.3-.4-.5-.3-.1 0-.2.3-.2.4 0 .1.2.3.3.3.3.1.3-.2.4-.4-.1-.2-.1.2 0 0zm-20.7 23c.6.1.8-.2 1.1-.6-.9.1-.9.1-1.1.6zm33.3-26.2c-.5-.4-.9-.4-1.3 0l.1.1c.5.2.9.1 1.2-.1-.5-.4-.1.1 0 0zm-.7-2.6c-.4-.5-.8-.5-1.1 0 .3 0 .6.2 1.1 0zm-49.3 9.9h.1c0-.8-.1-1-.7-1 .2.4.4.7.6 1 0 0-.2-.3 0 0zm39.7 2.7c.4-.2.5-.4.4-.9-.4.2-.5.4-.4.9zm-16.6-15.2c.4.3.6.1.8-.6h-.4c-.2.3-.3.4-.4.6.3.3.1-.2 0 0zm-23 1.1c-.6.3-1.1.5-1.6.8.6 0 1.1-.2 1.6-.8zm20.4 3.3l-.3-.3c-.4.4-.4.5.1.8.1-.1.1-.3.2-.5-.1-.1-.1.2 0 0zm-4.8 26.9c.2-.2.3-.3.4-.5.2-.2-1.2-.8-.4.5.2-.2-.2-.3 0 0zM-7 392.5c.1.2.1.4.2.4.3.2.4.4.6.7 0 .1.1.1.2.3-.1-.6-.4-1.1-1-1.4.1.2.6.3 0 0zm-60.6 9.2c-.6.2-.7.4-.4.9.2-.3.5-.5.4-.9zm-10.1-7.5c.5-.2.4-.5.3-1h-.1v.4c-.5.2-.5.3-.2.6.4-.2-.3-.3 0 0zm13.4 9.2l.1.1c.2-.1.4-.2.5-.4.1-.2-.2-.3-.4-.5 0 .4-.1.6-.2.8.1.1.1-.2 0 0zm19.6 9.4s0 .1.1.1.2-.1.3-.1c.3-.3.7-.3 1.1-.4.1 0 .1-.1.2-.1-.7-.1-1.3.1-1.7.5 0 0 .4-.4 0 0zm.6-35.2v-.6c0-.1-.2-.2-.2-.3-.1.1-.2.2-.2.3 0 .1 0 .2-.1.3.1 0 .2.1.5.3 0-.3-.3-.2 0 0zM-64 395.9c-.3-.1-.5 0-.5.3 0 .2.1.3.3.3.2 0 .2-.2.2-.4v-.2c-.2 0 0 .2 0 0zm14.5-15.8s0 .1.1.1c.3-.1.6-.2.8-.6-.1 0-.3-.2-.3-.1l-.6.6c0 .1.2-.2 0 0zm-6.4 26c-.3 0-.6.3-.7.7 0 .1.1.2.1.3.2-.4.4-.7.6-1-.3 0-.2.3 0 0zm4.6 1.5c-.3.1-.6.5-.5.7 0 .1.1.1.2.1s.2-.1.2-.1c.1-.2.3-.4.1-.7-.2.1.2.3 0 0zm-1.2 7.8c.5-.2 1.1-.3 1.5-.7-.5 0-1 .4-1.5.7zm34.6-36.1c-.4-.6-.7-.6-.8 0h.8c-.1-.4-.3 0 0 0zm-51.7 21.4c.4.2.6.1.5-.4-.4-.1-.4-.1-.5.4.2.1.1-.5 0 0zm26.5-26.7c.5-.2.9-.3 1.4-.5-.7-.1-1.2.1-1.4.5zm-4.5-3.2c.3-.4.4-.6.3-1-.4.1-.4.2-.3 1zm18 23.1c-.1-.5-.2-.6-.6-.7-.1.4 0 .4.6.7zM-42 379.1c-.1-.5-.3-.6-.5-.2 0 .1.2.3.2.4.1 0 .2-.1.3-.2 0-.2-.1.1 0 0zm22.6-1.6c.3.5.3.5.7.2-.1-.3-.2-.4-.7-.2zm11.5 13.3c.4.2.7.2 1.1 0-.4-.3-.7-.2-1.1 0zm-62.9-17.4c-.2-.5-.5-.5-.8-.2.2.2.5.3.8.2zm-6.2 5.9c-.4-.4-.6-.4-.8.1.3.1.6.2.8-.1zm54-3.8c-.3-.5-.3-.5-.7-.2.2.3.2.3.7.2zm-31.8-2.3c0-.3.2-.7-.2-1-.1.3 0 .7.2 1zm32.3 3.5c-.1-.4-.3-.5-.6-.4-.2.1-.2.2-.1.4.3.1.5.1.7 0-.1-.3-.2.1 0 0zM-65 408.1c0-.8-.1-.9-.6-.9.2.2.4.5.6.9zm-13.8-6.3c.2.3.3.7.8.6-.2-.4-.6-.4-.8-.6zm8.9-11.2c-.1.2-.2.3-.3.4.1.3.3.3.5-.1 0-.1-.1-.2-.2-.3-.2.1.1.1 0 0zm26.2-16.7c-.4.4-.3.8-.2 1.1.2-.3.2-.7.2-1.1zm14.1 24.4c-.5.2-.6.3-.4.8.2-.3.3-.6.4-.8zm.1-2.1c-.3.2-.5.2-.5.5 0 .2.1.3.3.3 0-.3.1-.5.2-.8-.3.2-.1.3 0 0zM-66 369.8c-.3-.3-.3-.3-.7 0 .3.3.3.3.7 0zm12.2 6.5c-.4-.1-.8-.1-1.1.2.5.1.8-.1 1.1-.2zm29.3-3c-.2-.4-.4-.4-.7-.3.1.3.4.3.7.3zm-31.4 3.3c.2-.2.6-.4.5-.8-.3.2-.3.6-.5.8zm12.4.2v.1c.4.1.7.1 1.1.2-.3-.3-.7-.4-1.1-.3 0 0 .4-.1 0 0zm-23.9-6.3c-.2-.4-.3-.4-.5-.1.2.2.2.2.5.1zm7.7 11.3c.3.1.5.1.7-.2-.3-.2-.3-.2-.7.2zm42.9 3.3h-.1c0 .3-.1.6.1.9v-.9s0 .3 0 0zM-42 373.9l-.5.5c.5.2.5.1.5-.5zm-7.1 31.3c.2-.2.4-.3.6-.5-.6 0-.6 0-.6.5zm13.8-23.4v-.1c-.3-.1-.6-.2-1 .1h1s-.2 0 0 0zm11.6-7.5c-.2-.2-.4-.4-.6-.3.1.4.1.4.6.3zm-5.5 10.9c.1.2.1.3.1.4.4.2.5.1.2-.3 0 0-.1 0-.3-.1 0 .2.2.1 0 0zm-17.5 25.2c.3.1.6.2.9.4-.2-.5-.3-.5-.9-.4zm10.2-32.3v-.1c-.3 0-.6.1-1 .2.5.2.7-.1 1-.1 0-.1-.3 0 0 0zm-36.4-3.1c.3.2.6.3.9.3-.2-.5-.5-.4-.9-.3zm25.9 35.3v-.1c-.2-.1-.4-.2-.7-.3.1.2.2.4.2.5.2 0 .4 0 .5-.1 0 0-.1.1 0 0zm22.1-24.9c.4.2.4.2.5-.1-.1-.2-.3-.1-.5.1zm-26.7 23.7c-.4.3-.3.5.1.4.2-.1.1-.2-.1-.4-.1.1.2.2 0 0zm-3.7-.8c.4.1.4.1.7-.2-.2 0-.4.1-.7.2zm12.7-36.7c-.4.2-.4.2-.5.5.3 0 .3 0 .5-.5zm16.8 27.6c0 .2 0 .4.2.4.1 0 .2-.1.2-.2 0-.2-.2-.3-.4-.2-.1.2.2-.1 0 0zm-1.6-4.3c-.1 0-.2-.1-.3 0-.1.1-.2.2-.2.3.1.2.2.2.4 0 .1-.1.1-.2.1-.3-.1-.1 0 .1 0 0zm-41.8-23.8c.4.4.4.4.7.1-.2-.2-.5-.2-.7-.1zm46.9 11.3c0 .5 0 .5.6.4-.3-.1-.4-.2-.6-.4zM-65 402.3c0 .2.1.4.1.6.3-.4.3-.4-.1-.6zm1-7.9c-.2.1-.4.2-.3.5.2-.1.4-.2.3-.5zm10-16.2v.2c.3 0 .5-.1.8-.1v-.1h-.8s.3 0 0 0zm25.2 17.7c.2-.2.2-.3.1-.6-.3.2-.3.4-.1.6zm-38.1-4.5h-.2c0 .2.1.4.1.7h.1c.1-.3.1-.5 0-.7 0 0 .1.2 0 0zm52.9-9.5s0 .1-.1.1c.1.2.1.2.5.1-.2-.1-.3-.2-.4-.2 0 0 .1 0 0 0zm-27.4-8.2c-.1.3-.1.6-.1.9h.1v-.9s0 .3 0 0zm11.3 21.3c-.1-.3-.1-.3-.4-.3.2.1.3.2.4.3zm-39.2-15.3c.3.1.4.2.6.3 0-.5-.3-.4-.6-.3zm25.2 28.4c-.1.5-.1.5.2.8 0-.3-.1-.5-.2-.8zm24 2.7c-.4-.2-.4-.2-.7 0h.7zm-37.2-32.1v.1c.2 0 .4-.1.6-.1v-.1c-.2 0-.4 0-.6.1 0 0 .2-.1 0 0zm9.6.6c-.3 0-.3 0-.4.3.3 0 .4-.1.4-.3zm6.7 2.6c-.1.1-.2.1-.4.2.4.2.4.2.4-.2zm21.5-5.7c-.2-.1-.3-.2-.5 0 .2.1.3.3.5 0zm-50.4-3.8v-.1c-.2-.1-.4-.1-.5-.2v.1c.2.1.3.2.5.2 0 0-.2 0 0 0zm-7.3 5.9v.1c.2.1.3.1.5-.2-.2.1-.4.1-.5.1 0 0 .1 0 0 0zm2 34.2v.1c.2 0 .4.1.5-.2-.2.1-.3.1-.5.1 0 .1.2 0 0 0zm3-38.5c.4.2.4.2.6 0h-.6zm21.8 5c.1-.1.1-.2.1-.3v-.1c-.2.1-.2.1-.1.4 0-.2-.1-.3 0 0zm2 1.6v.1c.2 0 .4-.1.5-.1v-.1c-.1 0-.3.1-.5.1 0 .1.2 0 0 0zm19.2-10.6c.3.2.3.2.5 0h-.5zm21.3 31.9c.2-.1.3-.2.3-.4-.2.1-.2.1-.3.4zm-64-14c.2 0 .4 0 .4-.3-.1.1-.3.2-.4.3zm41.7 7.8c-.1-.2-.2-.2-.3 0 0 0 .1.1.1.2 0-.1.1-.2.2-.2-.1-.1-.1 0 0 0zM-55.1 411s0 .1.1.1c.2 0 .3-.1.2-.3-.1.1-.2.2-.3.2 0 .1.1 0 0 0zm-22-25.2c0 .1-.1.1-.1.1 0 .1.1.1.1.1.2 0 .2-.1 0-.2-.1.1 0 .1 0 0zm27.7 29.3h-.1c0 .1 0 .3.3.4-.1-.2-.1-.3-.2-.4 0 0 .1.1 0 0zm-8.9-30.9v.3c0 .1.1.1.2.1v-.1s-.1-.1-.2-.3c0 .2.1.2 0 0zm30.9-13.3v.1h.3v-.1h-.3zm3 19.4l.1-.1c-.1-.1-.2-.1-.3-.2 0 0 0 .1-.1.1.1 0 .2.1.3.2 0-.1-.1-.1 0 0zm-2.4 4c-.1-.1-.2-.1-.3.1.1.1.2.1.3-.1-.1 0-.1.1 0 0zM-34 416l.1.1c0-.1.1-.1.1-.2l-.1-.1c0 .1-.1.2-.1.2 0 .1 0 0 0 0zm7-19.6c0 .1-.1.1 0 0 0 .1 0 .2.1.3 0 0 .1 0 .1-.1-.1 0-.2-.1-.2-.2 0 .1 0 .1 0 0zm.9-24.5v.1h.2v-.1h-.2s.1 0 0 0zm-18.5 2.5c0 .1 0 .1 0 0 .1-.1.2-.2.2-.3h-.1c-.1.1-.1.2-.1.3 0 .1 0-.1 0 0zM71.4 444.2c-1.3 1.4-2.6 2.9-4.2 4.1-.4.4-.9.6-1.5.8-1 .3-1.9-.4-2.2-1.2-.2-.7-.2-1.4.2-2 .4-.7.9-1.3 1.3-1.9.4-.5.8-1 1.1-1.6.1-.1.1-.2.2-.3.2-.3.2-.5-.1-.7-.2-.2-.6-.2-.8 0-.3.3-.5.6-.8.9-1.2 1.5-2.5 3-3.7 4.4-.6.7-1.1 1.3-1.9 1.8-.7.4-1.4.7-2.2.4-.6-.2-1-.6-1.1-1.2 0-.1-.1-.3-.2-.5-.3.3-.6.4-.8.6-.6.4-1.1.9-1.8 1.1-.9.2-1.7-.1-2.1-.9-.1-.3-.2-.6-.2-.9v-.4c-.2.1-.4.2-.5.3-.8.7-1.7 1.3-2.6 1.7-.7.3-1.4.5-2.2.4-.9-.2-1.6-.6-1.9-1.5 0-.1-.1-.2-.1-.3 0-.1-.1-.1-.2-.3-.3.3-.7.5-1 .8-.7.6-1.5 1-2.3 1.1-1 .1-1.7-.2-2-1.1-.2-.6 0-1.1.2-1.7.3-.8.9-1.4 1.4-2.1l1.5-1.8c.1-.1.2-.3.3-.4 0-.2 0-.4-.1-.5-.1-.1-.3-.2-.5-.1-.3.1-.6.2-.9.4-.9.6-1.7 1.3-2.5 2.1-1.4 1.5-2.7 3.2-3.9 4.8-.1.1-.3.3-.5.3H31c-.1 0-.2-.1-.4-.1.1-.2.1-.3.2-.5 1.2-1.7 2.5-3.5 3.7-5.2.3-.4.5-.7.7-1.1.1-.2.2-.4 0-.6-.2-.2-.4-.1-.6 0-.4.2-.7.4-1.1.7-.9.7-1.7 1.5-2.4 2.4-1.1 1.3-2.1 2.6-3.1 3.9-.3.4-.6.6-1.2.6h-1.1c-.2 0-.4-.1-.6-.1.1-.2.2-.4.3-.5 1.1-1.5 2.2-3.1 3.3-4.6.4-.5.7-1 1-1.5.1-.1.2-.3.2-.5.1-.4-.1-.5-.5-.4-.5.2-.9.5-1.3.9-.6.6-1.1 1.2-1.7 1.9-.8 1-1.7 2-2.5 3-.5.6-1.1 1.1-1.7 1.4-.6.4-1.2.5-1.9.4-.6-.1-1-.5-1.3-1-.1-.2-.1-.4-.2-.6l-1.2.9c-.4.3-.9.6-1.5.7-1 .2-2.2-.3-2.3-1.8v-.7c-.2.1-.4.1-.6.2-.5.3-1.1.5-1.7.5h-1c-.5-.1-.8 0-1.1.4-1.5 2.1-3.1 4.1-4.6 6.2-1.2 1.6-2.4 3.3-3.6 4.9-.1.1-.2.3-.3.4-.1.1-.3.2-.5.2-.7.2-1.5.1-2.1-.1.3-.5.6-.9.9-1.3 2-2.6 3.9-5.3 5.9-7.9.7-1 1.3-2.1 1.9-3.1.1-.1.1-.3.2-.5 0 0-.1 0-.1-.1-.3.2-.5.4-.8.6L4.8 448c-.6.5-1.2.7-1.9.8-.8.1-1.6-.7-1.7-1.5-.1-1 .2-1.8.8-2.6.7-.9 1.3-1.8 2-2.7.3-.8.1-1-.7-.7-.3.3-.7.6-1 .9-1.6 1.7-3.1 3.4-4.7 5.1-.4.4-.9.7-1.3 1.1-.6.4-1.2.5-1.9.4-.4 0-.7-.3-.9-.6-.1-.1-.2-.3-.3-.5-.9.5-1.8.9-2.8 1.2-1.4.2-2.5-.8-2.6-2.1 0-1.3.3-2.3 1.1-3.3 1.2-1.6 2.7-2.7 4.5-3.4.5-.2 1-.3 1.5-.3.8.1 1.4.5 1.8 1h.1c.4-.5 1-.5 1.5-.5h1.2c-.2.3-.3.5-.4.7-.8 1.1-1.5 2.2-2.3 3.2-.5.7-1 1.3-1.5 2-.2.2-.3.5-.3.8-.1.4.1.6.5.5 1.3-.6 2.3-1.5 3.1-2.8 1.2-1.3 2.5-2.7 3.7-4 .1-.8.4-1.6.8-2.4.4-.2 1-.1 1.3.2.3.3.3.7 0 1.1-.1.1-.3.2-.4.3.1.3.3.3.5.3s.4 0 .6-.1c.8-.1 1.2.4 1.6.9.2.2.2.5 0 .8-.1.2-.3.5-.4.7-.9 1.2-1.9 2.5-2.8 3.7-.5.5-.4.8.2 1.1.2 0 .4-.2.6-.3 1-.8 1.9-1.6 2.8-2.4.2-.2.5-.4.7-.6.7-.5 1.1-1.2 1.4-2 .2-.4.3-.8.5-1.2.9-.3 1.8-.6 2.7-.8.5-.5.9-1.1 1.3-1.7.9-1.1 1.7-2.2 2.6-3.2 1.2-1.4 2.5-2.9 3.8-4.2 1.5-1.6 3-3.2 4.8-4.5.4-.3.8-.6 1.3-.8.3-.2.7-.3 1.1-.3.6-.1 1.2.5 1.2 1.2 0 .4-.1.8-.2 1.1-.6 1.4-1.5 2.6-2.6 3.6-1.5 1.4-3.1 2.8-4.7 4.1-1.5 1.2-3.1 2.3-4.6 3.4-.5.4-1.1.8-1.6 1.1l-.4.4c-1.2 1.6-2.4 3.3-3.6 5-.1.1-.1.2-.2.4.2.2.5.2.7.2 1.1 0 1.9-.5 2.7-1.2 1.1-.9 1.7-2.1 2.6-3.2l.9-1.2c.5 0 1 0 1.4-.1h.8c-.1.2-.1.3-.2.4-.8 1.1-1.6 2.2-2.3 3.3-.7.8-1.3 1.6-1.7 2.6-.1.3 0 .5.2.7.2.2.4.3.7.1.5-.2 1-.6 1.4-1 .6-.7 1.2-1.4 1.7-2.1.9-1.2 1.7-2.4 2.5-3.5.3-.4.6-.6 1-.5h1.7c-.1.3-.2.5-.3.6-.9 1.2-1.8 2.5-2.6 3.7-.4.5-.7 1-1.1 1.6-.1.1-.1.2-.2.4-.1.3-.1.5.1.8.2.2.5.3.8.2.3-.1.6-.3.8-.6.7-.7 1.4-1.5 2.1-2.3.8-.9 1.6-1.9 2.4-2.8.6-.7 1.3-1.3 2.1-1.7.4-.1.8-.2 1.1-.3.8-.1 1.4.5 1.6 1.1.1.2.1.4.2.7.2-.1.4-.3.6-.4.8-.5 1.5-1.2 2.5-1.4.5-.1 1-.1 1.4.1.4.3.7.6.7 1.1 0 .2 0 .3.1.6l.6-.3c.6-.4 1.3-.8 1.9-1.2.5-.3 1-.3 1.5-.3 1 .1 1.4 1 1.4 1.8 0 .5-.2 1-.5 1.5-.6.8-1.2 1.5-1.8 2.3-.3.4-.6.8-.9 1.1-.2.2-.4.5-.1.8.2.3.6.2.8.1.7-.3 1.2-.8 1.8-1.3.8-.7 1.4-1.7 2.1-2.5.7-.9 1.5-1.7 2.4-2.4.9-.7 1.9-1.1 3.1-1.3.4-.1.8 0 1.1.2.3.2.5.8.3 1.3-.1.3-.3.6-.5.9-1.1 1.4-2.5 2.3-4.1 2.8-.2.1-.4.1-.6.2-.4.1-.6.4-.7.7 0 .3-.1.7 0 1 .1.5.6.8 1.1.7.8-.1 1.4-.5 2-1 1.8-1.3 3.2-2.9 4.5-4.7.4-.5.8-1.1 1.2-1.6.1-.1.3-.3.4-.3h1.7c.1 0 .2.1.4.1-.2.3-.3.5-.5.7-1.1 1.6-2.2 3.2-3.3 4.7-.2.3-.3.6-.3 1s.2.5.6.6c.4 0 .6-.2.9-.4 1-.8 1.8-1.7 2.6-2.7.9-1.2 1.7-2.4 2.6-3.6.3-.4.6-.6 1-.5h1.2c.1 0 .2 0 .3.1 0 .3-.2.5-.4.8-.9 1.3-1.9 2.7-2.8 4-.2.3-.5.6-.7 1-.1.1-.2.3-.2.4-.2.6.1.9.7.8.4 0 .8-.2 1.1-.5.6-.6 1.3-1.1 1.8-1.7l3-3.6c.1-.2.3-.4.4-.5.3-.3.3-.6.2-1-.2-.5 0-1.1.4-1.4.4-.3 1-.3 1.3 0 .3.3.4.7-.1 1.3 0 .1-.1.1-.2.2.2.1.3.2.4.2h.9c.6-.1 1 .2 1.4.7.2.2.2.5.1.8-.1.2-.3.5-.4.7-1 1.4-1.9 2.7-2.9 4-.1.2-.2.3-.2.5-.1.5.2.8.7.7l.6-.3c1.3-.9 2.4-2 3.4-3.1l1.1-1.1c.2.1.3.2.4.2.2.8.2.9.2 1.1-1.4 1.4 0-.2 0 0zm-54.5-6.3c.2 0 .2 0 .3-.1.2-.1.3-.2.5-.3 1.6-1.2 3.1-2.3 4.7-3.5 1.4-1.1 2.7-2.3 3.9-3.6.7-.8 1.3-1.7 1.7-2.7.1-.3.2-.7-.1-.9-.2-.2-.6-.1-1 .1-.9.5-1.7 1.1-2.4 1.8-.8.9-1.7 1.7-2.5 2.6-1.5 1.6-2.8 3.4-4.1 5.1-.4.5-.6.9-1 1.5.2-.1.4-.6 0 0zM-4 442.1c0-.6-.4-.9-1-.8-.2 0-.5.1-.6.2-1.7 1.2-2.9 2.7-4 4.5-.1.2-.2.5-.3.8-.1.4.1.7.3.9.3.2.6.2.9 0 .4-.2.8-.4 1.2-.7l1.5-1.5c.7-.8 1.3-1.7 1.7-2.6.2-.3.3-.6.3-.8 0-.6 0 .2 0 0zm50.7 2.3h.3c.8-.3 1.4-.7 2-1.2.3-.3.6-.6.8-.9.3-.4.3-.6.1-.8-1 .1-1.8.6-2.4 1.7-.3.3-.6.7-.8 1.2.2 0 .2-.5 0 0zm-37-.2s.1 0 .1.1c.2-.3.5-.5.7-.8.2-.2.3-.4.4-.7.1-.2 0-.4-.1-.5-.2-.1-.3 0-.4.2-.2.6-.4 1.2-.7 1.7.1 0 .3-.5 0 0zM-32.2 466c-.1-.7-.1-1.3-.2-2 .3-.1.3.1.3.3.2.4.5.8.9 1.1.4.3.9.3 1.4.2.7-.2 1-1.1.5-1.7-.2-.2-.5-.4-.7-.6-.5-.4-1.1-.7-1.6-1-.9-.7-.8-2.1.3-2.7.4-.2.9-.2 1.4-.1.1 0 .3.1.4.1.3.1.7.3.9-.3l.1.1c.1.7.1 1.3.2 2h-.1c-.3-.4-.6-.8-.8-1.2-.3-.3-.7-.4-1.2-.4-.4 0-.7.2-.8.5-.2.3-.1.7.2 1 .2.2.5.4.7.6.5.3 1 .6 1.4.9.6.4 1 1 .8 1.8-.1.7-.6 1.2-1.3 1.4-.1 0-.2.1-.2.1h-.9c-.3-.1-.5-.2-.8-.3-.4-.1-.4-.1-.6.3-.2-.1-.2-.1-.3-.1-.1-.7.1 0 0 0zM-81.7 420.9c-3.7 3.9-7 8.1-10.3 12.3-3.1 4-8.8 12.5-9 13.3.5.1.9-.2 1.3-.4 1.3-.5 2.3-1.4 3.3-2.4 1.6-.8 2.4-2 2.5-3.5-.2-.5 0-.9.3-1.3.3-.3.7-.5 1.1-.3.3.1.6.3.7.6.1.4 0 .7-.3.9-.1 0-.1.1-.2.2.2.3.5.3.8.2.6-.1 1.1 0 1.5.4.5.5.6 1 .2 1.5-.6.9-1.3 1.8-2 2.7-.4.6-.8 1.1-1.2 1.7l-.3.6c-.1.5.1.7.7.7.3-.2.6-.3.8-.5 1.1-1 2.3-2 3.4-3.1 1.3-1.3 2.6-2.7 3.9-4 .5-.4.7-.8.9-1.3-.4-.1-.7-.1-1-.2.1-.6.4-.8.9-.8h.1c1.4-.4 2.4-1.3 3-2.7.2-.3.4-.4.8-.4.6-.1 1.1-.1 1.8.1-.5 1-1.3 1.8-1.8 2.8.6.3 1.3.1 1.9.2 0 .5-.2.8-.7.8-.5 0-1.1.1-1.6.1-.4 0-.6.1-.8.4-1.4 1.9-2.8 3.8-4.1 5.7-.3.5-.7.9-1 1.4-.1.2-.3.5-.4.7-.1.4.1.8.6.6.4-.1.8-.3 1.1-.5 1.9-1.4 3.7-2.9 5.2-4.7.5-.6 1.1-1.2 1.6-1.9.2-.3.4-.4.8-.4.7-.1 1.3 0 2 .1-.2.3-.3.5-.4.7-1.1 1.6-2.3 3.2-3.4 4.8-.2.3-.3.5-.5.8-.1.2-.1.4-.1.6 0 .4.3.6.6.5.3-.1.6-.2.9-.4.8-.6 1.7-1.3 2.4-2 2.3-2.1 4.2-4.6 6.2-7 .1-.1.1-.2.2-.2l.1-.1c.4.3.3.3.2.6-.1.2-.1.4-.2.6-.2.5-.1.9.2 1.3.7 1 .9 2.1.8 3.3 0 .2-.1.3-.1.5-.1.3-.2.5 0 .8.4-.1.8-.2 1.1-.6.6-1 1.3-1.8 2.1-2.5 1-.9 2.1-1.6 3.4-2 .7-.2 1.4-.4 2.1.1.3.2.6.5.9.7 0 0 .1 0 .2-.1.2-.4.6-.4 1-.4h1.1c.2 0 .3 0 .6.1-.3.5-.6.9-.8 1.3-1.2 1.6-2.4 3.3-3.5 4.9l-.3.6c0 .2 0 .4.1.5.1.2.4.2.6 0 .4-.3.8-.5 1.1-.8 1.8-2.1 3.7-4.1 5.6-6 .6-.6 1.4-.9 2.3-1 .8 0 1.4.6 1.6 1.4 0 .2.1.3.1.5l.1.1c.1-.1.3-.2.5-.3.7-.6 1.5-1.2 2.4-1.4.7-.2 1.4-.2 2 .4.6.5.7 1.2.5 1.9-.1.7-.5 1.2-.9 1.7-.7.8-1.3 1.7-2 2.5-.1.1-.2.2-.2.3-.2.3-.3.6-.1.7.2.2.5.1.8 0 .3-.2.7-.4.9-.7l2.4-2.7.3-.3c.2-.2.4-.1.6 0 .2.1.2.4.1.6-.2.3-.5.7-.8 1-.6.6-1.1 1.3-1.7 1.9-.7.7-1.5 1.2-2.5 1.4-1.1.2-2.1-.7-2-1.9.1-.9.6-1.7 1.1-2.4.7-.8 1.4-1.6 2.1-2.5.3-.3.4-.7.2-.9-.2-.2-.5-.3-1-.1-.4.2-.8.4-1.1.7-1.3 1.1-2.5 2.4-3.5 3.8-.7 1-1.4 1.9-2.1 2.9-.2.2-.3.4-.6.4-.7 0-1.4-.1-2.1-.1-.1-.2.1-.4.2-.5.7-1 1.4-1.9 2.1-2.9l2.1-3c.2-.2.3-.4.4-.7 0-.2 0-.5-.1-.6-.1-.2-.4-.2-.6-.1l-.9.6c-.8.8-1.5 1.6-2.2 2.4-.9 1-1.8 1.9-2.7 2.9-.6.6-1.2 1.2-2 1.6-.4.2-.8.4-1.3.4-.6 0-1.1-.2-1.3-.8-.1-.1-.1-.2-.3-.4-.2.1-.4.3-.5.4-.8.6-1.7.9-2.6.9-1 0-1.9-.8-2.1-1.8-.1-.4-.1-.7-.2-1.1-.5.2-1 .3-1.5.5-.3.2-.5.5-.8.8-.7.7-1.6 1.1-2.5 1.3-.5.1-1.1.2-1.6.2-.4 0-.8-.1-1.1-.3-.4-.3-.7-.6-.6-1.2v-.3c-.3-.1-.4.1-.6.2-.6.4-1.2.8-1.8 1.1-.6.3-1.2.5-1.9.4-1.2-.6-1.6-1.6-1.4-2.8-.3 0-.5.2-.7.3l-2.4 1.8c-.4.3-.9.5-1.3.6-.6.2-1.2.1-1.7-.3-.5-.3-.6-.8-.6-1.4 0-.5.1-1 .1-1.5-1 .5-1.9 1.2-2.6 2.1-.6.4-1.1.9-1.8 1.1-2.7-1-3.2-2.5-1.4-4.5.6-.8 1.1-1.6 1.7-2.3.1-.1.2-.3.2-.4-.4-.5-.7-.5-1.1-.1-.7.8-1.4 1.6-2.1 2.3-1.2 1.2-2.4 2.3-3.9 2.9-.7.3-1.5.6-2.3.8-.4.1-.7.3-.9.7-.1.2-.2.4-.4.5-.1.1-.2.2-.3.2-.9.1-1.7.1-2.6-.1.2-.4.3-.7.4-1-.1-.3-.4-.3-.7-.3-1.3-.2-2.5-.8-3.7-1.4-.4-.2-.9-.5-1.3-.8-.2-.2-.4-.2-.7 0l-1.2.9c-1.7 1.3-3.5 2.1-5.6 2.6-1.6.4-3.2.4-4.7 0-1.1-.3-2.1-.8-2.9-1.7-.8-.9-1.1-2.6-.5-3.7.4-.7 1.3-1.2 2.2-1 .8.2 1.4.9 1.3 1.9 0 .2 0 .5-.1.7-.6.5-1.2.7-2 .7-.4 0-.5.3-.4.6.2.5.6.8 1.1 1.1.8.5 1.8.8 2.8.9 1.5.2 3-.2 4.4-.7 1.7-.6 3.2-1.5 4.5-2.6l.2-.2c.3-.3.3-.4 0-.8-.8-.8-1.5-1.7-2.1-2.6-1.6-2.3-2.2-4.8-1.9-7.6.2-1.3.6-2.4 1.4-3.5.8-1 1.9-1.6 3.1-1.9 1.5-.3 2.9 0 4.2.7 2 1.2 3.4 2.9 4.4 5 .2.5.2.5.6.8.4-.4.8-.9 1.3-1.3.9-1 1.8-1.9 2.8-2.9 1.9-1.9 3.9-3.7 6.1-5.3 1.9-1.5 3.9-2.7 6.1-3.7 1.3-.6 2.6-1.1 4-1.2h.7v.3c-3.7 3.9 0-.1 0 0zm-28.4 8.9h-.2c-.2 0-.4 0-.5.1-2.3.3-3.8 1.8-4.5 3.9-.4 1.2-.4 2.5 0 3.8.6 2.2 1.7 4.2 3.2 5.8.7.8.8.8 1.5.1 2.4-2.2 4.7-4.6 6.9-7 .3-.3.3-.6.1-.9-.6-1.6-1.4-3.1-2.7-4.3-1-1-2.3-1.4-3.8-1.5 0 0 1.5.1 0 0zm26-7.6h-.3c-.4.2-.9.3-1.3.5-2.9 1.3-5.5 3-7.9 5.1-1.6 1.4-3.2 2.9-4.8 4.4-1.3 1.3-2.5 2.6-3.7 3.9-.2.2-.3.4-.2.6 0 .2.1.5.1.7.1.4.2.9.2 1.3v3.9c0 .1 0 .3.1.5.2-.3.4-.5.6-.7 1-.6 1.9-2.4 2.8-4 1.4-1.9 2.9-3.8 4.3-5.7 1.8-2.3 3.8-4.4 5.8-6.4l3.9-3.6c.1-.2.2-.3.4-.5-.2 0-.2.2 0 0zm-19 15.1c-.2.2-.4.3-.5.4-.5.5-1 1.1-1.6 1.6-1.6 1.7-3.3 3.4-5 5.1-.3.3-.3.4.1.7.4.3.8.5 1.3.8 1.2.7 2.5 1.1 3.8 1.3.4-.1.7-.3.9-.7 1.2-2.7 1.6-5.4 1.2-8.2 0-.4-.1-.6-.2-1-.2.2.1.4 0 0zm37.4 9.8c0 .9.5 1.2 1.1.9.4-.2.7-.4 1-.6 1.5-1.3 2.6-2.9 3.6-4.6.1-.2.2-.5.2-.8 0-.5-.4-.7-.8-.6-.1 0-.3.1-.4.2-.5.3-1.1.7-1.5 1.1-1.2 1.1-2.1 2.4-2.9 3.8-.2.1-.3.4-.3.6 0 .9 0-.2 0 0zm-4.3-6.3h-.2c-1.5 1.7-3 3.4-4.6 5.1-.1.1-.2.2-.2.4.1 0 .1.1.2.1.7.3.9.7.5 1.4-.1.1-.1.3-.1.4.4.3.7.2 1.1 0 .7-.4 1.1-1 1.6-1.7 1-1.3 1.5-2.7 1.8-4.3 0-.5 0-.9-.1-1.4-.1 0 .1.5 0 0zM-26.9 434.3c.1-.2.3-.4.4-.6 1.2-1.6 2.6-3 4.1-4.2 1.2-1 2.6-1.9 4.1-2.5 1.3-.5 2.7-.8 4.1-.7 1.2.1 2.3.6 2.9 1.7.4.6.5 1.3.4 2-.2 1.9-1.2 3.4-2.3 4.8-1.4 1.6-3.2 2.7-5.1 3.6-1 .5-2 .8-3.1 1-1 .1-2 .3-3 .2-.7-.1-1.5-.1-2.2-.3-1.8-.6-3.1-1.8-3.6-3.6-.3-1.1-.2-2.3.2-3.4.5-1.3 1.3-2.5 2.3-3.5 2.2-2.5 4.9-4.2 7.9-5.5 2.7-1.1 5.4-1.7 8.3-1.8h2.3c2.3.3 4.6.8 6.6 2.2.5.3.9.8 1.3 1.2.4.4.5.4.9.1.8-.5 1.5-1 2.3-1.5.3-.2.6-.4 1-.5.3-.1.4 0 .5.2.1.2 0 .3-.2.4-.3.2-.6.4-.9.5-.7.5-1.5 1-2.2 1.6-.4.3-.4.4-.2.9.4.8.8 1.6 1 2.5.3 2-.1 3.9-1.4 5.5-1 1.2-2.3 1.9-3.8 2-.8.1-1.5 0-2.1-.6-.4-.4-.5-.9-.5-1.5.1-.7.4-1.2.9-1.7.7-.7 1.5-1.2 2.5-1.5l1.2-.3c.2 0 .3 0 .4.2 0 .2 0 .4-.3.5-.7.2-1.4.4-2.1.8-.5.3-.9.7-1.3 1.1-.7.8-.4 1.4.7 1.8.8-.2 1.5-.6 2.1-1.1 1.4-1.2 2.3-2.7 2.6-4.5.2-.9.1-1.8-.4-2.7-.3-.6-.4-.7-.9-.2-.6.5-1.2 1.1-1.8 1.6-1.6 1.6-3.1 3.5-4.4 5.4-1.1 1.5-2 3.1-2.9 4.7-.9 1.5-1.9 2.9-3.1 4.2-.8.9-1.6 1.7-2.5 2.4-1.3 1-2.8 1.8-4.4 2.5-1.7.7-3.4 1.2-5.2 1.4-.8.1-1.7.2-2.5.1s-1.6-.1-2.3-.3c-1-.2-2-.5-2.8-1.1-.9-.6-1.5-1.5-1.6-2.6-.1-.9.5-1.9 1.4-2.2.8-.2 1.7.3 1.9 1.1 0 1.1-.4 1.8-1.2 2-.4.2-.5.7-.2.9 1.5 1 3.2 1.5 5.2 1.3 2.3.1 4.4-.5 6.4-1.5 1.1-.6 2.1-1.3 3.1-2.1 1.3-1.2 2.5-2.5 3.5-3.9 1.1-1.4 2.1-2.8 3.1-4.1.9-1.2 1.9-2.3 2.8-3.5 1.1-1.4 2.3-2.6 3.5-3.9 1.1-1.1 2.3-2.2 3.6-3.2.4-.3.4-.5 0-.9-.8-.8-1.8-1.4-2.8-1.9-1.3-.6-2.7-.9-4.1-1.1-1.8-.2-3.5-.1-5.3.2-2.5.4-4.9 1.1-7.2 2.3-.7.3-1.4.7-2 1.1-1.9 1.2-3.4 2.7-4.8 4.4-.9 1.1-1.5 2.4-1.6 3.8-.1 1.3.3 2.5 1.3 3.4.8.8 1.8 1.2 3 1.4.8.1 1.5 0 2.3-.2 2.6-.5 4.9-1.6 7.1-3.1 1.3-.9 2.4-2 3.3-3.3.5-.8.8-1.6.9-2.5 0-1.2-.4-2-1.7-2.4-1-.4-2.1-.2-3.1 0-1.9.5-3.6 1.4-5.1 2.6-1.2 1-2.4 2-3.4 3.2-.4.5-.8.9-1.2 1.4-.1.1-.2.1-.6-.2.1-.3.4.3 0 0zM-149.3 447.5c.1.1.3.2.4.2 1.1.2 2.1.3 3.2.4.8.1 1.6 0 2.4 0 1.3 0 2.5-.3 3.7-.7 1.5-.4 2.9-1.2 4.1-2.1.1-.1.1-.1.2-.1h.2c.1.1.1.2.1.3-.1.2-.2.3-.3.4-1 .9-2 1.6-3.2 2.1-1.8.7-3.6 1.1-5.6 1.2-1.8.1-3.6-.1-5.4-.4-.7-.1-1.5-.4-2.2-.5-.2-.1-.5-.1-.7 0-1.2.3-2.5.5-3.7.7-1.2.2-2.4.3-3.6.2-.9-.1-1.7-.2-2.6-.4-.4-.1-.8-.4-1-.7-.4-.5-.3-1.1 0-1.5.4-.4.9-.7 1.4-.8.7-.1 1.4-.2 2.2-.2 2-.1 4.1.2 6 .7 1 .5 2 .7 3 .5 2.4-1 4.4-2.6 6.2-4.6 1.3-1.3 2.4-2.8 3.3-4.3 0-.1 0-.2.1-.3h-.7c-1.3.2-2.6.2-4 .2-1.8 0-3.5-.2-5.2-.9-1.7-.7-3.1-1.8-3.6-3.6-.4-1.3-.3-2.7.2-4 .6-1.8 1.7-3.2 3.1-4.4 2-1.7 4.2-2.8 6.7-3.4 1.6-.4 3.2-.7 4.9-.8 1.5-.1 3-.1 4.6-.1.1 0 .3 0 .4.1.1.1.2.2.2.3 0 .2-.1.3-.3.3h-.4c-1.4 0-2.8.1-4.2.2-1 .1-2 .3-3 .4-1.6.3-3.1.8-4.6 1.4-2.2 1-4.1 2.4-5.5 4.4-.9 1.2-1.4 2.6-1.3 4.1 0 1.4.6 2.5 1.7 3.4 1.1.8 2.3 1.3 3.7 1.4 1.4.2 2.8.3 4.2.2 1.2-.1 2.3-.3 3.4-.4.5-.1.8-.3 1-.7.4-.6.8-1.2 1.3-1.8 1.4-2 3-3.8 4.8-5.6 1.4-1.4 2.8-2.6 4.4-3.7 1.8-1.2 3.8-2.2 6-2.7.7-.2 1.3-.2 2-.2 1.8.2 2.6 1.6 2.2 3.2-.3 1-.9 1.8-1.5 2.5-1.2 1.4-2.6 2.5-4.2 3.5-2.4 1.6-5 2.9-7.7 3.9-1 .4-2 .8-3.1 1.1-.5.2-.9.3-1.4.4-.3.1-.5.3-.7.6-1.7 2.5-3.6 4.9-5.9 6.8-1.5 1.3-3.2 2.3-5 3.1l-.6.3c-.1.3-.1.4-.1.4.1.1 0 0 0 0zm12.7-12.1c.4-.1.7-.1 1-.2 1.6-.5 3.2-1.1 4.7-1.8 1.4-.6 2.7-1.3 3.9-2 1.9-1.1 3.7-2.3 5.2-3.9.7-.7 1.3-1.5 1.7-2.3.4-.9.2-1.8-.5-2.2-.4-.3-.9-.4-1.4-.3-.7.1-1.3.2-2 .4-2 .7-3.7 1.7-5.3 3.1-1.4 1.1-2.6 2.4-3.7 3.8-1.1 1.5-2.2 3.1-3.3 4.6 0 .2-.1.4-.3.8.4-.1.2-.4 0 0zm-17.7 12.4c-.3-.1-.4-.2-.6-.3-.4-.1-.9-.3-1.3-.4-1.2-.2-2.3-.4-3.5-.5-.7-.1-1.4 0-2.1.1-.4 0-.7.3-.8.7.2.4.5.5.8.6 1.1.2 2.2.4 3.3.3.7 0 1.5-.1 2.2-.1.7 0 1.3-.1 2-.4-.2-.2-.7.3 0 0zM-45.8 463v2.1c0 .3.1.5.5.6.1 0 .2.1.4.1-.3.2-2 .2-2.7.1.1-.1.2-.1.2-.1.4 0 .5-.3.6-.7v-.4-3.9-.2c0-.5-.1-.6-.6-.8-.1 0-.1 0-.3-.1.1-.1.2-.1.2-.1 1.1 0 2.1 0 3.2.1.2 0 .5.1.7.2 1.3 1.2 1.3 2.2-.2 2.9-.2.1-.3.1-.6.2.2.2.3.4.4.6.3.4.7.8 1.1 1.3.4.4.7.9 1.4 1.1-.2.1-.3.1-.4.1h-.9c-.3 0-.5-.1-.6-.3-.6-.8-1.3-1.6-1.9-2.4 0-.4-.1-.6-.5-.4 0 .7.4-.2 0 0zm0-.4c.5-.1.9-.1 1.3-.2.6-.1.9-.6.9-1.2s-.3-1.1-.9-1.2c-.6-.3-1.1-.2-1.4.2.1.8.1 1.5.1 2.4.6-.1 0-.9 0 0zM-61.4 465.7c-.4.2-2.2.2-2.7 0 .1-.1.2-.1.2-.1.9-1 1.1-2.2.6-3.7v-1.4c0-.6 0-.6-.6-.8-.1 0-.1 0-.2-.1l.1-.1c1.1 0 2.1 0 3.2.1.3 0 .5.1.8.2.6.3.9.7 1 1.4 0 .7-.2 1.3-.9 1.6-.4.2-.9.3-1.4.3h-1v1.9c.1.5.5.7.9.7-.4.2-.2 0 0 0zm-.9-3h1c.7-.1 1.1-.5 1.2-1.2.1-.8-.2-1.2-.9-1.5-.4-.2-.8-.1-1.2-.1-.2.4-.3 1.9-.1 2.8.3 0-.2-.9 0 0zM-55.2 465.8c-.4.1-1.4.1-1.9 0 .8-.4 1-1.2 1.3-1.9.6-1.4 1.2-2.7 1.7-4.1.1-.2.2-.3.3-.6.1.3.2.5.3.6.7 1.6 1.4 3.3 2.2 4.9.2.4.3.8.9.9-.3.2-1.7.2-2.5.1.1-.1.2-.1.3-.1.4-.1.5-.2.3-.6-.1-.4-.3-.8-.5-1.2h-2.6c-.1.4-.3.8-.4 1.2-.1.4-.1.5.3.7.2 0 .3 0 .3.1-.4.1 0 0 0 0zm2.3-2.4c-.4-.9-.7-1.7-1.1-2.6-.4.9-.7 1.7-1.1 2.6h2.2c-.4-.9-.8 0 0 0zM-38.5 465.7c.5-.1.8-.5 1-1v-4.2c0-.4-.2-.7-.6-.9-.1 0-.2-.1-.4-.1.3-.2 2.4-.2 2.9 0-.2 0-.3.1-.4.1-.4.1-.6.3-.6.7V464.6c0 .7 0 .8.7 1 .1 0 .1 0 .2.1-.3.2-2.4.2-2.8 0 .1 0 .4.2 0 0zM-117.6 430.3c0 .4-.3.7-.6.9-.5.3-.9.6-1.4.8-.4.2-.7.3-1.1.5-.2.1-.4.1-.5-.1-.1-.2 0-.4.1-.6l2.1-2.1c.1-.1.2-.2.4-.3.5-.2 1 .1 1 .9 0 .3 0-.8 0 0z"/><path class="st0" d="M-75.5 437.1c0-.5.5-1 1.1-1 .6 0 1.2.5 1.1 1.1 0 .7-.6 1.2-1.2 1.2-.6-.1-1-.6-1-1.3zM-2.6 398.9c-.1-.2-.3-.4-.1-.7.4 0 .9.1 1.3.3.2.1.3.3.5.5-.3.1-.4.2-.6.2 0 0 .1.8.1.9-.3-.5-.7-1-1.2-1.2-.1-.2 0 0 0 0zM-26.4 417c-.7.3-1.4.6-2.2.8-.2.1-.4 0-.6.1 0-.2.1-.3.1-.3.8 0 1.5-.3 2.2-.8.3-.3.6-.4 1-.4 0 0 0 .1.1.1-.1.2-.2.3-.3.5-.2-.1-.2 0-.3 0-.7.3.1 0 0 0zM-45.7 396.9h-.7c.1-.2.2-.5.2-.7 0-.4 0-.8.1-1.2 0-.3 0-.5-.3-.7h.8c.2.5.5 1 .7 1.5 0 .1.1.1.2.2.3-.6.5-1.1.8-1.7h.8c-.3.2-.3.4-.3.7 0 .4 0 .9.1 1.3 0 .2.1.3.1.5h-.9c.3-.5.1-1.1.1-1.6h-.1c-.3.6-.5 1.1-.8 1.8-.3-.7-.6-1.3-.9-1.9h-.1c0 .7-.2 1.2.2 1.8-.3 0-.4-.6 0 0zM-46.2 400.8c.3.4.6.8.8 1.2-.4.1-.7 0-.9-.3l-.3-.6-.3-.3c-.1.4-.3.8.2 1.1h-1.2c.4-.5.5-2 0-2.6.8-.2 1.5 0 2.1.5.3.4 0 .7-.4 1 .3.4.4-.3 0 0zm-.7-.2c.5 0 .7-.2.6-.5 0-.4-.2-.5-.6-.5v1c.5 0 0-.3 0 0zM-53.1 395.7c.2.4.4.9.9 1.2-.5.2-.8 0-1-.3l-.3-.6c-.1-.1-.2-.1-.3-.2-.2.6-.1.8.1 1.1h-1c.4-.4.2-.8.2-1.3 0-.4.2-.9-.3-1.3.5-.1 1-.1 1.5 0 .3 0 .5.2.6.5.1.3 0 .5-.3.7 0 .1 0 .1-.1.2.2.4.1-.1 0 0zm-.8-.2c.3.1.5 0 .6-.2.2-.6 0-.8-.6-.8v1c.3.1 0-.3 0 0zM-35.3 395.7c.3.5.6.8.8 1.2-.7 0-1.1-.3-1.2-.9-.1-.1-.2-.2-.3-.2-.1.6-.1.7.1 1.1h-1c.4-.4.2-.8.2-1.2 0-.4.2-.9-.2-1.3.5-.1 1-.1 1.5 0 .3 0 .5.2.6.5 0 .3-.1.6-.5.8.3.4.4-.2 0 0zm-.8-.1c.3.1.5 0 .6-.2.1-.2.1-.5 0-.7-.1-.2-.3-.2-.6-.1v1c.2 0 0-.4 0 0zM-51.1 389.2h1.1c.9.2 1.1.6.5 1.3 0 0 0 .1-.1.1.2.4.4.8.8 1.1-.4.2-.8.1-1-.3-.1-.3-.3-.6-.6-.8-.2.6-.1.8.1 1.1h-1c.5-.7.4-1.6.2-2.5.3 0 .2.9 0 0zm.7 1.3c.5 0 .6-.1.6-.5s-.2-.6-.6-.6v1.1c.5 0 0-.4 0 0zM-37.1 391.9c-.5-.7-1.1-1.3-1.6-2 0 0-.1 0-.1.1.1.6-.2 1.2.3 1.8h-.8c.1-.2.2-.4.2-.6V390c0-.3 0-.5-.3-.7.4-.1.7 0 1 .2.3.4.6.8.9 1.1.1.1.2.1.3.3-.1-.6.2-1.2-.4-1.6h.9c-.3.2-.3.5-.3.9v1.3c0 .1 0 .3-.1.4.1 0 .1 0 0 0-.5-.6.1 0 0 0zM-51.5 402h-1.2c.4-.2.4-.5.4-.8.1-.6.1-1.2-.2-1.8.4-.1.9-.1 1.4 0 .5.1.6.4.6.8s-.3.6-.7.6h-.3c.4-.3.5-.6.3-1-.1-.2-.3-.3-.6-.2v2c0 .1.2.2.3.4-.4 0-.1-.2 0 0zM-58.6 396.9h-.9c.3-.4.2-.8.2-1.3 0-.4.2-.9-.2-1.3.5-.1 1-.1 1.4 0 .5.1.8.4.7.8-.1.5-.4.7-1 .6.6-.7.5-1.1-.3-1.2 0 .8-.2 1.6.1 2.4-.3 0-.3-.8 0 0zM-42.6 394.3h1.9v.5c-.3-.3-.6-.4-1.1-.3v.8c.3.2.5 0 .8-.3v.9c-.2-.3-.5-.4-.8-.3v.4c0 .2-.1.4.2.6.2.1.6.1.8-.1.1-.1.1-.2.3-.2 0 .2-.1.4-.1.5h-2c.4-.4.2-.8.2-1.3 0-.3.2-.8-.2-1.2.6 0 .4.4 0 0zM-49.5 394.3h.9c-.1.2-.1.4-.1.7v1.1c0 .5.3.7.6.7.4 0 .6-.3.6-.7.2-.6.1-1.2-.3-1.7h.8c-.3.2-.3.5-.3.8 0 .4 0 .8-.1 1.1-.3.5-.7.8-1.1.7-.6 0-.9-.3-.9-.9V395c.1-.3.1-.5-.1-.7.3 0 .2.2 0 0zM-38.3 394.3h.9c-.3.2-.3.5-.3.8 0 .4 0 .8-.1 1.2-.1.4-.3.6-.8.7h-.4c-.5 0-.8-.3-.8-.8V395c0-.2-.1-.4-.2-.6h1.1c-.4.2-.4.4-.4.7v.9c0 .2 0 .4.1.5.1.3.3.4.6.4s.5-.2.6-.5c.1-.5.1-1.1 0-1.6 0-.2-.2-.4-.3-.5.3 0 .1.1 0 0zM-43.3 401.2c.2.3.4.6.8.6.3 0 .5-.3.3-.6-.1-.2-.4-.3-.6-.5-.3-.2-.5-.3-.5-.7-.1-.6.5-1 1.1-.8.4.1.5.1.4.6-.1-.1-.2-.2-.4-.3-.5-.1-.7 0-.5.6.2.1.4.2.5.4.2.1.4.3.4.5.7 1.1-1.8 1.6-1.5.2.1.2-.1.7 0 0zM-48.1 402h-1.1c.2-.3.1-.6-.1-.9h-.7c-.1.3-.3.6.1.9h-.9c.3-.2.4-.6.5-.9.2-.5.3-.9.5-1.3.1-.2.2-.3.4-.5.6.8.6 1.9 1.3 2.7-.3 0-.7-.8 0 0zm-1.2-1.2c-.1-.3-.2-.5-.3-.8-.1.3-.2.6-.3.8h.6c-.1-.2-.2 0 0 0zM-51.6 391.8h-1c.1-.3.1-.4-.1-.9h-.6c-.3.5-.3.5-.1.9h-.7c.1-.3.3-.6.4-.9.2-.4.3-.8.4-1.2.1-.2.2-.4.4-.6.1.2.2.3.2.5.2.6.4 1.1.6 1.7.2.1.4.3.5.5-.2 0-.1-.2 0 0zm-1.3-1.7h-.1c-.1.2-.1.4-.2.7h.5c-.1-.4-.2-.5-.2-.7-.1-.1 0 .2 0 0zM-42.6 389.3v.6c-.1-.2-.2-.3-.3-.4-.2-.2-.5-.1-.6.1-.2.2 0 .4.1.5.6.2.9.7 1 1.3-.1.3-.4.6-.8.6-.5.1-.8-.1-.9-.8.2.2.3.3.4.5.2.2.5.2.6 0 .1-.2.1-.4-.1-.6-.1-.1-.3-.2-.4-.3-1.6-1.1.3-1.7 1-1.5 0 .2-.2-.1 0 0zM-40.8 389.2c.4.8.5 1.8 1.1 2.6h-.9c0-.3-.1-.5-.1-.8h-.7c-.1.3-.3.5 0 .8h-.8c.4-.5.5-1.1.8-1.7.1-.3.2-.7.6-.9.5.8-.4.2 0 0zm-.2.8c-.1 0-.1 0 0 0-.2.2-.2.4-.3.7h.5c-.1-.3-.2-.5-.2-.7-.1 0 0 .2 0 0zM-55.1 396.9h-.9c.2-.3 0-.5-.1-.8h-.7c-.1.3-.3.5 0 .8h-.7c.4-.6.6-1.4.8-2 .1-.2.2-.5.5-.6l.3.9c.2.4.3.8.4 1.3.1 0 .2.2.4.4-.3 0-.2-.2 0 0zm-1.1-1.1c-.1-.3-.1-.5-.3-.7-.1.3-.1.5-.2.7h.5c-.1-.3-.2 0 0 0zM-46.3 389.2v.7c-.2-.4-.5-.6-.9-.3v1.8c0 .1.2.3.3.4H-48c.3-.2.3-.4.3-.7v-1.6c-.4-.2-.7 0-1 .3 0-.2.1-.4.1-.6h2.3c0 .2-.8 0 0 0zM-56.7 391.5c.6.3.7.2 1.3-.4-.1.3-.1.5-.1.7h-2c.4-.4.2-.8.2-1.3 0-.4.2-.9-.2-1.3h1.1c-.1.1-.2.3-.2.4-.1.7-.1 1.3-.1 1.9.6.3 0-.6 0 0zM-50 394.3v.5c-.4-.4-.4-.4-1-.3v.9c.3.1.6.1.8-.3v.9c-.2-.4-.5-.4-.8-.3 0 .4-.2.8.2 1.1h-1c.3-.4.2-.8.2-1.2 0-.4.2-.9-.2-1.3h1.8c0 .2-.7 0 0 0zM-44.8 391.8h-1c.4-.5.4-2.1 0-2.6h1.1c-.4.5-.4 2.2-.1 2.6-.3 0-.3-.4 0 0zM-44.9 399.4h1.2c-.4.2-.4.5-.4.8v1.2c0 .3 0 .5.3.7h-1.3c.5-.2.4-.5.4-.8v-1.2c0-.3-.1-.5-.2-.7.3 0 .1.2 0 0zM-54.5 389.1c-.1.4-.1.8-.2 1.1h-.1c-.1-.4-.1-.7-.2-1.1h.5c-.1.4-.2 0 0 0zM-68.1 374.1c.3-.3.5-.6.8-.9.7-.9 1.5-1.5 2.6-1.9h.3c-.2.6-.7.9-1.3 1.1-.9.6-1.6 1.4-2 2.5-.1.2-.1.3-.5.3-.1-.4 0-.8.1-1.1zM-70.7 375.3c-.1.2-.1.4-.2.6 0 .7-.2 1.3-.5 2-.4-.4-.2-.9-.2-1.2.1-.5.1-1.1.7-1.4h.2c0 .2 0 0 0 0zM-63.6 371c.7-.4 1.3-.3 1.9-.3-.3.6-1.3.5-1.9.3.7-.4.2.1 0 0zM-61.1 371c.4-.3.9-.3 1.1-.1.1.2.1.3-.2.3-.2 0-.5-.1-.9-.2.4-.3.4.1 0 0zM-59.5 371.2c.8-.1.7.6.4.5-.2-.1-.3-.2-.5-.3.1-.1.1-.2.1-.2.1 0 0 0 0 0zM-34.3 371.1c.3-.4.7-.5 1.2-.3.1 0 .2.1.2.2 0 0-.1.2-.2.2-.4.1-.8.1-1.1.1-.1-.1-.1-.1-.1-.2.1-.1 0 .1 0 0zM-32 371.1c.6-.1 1.2 0 1.7.3-.4.6-1 .5-1.7-.2v-.1c.6-.1 0 0 0 0zM-35.8 371.6c.1-.3.3-.3.6-.3-.2.3-.2.3-.6.3zM-78.1 377.9c-.1.2-.2.4-.4.6 0-.4 0-.4.4-.6zM-81 391.9c-.1 0-.2.1-.3.1-.1.1-.3.2-.4.3-.3-.2-.2-.6-.2-.8 0-.2 0-.4.1-.5.2-.3.4-.3.8-.2.1 0 .2.1.3.1 0-.5-.4-1.3.6-1.3-.1-.6-.1-1.1.2-1.6.5-.1.6.1.6.5-.4 1.2-.9 2.4-1.7 3.4 0 .1 0 0 0 0zM-82.1 392.4c0 .1-.1.2-.1.4-.1.2-.3.3-.5.3-.1 0-.2-.2-.3-.4-.4-.7.6-1.8.8-.7.1.1.1.2.1.4 0 0 0-.2 0 0zM-87.6 396c.3-.2.3-.2.8.2-.5.1-.6.1-.8-.2zM-88.2 395.4c-.4.1-.4-.1-.5-.2l.1-.1c.1.1.3.2.4.3-.3.1-.1-.1 0 0zM-64.4 415c.1-.2.2-.3.4-.4-.1.3-.1.3-.4.4zM-67.7 417c.3.3.6.6.9.8-.3.1-.9 0-1.9-.6-1.1-.6-1.9-1.3-2-1.8.3 0 .6 0 1 .1 0-.1 0-.3-.1-.4l-.6-1.5c-.1-.2-.1-.5-.1-.8.3.1.4.1.6.1.2.1.3.2.3.5-.1 1.1.3 2 1.1 2.8.2.3.5.5.8.8zM-72.8 412.9l1.2 2.7c-.8-.3-1.8-1.7-1.9-2.6.3-.1.5-.1.7-.1.5.9-.2 0 0 0zM-72.1 411c.1.2.2.3.2.4.1.6.2 1.1.5 1.6.1.2.1.3-.1.5-.2.1-.3-.1-.4-.2v-.1c-.2-.6-.4-1.3-.3-2 0 0 .1-.1.1-.2.1.1 0 .1 0 0zM-71.3 414.1c-.7-.2-.4-.6.1-.1 0 0 0 .1-.1.1s.1 0 0 0zM-71 414.7c-.1 0-.2-.1-.4-.2.2-.2.3-.1.4 0 .1.1.1.2 0 .2-.1-.1.1 0 0 0z"/><path class="st0" d="M-70.9 415c.2 0 .4.1.5.3-.2-.1-.4-.1-.5-.2v-.1c.1 0 0 0 0 0zM-19.9 379.8c.1 0 .2-.1.4-.1l.3.9c.1.3.1.7.1 1.1 0 .8-.7 1.3-1.4 1.2-.2-.5-.1-1.1.1-1.7h.4c0-.5.1-1 .1-1.4.1 0 0 0 0 0zM-22.5 373.9l.4.4c-.3.1-.3.1-.4-.4zM-82.9 402.3c0-.1.1-.2.1-.4.3.3.1.4-.1.4zM-82.2 401.1c-.1-.2 0-.3.2-.3 0 .1 0 .2-.1.3h-.1c0-.1.1 0 0 0zM-1.4 393.8c0-.4.3-.6.6-.7 0 .5-.1.6-.6.7zM1 395.7c-.2.3-.3.2-.5 0H1zM-75 398.4c0-.2-.2-.5 0-.7.4.1.4.1.4.4.1.3-.2.3-.4.3zM-74.6 396.6c.2.3.2.3 0 .6-.3-.3-.3-.3 0-.6zM-74.8 394.4c.4.3.2.6.2.9-.3-.3-.1-.6-.2-.9zM-94.9 395.8c-.4 0-.8-.1-1.2-.1.1-.4.3-.6.6-.6.2 0 .5 0 .8.1.2.2-.1.4-.2.6zM-96.4 395.4c-.1.2-.2.2-.3.1l.2-.2c.1 0 .1 0 .1.1 0 0 0-.1 0 0zM-75.7 380c0 .1.1.2.1.2 0 .8.2 1.5.5 2.2 0 .7-.2.8-.8.6-.2-.4-.4-.7-.2-1.2.1-.4.1-.9.2-1.4 0-.1.1-.3.1-.4h.1c0 .1 0 0 0 0zM-75.2 377.7c0 .4 0 .8-.1 1.3-.1.3-.3.3-.5 0-.1-.5.1-.9.6-1.3 0 .4-.5.4 0 0zM-74.8 383.1c0 .3.1.6 0 .8 0 .1-1.8.1 0-.8 0 .4-.3.2 0 0zM-75 377c-.1-.4-.1-.5.3-.7 0 .3 0 .5-.3.7zM-23.7 414.3c-.2-.1-.2-.4-.5-.3 0 .5-.3.7-.9.6.2-.1.3-.3.5-.4-.2-.2-.2-.4-.2-.6.3-.9.5-1.7.6-2.6 0-.1.1-.2.2-.2s.2.1.2.2c.1.2.2.4.2.6.1.6.3 1 .9 1.3 0 .6-.4 1-1 1.4-.1-.1.6-.4 0 0zM-26.8 416c.4-.4.5-.9.6-1.5v-1.1c0-.3.1-.5.4-.6.4-.1.5 0 .5.4s0 .8-.2 1.2c-.2.3-.3.6-.4.9-.2.3-.4.5-.6.7-.1.1-.2.1-.3 0 0 .1 0 .1 0 0 .4-.4 0 .1 0 0zM-25.2 415.3c.3-.3.3-.3.8-.3-.2.3-.4.4-.8.3zM-25.1 415.8c-.2.1-.3.2-.5.3.1-.4.1-.4.5-.3zM-12.3 401.9c.1.1.1.2.2.4-.4 0-.3-.2-.2-.4zM-10.4 397.6c-.5.3-.7.3-1.2-.1.4 0 .8 0 1.2.1zM-57.5 370.1c-.4 0-.6-.1-.7-.6.4.1.5.2.7.6zM-48.2 366.7c.4-.1.8-.1 1.1.2-.3.5-.7.4-1.1-.2.5-.1.2.3 0 0zM-47.7 366.3h-.3v-.1c.1-.1.2-.1.3.1 0-.1 0 0 0 0-.1 0 0 0 0 0zM-87 404.1c.1-.2.3-.5.5-.7.1.6 0 .7-.5.7zM-43.6 370.1c1.4.6 0 .7 0 0 .2.1 0 .5 0 0zM-43 369.7c.3.1.6.1.6.5-.5.1-.7 0-.6-.5zM-41.9 369.6c-.4.2-.5.1-.6-.3.4-.1.4-.1.6.3zM-42.1 368.8c.3-.1.3-.1.6.1-.2.2-.4.2-.6-.1zM-32 412.8c-.4 0-.7.1-1 .4 0 .1-.1.1-.2.1-.2.1-.4 0-.5-.2-.1-.2 0-.4.2-.5.1 0 .3-.1.4-.1.3 0 .5 0 .8-.1.1.1.3.1.3.4-.4 0 0-.3 0 0zM-78.3 399.1c-.2 0-.2.1-.3.1l-.1-.1c.1-.2.2-.2.4 0-.2 0-.2-.1 0 0zM-37.1 377.1c.3-.1.4-.3.4-.6 0-.2.2-.3.3-.4.2-.1.5 0 .6.2.1.2 0 .3-.2.5-.3.2-.7.3-1.1.3.3-.2.4 0 0 0zM-94.3 397.8c.3.2.2.5.2.7-.5 0-.5-.2-.2-.7zM-21.2 397.5c-.1.3-.3.3-.5.1-.1-.2.1-1.4.4-.7 0 .2.1.4.1.6 0 .1 0-.2 0 0zM-17.2 399.5h.3c0 .2 0 .2-.3.1v-.1c.1 0 0 0 0 0zM-39 370.6c.1-.1.2-.2.2-.3.2.3.2.3-.2.3zM-60.1 373.8c.3 0 .4.1.6.1-.2.3-.2.3-.6-.1z"/></svg>