<svg xmlns="http://www.w3.org/2000/svg" viewBox="0 0 250 250"><path d="M172.8 105.6H169c-1.4 0-2.6 1.2-2.6 2.6v40.1c0 1.4 1.2 2.6 2.6 2.6h3.8c1.4 0 2.6-1.2 2.6-2.6v-40.1c0-1.4-1.1-2.6-2.6-2.6zm8.9 7h26.4c1.2 0 2.2-1 2.2-2.2v-3.2c0-1.2-1-2.3-2.2-2.2 0 0-25.5 2.5-26.4 2.6-1 .1-1.5.9-1.5 1.6v1.9c.1.9.8 1.5 1.5 1.5zm-18.9 5.4H157v-9.8c0-1.4-1.1-2.6-2.5-2.6h-3.7c-1.4 0-2.5 1.1-2.5 2.5v9.8h-1.9c-1 0-1.8.8-1.8 1.8v2.7c0 1 .8 1.8 1.8 1.8h1.9v16c0 5.5 4.1 10.5 10.7 10.5h3.5c1.1 0 2-.9 2-2V146c0-1.1-.9-2-2-2h-.5c-3.2 0-4.9-2-4.9-4.9v-14.8h5.8c1 0 1.8-.8 1.8-1.8v-2.6c-.1-1.1-.9-1.9-1.9-1.9zm-65.5-1.1c-10.6 0-16.6 8.3-16.6 17.1 0 9.3 6.4 17.6 16.7 17.6 7 0 14-3.7 15.3-9.8.2-.8-.4-1.9-1.5-1.9h-5c-.9 0-1.6.4-2.1 1.1-1.4 2.1-3.5 3.2-6.6 3.2-4.4 0-7.5-3.5-7.7-7.3H111c2 0 2.8-1.1 2.8-2.9.1-8.6-5-17.1-16.5-17.1zm-7.6 13.4c.3-3.8 3.7-6.6 7.6-6.6 3.9 0 7.3 2.8 7.7 6.6H89.7zm121.6 3.7c0-8.5-5.1-17.1-16.6-17.1-10.6 0-16.6 8.3-16.6 17.1 0 9.3 6.4 17.6 16.7 17.6 7 0 14-3.7 15.3-9.8.2-.8-.4-1.9-1.5-1.9h-5c-.9 0-1.7.4-2.1 1.1-1.4 2.1-3.5 3.2-6.7 3.2-4.4 0-7.5-3.5-7.7-7.3h21.4c1.9 0 2.8-1.1 2.8-2.9zm-24.2-3.7c.3-3.8 3.7-6.6 7.6-6.6 3.9 0 7.3 2.8 7.7 6.6h-15.3zm-44.2-19.4V108c0-1.1-.9-1.9-1.9-1.9H71.7c-1.6 0-2.8 1.3-2.8 2.8l.3 27.2s-14.9-26.9-15.7-28.3c-.7-1.3-2.3-2.5-4.5-2.5h-5.7c-1.6 0-2.8 1.3-2.8 2.8V148c0 1.6 1.3 2.8 2.8 2.8H47c1.6 0 2.8-1.3 2.8-2.8l-.2-28s15.1 27.2 15.7 28.3c.9 1.4 2.4 2.5 4.5 2.5H75c1.6 0 2.8-1.3 2.8-2.9v-35.2H141c1 .1 1.9-.7 1.9-1.8zm-6.6 20.5c-2-.5-6.9-1.8-7.9-2-1.9-.5-3.7-1.1-3.7-2.7 0-2.4 2.3-3.3 5.1-3.3 3 0 5.3 1.1 6.1 3 .4.9 1.1 1.1 2.2 1.1h4.1c.7 0 1.5-.6 1.5-1.5 0-4.8-5.7-9.1-13.9-9.1-8.4 0-13.9 4-13.9 10.4 0 4.9 3.9 7.8 8.6 9 2.2.6 5.8 1.5 7.7 2 1.9.5 3.7 1.1 3.7 2.8 0 2.6-2.8 3.5-5.8 3.5-2.9 0-5.7-1.3-6.5-3.3-.5-1.2-1.3-1.4-2.6-1.4h-4.2c-.7 0-1.6.7-1.6 1.6v.5c0 4.7 6.2 9.5 14.9 9.5 6.1 0 14.6-2.6 14.6-10.7-.1-4.8-3.3-8.1-8.4-9.4z" fill="#fff"/></svg>