<svg viewBox="0 0 250 250" xmlns="http://www.w3.org/2000/svg" fill-rule="evenodd" clip-rule="evenodd" stroke-linejoin="round" stroke-miterlimit="1.414"><g fill="#fff" fill-rule="nonzero"><path d="M125.126 191.348h-.252c-.253-.253-.506-.253-.759-.506-15.923-11.374-31.594-22.747-47.517-33.869-14.66-10.615-29.32-20.978-43.98-31.594-.252 0-.252-.253-.505-.505.253-.253.505-.506 1.011-.759 7.33-5.307 14.912-10.615 22.242-15.923 21.484-15.418 42.968-30.583 64.453-46.001 1.516-1.011 3.285-2.275 5.055-3.539h.252l.253.253c7.836 5.56 15.924 11.374 23.759 16.934 16.935 12.133 34.122 24.265 51.056 36.397 5.814 4.297 11.88 8.341 17.693 12.638v.252c-.253.253-.505.253-.758.506l-42.463 30.33c-15.671 11.374-31.594 22.495-47.265 33.869l-2.275 1.517zm39.936-57.881v-1.011l-1.517-16.682c-.253-2.022-.758-4.044-2.022-5.813-.506-.758-1.011-1.011-1.769-.758-2.781.758-5.561 1.516-8.088 2.527-.253 0-.506.506-.506.759.253.252.506.505.758.505h.506c1.516-.253 2.527.506 3.033 1.769.505 1.011.758 2.275 1.011 3.539.253 2.78.505 5.813.758 8.594a157.26 157.26 0 01.758 15.418c0 1.263-.252 2.274-1.263 3.285-3.033 3.033-6.319 5.308-10.363 6.572-5.814 1.517-11.627 1.769-17.693 1.011-6.572-.758-12.638-2.527-18.704-5.055-8.088-3.286-15.418-7.33-22.748-12.132-.252-.253-.505-.253-.758-.506-2.528 2.528-5.813 3.792-9.099 4.803.505.252.758.252.758.505 5.308 2.275 10.869 4.55 16.176 6.824 10.616 4.045 21.737 7.078 33.111 7.836 5.561.253 11.374.253 16.682-1.264 6.066-1.516 10.868-4.297 14.912-9.099 6.067-7.33 11.122-15.165 15.671-23.506 1.264-2.022 2.275-4.297 2.528-6.572.252-2.022 0-3.791-1.77-5.308-1.769-1.263-4.044-1.011-5.307.759-1.264 1.769-1.011 3.791.758 5.055.505.252.758.758 1.264 1.011.758.505 1.263 1.516 1.011 2.527-.253 1.264-.506 2.275-1.011 3.286-1.517 3.033-3.539 5.813-5.055 8.594-.759.505-1.264 1.516-2.022 2.527zm-100.091-4.549v1.263c.253 3.792 2.78 7.078 6.319 7.836 2.275.505 4.549.253 6.571-.253 9.352-2.78 14.66-12.638 14.407-20.473-.252-3.286-1.516-5.813-4.296-7.33-3.034-1.516-6.067-1.516-9.1-.505-7.835 2.78-13.901 11.121-13.901 19.462zm46.759 9.352c1.517 0 3.286-.506 4.55-1.77 2.022-1.516 3.286-3.791 4.55-5.813.252-.506.505-.758 0-1.011-.506-.253-.759 0-1.011.505-1.011 1.264-2.022 2.528-3.034 3.539-.252.253-.758.253-1.263.253-.253 0-.506-.758-.506-1.011 0-.759.253-1.77.506-2.528 3.033-11.374 5.813-23 8.846-34.374.253-1.011 0-1.264-1.011-1.264h-.758c-3.033.505-6.319 1.011-9.352 1.516-.506 0-1.264 0-1.264.759 0 .758.758.505 1.264.758 1.516 0 2.022.758 2.022 2.275 0 .505-.253 1.264-.253 1.769-1.769 6.572-3.286 12.89-5.055 19.462-1.011 3.791-2.022 7.583-3.033 11.627-.253 3.033 1.517 5.308 4.802 5.308zm25.023-5.308c-.253 3.033 1.011 4.802 3.286 5.308 1.769.252 3.286 0 4.549-.759 2.781-1.769 4.55-4.296 6.067-7.077 0-.253 0-.505-.253-.758h-.758c-.506.505-.759 1.264-1.264 1.769-.506.758-1.264 1.517-2.022 2.275-.253.253-1.011.506-1.011.253-.253-.253-.506-.758-.506-1.264s0-.758.253-1.264c2.275-8.846 4.55-17.693 6.824-26.792l2.275-9.099c.253-.758 0-1.011-.758-1.264h-.758c-2.022.253-4.297.759-6.319 1.011l-3.792.759c-.252 0-.505.505-.505.758.253.253.505.505.758.505h.758c1.011 0 1.77.759 1.77 2.022 0 .759-.253 1.517-.253 2.275-2.022 8.341-4.297 16.429-6.319 24.77-1.011 2.528-1.516 5.055-2.022 6.572zm-10.363 5.308a6.864 6.864 0 004.297-1.517c2.275-1.769 3.791-4.044 5.308-6.319.253-.505 0-.505-.253-.758-.505-.253-.758-.253-1.011.253l-3.033 3.791c-.253.253-.758.253-1.011.253-.253-.253-.506-.758-.506-1.011 0-1.011.253-2.022.506-2.781 1.769-6.571 3.539-13.396 5.055-19.967.253-1.011 0-1.264-1.011-1.264h-.505c-2.023.253-4.045.758-6.319 1.011-1.264.253-2.528.506-3.792.506-.505 0-1.011.252-.758.758 0 .505.506.758 1.011.505h.506c1.263 0 2.022 1.011 1.769 2.275-.253 1.011-.253 2.275-.758 3.286l-3.792 15.165c-.758 3.539 1.011 5.814 4.297 5.814zm-33.869-5.055c0 3.285 1.264 4.549 3.539 5.055 1.516.252 3.033-.253 4.296-1.011 2.781-1.77 4.55-4.297 6.067-7.078 0-.252 0-.505-.253-.758s-.506-.253-.758 0c-.506.506-.759 1.264-1.264 1.769-.506.759-1.264 1.517-2.022 2.275-.253.253-1.011.253-1.264.253-.253-.253-.506-.758-.506-1.011 0-.253 0-.758.253-1.264 1.77-7.077 3.539-14.154 5.561-21.231.505-1.769-.253-1.769-1.517-1.769h-.252c-1.77.252-3.286.505-5.056.758l-4.549.758c-.253 0-.506.506-.506.758 0 .253.506.506.759.506h.758c1.264 0 1.769.758 1.769 2.022 0 .505 0 1.264-.253 1.769-1.011 4.55-2.274 8.847-3.538 13.396-.758 2.275-1.264 4.044-1.264 4.803zm16.176-32.353c0-.758-.252-1.517-1.011-2.275-1.516-1.516-3.791-2.022-5.813-1.011-2.528 1.264-3.033 4.297-1.011 6.066 1.517 1.517 3.791 1.77 5.561 1.011 1.263-.758 2.274-1.769 2.274-3.791zm25.023-3.791h-.505c-1.517.252-2.781 1.011-3.539 2.527-.506 1.264-.253 2.781.505 3.792 1.517 2.022 4.55 2.274 6.572.758 1.769-1.264 2.022-3.792.758-5.308-1.263-1.264-2.274-1.769-3.791-1.769zm51.309 28.055c0-1.769-1.264-3.033-3.033-3.033s-3.033 1.264-3.033 3.033c0 1.77 1.264 3.286 3.033 3.286 1.769-.253 3.033-1.516 3.033-3.286z"/><path d="M72.554 132.203c.252-6.571 2.274-12.89 5.307-18.703.253-.759 1.011-1.264 1.517-2.022 1.011-1.011 2.275-1.264 3.538-.759 1.264.506 1.77 1.77 1.77 3.033 0 3.286-.506 6.572-1.264 9.605-1.011 4.044-2.528 7.835-4.802 11.374-.506.758-1.264 1.264-2.022 1.769-1.77.759-3.539-.505-3.792-2.527-.252-.506-.252-1.011-.252-1.77zM183.26 126.896c-1.011.758-2.275.758-3.033 0-.759-.759-1.011-2.275-.253-3.286.758-1.011 1.769-1.264 2.78-.758 1.517.505 1.77 2.78.506 4.044-.253-.506-.506-1.011-.758-1.264.252-.506.505-1.011.505-1.517 0-.252-.505-.758-.758-.758h-1.77v3.033c0 .253.253.253.253.506 0-.253.253-.253.253-.506v-1.011s.253 0 .253-.253c.253.253.505.506.505.759.759.758 1.011 1.011 1.517 1.011z"/><path d="M181.491 124.874v-1.011c.505 0 .758.252 1.263.252v.506c-.505 0-1.011 0-1.263.253z"/></g></svg>