<svg version="1.1" id="Pepsi" xmlns="http://www.w3.org/2000/svg" x="0" y="0" viewBox="0 0 250 250" xml:space="preserve"><style>.st0{fill:#fff}</style><path class="st0" d="M62.1 87.9c20.6 0 37.2 16.7 37.2 37.2 0 20.6-16.7 37.2-37.2 37.2-20.6 0-37.2-16.7-37.2-37.2 0-20.6 16.6-37.2 37.2-37.2m0-.7c-20.9 0-37.9 17-37.9 37.9s17 37.9 37.9 37.9 37.9-17 37.9-37.9-17-37.9-37.9-37.9zM222.6 109.8c.4-.5.7-1 .7-1.7 0-.8-.3-1.4-.7-1.9-.5-.5-1.1-.8-1.8-.8s-1.3.3-1.8.8-.7 1.1-.7 1.9c0 .7.2 1.3.7 1.7.6.5 1.1.7 1.8.7s1.4-.2 1.8-.7zM222.8 135.5V113H219l.1 22.5h3.7zM214.1 114.1l-.6-.3c-1.7-1-3.7-1.5-6.1-1.5-2.6 0-4.8.6-6.4 1.9-.8.6-1.4 1.3-1.8 2.1-.4.8-.6 1.5-.6 2.4 0 1.5.7 2.8 2 3.9 1.2 1 2.9 1.9 5.2 2.6 2 .6 3.3 1.3 4.1 1.9.7.7 1.1 1.5 1.1 2.4 0 1-.6 1.9-1.5 2.6-1 .6-2.4.9-4.1.9-1.9 0-3.8-.5-5.7-1.4l-.5-.3-1.6 2.9.6.3c2.2 1 4.5 1.5 7.1 1.5 2.8 0 5.1-.6 6.9-1.8.9-.6 1.5-1.3 2-2.1.5-.9.7-1.9.7-2.9v-.1c0-1.7-.7-3.1-2-4.3-1.1-1-2.9-1.8-5.3-2.5-1.8-.6-3.1-1.3-3.9-1.7-.8-.6-1.2-1.3-1.2-2.1 0-.9.3-1.6 1.1-2.2.8-.6 1.9-.9 3.4-.9 2 0 3.7.3 5 1.2l.5.3 1.6-2.8zM191.4 115.7c-2.6-2.2-5.8-3.4-9.5-3.4-3.6 0-6.6 1.1-9.1 3.3-2.7 2.4-4.1 5.8-4.1 10.2v17.5h3.6V132c1.1 1.3 2.5 2.2 4.2 2.9 1.7.8 3.5 1.1 5.4 1.1 3.7 0 6.8-1.1 9.4-3.5 2.6-2.3 4-5.1 4-8.4 0-3.3-1.3-6.1-3.9-8.4zm-9.5-.2c2.7 0 5.1.8 6.9 2.5 1.9 1.7 2.9 3.8 2.9 6.3 0 2.4-.8 4.3-2.5 6-1.8 1.7-4.3 2.6-7.2 2.6-2.9 0-5.3-.9-7.2-2.6-1.7-1.7-2.6-3.7-2.6-6s.8-4.3 2.6-6c1.8-1.9 4.2-2.8 7.1-2.8zM162.9 116.9c-2.4-3.1-5.9-4.5-10.6-4.5-3.5 0-6.5 1-9.1 3.1-2.8 2.2-4.2 5.1-4.2 8.7 0 2 .6 4 1.7 5.9 1 1.8 2.6 3.3 4.8 4.4 2.2 1 4.5 1.5 7 1.5 2.4 0 4.6-.5 6.8-1.5 2.2-1.1 3.8-2.6 4.8-4.4l.7-1.2h-4c-.8 1.2-2 2.2-3.6 2.9-1.5.8-3.2 1.1-4.8 1.1-2.2 0-4.1-.6-5.8-1.7-1.7-1.2-2.8-2.6-3.5-4.6 2.3-.9 4.6-1.4 7.1-1.4l3.8.4 5.9.6c1.8 0 3.3-.3 4.7-.7.6-.2.9-.5 1-.8.2-.3.2-.8.1-1.3-.3-2.6-1.2-4.7-2.8-6.5zm-.9 5.7l.1.1-2 .3-4.4-.4-6.1-.5h-1c-2 .1-3.8.5-5.5 1.1.3-2.6 1.5-4.6 3.6-6.1 1.7-1.1 3.7-1.7 5.8-1.7 3.3 0 5.8 1 7.7 3.1.8 1.3 1.5 2.6 1.8 4.1zM122.9 112.3c-3.6 0-6.6 1.1-9.1 3.3-2.7 2.4-4 5.8-4 10.2l-.1 17.5h3.8l-.1-11.3c1.1 1.3 2.5 2.2 4.1 2.9 1.7.8 3.6 1.1 5.5 1.1 3.7 0 6.8-1.1 9.4-3.5 2.6-2.3 3.9-5.1 3.9-8.4 0-3.3-1.3-6.1-3.8-8.4-2.7-2.2-5.8-3.4-9.6-3.4zm-7.1 6c1.9-1.8 4.2-2.8 7.1-2.8 2.8 0 5.1.8 7 2.5 1.9 1.7 2.8 3.8 2.8 6.3 0 2.4-.8 4.3-2.4 6-1.8 1.7-4.2 2.6-7.2 2.6-2.9 0-5.3-.9-7.2-2.6-1.7-1.7-2.5-3.7-2.5-6-.1-2.4.7-4.4 2.4-6z"/><g><path class="st0" d="M83.4 96.9c-.3-.2-.6-.5-.9-.8-5.8-4.1-12.8-6.4-20.4-6.4-19.6 0-35.4 15.9-35.4 35.4 0 7.9 2.6 15.3 7 21.2 11.9-3.5 22.2-9.6 31.1-18.4 8.8-8.8 15-19.2 18.6-31z"/><path class="st0" d="M62.1 160.5c19.6 0 35.4-15.9 35.4-35.4 0-6.9-2-13.4-5.4-18.8-.1-.1-.2-.2-.2-.3.7 2.4 1.1 4.8 1.1 7.3 0 4-.9 7.8-2.8 11.4-1.8 3.4-4.3 6.3-7.4 8.6-2.5 1.8-5.4 3.4-8.9 4.6-2.8 1-6.4 2.1-10.9 3.1l-13 2.9c-5.5 1.3-10.5 2.6-15 4 6.5 7.7 16.2 12.6 27.1 12.6z"/></g></svg>