<svg xmlns="http://www.w3.org/2000/svg" viewBox="-172 295.9 250 250"><path d="M66.9 387.7c-1 .5-1.4 3.2-3.3 2.6-.6-.2-.8-1.1-1-1.6l1.4-14.2c-1.6.4-3.2.7-4.8 1.2l-.7 2.5c-.9-.5-1.7-1.1-2.6-1.4-2.4-.8-7 1.9-8.4 4.7-2.1 4.1-.4 9.7-4.9 12.2.2-4.5 1.1-9.4 1.2-13.8l-5.3 1.7-1.5 12.6c-.1 1.7-.8 3.1-2.3 4.1-.9.7-3 2.3-3.5.8-1.7-4.8.7-10.7 1.1-16.1-2 .5-4.1 1.1-5.8 2-.2 6.5-1 13.4-6.5 16.8-.8.5-1.9.1-2.2-.9-1.1-4.3.7-9.5.7-14.2l-4.7 1.3-.6 2.8c-1.4-1.7-3.8-1.5-5.6-.9-3 .9-5.7 3.7-6 6.7-.6 5.2-4 8.9-8.1 11.7-.1-4.1 1.2-8.6 1.1-12.6 0-.9-1.2-1.8-2.3-1.4-3.4 1.1-6.1 3.8-8.4 6.6h-.3c-.1-1.3.2-2.8.3-4.2l-5.3 1.5-1.2 8c-1.5 3-3.1 5.7-5.9 7.6-.6-4.4 3.8-10.8-.3-13.1-3.6-2-7.1 3.3-9.5 5.9.3-4.5 1-9 1.4-13.5l-4.7 1.3-1.7 14.7c-1.1 3.9-3.3 7.2-5.7 10.4-2.2 2.2-4.4 5.8-7.9 4.2-1.8-.8-2-3.2-1.7-5.1.5-3.3 1.9-6.9 5.3-7.9 1.5-.4 3.2.2 4.4 1.1.6-1.1 1.8-2.6.9-3.7-1.7-1.8-5-1.8-7.2-1-5.3 2-7.8 7.5-7.7 13.1-1.4 1.9-2.1 4.3-4.2 5.8-.8.5-1.9.7-2.8.2-.2-5 1-10.6 1.2-15.6l-4.9 1.5-1 8.5c-1.1 1.8-2.4 3.7-4 5.2-1.6 1.6-3.8 5-6.1 3.8-2.3-1.2-.7-4.9-.1-7.1 5.1-6.6 9.2-14.1 12.4-21.9 1-2.5 2.6-5 1.7-8-.5-1.6-2.3-2.5-4.1-2.2-9 1.5-11 10.8-12.8 18.1-1.7 7.1-.7 17.2-9.1 20.7l-.9-.1c.3-2.2-.1-4.3-1.4-6-1.4-1.8-3.9-2.4-6.3-2.2-2.7.2-6 2.6-6.6 5.1-1.4 5.5-1.9 11.3-6.4 14.7-.7.5-2 1-2.8.1l2.3-19.7.4-.9 8.6-2.3c.4-1.3.6-2.9.5-4l-8 2.2c-.3-1.5 0-3.3.4-4.8-1.8.3-3.5.8-5.2 1.4-.3 1.7-.2 3.5-.9 5l-7.3 2.1-.5 4.1 7.4-1.7-1.4 9.6-10 7.3c-9.5-4.4-24.1-10.7-21.7-23.1 2.1-11.3 16.2-19.2 27.3-19.4 3.3-.1 5.7 3.6 6.8 6.3l4.6-2c.1-2.3-1.2-4.7-2.9-6.3-6.9-6.7-17.5-3-24.3.4-9 4.4-18.2 12.6-17.8 23.7.4 12.1 13 19.3 22.5 24.3-6.8 4.9-13.3 10.9-20 16.3l-.4.7c-.3.8.1 1.8.7 2.5 4 2.7 9.8 4 14.8 3.2 6.3-1 13.8-5.1 15.7-11.9.8-3.8 1.5-8.5-2-11.3l5.7-4.2h.4c.1 2.1-.8 4.5-.2 6.4 2 1.5 5.3 1.4 7.6.7 3.3-.9 5-3.7 6.1-6.6l.8 1.3c1.6 1.5 4.4 1.9 6.4 1.2 2.8-1 6.4-2.8 6.4-6.3 2.3-1.2 4.7-2.7 6.7-4.6h.4c.6 2.1.3 5.5 2.8 6 5 1.1 10-3.4 13.1-7.5.6 1.6 2.2 3.3 4.1 3.2 3.8-.2 7.8-3 9-6.8 1.2 1.1 2.6 2.2 4.3 2.6 6.7 1.7 9.9-5.5 12.9-9.4 0 2-.4 4.1-.6 6.3 1.6-.1 3-.8 4.6-1l1.5-10.2c1.3-2.3 3-4.6 5.3-6.2.3-.2 1.3-.2 1.3.3.3 4.3-2.8 9.2-.1 12.7.7 1 2.2 1 3.3.2 2.7-1.9 4.7-4.5 6.5-6.9.1 1.5-.3 3.5-.4 5.2l4.4-1.6c1-4.1 1.1-8.6 3-12.2.9-1.8 4.4-4.7 4.5-3.4.1 3.6-1.2 8-.7 11.9.1.9 1.1 1.2 2.2 1.3 4.9.4 8.5-3.9 10.9-7.5h.4c.4 1.3 1.4 2.4 2.3 3.1 1.5 1.2 3.6.7 5 .1 2.4-1 4.1-3.4 5-5.8.9 1.2 2 2.9 4.1 2.6 3.6-.5 5.9-3 7.7-6 .3.4.4 1.1 1 1.6 2.6 2.1 6.2.6 8.8-.8l.1.1c-1.8 2.2-3.8 4.4-5.3 6.8-2.5 4-6.1 10.7-2.3 15.2 1.1 1.3 2.7 1.7 4.6 1.7 2.4 0 5.2-1.8 6-4.1 2.2-6.2 1.6-13.5 2.9-20.4l4.9-6.2c.6.1.9.8 1.2 1.2 1.8 2.1 5.2 2 7.4 1.1 2.1-.8 3.3-2.9 4.1-4.8.8 1.3 2.2 1.9 3.7 2.2 2.7.6 4.5-2 6-3.8l-1.4-3.5zm-145.3 8.8c.6-1 3.2-3 3.2-.5-1.6 7.1-5.5 13.1-9.2 18.9 1.2-6.3 2.5-13 6-18.4zm-60.3 61.9c-3.5 3-8.5 3.6-12.7 1.9-.3-.4 0-.9.3-1.2l15-12.8c1.1.4 2.2 1.2 2.5 2.4.5 4.2-1.9 7.5-5.1 9.7zm34.7-22.5c-.9.6-1.8.8-2.8.9-1.6.1-2-1.1-1.9-2.7 0-1.8.1-7 3.6-8 1.3-.4 3 .2 3.1 1.5.3 2.6.4 6.6-2 8.3zm114.2-31.4c-1.1 1-3.4 2.2-4.5.8-1.7-2.3-.4-5.9.4-8.6.4-1.3 2-2 3.3-2.2 1.4-.2 2.3 1.1 2.3 2.1.2 2.5.5 6.1-1.5 7.9zm22.4 18.3c-.8.4-1.7-.5-1.8-1.5-.2-4.1 2.9-9.5 6-13.4-.9 4.9.7 12.3-4.2 14.9zm22.9-30.7c-1.2.9-2.8 1.9-4.1.7-2.1-1.9-.9-6 .2-8.2.7-1.4 2-2.2 3.4-2.6 1.7-.5 2.7 1.2 2.6 2.4-.3 2.4.1 6.1-2.1 7.7z" fill="#fff"/></svg>