<svg viewBox="0 0 250 250" xmlns="http://www.w3.org/2000/svg" fill-rule="evenodd" clip-rule="evenodd" stroke-linejoin="round" stroke-miterlimit="1.414"><g fill="#fff" fill-rule="nonzero"><path d="M68.214 33.5v183h113.572v-183H68.214zm77.637 127.989v-.443c0-.222.222-.222.222-.222h.443c.222 0 .666.222.888.443l5.989 5.102v-5.102c0-.221 0-.443.222-.443h.665c.222 0 .444.222.444.443v5.99c0 .443-.222.887-.666.887h-.221c-.222 0-.444-.222-.666-.444l-6.211-5.323v5.101c0 .222 0 .444-.222.444h-.665a.477.477 0 01-.444-.444v-5.989h.222zm.222 14.64c-.222-.221-.222-.221-.222-.443s.222-.444.444-.444c.443 0 .665 0 .665.222l3.106 3.105 3.105-3.105s.444-.222.666-.222c.443 0 .443.222.443.444s0 .222-.222.443l-3.549 3.328v2.661c0 .222 0 .444-.222.444h-.665a.477.477 0 01-.444-.444v-2.661l-3.105-3.328zm-3.771-8.651c0 .222 0 .444-.222.444-.222.222-.222.222-.444.222-.221 0-.443-.222-.665-.444l-1.109-1.774h-5.546l-1.109 1.774c-.222.222-.222.222-.443.222h-.222c-.222-.222-.444-.222-.444-.444v-.221l4.215-6.433c.222-.222.443-.444.887-.444.222 0 .444 0 .666.222v.222l4.436 6.654c0-.221 0-.221 0 0zm-34.16-120.004c0-1.774 1.109-2.883 2.883-2.883 1.109 0 1.997 0 2.219.221 1.33.444 1.996 1.553 1.996 2.884v16.193c0 .887.444 1.553 1.996 1.996.888.222 2.44.444 4.659.444h6.21c2.219 0 3.771-.222 4.659-.444 1.552-.443 1.996-1.109 1.996-1.996V47.474c0-1.109.444-2.44 1.996-2.883h2.219c1.774 0 2.883 1.109 2.883 2.883v16.637c0 6.211-5.989 8.651-15.083 8.651h-5.102c-6.433 0-11.091-1.11-12.866-4.437-.443-1.109-.887-2.44-.887-3.993V47.474h.222zm0 33.051c0-1.774 1.109-2.883 2.883-2.883h19.077c2.218 0 3.993.221 5.102.443 1.996.444 3.549 1.331 4.88 2.662s1.996 2.884 1.996 4.658c0 1.775 0 2.884-.222 3.328-.222.665-.665 1.552-1.331 2.661.666 1.109 1.109 1.997 1.331 2.884 0 .444.222 1.553.222 3.327 0 2.884-1.553 5.102-4.214 6.433-1.997 1.109-4.437 1.553-7.321 1.553h-19.52c-1.774 0-2.883-1.109-2.883-2.884V80.525zm0 34.16c0-1.774 1.109-2.883 2.883-2.883 1.109 0 1.997 0 2.219.222 1.33.443 1.996 1.552 1.996 2.883V131.1c0 .887.444 1.553 1.996 1.996.888.222 2.44.444 4.659.444h6.21c2.219 0 3.771-.222 4.659-.444 1.552-.443 1.996-1.109 1.996-1.996v-16.415c0-1.109.444-2.44 1.996-2.883.444 0 1.331-.222 2.44-.222 1.775 0 2.884 1.109 2.884 2.884V131.1c0 6.211-5.989 8.651-15.084 8.651h-5.101c-6.433 0-11.091-1.109-12.866-4.436-.444-1.11-.887-2.44-.887-3.993v-16.637zm20.407 49.688c.222.222.444.444.444.665v.888c0 .665-.444 1.109-.888 1.552-.443.222-1.109.444-1.996.444h-5.545a.477.477 0 01-.444-.444v-6.211c0-.221.222-.443.444-.443h5.323c.666 0 1.109 0 1.331.222.444 0 .887.221 1.109.665.222.222.444.666.444 1.109v.887c0 .222-.222.444-.444.666.222-.222.222 0 .222 0zm-20.851-3.327c0-.222.222-.444.444-.444h5.323c.888 0 1.553.222 1.997.222.665.222 1.109.887 1.109 1.553v.887c0 .665-.444 1.109-1.109 1.331-.444.222-1.109.222-1.775.222h-2.218l4.436 1.774c.222 0 .444.222.444.444s-.222.443-.444.443h-.665l-5.989-2.661v2.218c0 .222-.222.443-.444.443h-.665c-.222 0-.222-.221-.222-.443v-5.989h-.222zm-12.422 0c0-.222.222-.444.444-.444h.665c.222 0 .222.222.222.444v4.658c0 .443.222.665.887.887.222 0 .666.222 1.331.222h1.775c.665 0 1.109 0 1.331-.222.665-.222.887-.444.887-.887v-4.658c0-.222 0-.444.222-.444h.665c.222 0 .444.222.444.444v4.658c0 1.331-1.331 1.996-3.993 1.996h-1.552c-1.775 0-2.884-.443-3.328-1.109-.222-.222-.222-.665-.222-1.109v-4.436h.222zm8.873 34.16c0 1.331-1.331 1.996-3.993 1.996h-1.552c-1.775 0-2.884-.443-3.328-1.109-.222-.222-.222-.665-.222-.887v-4.658c0-.222.222-.444.444-.444h.665c.222 0 .222.222.222.444v4.658c0 .443.222.665.888.887.221 0 .665.222 1.331.222h1.774c.666 0 1.109 0 1.331-.222.665-.222.887-.444.887-.887v-4.658c0-.222 0-.444.222-.444h.666c.221 0 .443.222.443.444v4.658h.222zm0-15.306v.888c0 .665-.444 1.109-.887 1.552-.444.222-1.109.444-1.997.444H95.72a.477.477 0 01-.444-.444v-6.211c0-.221.222-.443.444-.443h5.324c.665 0 1.109 0 1.33.222.444 0 .888.221 1.11.665.221.222.443.665.443 1.109v.887c0 .222-.222.444-.443.666v.222c.443 0 .665.221.665.443zm1.553.888v-3.55c0-.443.222-.665.443-.887.444-.665 1.331-.887 2.662-.887h1.331c.222 0 .444.222.444.444v.221a.477.477 0 01-.444.444h-.887c-1.553 0-2.218.222-2.218.887v1.331h6.432c.222 0 .444.222.444.444s0 .222-.222.443c0 .222-.222.222-.443.222h-6.433v1.109c0 .444.665.666 1.774.666h4.659c.221 0 .443.222.443.443 0 .444-.222.666-.443.666h-4.659c-.665 0-1.331-.222-1.996-.444-.444-.443-.887-.887-.887-1.552zm10.425 15.749c0 .443-.222.887-.665.887h-.222c-.222 0-.444-.222-.666-.444l-6.21-5.323v5.102c0 .221 0 .443-.222.443h-.666a.476.476 0 01-.443-.443v-5.99-.443c0-.222.221-.222.221-.222h.444c.222 0 .666.222.887.444l5.989 5.101v-5.101c0-.222 0-.444.222-.444h.666c.222 0 .443.222.443.444v5.989h.222zm4.658.222a.476.476 0 01-.443.443h-.666c-.221 0-.221-.222-.221-.443v-6.211c0-.222 0-.444.221-.444h.666c.222 0 .443.222.443.444v6.211zm-3.549-15.971l-1.109 1.774c-.222.222-.222.222-.443.222h-.222c-.222-.222-.444-.222-.444-.444v-.222l4.215-6.432c.222-.222.443-.444.887-.444.222 0 .444 0 .665.222v.222l4.437 6.211v.221c0 .222 0 .444-.222.444-.222.222-.222.222-.444.222-.221 0-.443-.222-.665-.444l-1.109-1.774h-5.546v.222zm13.531 10.425h-2.883v5.767a.477.477 0 01-.444.444h-.665c-.222 0-.222-.222-.222-.444v-5.767h-2.884a.477.477 0 01-.444-.444v-.443c0-.222.222-.222.444-.222h7.098c.222 0 .222 0 .444.222v.443c0 .222 0 .444-.444.444zm.444-8.651h-.666c-1.774 0-2.883-.444-3.327-1.109 0-.222-.222-.665-.222-.887v-4.658c0-.222.222-.444.444-.444h.665c.222 0 .222.222.222.444v4.658c0 .443.222.665.888.887.221 0 .665.222 1.33.222h1.775c.665 0 1.109 0 1.331-.222.665-.222.887-.444.887-.887v-4.658c0-.222 0-.444.222-.444h.666c.221 0 .443.222.443.444v4.658c0 1.331-1.331 1.996-3.993 1.996h-.665zm6.211 13.753h4.658c.222 0 .444.222.444.444 0 .443-.222.665-.444.665h-4.658c-.666 0-1.331-.222-1.996-.444-.666-.221-1.11-.887-1.11-1.552v-3.549c0-.444.222-.666.444-.888.444-.665 1.331-.887 2.662-.887h1.331c.222 0 .443.222.443.444v.221c0 .222-.221.444-.443.444h-.666c-1.331 0-2.218.222-2.218.887v1.109h6.433c.222 0 .444.222.444.444s0 .222-.222.444c0 .222-.222.222-.444.222h-6.433v1.109c.222.665.666.887 1.775.887zm7.098-19.964h-2.884v5.767c0 .222-.221.444-.443.444h-.666c-.221 0-.221-.222-.221-.444v-5.767h-2.884c-.222 0-.444-.222-.444-.443v-.444c0-.222.222-.222.444-.222h7.098c.222 0 .222 0 .444.222v.444c0 .443-.222.443-.444.443zm10.204 19.077c0 .443 0 .665-.222.887-.222.444-.665.665-1.331.887-.444.222-.887.222-1.553.222h-5.545a.477.477 0 01-.444-.444v-6.211c0-.221.222-.443.444-.443h6.433c1.331.222 1.996.887 1.996 1.774v3.328h.222z"/><path d="M134.316 88.067c.444-.222.444-.222.666-.444v-2.218c0-.443-.666-1.331-4.658-1.331h-14.64v4.659h14.64c1.996 0 3.105-.222 3.992-.666zM134.76 98.049v-1.775c0-.221-.222-1.109-4.436-1.109H115.24v4.215h14.862c3.771 0 4.658-.887 4.658-1.331zM152.727 191.213c-.221 0-.665-.222-1.109-.222h-4.658v5.102h4.658c.444 0 .666 0 1.109-.222.444-.222.666-.443.666-.665v-3.327c0-.222-.222-.444-.666-.666zM101.265 179.678h-4.658v1.997h4.658c1.109 0 1.553-.222 1.775-.666v-.665c-.222-.444-.666-.666-1.775-.666zM101.044 176.351h-4.659v1.997h4.659c1.109 0 1.774-.222 1.774-.666v-.665c0-.222-.665-.666-1.774-.666zM118.124 179.678h3.992l-1.996-3.105-1.996 3.105zM115.24 163.486v-.888c0-.443-.666-.665-1.775-.665h-4.436v2.218h4.658c.887 0 1.553-.222 1.553-.665zM126.109 164.817h-4.658v1.996h4.658c1.109 0 1.553-.222 1.775-.666v-.665c-.222-.444-.666-.665-1.775-.665zM126.109 161.711h-4.658v1.996h4.658c1.109 0 1.775-.221 1.775-.665v-.665c-.222-.444-.666-.666-1.775-.666zM135.204 164.817h3.992l-1.996-2.884-1.996 2.884z"/></g></svg>