<svg version="1.1" id="dp" xmlns="http://www.w3.org/2000/svg" x="0" y="0" viewBox="0 0 250 250" xml:space="preserve"><style>.st0{fill:#fff}</style><path class="st0" d="M136.2 121.8c1.6-.9 3.6-2 5.9-2 2.8 0 7.2 2.4 7.2 8.4 0 6.3-4.9 9.2-8.6 9.2-2.4 0-3.8-.8-4.5-1.3l.1 10.9c0 .4-.1 1.3 1 1.3h2.3v.7l-6.4.9c.2-2.1.2-5.2.2-9.9v-17.5c0-.8 0-1.3-.9-1.3h-1.6v-.7l5.4-.4c-.1.2-.1 1.1-.1 1.7zm0 12.4c.8 1.2 2.4 2.2 4.1 2.2 1.9 0 5.8-1.5 6-7.6.1-6.5-4.5-7.5-6.2-7.4-1.4 0-2.7.5-3.9 1.2v11.6zM170.9 136.8v-.8h1.4c.9-.1 1.1-.3 1.1-1.4v-12.5c0-.8 0-1.3-.8-1.3h-1.9v-.8l5.4-.3c-.1 1.1-.2 3.4-.2 4.9.6-2.1 2-5.4 4.6-5.4 2.2 0 3.2 2 2.3 3.1-.8 1-1.4 1-2 0-.4-.6-.8-1-1.5-1-1.5 0-3 3.1-3 6.1v7.1c0 1.1.2 1.2.9 1.3.9.1 2 .2 2.6.2v.9c-3.4-.2-5.9-.2-8.9-.1zM214 136.8v-.8c.4 0 1-.1 1.4-.1 1-.1 1.3-.4 1.3-1.5v-12.5c0-.9-.2-1.1-.9-1.1h-1.5v-.7l5.2-.3c-.1.9-.1 1.8-.2 2.6 1.6-1.2 3.7-2.8 6.3-2.8 3.1 0 5.5 1.8 5.5 5.4v9.3c0 1.1.1 1.6.9 1.7.4 0 .9.1 1.4.1v.8c-2.2-.2-4.5-.2-7.3 0v-.7c.4 0 .9 0 1.4-.1.8-.1 1-.4 1-1.7v-9.2c0-2.3-1.7-3.9-4.1-3.9-1.8 0-3.8 1.1-5 2.2v10.9c0 1.1.2 1.4.9 1.5.4.1 1.1.2 1.5.2v.7c-2.6-.1-5.6-.1-7.8 0zM168.6 133.4c-1.9 2.5-4.3 4-7.7 4-3.6 0-8.1-2.3-8.1-8.6 0-6 4.7-9.2 8.4-9.2 4.2 0 7.1 2.4 6.9 7.5H156c-.3 3.4.8 8.7 6.4 8.7 2.6 0 4.2-1.4 5.6-2.8l.6.4zm-12.5-7.2h9c.1-1.4-.2-5.8-3.9-5.8-3.6 0-5.1 4-5.1 5.8zM195.5 121.9c.6-.7.5-1.1-.1-1.2-.5-.1-1-.1-1.5-.1v-.6c2 .1 5.2.1 6.4 0v.6h-1.1c-.9 0-1.4.4-2 1l-5.3 5.1 7.6 8.1c.6.6 1.1 1.1 1.8 1.2h.9v.8c-2.6-.1-6.5 0-7.7 0v-.8h.9c.7 0 1.1-.5.4-1.3l-6.1-6.6v6.2c0 1.1.2 1.4.9 1.5.4.1 1.1.2 1.5.2v.7c-2.4-.2-5.4-.2-7.6 0v-.8c.4 0 1-.1 1.4-.1 1-.1 1.3-.4 1.3-1.5l-.1-24.9c0-.7-.2-1.1-.9-1.1h-1.8v-.7l5.7-.9c-.1 1.3-.2 3.2-.2 5.4v15.5l5.6-5.7zM241.4 137.5c-2.4 0-4.1-.7-4.8-1.6-.6-.8-.5-2 .2-2.5.6-.4 1.1-.3 1.3.4.3.9 1.4 2.7 4 2.7 2.5 0 3.4-1.7 3.4-3.3 0-1.8-1.5-2.6-4.3-3.8-2.7-1.2-4.7-2.2-4.7-5.2s3.1-4.9 6.1-4.9 4.2 1.3 4.5 1.7c.6.9.4 1.9-.6 2.3-.8.3-1.3.1-1.3-.4 0-.7-.4-2.7-2.7-2.7s-3.6 1.2-3.6 3.1 1.6 2.6 4 3.7c2.5 1.1 5.1 2.1 5.1 5.4 0 2.5-2.1 5.1-6.6 5.1zM209 134.4c0 1.1.2 1.3 1.2 1.5.4.1 1.1.2 1.5.2v.7c-2.4-.2-6-.2-8.1 0v-.8c.4 0 1-.1 1.4-.1 1.3-.1 1.4-.3 1.4-1.5v-12.6c0-.7-.1-1.1-1-1.1h-1.8v-.7l5.7-.2c-.1 1.3-.2 2.7-.2 5.4l-.1 9.2zM213.2 112.3c0-.4-.4-1.2-2-1.3-1.5 0-2.5.6-3.1 1.1.5.5 1.5 1.3 3 1.3 1.5.1 2.1-.7 2.1-1.1zM209.3 106.6c-.4-.2-1.3 0-1.8 1.5-.5 1.4-.2 2.6.1 3.3.6-.3 1.7-1 2.2-2.4.5-1.5 0-2.2-.5-2.4zM202.8 108.5c-.3.4-.4 1.3.9 2.2 1.2.9 2.4 1 3.1.9-.1-.7-.4-1.9-1.7-2.8-1.2-.9-2.1-.7-2.3-.3zM202.5 115.3c.2.4 1.1.7 2.4-.1 1.3-.9 1.7-2 1.8-2.7-.7-.1-1.9-.2-3.2.7-1.3.9-1.2 1.7-1 2.1zM208.9 117.7c.4-.1 1-.8.6-2.3-.4-1.5-1.4-2.2-2-2.6-.3.6-.7 1.8-.3 3.2.4 1.5 1.3 1.8 1.7 1.7zM14.3 135.4c-1.6.9-3.6 1.9-5.9 1.9-2.8 0-7.2-2.4-7.2-8.4 0-6.3 4.9-9 8.6-9 2.4 0 3.8.8 4.5 1.3l-.2-11.1c0-.4.1-1.3-1-1.3H11v-.7l6.3-.9c-.2 1.9-.2 8.6-.2 11v16.5c0 .8 0 1.3.9 1.3h1.6v.7l-5.3.4v-1.7zm-.1-12.4c-.8-1.2-2.4-2.2-4.1-2.2-1.9 0-5.8 1.3-6 7.4-.1 6.5 4.5 7.5 6.2 7.4 1.4 0 2.7-.4 3.9-1.1V123zM21.6 128.5c0-4.9 3-8.8 8.2-8.8s8.2 4 8.2 8.8c0 4.9-3 8.8-8.2 8.8s-8.2-3.9-8.2-8.8zm8.2 8.1c3.5 0 5.2-3.6 5.2-8.1s-1.7-8.1-5.2-8.1-5.2 3.6-5.2 8.1c-.1 4.5 1.6 8.1 5.2 8.1zM40.7 136.8v-.8H42c.9-.1 1.1-.3 1.1-1.4v-12.4c0-.8 0-1.3-.8-1.3h-1.9v-.8l5.3-.3c-.1 1.1-.2 3.4-.2 4.9.6-2.1 2-5.4 4.6-5.4 2.2 0 3.2 2 2.3 3.1-.8 1-1.4 1-2 0-.4-.6-.8-1-1.5-1-1.5 0-3 3.1-3 6.1v7.1c0 1.1.2 1.2.9 1.3.9.1 1.9.2 2.4.2v.9c-3.2-.3-5.4-.3-8.5-.2zM54.3 128.4c0-4.9 3-8.8 8.2-8.8s8.2 4 8.2 8.8c0 4.9-3 8.8-8.2 8.8-5.1.1-8.2-3.9-8.2-8.8zm8.3 8.1c3.5 0 5.2-3.6 5.2-8.1s-1.7-8.1-5.2-8.1-5.2 3.6-5.2 8.1c-.1 4.5 1.6 8.1 5.2 8.1zM84.4 135.1c-1.4.9-3.4 2.1-5.7 2.1s-3-1.2-3-3.2v-13.1h-2.1v-.9h2.1v-4.7l3-.6c-.1 1.1-.2 2.6-.2 5.4h5.1l-.2.9-5 .1v11.5c0 1.7.1 2.8 2.1 2.8 1.5 0 2.8-.5 3.8-.9l.1.6zM85.8 136.8v-.8c.4 0 1-.1 1.4-.1 1-.1 1.3-.4 1.3-1.5l-.1-24.7c0-.7-.2-1.1-.9-1.1h-1.8v-.7l5.7-.9c-.1 1.3-.2 3.2-.2 5.4v10.1c1.4-1.3 3.9-2.8 6.3-2.8 3.1 0 5.4 1.8 5.4 5.4v9.3c0 1.1.1 1.6.9 1.7.4 0 .9.1 1.4.1v.8c-2.2-.2-4.5-.2-7.3 0v-.7c.4 0 .9 0 1.4-.1.8-.1 1-.4 1-1.7v-9.2c0-2.3-1.7-3.9-4.1-3.9-1.8 0-3.7 1.1-4.9 2.2v10.9c0 1.1.2 1.4.9 1.5.4.1 1.1.2 1.5.2v.7c-2.7-.2-5.7-.2-7.9-.1zM113.8 137.4l-6.3-15.1c-.4-1.1-.8-1.4-1.6-1.5h-.9v-.8c2.3.1 6.2.1 7.9 0v.8c-.6 0-1.1 0-1.7.1-.8.1-.9.5-.7 1.1l4.9 12.1 4.3-11.4c.4-1.1.5-1.7-.5-1.8-.6-.1-1.3-.1-1.5-.1v-.8c1.8.1 4.5.1 6 0v.7c-.4 0-.9.1-1.3.1-.6.1-.9.4-1.4 1.8l-4.5 11.3c-.7 2-3.1 8.7-4.3 11.2-1.2 2.5-2.6 3.9-4.6 3.9-1.1 0-1.5-.4-1.8-1.3-.3-.7-.2-1.8 1.2-1.2 1.1.4 2.9 1.1 4.4-2.1.9-1.9 1.7-4.1 2.3-5.9.4-.5.1-1.1.1-1.1z"/></svg>