<svg viewBox="0 0 250 250" xmlns="http://www.w3.org/2000/svg" fill-rule="evenodd" clip-rule="evenodd" stroke-linejoin="round" stroke-miterlimit="1.414"><g fill="#fff" fill-rule="nonzero"><path d="M219.585 126.442l-1.441 3.784h2.883l-1.442 3.423h-15.317l1.262-3.423h3.063l4.866-10.992h-3.244l1.081-3.424h20.723c3.603 0 4.685.541 5.045 1.802.18 1.622-.36 2.522-.901 3.964-.721 1.802-2.702 4.866-6.668 4.685h-9.91v.181zm5.225-3.244c1.443 0 1.802-.72 1.802-.901.181-.721.361-.901.722-1.441.18-.361.18-1.261-1.081-1.261h-3.424l-1.622 3.783c0-.18 3.064-.18 3.603-.18zM62.635 133.649l1.441-3.423h3.064l4.864-10.992h-2.883l1.442-3.424h21.804c1.081.18 2.342.721 2.883 1.982 1.622 2.883-.541 5.586-1.442 8.289-1.441 3.063-3.783 6.668-7.568 7.209l-1.261.359H62.635zm17.659-3.423c.9 0 1.261-.18 1.982-.901 1.261-1.622 3.603-7.208 3.784-8.83.18-.721-.54-1.261-1.261-1.261h-3.605l-4.864 10.992h3.964zM188.952 133.649c-2.162 0-3.603 0-5.586-.18-1.802-.179-3.604-.72-4.325-2.342-.901-2.523.181-4.144 1.262-6.488 1.982-3.964 2.883-6.847 6.126-7.929 2.703-1.08 5.947-.72 9.01-.9 2.883 0 5.766 0 8.649.361 1.442.18 3.244.72 3.785 2.522.359 1.982-.902 4.144-1.261 5.046-1.802 3.783-1.802 3.964-3.424 6.307-1.261 1.981-4.144 3.244-6.127 3.423-2.343.18-5.407.18-7.749.18h-.36zm6.848-6.127c.9-1.981 1.801-3.603 2.702-5.766.181-.72.901-2.883-2.883-3.063-3.784 0-4.685 1.802-5.046 2.883-.541 1.441-2.341 4.505-2.522 5.766-.721 2.884 1.442 2.884 2.522 2.884-.18 0 3.785.54 5.227-2.704zM122.459 119.414s-2.883 7.388-4.865 10.632c-1.622 2.883-4.864 3.423-7.928 3.783-3.244.181-6.668.181-9.731-.18-1.261-.18-2.703-1.622-2.883-2.883-.18-1.081.18-1.983.541-2.883 1.261-2.703 3.423-8.288 3.423-8.288h-2.883l1.261-3.605h15.497l-1.261 3.424h-2.883l-3.604 8.289c-.181.721-.181 1.261.36 1.802 1.081.9 2.883.721 4.325.541 1.261-.361 2.343-1.442 2.883-2.524l3.424-8.288h-2.883l1.441-3.424h10.271l-1.441 3.424h-3.064v.18zM152.552 119.414l-6.127 14.235h-7.388l-5.585-10.812-3.244 7.389h2.883l-1.442 3.243-10.811.18 1.621-3.423h3.244l4.685-10.812h-3.063l1.261-3.424h10.992l5.225 10.452 3.244-7.028h-2.883l1.261-3.424h10.451l-1.261 3.424h-3.063zM170.212 119.414l-4.685 10.812h5.044l4.686-5.046h3.063l-3.783 8.469h-23.246l1.441-3.423h3.244l4.685-10.812h-3.063l1.261-3.424h15.858l-1.442 3.424h-3.063zM56.508 125.361l-42.887-25.229s12.073 10.993 12.974 11.894c-8.649 0-13.694 7.028-13.694 13.154 0 6.127 5.045 12.974 13.874 12.974l-12.613 11.714 42.346-24.507zm-40.184-.181c0-6.667 5.406-12.073 12.073-12.073 6.668 0 12.073 5.406 12.073 12.073 0 6.667-5.405 12.073-12.073 12.073-6.667 0-12.073-5.406-12.073-12.073z"/><path d="M30.56 130.046H18.306l1.261-2.883h1.622l1.983-4.505H21.73l1.081-2.704h12.614c2.523 0 3.603 1.442 3.603 3.424 0 .901-.18 1.802-.72 2.703-1.621 3.785-3.784 3.965-6.667 3.965H30.56zm-3.965-2.883h2.884c1.081 0 2.342 0 3.423-1.983.18-.36.18-.721.18-1.08 0-.722-.54-1.442-1.261-1.442h-3.244l-1.982 4.505z"/></g></svg>