<svg version="1.1" id="elle" xmlns="http://www.w3.org/2000/svg" x="0" y="0" viewBox="0 0 250 250" xml:space="preserve"><style>.st0{fill:#fff}</style><path class="st0" d="M18.4 153.9h-4.8v.9h26.9v-17h-.8s0 9.8-3.2 13c-2.7 2.7-5.6 3-10.3 3v-31.2s3.3-.2 4.8 1.3c2.5 2.5 2.7 5.7 2.7 10.1h.9v-23.9h-.9c0 4.4-.2 7.6-2.7 10.1-1.6 1.6-4.8 1.3-4.8 1.3V92c4.7 0 7 .3 9.7 3 3.2 3.2 3.2 13 3.2 13h.8V91H13.5v1h4.8v61.9h.1zM89.9 92v61.9c4.7 0 7.6-.3 10.3-3 3.2-3.2 3.2-13 3.2-13h.8v17H77.4v-.9h4.8V92h-4.8v-.9h16.9v1h-4.4V92zM153.2 92v61.9c4.7 0 7.6-.3 10.3-3 3.2-3.2 3.2-13 3.2-13h.8v17h-26.9v-.9h4.8V92h-4.8v-.9h16.9v1h-4.3V92zM209 153.9h-4.8v.9H231v-17h-.8s0 9.8-3.2 13c-2.7 2.7-5.6 3-10.3 3v-31.2s3.3-.2 4.8 1.3c2.5 2.5 2.7 5.7 2.7 10.1h.9v-23.9h-.9c0 4.4-.2 7.6-2.7 10.1-1.6 1.6-4.8 1.3-4.8 1.3V92c4.7 0 7 .3 9.7 3 3.2 3.2 3.2 13 3.2 13h.8V91h-26.2v1h4.8v61.9z"/><path class="st0" d="M227.3 152.2c0-.8.7-1.5 1.5-1.5s1.5.7 1.5 1.5-.7 1.5-1.5 1.5c-.9 0-1.5-.7-1.5-1.5zm2.8 0c0-.7-.6-1.3-1.3-1.3-.7 0-1.3.6-1.3 1.3 0 .8.6 1.3 1.3 1.3.7 0 1.3-.5 1.3-1.3zm-.6.9h-.2l-.5-.8h-.4v.8h-.2v-1.7h.7c.4 0 .6.2.6.4 0 .3-.2.5-.5.5l.5.8zm-.7-1c.2 0 .6 0 .6-.3 0-.2-.2-.2-.5-.2h-.5v.5h.4z"/></svg>