<svg version="1.1" id="Layer_2" xmlns="http://www.w3.org/2000/svg" x="0" y="0" viewBox="0 0 250 250" xml:space="preserve"><style>.st0{fill:#fff}</style><g id="Layer_17"><path class="st0" d="M82.1 130.2c-1.3.4-1.8.9-1.8 1.9 0 1.7 1.5 2.6 4.4 2.6 3.2 0 4.9-1.2 4.9-3.2s-1.2-2.5-3.8-2.7c-1.8-.2-2.8-.1-2.8-.8 0-.3.2-.5.7-.7.4.1.7.1 1.2.1 2.4 0 3.9-1.3 3.9-3.3 0-.8-.2-1.4-.4-1.9.3-.2.5-.3.9-.3h.4v-1.8h-.4c-.8 0-1.4.4-1.9 1-.8-.6-1.6-.9-2.6-.9-2.3 0-3.9 1.5-3.9 3.7 0 1.3.5 2.1 1.4 2.8-1 .5-1.5 1.3-1.5 2-.1.6.3 1 1.3 1.5m1-6.3c0-1.1.7-1.8 1.6-1.8 1.1 0 1.8.7 1.8 1.7s-.7 1.7-1.7 1.7c-1.1 0-1.7-.5-1.7-1.6zm.6 6.8l2.3.1c.9 0 1.4.3 1.4.8 0 .7-1 1.3-2.7 1.3-1.3 0-2.1-.4-2.1-1.2.1-.4.3-.6 1.1-1zM92.1 116.4h2.5v14.5h-2.5zM97.4 125.7c0 3.4 1.7 5.5 4.5 5.5s4.5-2 4.5-5.5c0-3.4-1.7-5.5-4.5-5.5-2.8.2-4.5 2.1-4.5 5.5m2.5 0c0-2.2.6-3.3 2-3.3s2 1.1 2 3.3-.6 3.3-2 3.3-2-1-2-3.3zM109.1 131h1.9l.3-1.2c.9.9 1.7 1.3 2.9 1.3 2.3 0 4-2.1 4-5.5s-1.7-5.5-3.9-5.5c-1.1 0-1.8.4-2.5 1.2v-5h-2.4v12.1c-.2.6-.3 1.4-.3 2.6m2.5-2.8v-5c.6-.5 1.2-.9 1.9-.9 1.3 0 2.1 1.2 2.1 3.4 0 2.1-.8 3.3-2.2 3.3-.6.1-1.1-.2-1.8-.8zM126.5 131h2.3c-.1-.6-.2-1.1-.2-1.4v-6.2c0-1.9-1.3-3-3.8-3-1.8 0-3.1.7-4 2.1l1.7 1.1c.5-.8 1.3-1.2 2.3-1.2 1 0 1.4.4 1.4 1.2v.8c-3.9.5-5.9 1.7-5.9 4.1 0 1.7 1.1 2.8 2.8 2.8 1.1 0 2.1-.4 3.1-1.1l.3.8m-.3-5.1v2.2c-.7.7-1.5 1.1-2.3 1.1-.7 0-1.1-.4-1.1-1.1 0-1.2 1.1-1.9 3.4-2.2zM132.2 116.4h2.5v14.5h-2.5zM138.5 134.7h1.3v-5.2h.1c1 1.1 2 1.5 3.1 1.5 2.2 0 3.8-2 3.8-5.4 0-3.4-1.6-5.4-3.8-5.4-1.1 0-2.1.5-3.1 1.5h-.1l-.4-1.3h-.9v14.3m1.3-11.4c1.1-1.3 2-2 3.1-2 1.7 0 2.7 1.5 2.7 4.4 0 2.9-1 4.4-2.7 4.4-1.2 0-2.1-.6-3.1-2v-4.8zM155.7 128.3c-1.3 1.3-2.2 1.9-3.4 1.9-1.1 0-1.7-.7-1.7-1.9 0-1.8 1.6-2.4 5.1-3.2v3.2m.2 2.7h1.3c-.1-.6-.2-1.2-.2-1.4v-6.4c0-1.5-1.3-2.7-3.3-2.7-1.8 0-2.9.7-3.7 2.1l1 .5c.6-1.1 1.4-1.7 2.6-1.7 1.4 0 2.3.7 2.3 1.7v1c-4.4.8-6.3 1.9-6.3 4.3 0 1.6 1.1 2.8 2.8 2.8 1.3 0 2.4-.5 3.6-1.6-.3.4-.2.9-.1 1.4zM163.3 130.9c-.4 2-1.1 2.8-2.6 2.8-.3 0-.5 0-.9-.1v1c.4.1.7.1 1.1.1 1.8 0 2.6-.9 3.3-2.9l3.9-11.3H167l-3 8.8-3-8.8h-1.3l3.6 10.4M171.1 131h1.2v-7.6c1-1.3 2.1-2 3-2 1.4 0 1.8.9 1.8 2.7v6.8h1.2v-7.6c1-1.3 2.1-2 3-2 1.4 0 1.8.9 1.8 2.7v6.8h1.2v-7.2c0-2.2-.9-3.3-2.6-3.3-1.1 0-2.2.6-3.3 1.8h-.2c-.4-1.2-1.3-1.8-2.5-1.8-1.1 0-2.2.6-3.3 1.8h-.1v-1.6h-1.2V131M194.7 128c-.7 1.5-1.6 2.1-2.9 2.1-2 0-3-1.5-3-4.4h6.9v-.4c0-3.3-1.3-5-3.9-5-2.5 0-4.2 2.1-4.2 5.5 0 3.3 1.6 5.4 4.2 5.4 1.8 0 3-.8 3.9-2.7l-1-.5m-.3-3.2h-5.7c.2-2.2 1.3-3.5 2.9-3.5 1.7 0 2.8 1.3 2.8 3.5zM198.9 131h1.3v-7.6c1.1-1.3 2.2-2 3.2-2 1.6 0 2 .9 2 2.7v6.8h1.3v-7.2c0-2.2-.9-3.3-2.8-3.3-1.2 0-2.3.6-3.6 1.8v-1.6H199l-.1 10.4M212.1 129v-7.4h2.1v-1h-2.1v-3.1h-1.3v3.1h-1.5v1h1.5v7.4c0 1.5.6 2.2 2.1 2.2.4 0 .9-.1 1.4-.2v-1c-.4.1-.8.2-1.1.2-.8 0-1.1-.4-1.1-1.2M216.8 128.3l-.9.7c1.1 1.4 2.3 2.1 3.9 2.1 2.1 0 3.6-1.3 3.6-2.9 0-1.6-1.1-2.3-3.1-3-1.7-.6-2.8-.9-2.8-2.1 0-1 .7-1.7 1.9-1.7s2 .5 2.8 1.5l.9-.6c-.9-1.3-2.1-1.9-3.5-1.9-2.1 0-3.4 1.2-3.4 2.8s1.1 2.2 3.2 2.9c1.7.6 2.7.9 2.7 2.1 0 1.1-.9 1.9-2.1 1.9-1.2.1-2.3-.5-3.2-1.8M28.7 132.3c.1-2.9 3.7-6.4 8.8-9.2 3.5 4.6 9 7.6 15.2 7.6.9 0 1.8-.1 2.7-.2-2.9 2-6.6 3.7-10.7 4.8-9 2.7-16.2 1.3-16-3"/><path class="st0" d="M43.5 107.9c-.1 2.9 4.7 4.1 10.7 2.8 6.1-1.3 11-4.7 11.1-7.6s-4.7-4.1-10.7-2.8c-6 1.3-11 4.8-11.1 7.6m-9.8 3.8c0-10.5 8.5-19.1 19-19.1s19 8.6 19 19.1c0 9.7-7.2 17.6-16.4 18.9 3.5-2.4 5.8-5.1 5.9-7.4.2-4.2-7.1-5.6-16.1-3.1-2.8.8-5.5 1.9-7.8 3-2.2-3.1-3.6-7.1-3.6-11.4zM66.8 90.9c.1-1.3 2.4-2.8 5.3-3.1 2.9-.4 5.1.5 5.1 1.9-.1 1.3-2.4 2.8-5.3 3.1s-5.1-.6-5.1-1.9M31.4 157.8c.4-5.8 10-13.9 21.7-18.1 11.6-4.2 20.8-2.9 20.6 2.9-.4 5.8-10 13.9-21.7 18.1s-21 2.9-20.6-2.9M69.1 159c.5.5.8 1.2.8 1.9s-.3 1.4-.8 1.9-1.3.8-2 .8a2.732 2.732 0 01-2.7-2.7c0-.7.3-1.4.8-2 .5-.5 1.2-.8 1.9-.8.8.1 1.4.3 2 .9m-.2.2c-.4-.4-1.1-.7-1.7-.7s-1.3.3-1.7.7c-.4.4-.7 1.1-.7 1.7 0 .6.3 1.3.7 1.7.4.4 1.1.7 1.7.7s1.3-.3 1.7-.7c.4-.4.7-1 .7-1.7-.1-.6-.2-1.2-.7-1.7zm-.4.9c0 .4-.3.7-.7.8l.7 1.4h-.6l-.6-1.3h-.6v1.3H66v-3.1h1.2c.9.1 1.3.4 1.3.9zm-1.9-.4v1.1h.5c.5 0 .8-.1.8-.5s-.3-.5-.9-.5c0-.1-.4-.1-.4-.1z"/></g></svg>