<svg viewBox="0 0 250 250" xmlns="http://www.w3.org/2000/svg" fill-rule="evenodd" clip-rule="evenodd" stroke-linejoin="round" stroke-miterlimit="1.414"><g fill="#fff" fill-rule="nonzero"><path d="M61.858 102.348v4.13c0 .206-.207.413-.414.619-5.162 5.989-8.673 12.805-10.119 20.652-1.239 6.609-.826 13.011 2.065 19.206 2.478 5.163 6.402 9.087 11.359 11.978 5.369 3.305 11.565 5.163 17.76 6.403a94.57 94.57 0 0018.587 1.858c7.022.207 14.043-.206 20.858-.826 11.978-1.239 23.543-3.924 34.902-7.641 7.021-2.478 14.043-5.163 20.445-8.88.207-.207.62-.207.826-.413h.207v11.358c0 .62-.207.826-.62 1.033-6.402 3.304-13.011 5.989-19.826 8.26-8.88 2.892-17.967 4.957-27.053 6.403-6.196.826-12.185 1.445-18.381 1.652-6.402.206-12.804 0-19.206-.62-8.88-1.032-17.76-2.891-25.814-6.815-5.576-2.685-10.533-5.989-14.663-10.739-4.544-5.163-6.815-11.358-7.848-17.967-1.859-12.185 1.859-22.717 9.5-31.804 2.065-2.478 4.543-4.956 7.021-7.228 0-.206.207-.413.414-.619zM79.412 93.88v-2.684c0-.207.206-.62.619-.826 3.717-2.066 7.435-4.131 11.359-5.99 10.532-4.956 21.684-8.467 33.249-10.532 7.641-1.239 15.489-2.065 23.543-2.065 10.326 0 20.445 1.032 30.152 4.337 6.608 2.271 12.597 5.369 17.76 10.119 5.37 5.163 8.674 11.565 9.294 19 1.032 11.565-2.892 21.271-11.152 29.325-3.511 3.511-7.848 6.402-12.598 8.261-.207 0-.207 0-.413.207v-8.055c0-.413.206-.826.619-1.032 5.163-3.304 9.5-7.435 12.392-13.011 5.369-10.119 3.51-22.097-4.544-30.151-4.337-4.544-9.5-7.435-15.282-9.294-6.402-2.271-13.011-3.304-19.826-3.717-7.641-.62-15.282-.207-22.717.619-10.739 1.24-21.065 3.511-31.391 7.022-7.021 2.272-13.836 5.163-20.445 8.467h-.619z"/><path d="M162.432 129.195h-21.065c0 1.652.413 3.304 1.446 4.75 1.652 2.065 3.923 2.685 6.608 2.685 2.685 0 4.957-1.033 7.022-3.098 1.652 1.652 3.511 3.304 5.163 4.956-.413.413-.826.62-1.033 1.033-2.891 2.685-6.195 3.924-10.119 4.13-2.685.207-5.37 0-8.054-1.032-3.718-1.446-6.403-3.924-7.642-7.642-1.858-4.75-1.858-9.706-.413-14.662 2.066-6.609 7.848-10.533 14.87-10.326 6.195.206 10.739 3.924 12.597 9.913.826 2.891.826 5.989.62 9.293zm-8.261-5.783c.207-3.923-2.478-7.021-6.195-6.815-3.718 0-6.403 2.685-6.403 6.815h12.598zM102.129 143.032v-23.543c-.207-1.446-1.033-2.272-2.479-2.272h-7.641v26.021h-8.261v-32.63h17.348c2.272 0 4.543.62 6.195 2.065 1.859 1.653 2.892 3.718 3.098 5.989v24.37h-8.26zM116.585 101.315h8.261v8.88h6.195v6.815h-6.195v16.109c0 2.065 1.032 2.891 2.891 2.891h3.304v6.815h-.206c-2.479 0-4.75 0-7.229-.206-4.336-.62-7.228-4.131-7.228-8.674v-32.217c.207 0 .207-.207.207-.413zM175.649 142.619c-5.163-.207-7.848-3.305-8.261-7.435V97.598c0-.826.207-.826.826-.826h6.609c.826 0 .826.206.826 1.032v44.815zM67.847 110.195h8.26v33.043c-4.75-.206-7.641-2.891-8.26-6.608 0-.62-.207-1.24-.207-1.859v-23.956c.207-.207.207-.207.207-.62zM67.847 97.804h8.261v7.848h-8.261zM188.04 100.076c0 1.859-1.446 3.304-3.304 3.304-1.859 0-3.305-1.445-3.305-3.304 0-1.859 1.446-3.304 3.305-3.304 1.858-.207 3.304 1.445 3.304 3.304zm-.62 0c0-1.446-1.239-2.685-2.684-2.685-1.446 0-2.685 1.239-2.685 2.685 0 1.445 1.239 2.685 2.685 2.685 1.445 0 2.684-1.24 2.684-2.685z"/><path d="M184.323 100.489c-.62.413.413 1.652-1.033 1.446v-3.718c0-.206.207-.413.413-.413h.826c.62 0 1.239 0 1.446.826.206.62 0 1.239-.62 1.652.207.413.62 1.033.826 1.446-1.239.62-1.032-1.239-1.858-1.239zm-.207-.62c.413-.206.826-.206 1.033-.413v-.413c-.413-.206-.62-.206-1.033-.413v1.239z"/></g></svg>