<svg version="1.1" id="Laird" xmlns="http://www.w3.org/2000/svg" x="0" y="0" viewBox="0 0 250 250" xml:space="preserve"><style>.st0{fill:#fff}</style><path class="st0" d="M41.6 116.2v18.2c0 .5.1.7.6.7h26.1c.5 0 .6-.1.6-.6 0-2-.1-4 0-6 0-.6-.1-.8-.8-.8H52.2c-.7 0-.9-.1-.9-.8 0-9.6 0-19.2.1-28.9 0-.6-.2-.8-.8-.8-2.8.1-5.5 0-8.3 0-.6 0-.8.1-.8.8.1 6.1.1 12.1.1 18.2zm62.7 4.5v13.6c0 .6.1.8.7.7 2.6-.1 5.2 0 7.9 0 .5 0 .7-.1.7-.6v-27.3c0-.6-.2-.6-.7-.6H105c-.6 0-.7.2-.7.7v13.5z"/><path class="st0" d="M201.9 144.8c-.6.1-1.3.3-1.9.3-.7.1-1.4.2-2.1.4-1.3.3-2.5.4-3.8.6-1.4.3-2.9.4-4.4.7-1.4.3-2.8.3-4.2.6-1.4.3-3 .4-4.4.6-.8.1-1.4.2-2.1.3-.6.1-1.1.1-1.7.2-3 .3-6 .6-9.1.9-5.8.5-11.6.9-17.4 1.3-3 .2-6 .4-9.1.4-2.8.1-5.7.3-8.6.4-5.6.1-11.1.4-16.7.4-3 0-6 .1-9 .1s-6-.1-8.9-.1c-11.9 0-23.8-.5-35.7-1.1-5.9-.3-11.8-.8-17.7-1.3-5.8-.4-11.5-1.1-17.3-1.8-.4-.1-1.4-.5-1.7-.6-.6-.4-1.1-.7-1.6-1.1 1.8 0 3.6.3 5.5.4 1.8.2 3.6.3 5.4.4l11.1.9c7.5.5 14.9.9 22.4 1.1 14.9.4 29.7.4 44.7.1 14.9-.4 29.9-1.3 44.7-2.9 7.3-.8 14.5-1.8 21.8-3.1 3.6-.7 7.1-1.5 10.6-2.5 3.3-.9 6.5-2 9.5-3.6 2.6-1.4 5.9-3.6 5.8-7-.1-3.1-3.1-5.3-5.7-6.6-3.1-1.5-6.5-2.5-9.8-3.4-3.5-.9-7-1.8-10.5-2.5-.9-.2-1.8-.3-2.6-.5-.8-.1-1.6-.2-2.4-.4 3.2 0 6.4.4 9.6.7 3.3.4 6.5.8 9.8 1.3 6.4.9 12.8 2.1 19 3.8 3 .8 6 1.6 8.9 2.7 2.6 1 5.5 2.1 7.6 4 .6.5.9 1 1.3 1.6.1.3.3.6.4.8.1.4.1.8.1 1.2 0 1.4-1.1 2.6-2.1 3.5-1.1 1-2.5 1.6-3.8 2.3-1.4.7-2.9 1.3-4.4 1.8-6.5 2-13 3.6-19.5 4.7-.4.1.6-.1 0 0z"/><path class="st0" d="M171.3 95.6V134.3c0 .8-.2.9-.9.9-2.6-.1-5.2 0-7.7 0-.5 0-.7-.1-.6-.6.1-.7 0-1.4 0-2.1-.3-.1-.5.3-.7.4-1.8 1.4-3.7 2.6-6 3.1-4.5.9-10.4-.6-12.6-6.9-1.6-4.5-2-9.2-.5-13.9 3-9.1 12.1-11.3 19-7.9.3.1.4.2.8.4V95.6h9.2zm-9.3 24.8v-6.5c0-.4-.1-.6-.6-.8-.9-.3-1.8-.5-2.8-.6-3.4-.1-5.8.9-6.9 3.6-1.4 3.3-1.4 6.7-.1 10.1.5 1.4 1.6 2.3 3 2.7 2.5.7 4.8.1 6.9-1.1.3-.2.4-.4.4-.8.1-2.3.1-4.5.1-6.6zM114 95.6c0 2.1-.1 4.2 0 6.3 0 .5-.1.7-.7.7h-8.6c-.6 0-.6-.2-.6-.7v-5.7c0-.2.1-.4-.1-.6h.3c.1.2.4.1.6.1h8.2c.2 0 .4.1.6-.1h.3z"/><path class="st0" d="M113.7 95.6c-.1.2-.4.1-.6.1h-8.2c-.2 0-.4.1-.6-.1h9.4zM89.3 132.3c-.8.6-1.4 1.1-2.2 1.6-3.3 2.1-6.8 2.7-10.6 1.8-4.7-1.2-6.8-5-6.6-9.4.2-4 2.5-6.4 6.1-7.8 2.7-1.1 5.5-1.4 8.4-1.6 1.4-.1 2.9-.3 4.3-.3.4 0 .6-.2.6-.6-.1-1.5-.9-2.6-2.5-3.1-3.1-1-6.2-.9-9.4-.1-1.2.3-2.4.8-3.6 1.1-.2.1-.4.2-.6.2-.5.1-.8 0-.8-.7.1-1.9.1-3.7 0-5.6 0-.5.2-.6.6-.8 5.5-1.3 11.1-1.7 16.7-.8 1.4.3 2.9.6 4.2 1.3 3.1 1.6 4.5 4.3 4.5 7.7.1 6.5 0 12.9 0 19.4 0 .6-.2.6-.7.6h-7.9c-.5 0-.6-.1-.6-.6.1-.8.1-1.5.1-2.3zm0-7.5v-2.3c0-.5-.1-.7-.6-.6-1.5.2-3 .3-4.5.5-1.3.2-2.5.4-3.6 1.2-1.4.9-1.5 2.4-1.3 3.8.2 1.3 1.1 1.9 2.3 2.1 2.6.6 5.1.2 7.4-1.4.3-.3.4-.4.4-.9-.1-.8-.1-1.6-.1-2.4zM129.1 110.7c1.9-1.6 3.7-2.9 5.9-3.5 1.7-.5 3.4-.6 5.2-.5.4 0 .6.2.6.6v7.4c0 .9-.1.9-.9.8-1.3-.2-2.7-.4-4-.4-2.1-.1-4.2.5-6.2 1-.6.1-.4.5-.4.8v17.4c0 .6-.1.9-.8.9-2.6-.1-5.2-.1-7.8 0-.5 0-.6-.1-.6-.6v-27.4c0-.4.1-.6.6-.6h8c.6 0 .7.2.6.7-.2 1-.2 2.2-.2 3.4z"/><g><path class="st0" d="M173 81h-.9v-.3h2.3v.3h-.9v2.7h-.5V81zM177.3 82.4c0-.4-.1-.9-.1-1.3-.1.4-.3.8-.4 1.1l-.6 1.4h-.3l-.5-1.4c-.1-.4-.3-.8-.4-1.2 0 .4 0 .9-.1 1.3l-.1 1.3h-.4l.2-3h.5l.5 1.4c.1.4.3.7.3 1 .1-.3.2-.6.3-1l.6-1.4h.5l.2 3h-.3l.1-1.2z"/></g></svg>