<svg version="1.1" id="lexisNexis" xmlns="http://www.w3.org/2000/svg" x="0" y="0" viewBox="0 0 250 250" xml:space="preserve"><style>.st0{fill:#fff}</style><path class="st0" d="M213.4 117.1h2.9c-4.2 4.9-12.6 15.6-15.7 19.9h-2.9l.4-.4c2.8-3.4 12.1-15.1 15.3-19.5zM120.8 117.1h2.9c-4.2 4.9-12.6 15.6-15.7 19.9h-2.9l.4-.4c2.8-3.4 12.2-15.1 15.3-19.5z"/><path class="st0" d="M197.9 117.1c.7.1 3.5 0 4 0 3 4.2 10.4 14.9 14.5 19.9-1-.1-3.8 0-4.1 0-1.7-2.9-11.2-15.8-14.4-19.9zM223.3 137c-.5-.1-2.7-.1-3.1 0v-20c1.3.1 2 .1 3.1 0v20zm-1.6-24.7c-1.1 0-2-1-2-2.1s.9-2 2-2c1 0 2 .9 2 2s-.9 2.1-2 2.1zM229.1 133c1 1.6 2.9 3 4.9 3 2.6 0 4.2-1.6 4.1-3.8-.3-5.8-9.9-1.9-10-9.2-.1-4 3-6.2 6.8-6.2 2.2 0 4.7 1 4.7 1-.5 1-1.1 3.1-1.1 3.1-.8-1.6-2.3-2.8-3.8-2.7-2.1 0-3.8 1.3-3.8 3.5.1 5.3 10.2 2.7 10 9.4-.1 3.6-2.8 6.7-7.5 6.4-2.3-.2-5.5-1.3-5.5-1.4.5-1.1 1.2-3.1 1.2-3.1zM182.2 125.7c.2-3.5 2-7.2 5.9-7.2 4.1 0 5.1 3.6 5.2 7.2h-11.1zm14.3 1.7c.4-7-3.8-10.2-8.5-10.2-6.2 0-9.5 4.5-9.5 10.2 0 6.4 4.1 10.2 9.8 10.2 2.5 0 5.2-1 7.2-2.5V133c-1.1 1.1-3.3 2.9-6.2 2.9-5 0-7.5-3.8-7.1-8.6l14.3.1zM105.4 117.1c.7.1 3.5 0 4 0 2.9 4.2 10.4 14.9 14.5 19.9-1-.1-3.8 0-4.1 0-1.7-2.9-11.3-15.8-14.4-19.9zM130.8 137c-.5-.1-2.7-.1-3.1 0v-20c1.3.1 2 .1 3.1 0v20zm-1.6-24.7c-1.1 0-2-1-2-2.1s.9-2 2-2c1 0 2 .9 2 2s-.9 2.1-2 2.1zM136.6 133c1 1.6 2.9 3 4.9 3 2.6 0 4.2-1.6 4.1-3.8-.3-5.8-9.9-1.9-10-9.2 0-4 3-6.2 6.8-6.2 2.2 0 4.7 1 4.7 1-.5 1-1.1 3.1-1.1 3.1-.8-1.6-2.3-2.8-3.8-2.7-2.1 0-3.8 1.3-3.8 3.5.1 5.3 10.2 2.7 10.1 9.4-.1 3.6-2.8 6.7-7.5 6.4-2.3-.2-5.5-1.3-5.5-1.4.3-1.1 1-3.1 1.1-3.1zM89.7 125.7c.2-3.5 2-7.2 5.9-7.2 4.1 0 5.1 3.6 5.2 7.2H89.7zm14.3 1.7c.4-7-3.8-10.2-8.5-10.2-6.2 0-9.5 4.5-9.5 10.2 0 6.4 4.1 10.2 9.8 10.2 2.5 0 5.2-1 7.2-2.5V133c-1.1 1.1-3.4 2.9-6.2 2.9-5 0-7.5-3.8-7.1-8.6l14.3.1zM73.7 134.8c2.7.1 9.2-.1 11.5-.5v2.7H70v-28.4c.5.1 3 .1 3.7 0v26.2zM174.7 137h-1.3c-.5-.5-18.1-22.6-18.1-22.6V137c-.4-.1-.8-.1-1.2-.1s-.8 0-1.2.1v-28.5h1.6l17.3 21.5.4.4v-21.9h2.4V137zM8.5 105.4l-.9.9.9-.9zM1.4 126.5c1.6-11.1 9.3-23 26.8-22.5-12.4-2.8-21.7 3.1-26.1 11.8.3-1 .6-2 1.1-2.9-1.4 3.1-2.2 6.4-2.2 10 0 2.7.5 5.3 1.3 7.7-.3-1.3-.7-2.7-.9-4.1zM17.2 100c-.2.1-.3.2-.5.2.1 0 .3-.1.5-.2zM4.8 110c.2-.4.5-.8.8-1.2-.3.5-.6.9-.8 1.2zM5.7 108.7c.5-.8 1.3-1.6 1.9-2.4-.7.8-1.3 1.6-1.9 2.4zM4 111.5c.2-.5.5-.9.8-1.3-.3.4-.5.8-.8 1.3z"/><path class="st0" d="M23.1 147.1c-11.6-5.7-12.2-32.9 6-41.5-20.6 6-21.4 33.5-11.3 40.4-1.2-.4-2.4-.9-3.5-1.4 2.7 1.3 5.7 2.2 8.8 2.5zM16 100.5c-.2.1-.4.2-.5.2.1-.1.3-.2.5-.2z"/><path class="st0" d="M14.3 144.5c-1-.5-2-1.2-3-1.8 1 .6 2 1.3 3 1.8zM28.5 103.2c-4.9-2.8-9.6-3.1-13.6-2.2-2.3 1.1-4.3 2.5-6.1 4.2 5-3.2 11.7-4.4 19.7-2zM18.3 99.7c-.1 0-.2.1-.3.1.1-.1.2-.1.3-.1zM19.3 99.4z"/><path class="st0" d="M25.4 98.6c-1.8 0-3.5.2-5.2.5 3.5.2 7.4 1.6 11.5 5 .6-.1 5.2-1.6 5.2-1.4 0 .2-2.7 1.2-3.3 1.4 1.6-.1 5.5-.2 5.5 0 .1.2-5.3.5-5.5.5 2.8.5 7.1 1.6 7.1 1.9 0 .2-4.7-.9-7.2-1.3 2.5 1.3 7.3 4.2 7.1 4.3-.2.2-4.9-2.4-7.2-3.5 1.8 1.7 6.1 6.3 6 6.4-.2.2-4.9-4.9-7.5-6.7l-.6-.5c-19 9.1-13.7 37.1-1.6 41.3-.3.1-.5.1-.9.2 11.8-1.7 20.8-11.9 20.8-24 .1-13.2-10.7-24.1-24.2-24.1zM25.4 147.2c-.7 0-1.4 0-2-.1.6.1 1.3.1 2 .1h.9-.9zM28 147.1s-.1 0 0 0c-.1 0 0 0 0 0z"/><path class="st0" d="M28.4 104.9c-20.8 1-26.7 19.5-22.8 31.9 1.5 2.2 3.4 4.1 5.6 5.7-6.9-9.5-5.1-33.1 17.2-37.6zM26.9 147.2h-.5.5zM2.8 131.9c-.2-.4-.3-.7-.4-1.1.1.3.3.7.4 1.1zM3.3 112.8c.2-.5.4-.9.6-1.3-.2.4-.4.8-.6 1.3zM3.4 133.1c-.2-.3-.3-.7-.5-1 .2.3.3.7.5 1zM5.4 136.6c-.1-.2-.2-.3-.3-.4.1.1.2.3.3.4zM4.1 134.5l-.6-1.2c.2.5.4.8.6 1.2zM4.7 135.6c-.2-.3-.3-.5-.5-.9.2.3.4.6.5.9z"/><g><path class="st0" d="M49.6 110.9c0-1.6 1.3-2.7 2.8-2.7 1.5 0 2.8 1.2 2.8 2.7 0 1.6-1.3 2.7-2.8 2.7-1.5.1-2.8-1-2.8-2.7zm2.9 2.4c1.3 0 2.3-1 2.3-2.4s-1-2.3-2.3-2.3-2.3 1-2.3 2.3c0 1.3 1 2.4 2.3 2.4zm-.7-.7h-.5v-3.2h1.3c.8 0 1.1.3 1.1.9 0 .5-.4.8-.9.9l.9 1.4h-.5l-.9-1.4h-.5v1.4zm.7-1.8c.4 0 .8 0 .8-.5 0-.4-.4-.5-.7-.5H52v1h.5z"/></g><g><path class="st0" d="M244.1 119.9c0-1.6 1.3-2.7 2.8-2.7 1.5 0 2.8 1.2 2.8 2.7 0 1.6-1.3 2.8-2.8 2.8-1.6 0-2.8-1.2-2.8-2.8zm2.8 2.3c1.3 0 2.3-1 2.3-2.4s-1-2.3-2.3-2.3c-1.3 0-2.3 1-2.3 2.3 0 1.4 1 2.4 2.3 2.4zm-.6-.7h-.5v-3.2h1.3c.8 0 1.1.3 1.1.9 0 .5-.4.9-.9.9l.9 1.4h-.5l-.9-1.4h-.5v1.4zm.6-1.8c.4 0 .8 0 .8-.5 0-.4-.4-.5-.7-.5h-.6v1h.5z"/></g></svg>