<svg version="1.1" id="sony" xmlns="http://www.w3.org/2000/svg" x="0" y="0" viewBox="0 0 250 250" xml:space="preserve"><style>.st0{fill:#fff}</style><path class="st0" d="M100.3 137.3c3.7 0 7.1-1.3 9.5-3.6 2.4-2.3 3.5-5.3 3.5-8.8 0-3.4-1.2-6.6-3.5-8.8-2.3-2.3-5.9-3.6-9.5-3.6-3.6 0-7.2 1.3-9.5 3.6-2.3 2.2-3.5 5.4-3.5 8.8 0 3.4 1.2 6.6 3.5 8.8 2.4 2.3 5.9 3.6 9.5 3.6zm0 4.5c-6.9 0-13.4-2.1-17.7-6-3.3-2.9-4.8-6.9-4.8-11 0-4 1.6-8 4.8-10.9 4-3.6 11-5.9 17.7-5.9 7.3 0 13.2 1.8 17.7 5.9 3.2 2.9 4.7 6.9 4.7 10.9 0 3.9-1.6 8.1-4.7 11-4.2 3.9-10.7 6-17.7 6zM49.6 108.1c-3.7 0-7.9.7-11.5 2.3-3.3 1.5-6 3.9-6 7.8 0 3.5 2.2 5.6 2.2 5.6.9.9 2.5 2.4 6.6 3.3 1.8.4 5.7 1 9.5 1.4 3.8.4 7.6.8 9.1 1.2 1.2.3 3.3.7 3.3 3s-2.2 3-2.5 3.1c-.4.2-3 1.3-7.6 1.3-3.4 0-7.6-1-9.1-1.6-1.7-.6-3.5-1.4-5.3-3.5-.4-.5-1.1-1.9-1.1-3.3H33v11.8h4.7v-1.6c0-.2.2-.9 1-.6 1 .4 3.8 1.6 6.8 2.2 2.5.5 4.1.9 7.1.9 5 0 7.7-.8 9.5-1.3 1.7-.5 3.9-1.4 5.7-2.8.9-.8 3-2.7 3-6.2 0-3.4-1.8-5.5-2.4-6.1-.9-.9-1.9-1.6-3-2.1-.9-.4-2.5-1-3.7-1.3-2.4-.6-7.9-1.3-10.5-1.6-2.7-.3-7.5-.7-9.4-1.3-.6-.2-1.7-.7-1.7-2.1 0-.9.5-1.8 1.6-2.4 1.7-1 5.1-1.7 8.6-1.7 4.2 0 7.7.9 10 2 .8.3 1.7.8 2.4 1.4.8.7 1.9 2 2.3 3.9h3.8v-10.3h-4.2v1.2c0 .4-.4.9-1.1.5-2-1-7.3-3.1-13.9-3.1zM142.1 109.9l20.6 18.6-.2-12.5c0-1.6-.3-2.3-2.1-2.3h-3.9V110h17.6v3.7h-3.8c-1.8 0-1.9.6-1.9 2.3l.3 23.9h-6L139 118.8v15c0 1.6.1 2.4 1.8 2.4h4.2v3.7h-17.3v-3.7h4.1c1.5 0 1.5-1.4 1.5-2.5v-17.5c0-1.1-.2-2.5-2.5-2.5h-3.3v-3.8h14.6zM194.2 136.2c.2 0 .9 0 1-.1.4-.1.7-.4.8-.7.1-.1.1-.7.1-.8v-5.9c0-.1 0-.2-.3-.5s-10.8-12.3-11.3-12.8c-.6-.7-1.6-1.6-3.2-1.6h-3.6V110h20.6v3.7h-2.5c-.6 0-.9.5-.5 1.1 0 0 6.9 8.3 7 8.4.1.1.1.1.2 0s7.1-8.4 7.2-8.4c.3-.4.1-1.2-.6-1.2h-2.6v-3.7h16.9v3.7h-3.8c-1.4 0-1.9.3-2.9 1.4-.5.5-11.1 12.7-11.4 13-.2.2-.1.4-.1.5v5.9c0 .1 0 .7.1.8.1.3.4.6.8.7.2 0 .9.1 1 .1h3.9v3.7h-20.5V136l3.7.2z"/></svg>