<svg version="1.1" id="xerox" xmlns="http://www.w3.org/2000/svg" x="0" y="0" viewBox="-172 295.9 250 250" xml:space="preserve"><style>.st0{fill:#fff}</style><path class="st0" d="M-157.9 409h16.5l-1.1 7-4.3-.2-2.3 14.7h-7.8l2.3-14.7-4.3.2 1-7zM-132.6 409l.7 12.9h.2c.4-1.3.7-2.7 1.3-4l3.7-8.9h6l.9 12.9h.2c.3-1.3.7-2.6 1.1-3.8l3.6-9.1h8.1l-11 21.5h-6.8l-.6-11.7h-.3c-.3 1.1-.5 2.2-.9 3.3l-3.5 8.5h-6.7l-4.1-21.5 8.1-.1zM-105.6 409h14.5l-.9 5.9h-6.6l-.3 2.1h6l-.9 5.6h-6l-.3 2.1h6.8l-.9 5.9H-109l3.4-21.6zM-88.4 409h14.5l-.9 5.9h-6.6l-.3 2.1h6l-.9 5.6h-6l-.3 2.1h6.8l-.9 5.9h-14.7l3.3-21.6zM-50.6 409l-11.7 14.9.1.1c.6-.1 1.2-.1 1.8-.1h6.5l-1.1 6.7h-21l9.8-12.6c.7-.9 1.5-1.7 2.3-2.6l-.1-.1c-.6.1-1.2.3-1.9.3h-5.9l1-6.5 20.2-.1zM-49 409h14.5l-.9 5.9H-42l-.3 2.1h6l-.9 5.6h-6l-.3 2.1h6.8l-.9 5.9h-14.7L-49 409zM-31 409h9.5c4.9 0 8.6 2.1 7.8 7.5-.5 3.3-2 4.6-5.1 5.6v.2c.3.3.8.7 1.1 1.3l3.6 7h-9l-2.3-6.9h-.1l-1.1 6.9h-7.7L-31 409zm6.2 9.5h.5c1.3 0 2.6-.2 2.9-1.8.3-1.7-.9-1.9-2.2-1.9h-.6l-.6 3.7z"/><path class="st0" d="M-7 409h8l1.2 11.3h.2c.3-.9.6-1.9 1-2.9l3.8-8.5h8l.1 21.5H7.7l.8-11.8h-.1c-.3.7-.5 1.5-.9 2.1l-4.6 9.7h-4.6l-1.4-9.1c-.1-.9-.1-1.8-.1-2.7h-.3c-.2.9-.4 1.7-.6 2.6l-2.4 9.2h-7.6L-7 409zM24.3 430.5H16L26.9 409h8.7l4.3 21.5h-8.3l-.3-2.7h-5.9l-1.1 2.7zm6.4-7.8l-.3-3.8c-.1-.9-.1-1.9-.1-2.8H30l-2.5 6.6h3.2zM44.4 409H52l5.1 11.9h.2c0-1.8-.1-3.7.2-5.5l1-6.5H66l-3.4 21.5h-7.5L50 419.2h-.2c0 1.5 0 2.9-.2 4.3l-1.1 7H41l3.4-21.5zM64.9 427.3c.3-1.9 2-3.3 3.9-3.3s3.1 1.5 2.8 3.3c-.3 1.9-2 3.4-3.9 3.4-1.9-.1-3.1-1.6-2.8-3.4zm5.8 0c.2-1.5-.7-2.5-2.1-2.5-1.5 0-2.6 1-2.9 2.5-.2 1.5.6 2.5 2.1 2.5 1.5-.1 2.7-1 2.9-2.5zm-1.4-.7c0-.4-.3-.6-.7-.6-.7 0-1 .6-1.2 1.3-.1.6.1 1.3.8 1.3.4 0 .8-.2.9-.6h.8c-.2.8-1 1.3-1.8 1.3-1.1 0-1.7-.8-1.5-1.9s1-1.9 2.1-1.9c.8 0 1.4.5 1.4 1.3h-.8v-.2z"/></svg>