<svg viewBox="0 0 250 250" xmlns="http://www.w3.org/2000/svg" fill-rule="evenodd" clip-rule="evenodd" stroke-linejoin="round" stroke-miterlimit="1.414"><g fill="#fff"><path d="M41.824 164.305h1.074v-3.402h2.328c.716 0 1.254-.179 1.612-.717.358-.537.537-1.074.537-1.611 0-.716-.179-1.254-.537-1.791-.358-.358-.896-.537-1.612-.537h-3.402v8.058zm4.476-5.73c0 .537-.179.895-.358 1.074-.358.179-.716.358-1.074.358h-2.149v-2.865h1.97c.358 0 .716 0 .895.179.537.179.716.717.716 1.254M56.328 156.247h3.402c.538 0 1.075.179 1.433.358.716.358 1.074 1.075 1.074 1.97 0 .537-.179.895-.358 1.253-.179.358-.358.538-.716.717.358.179.537.358.716.537.179.179.179.537.179 1.074v1.791c0 .179.179.358.358.537v.179h-1.253v-.358-2.149c0-.537-.179-.895-.537-1.074-.179-.179-.537-.179-.896-.179h-2.327v3.581h-1.075v-8.237zm3.402 3.76c.538 0 .896-.179 1.075-.358.358-.179.358-.537.358-1.074s-.179-.895-.537-1.254c-.179-.179-.537-.179-.896-.179h-2.506v2.686h2.506v.179zM74.772 156.068c-1.253 0-2.149.537-2.865 1.432-.537.717-.716 1.791-.716 2.866 0 1.253.358 2.148.895 3.044.716.895 1.612 1.253 2.686 1.253 1.253 0 2.149-.537 2.865-1.432.537-.717.895-1.791.895-3.045 0-1.074-.179-1.969-.716-2.686-.716-1.074-1.791-1.432-3.044-1.432m0 7.521a2.963 2.963 0 01-2.149-.896c-.358-.537-.716-1.432-.716-2.327 0-1.075.179-1.97.716-2.507.537-.538 1.075-.896 1.97-.896s1.432.358 1.97.896c.537.537.716 1.432.716 2.327 0 .896-.179 1.791-.537 2.328-.358.717-1.075 1.075-1.97 1.075M87.307 156.247h5.372v.895h-4.298v2.507h3.76v1.075h-3.76v3.581h-1.074v-8.058zM101.453 156.247h5.372v.895h-4.477v2.507h4.119v1.075h-4.119v2.686h4.656v.895h-5.551v-8.058z" fill-rule="nonzero"/><g fill-rule="nonzero"><path d="M116.494 161.798c0 .537.179.895.358 1.074.359.538.896.896 1.791.896.358 0 .716 0 1.075-.179.537-.179.895-.717.895-1.254s-.179-.716-.358-.895c-.179-.179-.717-.358-1.254-.537l-1.074-.358c-.716-.179-1.075-.359-1.433-.538-.537-.358-.716-.895-.716-1.611s.179-1.254.716-1.791c.538-.537 1.075-.716 1.97-.716.716 0 1.433.179 1.97.537.537.358.895 1.074.895 1.97h-.895c0-.358-.179-.716-.358-1.075a3.58 3.58 0 00-1.612-.358c-.537 0-1.074.179-1.253.358-.179.359-.359.538-.359.896s.18.716.359.895c.179.179.716.179 1.253.358l1.074.179c.538.179.896.358 1.075.537.537.359.716.896.716 1.612 0 .895-.358 1.612-.895 1.97-.537.358-1.254.537-2.149.537s-1.612-.179-2.149-.716c-.537-.537-.716-1.254-.716-2.149h1.074v.358zM131.178 161.798c0 .537.179.895.358 1.074.358.538.895.896 1.791.896.358 0 .716 0 1.074-.179.537-.179.895-.717.895-1.254s-.179-.716-.358-.895c-.179-.179-.716-.358-1.253-.537l-1.075-.358c-.716-.179-1.074-.359-1.432-.538-.537-.358-.716-.895-.716-1.611s.179-1.254.716-1.791c.537-.537 1.074-.716 1.97-.716.716 0 1.432.179 1.969.537.537.358.896 1.074.896 1.97h-.896c0-.358-.179-.716-.358-1.075-.358-.358-.895-.716-1.611-.716-.538 0-1.075.179-1.254.358-.179.358-.358.537-.358.896 0 .358.179.716.537.895.179.179.716.179 1.254.358l1.074.179c.537.179.895.358 1.074.537.538.358.717.896.717 1.612 0 .895-.359 1.612-.896 1.97-.537.358-1.253.537-2.148.537-.896 0-1.612-.179-2.149-.716-.537-.538-.717-1.254-.717-2.149h.896v.716z"/></g><path d="M145.324 156.247h1.074v8.237h-1.074z"/><path d="M158.933 156.068c-1.253 0-2.328.537-2.865 1.432-.537.717-.716 1.791-.716 2.866 0 1.253.358 2.148.895 3.044.716.895 1.612 1.253 2.686 1.253 1.253 0 2.149-.537 2.865-1.432.537-.717.895-1.791.895-3.045 0-1.074-.179-1.969-.716-2.686-.716-1.074-1.791-1.432-3.044-1.432m.179 7.521a2.963 2.963 0 01-2.149-.896c-.358-.537-.716-1.432-.716-2.327 0-1.075.179-1.97.716-2.507.537-.538 1.075-.896 1.97-.896s1.433.358 1.97.896c.537.537.716 1.432.716 2.327 0 .896-.179 1.791-.537 2.328-.537.717-1.075 1.075-1.97 1.075M171.468 156.247h1.253l3.76 6.625v-6.625h.896v8.058h-1.075l-3.939-6.446v6.446h-.895v-8.058zM185.972 164.305h1.074l.896-2.507h2.865l.716 2.507h1.074l-2.686-8.237h-1.074l-2.865 8.237zm2.149-3.223l1.253-3.582 1.254 3.582h-2.507zM201.193 156.247h1.074v7.163h3.76v.895h-4.834v-8.058z" fill-rule="nonzero"/><g fill-rule="nonzero"><path d="M96.439 126.522l4.298-11.639h4.297l-1.611 4.835h7.162l-3.581-10.207-1.791 5.372h-4.297l5.013-13.788s.538-2.149 2.866-2.149c2.327 0 3.044 2.149 3.044 2.149l9.669 26.681c.537 1.432 1.612 1.611 1.612 1.611s1.97.179 1.97 1.97c0 1.97-1.97 1.791-1.97 1.791H111.839s-1.791-.18-1.791-1.791c0-1.791 1.791-1.97 1.791-1.97 1.969-.179 1.611-1.97 1.611-1.97l-1.432-3.939H101.99c-.179.716-1.074 3.402-1.074 3.402s-.717 1.97 1.432 2.328c0 0 1.791 0 1.97 1.97 0 1.97-1.97 1.79-1.97 1.79h-8.774s-1.791 0-1.791-1.79c0-1.791 1.791-1.97 1.791-1.97s1.432.537 2.865-2.686"/><path d="M96.439 126.522l4.118-11.281h3.224l-1.791 4.656h8.058l-3.939-11.461-2.507 6.805h-3.224l5.014-13.43s.537-2.149 2.686-2.149c1.075 0 2.149 2.149 2.149 2.149l9.491 26.144c.537 1.432 1.432 1.611 1.432 1.611s1.791.179 1.791 1.97-1.791 1.791-1.791 1.791h-10.744s-1.791-.179-1.791-1.791c0-1.791 1.791-1.791 1.791-1.791 1.791-.179 1.433-1.969 1.433-1.969l-1.254-3.761h-5.014l-5.193-.179c-.179.716-1.074 3.76-1.074 3.76s-.358 1.97 1.612 2.328c0 0 2.327-.179 2.327 1.612 0 1.791-1.79 1.791-1.79 1.791h-8.237s-1.791 0-1.791-1.791 1.791-1.791 1.791-1.791 1.97 0 3.223-3.223M139.952 114.167v-9.491c0-1.791 1.97-1.791 1.97-1.791s1.611 0 1.611-1.611c0-1.612-1.79-1.612-1.79-1.612h-11.64s-1.611.179-1.611 1.612c0 1.432 1.611 1.611 1.611 1.611 1.97 0 1.97 1.791 1.97 1.791v23.458s0 1.79-1.97 1.79c0 0-1.611.179-1.611 1.612 0 1.432 1.611 1.612 1.611 1.612h11.64s1.611-.18 1.611-1.612c0-1.612-1.611-1.612-1.611-1.612s-1.97-.179-1.97-1.79v-9.491h11.639v9.491c0 1.79-1.969 1.79-1.969 1.79s-1.612.179-1.612 1.791c0 1.433 1.612 1.612 1.612 1.612h11.639s1.611-.179 1.611-1.612-1.611-1.612-1.611-1.612c-1.97 0-1.97-1.969-1.97-1.969v-23.458s0-1.791 1.97-1.791c0 0 1.611-.179 1.611-1.611 0-1.612-1.611-1.612-1.611-1.612h-11.639s-1.612 0-1.612 1.612c0 1.611 1.612 1.611 1.612 1.611s1.969.179 1.969 1.791v9.491h-11.46z"/><path d="M138.699 114.525v-9.849c0-1.791 1.79-1.791 1.79-1.791s1.433 0 1.612-1.611c0-1.433-1.612-1.612-1.612-1.612h-10.027s-1.433.179-1.433 1.612c0 1.432 1.433 1.611 1.433 1.611 1.79 0 1.79 1.791 1.79 1.791v23.458s0 1.79-1.79 1.79c0 0-1.433.179-1.433 1.612 0 1.432 1.612 1.612 1.612 1.612h10.027s1.612-.18 1.612-1.612c0-1.612-1.612-1.612-1.612-1.612s-1.79-.179-1.79-1.79v-9.133h11.818v9.312c0 1.79-1.791 1.79-1.791 1.79s-1.432 0-1.611 1.612c0 1.433 1.611 1.612 1.611 1.612h11.102s1.433-.179 1.433-1.612-1.433-1.612-1.433-1.612c-1.79 0-1.79-1.79-1.79-1.79v-23.637s0-1.791 1.79-1.791c0 0 1.433-.179 1.433-1.611 0-1.433-1.433-1.612-1.433-1.612h-11.102s-1.611.179-1.611 1.612c0 1.611 1.611 1.611 1.611 1.611s1.791.179 1.791 1.791v9.849h-11.997zM195.104 133.327h-24.353s-1.611-.179-1.611-1.612 1.611-1.612 1.611-1.612c1.97 0 1.97-1.79 1.97-1.79v-23.458s0-1.791-1.97-1.791c0 0-1.611-.179-1.611-1.611 0-1.433 1.611-1.612 1.611-1.612h11.64s1.611.179 1.611 1.612c0 1.611-1.611 1.611-1.611 1.611s-1.97.179-1.97 1.791v22.921c0 1.79 1.97 1.79 1.97 1.79h6.804c4.835 0 5.014-7.7 5.014-7.7s-.716-1.253 1.433-1.253c1.074 0 1.074 1.074 1.074 1.074s.179 8.416 0 10.028c0 .179-.179 1.612-1.612 1.612"/><path d="M194.03 133.148h-23.279s-1.432-.18-1.432-1.612c0-1.433 1.432-1.612 1.432-1.612 1.791 0 1.791-1.79 1.791-1.79v-23.458s0-1.791-1.791-1.791c0 0-1.432-.179-1.432-1.611 0-1.433 1.432-1.612 1.432-1.612h10.028s1.612.179 1.612 1.612c0 1.611-1.612 1.611-1.612 1.611s-1.791.179-1.791 1.791v22.92c0 1.791 1.791 1.791 1.791 1.791h7.7c4.656 0 5.551-7.521 5.551-7.521s0-1.074.895-1.074c.896 0 1.075 1.074 1.075 1.074s-.179 8.237-.358 9.849c-.18 0-.359 1.433-1.612 1.433M70.653 107.362l-3.939 10.565-5.551-13.251s-.537-1.612 1.253-1.791c0 0 1.791 0 1.791-1.969 0-1.612-1.791-1.791-1.791-1.791H49.882s-1.97 0-1.97 1.791c0 1.79 1.97 1.969 1.97 1.969s1.074.179 1.611 1.612l10.565 26.681s.358 1.79 1.97 1.79 2.149-1.79 2.149-1.79c.716-1.612 6.625-17.728 6.625-17.728l6.268 17.728s.537 1.79 2.148 1.79c1.612 0 1.97-1.79 1.97-1.79l9.132-25.249c1.433-3.223 2.866-2.865 2.866-2.865s1.79-.179 1.79-1.969c0-1.791-1.79-1.791-1.79-1.791h-9.312s-1.97 0-1.791 1.791c0 1.969 1.791 1.969 1.791 1.969 2.149.179 1.433 2.328 1.433 2.328l-4.298 12.535s-3.402-9.312-4.298-11.998l-.358-.716s-.358-1.79 1.612-1.97c0 0 1.791 0 1.791-1.969 0-1.612-1.791-1.791-1.791-1.791H67.967s-1.969 0-1.969 1.791c0 1.79 1.969 1.969 1.969 1.969s1.075.18 1.612 1.612l1.074 2.507z"/><path d="M70.474 107.362l-4.297 12.714-6.447-15.221s-.537-1.432 1.254-1.612c0 0 1.791 0 1.791-1.79 0-1.612-1.791-1.791-1.791-1.791H50.419s-1.791 0-1.791 1.791c0 1.611 1.791 1.97 1.791 1.97s1.074.179 1.433 1.611l10.385 26.681s.359 1.791 1.791 1.791c1.433 0 1.97-1.791 1.97-1.791.716-1.612 6.267-17.369 6.267-17.369l5.909 17.369s.358 1.791 1.97 1.791c1.432 0 1.97-1.791 1.97-1.791l8.953-25.248c1.253-3.224 2.686-2.865 2.686-2.865s1.791-.179 1.791-1.791c0-1.791-1.791-1.791-1.791-1.791h-8.595s-1.791 0-1.791 1.791 1.791 1.791 1.791 1.791c1.97.179 1.432 2.148 1.432 2.148l-4.476 14.326s-3.582-11.281-4.477-13.788l-.358-1.254s-.358-1.791 1.432-1.97c0 0 1.791 0 1.791-1.79 0-1.612-1.791-1.791-1.791-1.791H68.147s-1.791 0-1.791 1.791c0 1.611 1.791 1.969 1.791 1.969s.895.18 1.432 1.612l.895 2.507zM192.239 108.436h1.254v-2.507h1.432c.896 0 1.075.359 1.075 1.254 0 .716 0 .895.179 1.253h1.432v-.179c-.358-.179-.358-.358-.358-1.253 0-1.254-.179-1.433-.716-1.612.716-.179 1.074-.895 1.074-1.432 0-.537-.358-1.791-1.969-1.791h-3.224v6.267h-.179zm1.254-3.581v-1.612h1.611c.717 0 .896.538.896.896 0 .716-.358.895-1.075.895h-1.432v-.179z"/><path d="M191.881 108.436h1.254v-2.507h1.432c.895 0 1.075.359 1.075 1.254 0 .716 0 .895.179 1.253h1.432v-.179c-.358-.179-.358-.358-.358-1.253 0-1.254-.179-1.433-.716-1.612.716-.179 1.074-.895 1.074-1.432 0-.537-.358-1.791-1.97-1.791h-3.223v6.267h-.179zm1.254-3.581v-1.612h1.611c.716 0 .896.538.896.896 0 .716-.359.895-1.075.895h-1.432v-.179z"/><path d="M190.09 105.213a4.815 4.815 0 014.835-4.835 4.815 4.815 0 014.835 4.835 4.815 4.815 0 01-4.835 4.835 4.815 4.815 0 01-4.835-4.835m-1.074 0c0 3.223 2.686 5.909 5.909 5.909s5.909-2.686 5.909-5.909-2.686-5.909-5.909-5.909-5.909 2.686-5.909 5.909"/><path d="M189.732 105.213a4.815 4.815 0 014.835-4.835 4.815 4.815 0 014.835 4.835 4.815 4.815 0 01-4.835 4.835 4.815 4.815 0 01-4.835-4.835m-1.253 0c0 3.223 2.686 5.909 5.909 5.909s5.909-2.686 5.909-5.909-2.686-5.909-5.909-5.909-5.909 2.686-5.909 5.909"/></g><path d="M204.058 90.172c6.267 0 11.46 5.193 11.46 11.46v30.62c0 6.267-5.193 11.46-11.46 11.46H45.942c-6.267 0-11.46-5.193-11.46-11.46v-30.62c0-6.267 5.193-11.46 11.46-11.46h158.116m0-4.835H45.942c-8.953 0-16.295 7.342-16.295 16.295v30.62c0 8.953 7.342 16.295 16.295 16.295h158.116c8.953 0 16.295-7.342 16.295-16.295v-30.62c0-8.953-7.342-16.295-16.295-16.295z" fill-rule="nonzero"/></g></svg>