<svg version="1.1" id="xerox" xmlns="http://www.w3.org/2000/svg" x="0" y="0" viewBox="0 0 250 250" xml:space="preserve"><style>.st0{fill:#fff}</style><path class="st0" d="M125.8 120.7c0 9.2-6.6 16.2-15.8 16.2-9.5 0-15.9-6.6-15.9-16.1 0-9.1 6.3-16.2 15.9-16.2 9.2 0 15.8 6.8 15.8 16.1zm-8.1 0c0-5.4-2.1-10.2-7.7-10.2s-7.7 4.8-7.7 10.2 2.1 10.2 7.7 10.2 7.7-4.7 7.7-10.2zM70 117.8c-.4-4.2-1.9-7.6-4.5-9.9-2.5-2.2-5.9-3.4-10-3.4-3 0-6.9 1-9.7 3.4-3.4 2.7-5.9 7.1-5.9 13 0 5 1.6 9.1 4.6 11.8 2.8 2.7 7 4.1 12 4.1 4 0 9-1.6 11.1-2.8.7-.5 1-.6.7-1.4l-1.3-3.8c-.2-.6-.8-.7-1.4-.5-.9.5-1.6.8-2.6 1.2-1.8.6-3.8 1.1-5.5 1.1-3.8 0-5.9-1-7.6-2.9-1-1.2-1.6-2.7-1.8-4.5H69c.7 0 1.1-.5 1.1-1.4v-1.5c0-.6-.1-1.8-.1-2.5zm-7.5-.2H48.1c.2-1 .5-2 .9-3 1.3-2.6 3.8-4.2 6.8-4.2 4.2 0 6.7 2.8 6.7 7v.2zM77.5 109c2.4-3 6-4.4 12.1-4.4 1.4 0 3.1.2 4.2.5.7.2.8.7.7 1.5l-.7 3.5c-.2.6-.4.8-.8.8h-.5c-.5-.1-1.9-.2-2.5-.2-3 0-4.4.7-5.5 1.9-1.3 1.4-1.3 3.3-1.3 6.8V135c0 1-.5 1.6-1.6 1.6H77c-1 0-1.5-.5-1.6-1.6v-15.3c-.1-5.7.3-8.4 2.1-10.7zM24.1 115.5c1.1-1.1 3.6-4.2 6.3-9.4.5-.9.9-1.1 1.5-1.1H37c.5 0 1 .2.7 1.1-2 6-6.7 11.3-9.2 14.1 2.8 2.7 7.8 9 10.1 15.1.2.5.1 1.2-1.1 1.2h-6.1c-.6 0-1.1-.1-1.6-1.1-1.6-3.8-3.9-7.8-6.6-10.3-2.9 3.1-5.2 7-6.7 10.3-.4.8-.7 1.1-1.6 1.1H9.4c-.4 0-.7-.5-.5-1.1 1.6-4.6 5-10.2 9.8-14.5-3.8-4.5-7.3-10.1-8.8-14.6-.2-.7.3-1.1.7-1.1h6.6c.7 0 1.1.3 1.5 1.1 1.5 3.6 3.7 7.2 5.4 9.2zM142.1 115.5c1.1-1.1 3.6-4.2 6.3-9.4.5-.9.9-1.1 1.5-1.1h5.1c.5 0 1 .2.7 1.1-2 6-6.7 11.3-9.2 14.1 2.8 2.7 7.8 9 10.1 15.1.2.5.1 1.2-1.1 1.2h-6.1c-.6 0-1.1-.1-1.6-1.1-1.6-3.8-3.8-7.8-6.6-10.3-2.9 3.1-5.2 7-6.7 10.3-.4.8-.7 1.1-1.6 1.1h-5.6c-.4 0-.7-.5-.5-1.1 1.6-4.6 5-10.2 9.8-14.5-3.8-4.5-7.3-10.1-8.8-14.6-.2-.7.2-1.1.6-1.1h6.6c.7 0 1.1.3 1.5 1.1 1.7 3.6 3.8 7.2 5.6 9.2z"/><g><path class="st0" d="M219.7 110.8c.7-3.7 1.2-7.4 1.2-11.3 0-4-1.1-7.1-2-8-3.6-1.4-7.4-2.1-11.4-2.1-10.5 0-19.9 5-25.9 12.8 1-.7 3.4-2.1 9.1-2.1 11.2.2 21.3 4.7 29 10.7z"/><path class="st0" d="M220.7 111.6c.6.5 1.4 1.1 1.9 1.7.7-3.7 1.1-7.5 1.1-11.3 0-5.5-1.8-8.8-2.2-9.2-.5-.3-1-.5-1.6-.7.6.7 1.9 3.7 1.9 8 .2 3.8-.2 7.8-1.1 11.5zM216.7 121.1c-8.3-7-19.4-12.6-31.2-12.6-5.4 0-8 2-8.7 2.5-1.2 3.4-1.9 7.1-1.9 11 0 12.2 6.7 22.8 16.6 28.4 6.9-.8 18.9-12.9 25.2-29.3z"/><path class="st0" d="M217.3 119.6l.9-2.7c-8-6.7-18.7-11.8-31.1-11.8-5.5 0-8 1.8-8.8 2.4.2-.4.7-1.5.7-1.5 1-.8 3.5-2.2 9.1-2.2 12.2 0 22.6 5 30.5 11.5.3-.9.5-1.8.7-2.7-7.9-6.4-18.2-11.1-29.5-11.1-5.4 0-8.5 1.5-9.3 2.3-1.3 1.9-2.4 3.9-3.2 6 .6-.5 3.2-2.5 8.9-2.5 12 0 22.9 5.4 31.1 12.3zM219.7 123.8c-.6-.6-1.3-1.2-1.9-1.8-5.8 15.1-16.4 27.1-25.2 28.9.5.3 1.1.5 1.6.7 9-1.7 19.7-12.9 25.5-27.8zM176.8 111c.1-.2.1-.3.2-.5-.1.2-.2.3-.2.5zM226.7 117.4c5.8 6.5 9.1 13.6 9.1 19.1 0 .5 0 1.4-.3 1.9 2.8-4.8 4.5-10.4 4.5-16.5 0-11.2-5.7-21-14.3-26.9.6.6 2.3 4 2.3 9.4 0 4.5-.5 8.8-1.3 13zM191.9 150.6s-.1 0 0 0c-.1 0 0 0 0 0z"/><path class="st0" d="M223.8 114.4l1.8 1.8c.8-4.1 1.3-8.4 1.3-12.9 0-5-1.8-8.4-2.3-8.9-.5-.4-1.1-.7-1.7-1 .6.7 2.2 4.6 2.2 9.1-.1 4-.5 7.9-1.3 11.9zM222.7 118.9c.6.6 1.2 1.3 1.8 1.9.3-.9.5-1.9.7-2.9-.5-.6-1.2-1.3-1.8-1.8-.3.9-.5 1.9-.7 2.8zM221.3 123.2c.6.6 1.3 1.3 1.8 1.9.3-.9.6-1.7.9-2.7-.5-.6-1.2-1.3-1.8-1.9-.3 1-.6 1.9-.9 2.7zM218.3 120.5c.6.5 1.3 1.2 1.9 1.8l.9-2.7c-.6-.6-1.3-1.2-1.9-1.8l-.9 2.7zM231.5 143.8l-.2.2c.1-.1.1-.2.2-.2zM226.2 119.1c-.3 1-.5 1.9-.7 2.9 5.4 6.4 8.4 13 8.4 17.1 0 .4.1 1.5-.3 2-.2.3-.5.6-.8 1 .3-.5.4-1.3.4-1.7 0-4.1-2.9-10.5-8.1-16.7-.3.9-.5 1.7-.9 2.7 4.9 5.8 7.9 11.6 7.9 15.7 0 .2-.1 1.4-.3 1.6 1.2-1.3 2.2-2.7 3.1-4.1.3-.6.4-1.5.4-1.8-.2-5.3-3.5-12.3-9.1-18.7z"/><path class="st0" d="M223.6 127.8c-5.3 13.6-14.8 24-25 25.4 2.8.8 5.8 1.2 8.9 1.2 9.2 0 17.7-3.8 23.5-10.1.2-.4.3-1 .3-1.4-.1-3.8-3-9.4-7.7-15.1z"/><path class="st0" d="M222.6 126.7c-.5-.6-1.2-1.3-1.8-1.9-5.5 14.2-15.5 25.4-25.4 27.3.6.3 1.3.5 1.9.6 9.7-1.7 19.7-11.6 25.3-26zM222.4 115.1c-.6-.5-1.3-1.2-1.9-1.7-.2.9-.5 1.8-.7 2.7.6.5 1.3 1.2 1.9 1.8.2-.9.4-1.9.7-2.8zM192.6 150.9c-.2-.1-.5-.3-.6-.4.1.2.3.4.6.4zM231.6 143.7s0-.1 0 0c-.1 0-.1 0 0 0zM230.9 144.4l.5-.5c-.2.2-.3.4-.5.5zM197.1 152.9c.5.2.8.3 1.4.5h.1c-.5-.3-1-.4-1.5-.5zM191.5 150.4c.1.1.3.1.4.2-.1-.1-.2-.2-.4-.2.1 0 .1 0 0 0zM194.1 151.7c.5.2.7.4 1.1.5-.2-.2-.6-.3-1.1-.5zM222.8 93.3c-.4-.2-.8-.5-1.2-.5.4.2.8.3 1.2.5zM176.8 111.1c0-.1 0-.1 0 0 0-.1 0-.1 0 0zM234.7 139.5c0 .1 0 .1 0 0 .2-.4.5-.8.6-1v-.1c-.1.4-.3.7-.6 1.1zM225.6 95.1c-.4-.3-.7-.5-1.1-.7.4.2.8.5 1.1.7.1 0 .1 0 0 0zM177.2 109.8c-.1.3-.2.5-.3.7.1-.3.3-.4.3-.7.1 0 0 0 0 0z"/><linearGradient id="SVGID_1_" gradientUnits="userSpaceOnUse" x1="221.687" y1="174.985" x2="221.721" y2="175.058" gradientTransform="matrix(.9897 0 0 -.9897 .01 265.004)"><stop offset="0" stop-color="#595959"/><stop offset=".045" stop-color="#6c6c6c"/><stop offset=".157" stop-color="#939393"/><stop offset=".273" stop-color="#b4b4b4"/><stop offset=".391" stop-color="#cdcdcd"/><stop offset=".514" stop-color="#dfdfdf"/><stop offset=".644" stop-color="#eaeaea"/><stop offset=".791" stop-color="#ededed"/><stop offset=".828" stop-color="#e9e9e9"/><stop offset=".869" stop-color="#dbdbdb"/><stop offset=".912" stop-color="#c5c5c5"/><stop offset=".956" stop-color="#a6a6a6"/><stop offset="1" stop-color="gray"/></linearGradient><path d="M220 92c-.4-.2-.8-.4-1.2-.5.5.2.9.4 1.2.5z" fill="url(#SVGID_1_)"/><path class="st0" d="M181.5 102.4c-.3.3-.7 1-1 1.4.3-.5.6-1.1 1-1.4z"/></g></svg>