<svg xmlns="http://www.w3.org/2000/svg" height="24" width="24" viewBox="0 0 24 24"><title>notification</title><g stroke-linecap="round" transform="translate(0.25 0.25)" fill="currentColor" stroke-linejoin="round" class="nc-icon-wrapper"><path data-cap="butt" data-color="color-2" d="M10.493,14.389l2.362,5.863a2,2,0,0,1-1.108,2.6h0a2,2,0,0,1-2.6-1.108L5.511,12.8" fill="none" stroke="currentColor" stroke-width="1.5"></path> <path data-cap="butt" d="M18.309,1.119,3,6A2.82,2.82,0,0,0,1,9a2.82,2.82,0,0,0,2,3l15.309,4.881" fill="none" stroke="currentColor" stroke-width="1.5"></path> <ellipse cx="19" cy="9" rx="4" ry="8" fill="none" stroke="currentColor" stroke-width="1.5"></ellipse> <path data-color="color-2" data-stroke="none" d="M20,9a2.99,2.99,0,0,0-2.658-2.966A12.554,12.554,0,0,0,17,9a12.554,12.554,0,0,0,.342,2.966A2.99,2.99,0,0,0,20,9Z" fill="currentColor" stroke="none"></path></g></svg>