<svg xmlns="http://www.w3.org/2000/svg" height="32" width="32" viewBox="0 0 32 32"><title>circle dots</title><g stroke-linecap="round" transform="translate(0.5 0.5)" fill="#292a28" stroke-linejoin="round" class="nc-icon-wrapper"><path d="M23 14.5C23.8284 14.5 24.5 15.1716 24.5 16C24.5 16.8284 23.8284 17.5 23 17.5C22.1716 17.5 21.5 16.8284 21.5 16C21.5 15.1716 22.1716 14.5 23 14.5Z" fill="#292a28" data-color="color-2" data-stroke="none" stroke="none"></path> <path d="M9 14.5C9.82843 14.5 10.5 15.1716 10.5 16C10.5 16.8284 9.82843 17.5 9 17.5C8.17157 17.5 7.5 16.8284 7.5 16C7.5 15.1716 8.17157 14.5 9 14.5Z" fill="#292a28" data-color="color-2" data-stroke="none" stroke="none"></path> <path d="M16 14.5C16.8284 14.5 17.5 15.1716 17.5 16C17.5 16.8284 16.8284 17.5 16 17.5C15.1716 17.5 14.5 16.8284 14.5 16C14.5 15.1716 15.1716 14.5 16 14.5Z" fill="#292a28" data-color="color-2" data-stroke="none" stroke="none"></path> <path d="M16 30C23.732 30 30 23.732 30 16C30 8.26801 23.732 2 16 2C8.26801 2 2 8.26801 2 16C2 23.732 8.26801 30 16 30Z" stroke="#292a28" stroke-width="1" fill="none"></path></g></svg>