<!-- <svg xmlns="http://www.w3.org/2000/svg" viewBox="0 0 64 64"><title>sharpener</title><g stroke-linecap="round" stroke-width="3" fill="none" stroke="currentColor" stroke-linejoin="round" class="nc-icon-wrapper" transform="translate(0.5 0.5)"><path d="M21,62V32 c0-6.075,4.925-11,11-11h0c6.075,0,11,4.925,11,11v30"></path> <circle cx="34" cy="40" r="3"></circle> <path d="M57,62V47.973 c-4.85-3.65-8-9.436-8-15.973s3.15-12.323,8-15.973V2H7v14.027c4.85,3.65,8,9.436,8,15.973s-3.15,12.323-8,15.973V62H57z"></path></g></svg>


 -->


<svg xmlns="http://www.w3.org/2000/svg" width="20" height="20" viewBox="0 0 20 20">
  <title>file-search</title>
  <g fill="currentColor">
    <path d="m4,7h3c.552,0,1-.448,1-1v-3" stroke="currentColor" stroke-linejoin="round" stroke-width="2" fill="currentColor"></path>
    <circle cx="13.5" cy="13.5" r="2.5" fill="none" stroke="#8c8d8f" stroke-linecap="round" stroke-linejoin="round" stroke-width="2"></circle>
    <path d="m16,8.053v-2.053c0-1.657-1.343-3-3-3h-4.586c-.265,0-.52.105-.707.293l-3.414,3.414c-.188.188-.293.442-.293.707v6.586c0,1.657,1.343,3,3,3h1.636" fill="none" stroke="currentColor" stroke-linecap="round" stroke-linejoin="round" stroke-width="2"></path>
    <path fill="none" stroke="#8c8d8f" stroke-linecap="round" stroke-linejoin="round" stroke-width="2" d="M17 17L15.268 15.268"></path>
  </g>
</svg>