<svg xmlns="http://www.w3.org/2000/svg" viewBox="0 0 48 48"><g class="nc-icon-wrapper"><path fill="#E6E6E6" d="M1 14h46v19H1z"/><path fill="#E79800" d="M4 41h40a3 3 0 003-3v-5H1v5a3 3 0 003 3z"/><path fill="#1A1876" d="M44 7H4a3 3 0 00-3 3v5h46v-5a3 3 0 00-3-3zM19.238 28.8h2.609l1.633-9.576h-2.61zM28.743 23.069c-.912-.443-1.471-.739-1.465-1.187 0-.398.473-.824 1.495-.824a4.72 4.72 0 012.188.477l.354-2.076a6.739 6.739 0 00-2.339-.402c-2.579 0-4.396 1.299-4.411 3.16-.015 1.376 1.297 2.144 2.287 2.602 1.016.469 1.358.769 1.353 1.188-.006.642-.811.935-1.562.935-1.158 0-1.742-.179-2.793-.655l-.366 2.144c.61.267 1.737.499 2.908.511 2.744 0 4.525-1.284 4.545-3.272.007-1.089-.688-1.918-2.194-2.601zM38.007 19.233H35.99c-.625 0-1.092.171-1.367.794l-3.876 8.776h2.741s.448-1.18.55-1.439l3.343.004c.078.335.318 1.435.318 1.435h2.422l-2.114-9.57zm-3.218 6.173a427.55 427.55 0 001.386-3.591c.353 1.651.009.049.781 3.591h-2.167zM17.049 19.231l-2.556 6.53-.272-1.327-.915-4.401c-.158-.606-.616-.787-1.183-.808h-4.21l-.033.199c1.024.248 1.939.606 2.742 1.05l2.321 8.317 2.762-.003 4.109-9.558h-2.765z"/></g></svg>