<?xml version="1.0" encoding="UTF-8" standalone="no"?>
<!DOCTYPE svg PUBLIC "-//W3C//DTD SVG 1.1//EN" "http://www.w3.org/Graphics/SVG/1.1/DTD/svg11.dtd">
<svg width="100%" height="100%" viewBox="0 0 101 102" version="1.1" xmlns="http://www.w3.org/2000/svg" xmlns:xlink="http://www.w3.org/1999/xlink" xml:space="preserve" xmlns:serif="http://www.serif.com/" style="fill-rule:evenodd;clip-rule:evenodd;stroke-linejoin:round;stroke-miterlimit:2;">
    <g id="Artboard2" transform="matrix(0.899646,0,0,0.910157,-3.01134,-4.58951)">
        <rect x="3.347" y="5.043" width="112.071" height="111.104" style="fill:none;"/>
        <g id="Artboard1" transform="matrix(1.39508,0,0,1.42138,-13.6571,-11.4182)">
        
            <g>
                <g transform="matrix(0.796763,0,0,0.77299,-501.294,-295.236)">
                    <path d="M701.5,481.72C700.19,481.96 698.85,482.13 697.49,482.22C698.83,482.35 700.2,482.12 701.5,481.72Z" style="fill-rule:nonzero;"/>
                </g>
                <g transform="matrix(0.796763,0,0,0.77299,-501.294,-295.236)">
                    <path d="M720.14,421.94C720.14,421.94 719.45,422.13 718.66,422.61C718.87,422.81 719.08,423.01 719.29,423.21C720.05,422.55 720.63,422.19 720.14,421.94Z" style="fill-rule:nonzero;"/>
                </g>
                <g transform="matrix(0.796763,0,0,0.77299,-501.294,-295.236)">
                    <path d="M697.48,482.22C697.27,482.23 697.07,482.25 696.86,482.26C698.8,482.76 700.94,482.47 702.85,481.85C703.67,481.64 704.43,481.26 705.16,480.84C703.96,481.2 702.74,481.49 701.49,481.72C700.2,482.12 698.83,482.35 697.48,482.22Z" style="fill-rule:nonzero;"/>
                </g>
                <g transform="matrix(0.796763,0,0,0.77299,-501.294,-295.236)">
                    <path d="M705.16,480.84C707.1,480.26 708.97,479.5 710.76,478.6C710.4,478.62 710.04,478.64 709.68,478.69C708.02,478.97 706.63,480 705.16,480.84Z" style="fill-rule:nonzero;"/>
                </g>
                <g transform="matrix(0.796763,0,0,0.77299,-501.294,-295.236)">
                    <path d="M688.43,418.44C688.38,418.39 688.39,418.3 688.45,418.26C688.5,418.21 688.59,418.22 688.63,418.28C689.1,418.88 689.47,419.59 689.58,420.36C689.59,420.42 689.55,420.47 689.49,420.48C689.43,420.49 689.38,420.45 689.37,420.39C689.26,419.67 688.9,419 688.43,418.44ZM690.51,422.19L689.63,422.89C689.46,422.99 689.36,423.15 689.07,423.15C688.82,422.89 689.03,422.72 689.04,422.53C689.04,422.49 689.08,422.45 689.12,422.45C689.16,422.45 689.2,422.49 689.2,422.53C689.2,422.54 689.2,422.55 689.19,422.55L689.18,422.57C689.12,422.71 689.07,422.99 689.1,423C689.19,423 689.39,422.87 689.53,422.77L690.42,422.08C690.45,422.06 690.48,422.06 690.51,422.09C690.54,422.13 690.53,422.17 690.51,422.19ZM706.48,416.93L708.71,416.78C708.92,416.76 709.12,416.92 709.14,417.13C709.16,417.34 709,417.54 708.79,417.56L708.77,417.56L706.51,417.66C706.31,417.67 706.14,417.51 706.13,417.31C706.12,417.12 706.28,416.95 706.48,416.93ZM702,417.07L704.24,417.02C704.43,417.01 704.58,417.16 704.59,417.34C704.6,417.53 704.45,417.68 704.27,417.69L704.26,417.69L702,417.7C701.83,417.7 701.69,417.56 701.69,417.39C701.69,417.22 701.83,417.08 702,417.07ZM697.51,417.05L699.76,417.08C699.92,417.08 700.05,417.21 700.05,417.37C700.05,417.53 699.92,417.66 699.76,417.66L699.75,417.66L697.5,417.58C697.36,417.57 697.24,417.45 697.25,417.31C697.25,417.16 697.37,417.05 697.51,417.05ZM696.42,419.16C696.81,419.13 697.21,419.14 697.59,419.2C697.2,419.15 696.81,419.14 696.42,419.18C696.42,419.18 696.41,419.17 696.42,419.16C696.41,419.16 696.42,419.16 696.42,419.16ZM693.02,416.9L695.27,416.99C695.4,416.99 695.5,417.1 695.5,417.23C695.5,417.36 695.39,417.46 695.26,417.46L695.25,417.46L693,417.32C692.89,417.31 692.8,417.21 692.81,417.1C692.81,416.98 692.9,416.89 693.02,416.9ZM692.25,420.77C692.88,420.36 693.54,419.99 694.24,419.71C694.25,419.7 694.27,419.71 694.27,419.72C694.28,419.73 694.27,419.75 694.26,419.75C693.57,420.05 692.92,420.42 692.3,420.84C692.28,420.85 692.25,420.85 692.24,420.83C692.23,420.81 692.23,420.78 692.25,420.77ZM688.52,416.69L690.77,416.79C690.87,416.79 690.95,416.88 690.94,416.98C690.94,417.08 690.85,417.16 690.75,417.15L690.74,417.15L688.5,417C688.41,417 688.35,416.92 688.35,416.84C688.36,416.75 688.44,416.69 688.52,416.69ZM672.85,422.21C673.32,430.27 668.57,431.02 668.64,431.12C667.4,426.06 672.85,422.21 672.85,422.21ZM674.01,442.08C673.6,440.92 672.73,439.55 670.97,438.05C670.97,438.05 670.5,441.39 672.07,443.89C667.45,439.95 668.58,432.37 668.58,432.37C673.29,436.39 674.13,439.84 674.01,442.08ZM673.86,427.42C678.31,433.38 675.03,436.36 675.14,436.4C671.63,433.13 673.86,427.42 673.86,427.42ZM675.82,442.69C674.22,440.64 675.92,437.78 675.92,437.78C677.78,441.36 675.76,442.67 675.82,442.69ZM680.13,427.45C679.59,431.95 676.89,431.89 676.93,431.95C676.74,429.04 680.13,427.45 680.13,427.45ZM677.29,433.69C682.55,434.34 682.47,437.5 682.54,437.46C679.13,437.66 677.29,433.69 677.29,433.69ZM678.91,461.06C678.91,461.57 678.5,461.98 677.99,461.98C677.48,461.98 677.07,461.57 677.07,461.06C677.07,460.55 677.48,460.14 677.99,460.14C678.5,460.14 678.91,460.56 678.91,461.06ZM677.51,457.92C677.78,457.92 677.99,458.14 677.99,458.4C677.99,458.67 677.77,458.88 677.51,458.88C677.25,458.88 677.03,458.66 677.03,458.4C677.03,458.14 677.25,457.92 677.51,457.92ZM677.82,467.04C676.88,467.04 676.12,466.28 676.12,465.34C676.12,464.4 676.88,463.64 677.82,463.64C678.76,463.64 679.52,464.4 679.52,465.34C679.52,466.28 678.76,467.04 677.82,467.04ZM720.07,426.56C715.53,436.28 718.66,446 718.66,446C718.66,446 717.9,446 717.59,444.35C712.95,437.76 720.02,426.66 720.07,426.56ZM714.67,438.05C714.66,438.08 714.66,438.1 714.65,438.13C714.59,438.66 714.76,442.17 716.38,445.36C718.14,448.83 717.5,448.78 717.5,448.78C717.5,448.78 713.05,444.05 714.65,438.13C714.66,438.08 714.66,438.05 714.67,438.05ZM715.11,426.67C714.93,428.34 714.3,432.77 711.3,434.39C707.9,436.22 707.88,435.26 707.88,435.26C707.88,435.26 713.4,433.45 715.11,426.67ZM699.24,447.06C697.16,451.16 694.61,450.17 694.62,450.23C695.46,447.39 699.24,447.06 699.24,447.06ZM693.83,450.85C690.3,453.8 688.35,451.88 688.33,451.94C690.23,449.66 693.83,450.85 693.83,450.85ZM697.48,469.39C697.41,468.98 697.36,468.7 697.32,468.51C697.29,468.33 697.12,468.23 696.83,468.22C696.74,468.22 696.62,468.23 696.49,468.25C696.35,468.27 696.28,468.35 696.28,468.49C696.28,468.59 696.29,468.77 696.31,469.03C696.33,469.07 696.45,469.08 696.68,469.08C696.81,469.1 696.94,469.12 697.06,469.13C697.06,469.18 696.96,469.3 696.76,469.46C696.56,469.62 696.44,469.75 696.4,469.82C696.53,469.87 696.65,469.91 696.77,469.95C697.04,469.98 697.17,470.02 697.17,470.05C697.17,470.11 697.04,470.17 696.79,470.24C696.54,470.31 696.39,470.39 696.35,470.51C696.52,470.61 696.67,470.71 696.82,470.79C696.86,470.85 696.81,470.91 696.67,470.97C696.53,471.03 696.4,471.1 696.26,471.2C696.28,471.26 696.38,471.31 696.58,471.35C696.78,471.4 696.97,471.43 697.14,471.46C697.13,471.59 696.98,471.72 696.68,471.81C696.38,471.91 696.21,471.99 696.17,472.05C696.07,472.16 696.12,472.26 696.34,472.36C696.56,472.45 696.68,472.56 696.72,472.67C696.72,472.73 696.71,472.79 696.72,472.85C696.73,472.91 696.7,472.94 696.64,472.96C696.58,472.98 696.48,472.97 696.33,472.92C696.18,472.87 696.08,472.87 696.04,472.91C695.94,473 695.88,473.23 695.86,473.59L696,473.71C695.88,473.8 695.76,473.9 695.64,473.98C695.64,474 695.61,474.08 695.56,474.22C695.51,474.36 695.48,474.47 695.47,474.55C695.6,474.69 695.73,474.82 695.86,474.94C695.89,475.04 695.87,475.17 695.81,475.34C695.77,475.34 695.64,475.3 695.42,475.23C695.2,475.15 695.08,475.13 695.04,475.17C694.98,475.22 694.95,475.32 694.94,475.48C694.93,475.65 694.94,475.89 694.96,476.2C694.89,476.2 694.75,476.17 694.57,476.11C694.38,476.05 694.26,476.05 694.22,476.11C694.16,476.3 694.13,476.43 694.15,476.51C694.16,476.63 694.23,476.75 694.36,476.89C694.49,477.03 694.55,477.15 694.55,477.27C694.48,477.27 694.39,477.26 694.29,477.26C694.1,477.17 693.98,477.15 693.92,477.19C693.88,477.21 693.86,477.31 693.85,477.5C693.8,477.5 693.73,477.51 693.65,477.52C693.63,477.46 693.6,477.4 693.55,477.33C693.49,477.26 693.42,477.23 693.32,477.22C693.17,477.21 693.08,477.3 693.05,477.46C693.03,477.63 693.01,477.81 693,477.98C692.98,478 692.86,477.92 692.65,477.75C692.44,477.58 692.32,477.5 692.3,477.52C692.28,477.54 692.33,477.68 692.45,477.94C692.57,478.2 692.62,478.34 692.6,478.36C692.56,478.38 692.45,478.35 692.27,478.26C692.09,478.18 691.98,478.16 691.91,478.19C691.85,478.25 691.8,478.39 691.75,478.62C691.7,478.84 691.66,478.96 691.62,478.96C691.52,478.96 691.45,478.84 691.41,478.61C691.36,478.38 691.32,478.24 691.28,478.2C691.11,478.19 690.93,478.2 690.74,478.21C690.68,478.21 690.63,478.34 690.58,478.62C690.53,478.89 690.49,479.03 690.45,479.03C690.39,479.03 690.34,478.96 690.31,478.82C690.28,478.68 690.24,478.54 690.21,478.39C689.98,478.38 689.84,478.4 689.78,478.47C689.72,478.53 689.63,478.63 689.52,478.78C689.41,478.92 689.3,478.98 689.21,478.98C689.32,478.79 689.4,478.61 689.47,478.43C689.53,478.25 689.55,478.13 689.52,478.07C689.39,477.95 689.26,477.91 689.12,477.94C689.02,477.98 688.95,478.03 688.88,478.11C688.82,478.18 688.76,478.26 688.7,478.33L688.7,477.99C688.69,477.85 688.65,477.75 688.55,477.7C688.46,477.65 688.28,477.62 688.01,477.6C687.72,477.59 687.58,477.58 687.58,477.56C687.58,477.52 687.65,477.42 687.78,477.26C687.91,477.11 687.96,477 687.92,476.94C687.83,476.78 687.65,476.65 687.38,476.53C687.11,476.41 686.83,476.31 686.55,476.23C686.64,476.19 686.76,476.14 686.92,476.06C687.08,475.98 687.17,475.87 687.17,475.74C687.17,475.69 687.08,475.63 686.89,475.58C686.7,475.54 686.64,475.47 686.7,475.38C686.76,475.27 686.79,475.17 686.8,475.1C686.8,475 686.74,474.93 686.61,474.87C686.48,474.82 686.4,474.78 686.38,474.76C686.35,474.72 686.38,474.64 686.49,474.52C686.6,474.4 686.65,474.32 686.63,474.28C686.6,474.22 686.5,474.16 686.35,474.1C686.19,474.03 686.07,473.98 685.99,473.94C686.26,473.86 686.4,473.77 686.4,473.67C686.4,473.63 686.34,473.56 686.23,473.47C686.12,473.37 686.08,473.3 686.12,473.26C686.26,473.15 686.33,473.06 686.33,472.98C686.33,472.88 686.25,472.8 686.08,472.73C685.91,472.66 685.81,472.6 685.77,472.56C686.11,472.42 686.27,472.31 686.27,472.24C686.27,472.18 686.2,472.1 686.05,472C686.13,471.85 686.17,471.74 686.17,471.66C686.18,471.5 686.13,471.41 686.04,471.37C685.94,471.32 685.9,471.3 685.9,471.27C686.17,471.17 686.3,471.07 686.31,470.98C686.31,470.94 686.28,470.9 686.22,470.86C686.15,470.82 686.1,470.78 686.07,470.74C686.27,470.58 686.37,470.46 686.37,470.38C686.37,470.36 686.35,470.34 686.3,470.3C686.25,470.27 686.23,470.24 686.23,470.2C686.34,469.97 686.46,469.73 686.59,469.48C686.73,469.23 686.87,468.96 687.04,468.66C687.21,468.36 687.34,468.18 687.44,468.13C687.53,468.08 687.65,468.05 687.79,468.03C687.54,468.43 687.34,468.88 687.18,469.37C687.02,469.85 686.94,470.27 686.92,470.63C686.87,471.77 687.21,473.06 687.95,474.51C688.69,475.96 689.54,476.7 690.51,476.74C691.29,476.77 691.99,476.39 692.6,475.6C693.21,474.8 693.53,474.05 693.56,473.35C693.59,472.7 693.58,472.11 693.53,471.57C693.49,471.03 693.32,470.49 693.03,469.96C692.74,469.42 692.4,468.79 692.01,468.06C691.62,467.32 691.43,466.71 691.45,466.21C691.5,465.11 691.6,464.17 691.76,463.39C691.91,462.62 692.07,462.02 692.24,461.59C692.4,461.17 692.54,460.82 692.67,460.55C692.8,460.28 692.88,460.06 692.92,459.9C692.97,459.74 692.99,459.57 693,459.37C693.01,459.1 692.99,458.84 692.95,458.57C692.85,458.6 692.75,458.63 692.66,458.67C692.3,458.92 692.14,459.17 692.2,459.42C692.2,459.48 692.26,459.54 692.38,459.6C692.51,459.66 692.55,459.74 692.53,459.83C692.51,459.93 692.45,459.97 692.37,459.98C692.28,459.99 692.2,460 692.11,460.01C692.02,460.02 691.95,460.08 691.9,460.16C691.85,460.24 691.81,460.31 691.79,460.37C691.73,460.37 691.68,460.29 691.64,460.13C691.6,459.98 691.55,459.91 691.49,459.92C690.49,460.16 689.52,461.03 688.57,462.5C687.63,463.98 686.99,464.86 686.65,465.13C686.54,465.14 686.41,465.15 686.28,465.16L685.88,465.16C685.42,465.14 685.2,465.03 685.24,464.82C685.24,464.75 685.26,464.68 685.3,464.62C685.34,464.57 685.38,464.51 685.42,464.45C685.51,464.4 685.72,464.34 686.03,464.27C686.25,464.05 686.45,463.8 686.61,463.53C686.77,463.25 686.95,462.93 687.15,462.59C687.35,462.24 687.48,461.98 687.56,461.79C687.63,461.6 687.67,461.42 687.68,461.25C687.68,461.21 687.6,461.19 687.43,461.18C687.26,461.17 687.18,461.14 687.18,461.08C687.18,461.03 687.25,460.93 687.39,460.79C687.54,460.66 687.67,460.51 687.8,460.36C687.81,460.21 687.82,459.99 687.83,459.7C687.84,459.57 687.83,459.48 687.8,459.44C687.78,459.4 687.68,459.33 687.52,459.23C687.37,459.13 687.28,459.03 687.26,458.93C687.3,458.91 687.34,458.84 687.38,458.72C687.43,458.6 687.47,458.53 687.5,458.54C687.52,458.54 687.63,458.58 687.81,458.66C688,458.74 688.12,458.75 688.18,458.69C688.28,458.6 688.37,458.44 688.46,458.2C688.55,457.97 688.6,457.73 688.61,457.5C688.61,457.38 688.46,457.24 688.14,457.08C687.82,456.91 687.66,456.82 687.66,456.8C687.78,456.74 687.93,456.7 688.13,456.66C688.32,456.62 688.51,456.51 688.7,456.34C688.89,456.17 688.99,455.86 689.01,455.42C689.01,455.34 688.96,455.2 688.86,455.01C688.75,454.82 688.75,454.7 688.84,454.67C689.01,454.63 689.25,454.56 689.55,454.43C689.85,454.3 690.01,454.2 690.01,454.12C690.1,454.18 690.03,454.46 689.8,454.97C689.81,455.06 689.83,455.16 689.84,455.26C690.03,455.27 690.21,455.28 690.38,455.28C690.53,455.24 690.68,455.19 690.82,455.11C690.96,455.03 691.1,454.93 691.24,454.8C691.33,454.86 691.42,454.92 691.52,454.99C691.69,454.9 691.86,454.82 692,454.75C692.15,454.68 692.28,454.56 692.39,454.39C692.5,454.22 692.58,454.14 692.61,454.14C692.79,454.15 692.89,454.18 692.92,454.24C692.95,454.43 692.98,454.63 693.01,454.82C693.11,454.81 693.22,454.76 693.34,454.69C693.47,454.62 693.55,454.58 693.59,454.59C693.61,454.63 693.64,454.66 693.67,454.68C693.71,454.7 693.77,454.71 693.84,454.72C693.8,454.87 693.73,455.06 693.65,455.29C693.56,455.51 693.54,455.63 693.58,455.66C693.67,455.7 693.88,455.56 694.19,455.25C694.51,454.94 694.75,454.85 694.92,454.96C694.95,455 694.93,455.17 694.84,455.47C694.75,455.77 694.73,455.95 694.79,456.01C694.84,456.07 695.11,456.05 695.59,455.96C695.8,455.97 696.01,455.97 696.22,455.96C696.22,456 696.05,456.17 695.72,456.46C695.69,456.54 695.67,456.6 695.65,456.66C695.99,456.79 696.34,456.92 696.69,457.06C697.05,457.2 697.3,457.43 697.43,457.76C697.35,457.79 697.26,457.82 697.17,457.83C696.99,457.82 696.82,457.81 696.65,457.8C696.48,457.78 696.38,457.78 696.36,457.8C696.26,457.93 696.29,458.08 696.46,458.26C696.62,458.44 696.78,458.57 696.91,458.64C697.05,458.71 697.12,458.77 697.12,458.81C697.12,458.93 697.08,459.03 697.02,459.12C696.96,459.21 696.93,459.31 696.92,459.4C697.03,459.44 697.16,459.5 697.3,459.59C697.44,459.67 697.57,459.76 697.7,459.85C697.83,459.94 697.9,460.1 697.91,460.33C697.81,460.42 697.62,460.46 697.36,460.45C697.27,460.45 697.2,460.52 697.18,460.67C697.13,460.9 697.13,461.1 697.19,461.26C697.24,461.42 697.33,461.62 697.48,461.86C697.54,461.96 697.51,462.02 697.4,462.06C697.29,462.09 697.22,462.13 697.18,462.17C697.12,462.22 697.18,462.37 697.36,462.62C697.54,462.87 697.76,463.19 698.01,463.58C697.99,463.66 697.83,463.69 697.55,463.68C697.34,463.67 697.23,463.7 697.2,463.78C697.21,464.01 697.25,464.23 697.34,464.46C697.42,464.68 697.62,464.82 697.92,464.87C698.23,464.93 698.4,465.16 698.45,465.57C698.5,465.98 698.51,466.46 698.49,467.02C698.46,467.63 698.39,468.02 698.24,468.2C698.1,468.38 698.01,468.51 697.96,468.62C697.92,468.72 697.9,468.84 697.89,468.97C697.88,469.12 697.91,469.31 697.98,469.52C697.97,469.69 697.88,469.86 697.7,470.05C697.65,470 697.55,469.8 697.48,469.39ZM704.31,472.45C705.14,472.44 706,472.22 706.69,471.85C707.19,471.58 707.59,472.39 707.06,472.62C705.33,473.44 703.27,473.26 701.67,472.37C699.81,471.33 698.43,472.47 697.78,474.25C698.06,473.43 698.39,472.55 699.16,471.99C699.95,471.4 701.03,471.62 701.84,471.91C702.71,472.22 703.48,472.47 704.31,472.45ZM714.87,453.62L714.28,452.77C714.11,452.54 713.95,452.34 713.8,452.17C713.65,452 713.49,451.83 713.32,451.68C713.25,451.78 713.18,451.88 713.14,451.97C713.1,452.06 713.07,452.15 713.07,452.26C713.03,452.36 713.03,452.52 713.09,452.72C713.15,452.92 713.18,453.04 713.18,453.08C713.23,453.37 713.39,454.09 713.65,455.23C713.92,456.37 714.03,457.19 714,457.69C714,458.2 713.82,458.85 713.46,459.63C713.1,460.42 712.77,461.05 712.48,461.52C712.2,461.99 712.04,462.29 712.01,462.44C711.98,462.59 711.96,462.78 711.94,463.03C711.97,463.17 712.13,463.32 712.42,463.47C712.72,463.62 713.02,463.78 713.33,463.96C713.64,464.14 713.79,464.33 713.78,464.51C713.77,464.61 713.7,464.79 713.58,465.04C713.47,465 713.38,464.97 713.29,464.97C713.2,464.96 713.07,464.95 712.88,464.94C712.59,464.92 712.42,464.91 712.34,464.93C712.27,464.94 712.11,465.08 711.88,465.33C711.64,465.59 711.43,465.71 711.26,465.7C711.19,465.69 710.99,465.57 710.66,465.31C710.33,465.05 710.13,464.92 710.06,464.91C709.88,464.9 709.62,465.01 709.28,465.23C708.92,465.21 708.75,465.05 708.77,464.76C708.9,464.44 709.08,464.21 709.31,464.04C709.54,463.87 709.79,463.66 710.07,463.39C710.35,462.98 710.27,462.63 709.82,462.34C709.04,462.07 708.55,462 708.36,462.13C707.69,462.48 706.95,462.63 706.15,462.57L704.85,462.48C704.84,462.55 704.8,462.64 704.72,462.74C704.64,462.84 704.57,463 704.5,463.21C704.43,463.43 704.45,463.59 704.54,463.7C704.74,463.93 704.87,464.3 704.9,464.81C704.91,465.1 704.69,465.23 704.22,465.2C704.02,464.97 703.82,464.76 703.61,464.57C703.55,464.49 703.43,464.46 703.26,464.49C703.1,464.52 702.98,464.54 702.9,464.58C702.82,464.61 702.69,464.71 702.5,464.87C702.31,465.04 702.15,465.06 702.01,464.94C701.92,464.71 701.84,464.51 701.75,464.32C701.67,464.14 701.57,464 701.43,463.92C701.29,463.84 701.14,463.81 700.97,463.84C700.81,463.87 700.65,463.93 700.5,464.02C700.29,463.97 700.27,463.72 700.44,463.26C700.53,463.05 700.84,462.88 701.37,462.75C701.91,462.62 702.32,462.6 702.63,462.67C702.93,462.74 703.1,462.55 703.13,462.08C703.23,461.76 703.14,461.5 702.89,461.3C702.63,461.1 702.36,460.71 702.1,460.13C701.83,459.55 701.67,458.96 701.62,458.36C701.57,457.76 701.58,457.03 701.64,456.16C701.74,454.69 701.92,453.23 702.17,451.8C702.04,451.61 701.89,451.42 701.72,451.23C701.51,451.54 701.26,451.94 700.96,452.42C700.65,452.9 700.45,453.31 700.36,453.63C700.26,453.95 700.19,454.25 700.13,454.54C700.07,454.82 700.06,455.07 700.08,455.3C700.06,455.48 700.11,455.74 700.21,456.1C700.32,456.45 700.36,456.73 700.34,456.95C700.33,457.06 700.15,457.1 699.79,457.07C699.54,457.09 699.38,456.89 699.32,456.47C699.26,456.05 699.24,455.64 699.27,455.24C699.28,455.13 699.26,455 699.22,454.85C699.18,454.71 699.17,454.51 699.18,454.25C699.3,452.56 699.52,451.26 699.84,450.36C700.16,449.46 700.74,448.48 701.55,447.41L703.15,445.24C704,444.32 704.73,443.52 705.35,442.81C705.98,442.11 706.34,441.44 706.45,440.8L706.49,440.26C706.52,439.86 706.5,439.56 706.42,439.36C706.34,439.16 706.13,438.86 705.8,438.48C705.71,438.19 705.56,437.95 705.33,437.8C705.11,437.64 704.61,437.31 703.85,436.83L703.88,436.34C704.2,436.44 704.55,436.51 704.94,436.58C705.33,436.64 705.77,436.69 706.27,436.73C707.02,436.78 707.67,436.74 708.24,436.59C708.81,436.45 709.23,436.39 709.51,436.41C709.83,436.43 710.16,436.55 710.51,436.78C710.85,437 711.14,437.23 711.4,437.47C711.65,437.7 711.81,438 711.9,438.34C711.98,438.69 712.01,439.1 711.98,439.57C711.97,439.78 711.94,440.13 711.91,440.6C711.88,441.06 711.85,441.42 711.83,441.68C711.81,441.97 711.82,442.27 711.85,442.58C711.88,442.89 712.01,443.37 712.21,444.02C712.42,444.67 712.67,445.26 712.98,445.81C713.28,446.36 713.66,446.98 714.1,447.68C714.54,448.38 714.92,449.15 715.24,449.98C715.56,450.82 715.76,451.35 715.84,451.59C715.91,451.83 716.07,452.63 716.3,453.99L716.46,454.76L716.58,456.07C716.23,455.9 716.01,455.77 715.93,455.67C715.85,455.57 715.68,455.3 715.45,454.85C715.22,454.41 715.02,453.99 714.87,453.62ZM718.13,468.31C714.2,464.67 716.7,458.28 716.7,458.28C721.66,464.94 718.01,468.27 718.13,468.31Z" style="fill-rule:nonzero;"/>
                </g>
                <g transform="matrix(0.796763,0,0,0.77299,-501.294,-295.236)">
                    <path d="M722.35,426.64C721.2,428.37 720.46,430.4 720.11,432.69C719.55,436.39 719.38,440.1 719.37,443.83C719.35,450.47 719.54,457.09 720.86,463.62C721.21,465.37 721.56,467.13 722.23,468.84C722.45,468.71 722.65,468.58 722.86,468.44C727.14,462.7 729.68,455.58 729.68,447.87C729.68,439.85 726.94,432.49 722.35,426.64Z" style="fill-rule:nonzero;"/>
                </g>
                <g transform="matrix(0.796763,0,0,0.77299,-501.294,-295.236)">
                    <path d="M673.62,456.15C673.28,455.72 673.41,455.1 673.91,454.87C674.67,454.53 674.72,454.67 676.53,454.28C679.95,453.55 680.21,463.99 680.21,463.99C680.21,463.99 681.22,462.2 682.16,459.16C683.1,456.12 686.47,455.34 686.47,455.34C686.47,455.34 685.57,455.05 683.33,455.15C680.91,455.26 681.33,450.65 681.21,449.8C681.09,448.95 684.37,449.31 684.37,449.31C691.86,452.08 701.17,441.97 703.14,439.33C703.2,439.25 703.1,439.17 703.03,439.23C701.52,440.55 695.93,444.44 688.47,442.18C674.12,436.58 677.07,448.71 677.07,448.71L674.47,447.37L675.26,450.53C675.26,450.53 671.71,450.29 667.82,450.53C663.99,450.74 666.37,464.25 667.03,467.64C668.11,469.17 669.3,470.61 670.61,471.95C671.3,471.02 672.27,469.69 673.67,467.8C677.69,462.39 675,457.88 673.62,456.15Z" style="fill-rule:nonzero;"/>
                </g>
                <g transform="matrix(0.796763,0,0,0.77299,-501.294,-295.236)">
                    <path d="M716.59,456.07L716.47,454.76L716.31,453.99C716.08,452.63 715.93,451.83 715.85,451.59C715.77,451.35 715.58,450.81 715.25,449.98C714.93,449.15 714.55,448.37 714.11,447.68C713.67,446.98 713.3,446.35 712.99,445.81C712.68,445.26 712.42,444.67 712.22,444.02C712.01,443.37 711.89,442.89 711.86,442.58C711.83,442.27 711.82,441.97 711.84,441.68C711.86,441.42 711.88,441.06 711.92,440.6C711.95,440.13 711.98,439.79 711.99,439.57C711.99,439.57 712.02,439.1 711.99,438.69C712.01,438.69 711.99,438.69 711.98,438.69C711.98,438.34 711.82,437.99 711.65,437.7C711.81,437.7 711.9,438 711.9,438.34C711.98,438.69 712.01,439.1 711.98,439.57C711.97,439.78 711.94,440.13 711.91,440.6C711.88,441.06 711.85,441.42 711.83,441.68C711.81,441.97 711.82,442.27 711.85,442.58C711.88,442.89 712.01,443.37 712.21,444.02C712.42,444.67 712.67,445.26 712.98,445.81C713.28,446.36 713.66,446.98 714.1,447.68C714.54,448.38 714.92,449.15 715.24,449.98C715.56,450.82 715.76,451.35 715.84,451.59C715.91,451.83 716.07,452.63 716.3,453.99L716.46,454.76L716.58,456.07C716.23,455.9 716.01,455.77 715.93,455.67C715.85,455.57 715.68,455.3 715.45,454.85C715.22,454.41 715.02,453.99 714.87,453.62ZM714.67,438.05C714.66,438.08 714.66,438.1 714.65,438.13C714.59,438.66 714.76,442.17 716.38,445.36C718.14,448.83 717.5,448.78 717.5,448.78C717.5,448.78 713.05,444.05 714.65,438.13C714.66,438.08 714.66,438.05 714.67,438.05ZM715.11,426.67C714.93,428.34 714.3,432.77 711.3,434.39C707.9,436.22 707.88,435.26 707.88,435.26C707.88,435.26 713.4,433.45 715.11,426.67ZM699.24,447.06C697.16,451.16 694.61,450.17 694.62,450.23C695.46,447.39 699.24,447.06 699.24,447.06ZM693.83,450.85C690.3,453.8 688.35,451.88 688.33,451.94C690.23,449.66 693.83,450.85 693.83,450.85ZM697.48,469.39C697.41,468.98 697.36,468.7 697.32,468.51C697.29,468.33 697.12,468.23 696.83,468.22C696.74,468.22 696.62,468.23 696.49,468.25C696.35,468.27 696.28,468.35 696.28,468.49C696.28,468.59 696.29,468.77 696.31,469.03C696.33,469.07 696.45,469.08 696.68,469.08C696.81,469.1 696.94,469.12 697.06,469.13C697.06,469.18 696.96,469.3 696.76,469.46C696.56,469.62 696.44,469.75 696.4,469.82C696.53,469.87 696.65,469.91 696.77,469.95C697.04,469.98 697.17,470.02 697.17,470.05C697.17,470.11 697.04,470.17 696.79,470.24C696.54,470.31 696.39,470.39 696.35,470.51C696.52,470.61 696.67,470.71 696.82,470.79C696.86,470.85 696.81,470.91 696.67,470.97C696.53,471.03 696.4,471.1 696.26,471.2C696.28,471.26 696.38,471.31 696.58,471.35C696.78,471.4 696.97,471.43 697.14,471.46C697.13,471.59 696.98,471.72 696.68,471.81C696.38,471.91 696.21,471.99 696.17,472.05C696.07,472.16 696.12,472.26 696.34,472.36C696.56,472.45 696.68,472.56 696.72,472.67C696.72,472.73 696.71,472.79 696.72,472.85C696.73,472.91 696.7,472.94 696.64,472.96C696.58,472.98 696.48,472.97 696.33,472.92C696.18,472.87 696.08,472.87 696.04,472.91C695.94,473 695.88,473.23 695.86,473.59L696,473.71C695.88,473.8 695.76,473.9 695.64,473.98C695.64,474 695.61,474.08 695.56,474.22C695.51,474.36 695.48,474.47 695.47,474.55C695.6,474.69 695.73,474.82 695.86,474.94C695.89,475.04 695.87,475.17 695.81,475.34C695.77,475.34 695.64,475.3 695.42,475.23C695.2,475.15 695.08,475.13 695.04,475.17C694.98,475.22 694.95,475.32 694.94,475.48C694.93,475.65 694.94,475.89 694.96,476.2C694.89,476.2 694.75,476.17 694.57,476.11C694.38,476.05 694.26,476.05 694.22,476.11C694.16,476.3 694.13,476.43 694.15,476.51C694.16,476.63 694.23,476.75 694.36,476.89C694.49,477.03 694.55,477.15 694.55,477.27C694.48,477.27 694.39,477.26 694.29,477.26C694.1,477.17 693.98,477.15 693.92,477.19C693.88,477.21 693.86,477.31 693.85,477.5C693.8,477.5 693.73,477.51 693.65,477.52C693.63,477.46 693.6,477.4 693.55,477.33C693.49,477.26 693.42,477.23 693.32,477.22C693.17,477.21 693.08,477.3 693.05,477.46C693.03,477.63 693.01,477.81 693,477.98C692.98,478 692.86,477.92 692.65,477.75C692.44,477.58 692.32,477.5 692.3,477.52C692.28,477.54 692.33,477.68 692.45,477.94C692.57,478.2 692.62,478.34 692.6,478.36C692.56,478.38 692.45,478.35 692.27,478.26C692.09,478.18 691.98,478.16 691.91,478.19C691.85,478.25 691.8,478.39 691.75,478.62C691.7,478.84 691.66,478.96 691.62,478.96C691.52,478.96 691.45,478.84 691.41,478.61C691.36,478.38 691.32,478.24 691.28,478.2C691.11,478.19 690.93,478.2 690.74,478.21C690.68,478.21 690.63,478.34 690.58,478.62C690.53,478.89 690.49,479.03 690.45,479.03C690.39,479.03 690.34,478.96 690.31,478.82C690.28,478.68 690.24,478.54 690.21,478.39C689.98,478.38 689.84,478.4 689.78,478.47C689.72,478.53 689.63,478.63 689.52,478.78C689.41,478.92 689.3,478.98 689.21,478.98C689.32,478.79 689.4,478.61 689.47,478.43C689.53,478.25 689.55,478.13 689.52,478.07C689.39,477.95 689.26,477.91 689.12,477.94C689.02,477.98 688.95,478.03 688.88,478.11C688.82,478.18 688.76,478.26 688.7,478.33L688.7,477.99C688.69,477.85 688.65,477.75 688.55,477.7C688.46,477.65 688.28,477.62 688.01,477.6C687.72,477.59 687.58,477.58 687.58,477.56C687.58,477.52 687.65,477.42 687.78,477.26C687.91,477.11 687.96,477 687.92,476.94C687.83,476.78 687.65,476.65 687.38,476.53C687.11,476.41 686.83,476.31 686.55,476.23C686.64,476.19 686.76,476.14 686.92,476.06C687.08,475.98 687.17,475.87 687.17,475.74C687.17,475.69 687.08,475.63 686.89,475.58C686.7,475.54 686.64,475.47 686.7,475.38C686.76,475.27 686.79,475.17 686.8,475.1C686.8,475 686.74,474.93 686.61,474.87C686.48,474.82 686.4,474.78 686.38,474.76C686.35,474.72 686.38,474.64 686.49,474.52C686.6,474.4 686.65,474.32 686.63,474.28C686.6,474.22 686.5,474.16 686.35,474.1C686.19,474.03 686.07,473.98 685.99,473.94C686.26,473.86 686.4,473.77 686.4,473.67C686.4,473.63 686.34,473.56 686.23,473.47C686.12,473.37 686.08,473.3 686.12,473.26C686.26,473.15 686.33,473.06 686.33,472.98C686.33,472.88 686.25,472.8 686.08,472.73C685.91,472.66 685.81,472.6 685.77,472.56C686.11,472.42 686.27,472.31 686.27,472.24C686.27,472.18 686.2,472.1 686.05,472C686.13,471.85 686.17,471.74 686.17,471.66C686.18,471.5 686.13,471.41 686.04,471.37C685.94,471.32 685.9,471.3 685.9,471.27C686.17,471.17 686.3,471.07 686.31,470.98C686.31,470.94 686.28,470.9 686.22,470.86C686.15,470.82 686.1,470.78 686.07,470.74C686.27,470.58 686.37,470.46 686.37,470.38C686.37,470.36 686.35,470.34 686.3,470.3C686.25,470.27 686.23,470.24 686.23,470.2C686.34,469.97 686.46,469.73 686.59,469.48C686.73,469.23 686.87,468.96 687.04,468.66C687.21,468.36 687.34,468.18 687.44,468.13C687.53,468.08 687.65,468.05 687.79,468.03C687.54,468.43 687.34,468.88 687.18,469.37C687.02,469.85 686.94,470.27 686.92,470.63C686.87,471.77 687.21,473.06 687.95,474.51C688.69,475.96 689.54,476.7 690.51,476.74C691.29,476.77 691.99,476.39 692.6,475.6C693.21,474.8 693.53,474.05 693.56,473.35C693.59,472.7 693.58,472.11 693.53,471.57C693.49,471.03 693.32,470.49 693.03,469.96C692.74,469.42 692.4,468.79 692.01,468.06C691.62,467.32 691.43,466.71 691.45,466.21C691.5,465.11 691.6,464.17 691.76,463.39C691.91,462.62 692.07,462.02 692.24,461.59C692.4,461.17 692.54,460.82 692.67,460.55C692.8,460.28 692.88,460.06 692.92,459.9C692.97,459.74 692.99,459.57 693,459.37C693.01,459.1 692.99,458.84 692.95,458.57C692.85,458.6 692.75,458.63 692.66,458.67C692.3,458.92 692.14,459.17 692.2,459.42C692.2,459.48 692.26,459.54 692.38,459.6C692.51,459.66 692.55,459.74 692.53,459.83C692.51,459.93 692.45,459.97 692.37,459.98C692.28,459.99 692.2,460 692.11,460.01C692.02,460.02 691.95,460.08 691.9,460.16C691.85,460.24 691.81,460.31 691.79,460.37C691.73,460.37 691.68,460.29 691.64,460.13C691.6,459.98 691.55,459.91 691.49,459.92C690.49,460.16 689.52,461.03 688.57,462.5C687.63,463.98 686.99,464.86 686.65,465.13C686.54,465.14 686.41,465.15 686.28,465.16L685.88,465.16C685.42,465.14 685.2,465.03 685.24,464.82C685.24,464.75 685.26,464.68 685.3,464.62C685.34,464.57 685.38,464.51 685.42,464.45C685.51,464.4 685.72,464.34 686.03,464.27C686.25,464.05 686.45,463.8 686.61,463.53C686.77,463.25 686.95,462.93 687.15,462.59C687.35,462.24 687.48,461.98 687.56,461.79C687.63,461.6 687.67,461.42 687.68,461.25C687.68,461.21 687.6,461.19 687.43,461.18C687.26,461.17 687.18,461.14 687.18,461.08C687.18,461.03 687.25,460.93 687.39,460.79C687.54,460.66 687.67,460.51 687.8,460.36C687.81,460.21 687.82,459.99 687.83,459.7C687.84,459.57 687.83,459.48 687.8,459.44C687.78,459.4 687.68,459.33 687.52,459.23C687.37,459.13 687.28,459.03 687.26,458.93C687.3,458.91 687.34,458.84 687.38,458.72C687.43,458.6 687.47,458.53 687.5,458.54C687.52,458.54 687.63,458.58 687.81,458.66C688,458.74 688.12,458.75 688.18,458.69C688.28,458.6 688.37,458.44 688.46,458.2C688.55,457.97 688.6,457.73 688.61,457.5C688.61,457.38 688.46,457.24 688.14,457.08C687.82,456.91 687.66,456.82 687.66,456.8C687.78,456.74 687.93,456.7 688.13,456.66C688.32,456.62 688.51,456.51 688.7,456.34C688.89,456.17 688.99,455.86 689.01,455.42C689.01,455.34 688.96,455.2 688.86,455.01C688.75,454.82 688.75,454.7 688.84,454.67C689.01,454.63 689.25,454.56 689.55,454.43C689.85,454.3 690.01,454.2 690.01,454.12C690.1,454.18 690.03,454.46 689.8,454.97C689.81,455.06 689.83,455.16 689.84,455.26C690.03,455.27 690.21,455.28 690.38,455.28C690.53,455.24 690.68,455.19 690.82,455.11C690.96,455.03 691.1,454.93 691.24,454.8C691.33,454.86 691.42,454.92 691.52,454.99C691.69,454.9 691.86,454.82 692,454.75C692.15,454.68 692.28,454.56 692.39,454.39C692.5,454.22 692.58,454.14 692.61,454.14C692.79,454.15 692.89,454.18 692.92,454.24C692.95,454.43 692.98,454.63 693.01,454.82C693.11,454.81 693.22,454.76 693.34,454.69C693.47,454.62 693.55,454.58 693.59,454.59C693.61,454.63 693.64,454.66 693.67,454.68C693.71,454.7 693.77,454.71 693.84,454.72C693.8,454.87 693.73,455.06 693.65,455.29C693.56,455.51 693.54,455.63 693.58,455.66C693.67,455.7 693.88,455.56 694.19,455.25C694.51,454.94 694.75,454.85 694.92,454.96C694.95,455 694.93,455.17 694.84,455.47C694.75,455.77 694.73,455.95 694.79,456.01C694.84,456.07 695.11,456.05 695.59,455.96C695.8,455.97 696.01,455.97 696.22,455.96C696.22,456 696.05,456.17 695.72,456.46C695.69,456.54 695.67,456.6 695.65,456.66C695.99,456.79 696.34,456.92 696.69,457.06C697.05,457.2 697.3,457.43 697.43,457.76C697.35,457.79 697.26,457.82 697.17,457.83C696.99,457.82 696.82,457.81 696.65,457.8C696.48,457.78 696.38,457.78 696.36,457.8C696.26,457.93 696.29,458.08 696.46,458.26C696.62,458.44 696.78,458.57 696.91,458.64C697.05,458.71 697.12,458.77 697.12,458.81C697.12,458.93 697.08,459.03 697.02,459.12C696.96,459.21 696.93,459.31 696.92,459.4C697.03,459.44 697.16,459.5 697.3,459.59C697.44,459.67 697.57,459.76 697.7,459.85C697.83,459.94 697.9,460.1 697.91,460.33C697.81,460.42 697.62,460.46 697.36,460.45C697.27,460.45 697.2,460.52 697.18,460.67C697.13,460.9 697.13,461.1 697.19,461.26C697.24,461.42 697.33,461.62 697.48,461.86C697.54,461.96 697.51,462.02 697.4,462.06C697.29,462.09 697.22,462.13 697.18,462.17C697.12,462.22 697.18,462.37 697.36,462.62C697.54,462.87 697.76,463.19 698.01,463.58C697.99,463.66 697.83,463.69 697.55,463.68C697.34,463.67 697.23,463.7 697.2,463.78C697.21,464.01 697.25,464.23 697.34,464.46C697.42,464.68 697.62,464.82 697.92,464.87C698.23,464.93 698.4,465.16 698.45,465.57C698.5,465.98 698.51,466.46 698.49,467.02C698.46,467.63 698.39,468.02 698.24,468.2C698.1,468.38 698.01,468.51 697.96,468.62C697.92,468.72 697.9,468.84 697.89,468.97C697.88,469.12 697.91,469.31 697.98,469.52C697.97,469.69 697.88,469.86 697.7,470.05C697.65,470 697.55,469.8 697.48,469.39ZM704.31,472.45C705.14,472.44 706,472.22 706.69,471.85C707.19,471.58 707.59,472.39 707.06,472.62C705.33,473.44 703.27,473.26 701.67,472.37C699.81,471.33 698.43,472.47 697.78,474.25C698.06,473.43 698.39,472.55 699.16,471.99C699.95,471.4 701.03,471.62 701.84,471.91C702.71,472.22 703.48,472.47 704.31,472.45ZM714.87,453.62L714.28,452.77C714.11,452.54 713.95,452.34 713.8,452.17C713.65,452 713.49,451.83 713.32,451.68C713.25,451.78 713.18,451.88 713.14,451.97C713.1,452.06 713.07,452.15 713.07,452.26C713.03,452.36 713.03,452.52 713.09,452.72C713.15,452.92 713.18,453.04 713.18,453.08C713.23,453.37 713.39,454.09 713.65,455.23C713.92,456.37 714.03,457.19 714,457.69C714,458.2 713.82,458.85 713.46,459.63C713.1,460.42 712.77,461.05 712.48,461.52C712.2,461.99 712.04,462.29 712.01,462.44C711.98,462.59 711.96,462.78 711.94,463.03C711.97,463.17 712.13,463.32 712.42,463.47C712.72,463.62 713.02,463.78 713.33,463.96C713.64,464.14 713.79,464.33 713.78,464.51C713.77,464.61 713.7,464.79 713.58,465.04C713.47,465 713.38,464.97 713.29,464.97C713.2,464.96 713.07,464.95 712.88,464.94C712.59,464.92 712.42,464.91 712.34,464.93C712.27,464.94 712.11,465.08 711.88,465.33C711.64,465.59 711.43,465.71 711.26,465.7C711.19,465.69 710.99,465.57 710.66,465.31C710.33,465.05 710.13,464.92 710.06,464.91C709.88,464.9 709.62,465.01 709.28,465.23C708.92,465.21 708.75,465.05 708.77,464.76C708.9,464.44 709.08,464.21 709.31,464.04C709.54,463.87 709.79,463.66 710.07,463.39C710.35,462.98 710.27,462.63 709.82,462.34C709.04,462.07 708.55,462 708.36,462.13C707.69,462.48 706.95,462.63 706.15,462.57L704.85,462.48C704.84,462.55 704.8,462.64 704.72,462.74C704.64,462.84 704.57,463 704.5,463.21C704.43,463.43 704.45,463.59 704.54,463.7C704.74,463.93 704.87,464.3 704.9,464.81C704.91,465.1 704.69,465.23 704.22,465.2C704.02,464.97 703.82,464.76 703.61,464.57C703.55,464.49 703.43,464.46 703.26,464.49C703.1,464.52 702.98,464.54 702.9,464.58C702.82,464.61 702.69,464.71 702.5,464.87C702.31,465.04 702.15,465.06 702.01,464.94C701.92,464.71 701.84,464.51 701.75,464.32C701.67,464.14 701.57,464 701.43,463.92C701.29,463.84 701.14,463.81 700.97,463.84C700.81,463.87 700.65,463.93 700.5,464.02C700.29,463.97 700.27,463.72 700.44,463.26C700.53,463.05 700.84,462.88 701.37,462.75C701.91,462.62 702.32,462.6 702.63,462.67C702.93,462.74 703.1,462.55 703.13,462.08C703.23,461.76 703.14,461.5 702.89,461.3C702.63,461.1 702.36,460.71 702.1,460.13C701.83,459.55 701.67,458.96 701.62,458.36C701.57,457.76 701.58,457.03 701.64,456.16C701.74,454.69 701.92,453.23 702.17,451.8C702.04,451.61 701.89,451.42 701.72,451.23C701.51,451.54 701.26,451.94 700.96,452.42C700.65,452.9 700.45,453.31 700.36,453.63C700.26,453.95 700.19,454.25 700.13,454.54C700.07,454.82 700.06,455.07 700.08,455.3C700.06,455.48 700.11,455.74 700.21,456.1C700.32,456.45 700.36,456.73 700.34,456.95C700.33,457.06 700.15,457.1 699.79,457.07C699.54,457.09 699.38,456.89 699.32,456.47C699.26,456.05 699.24,455.64 699.27,455.24C699.28,455.13 699.26,455 699.22,454.85C699.18,454.71 699.17,454.51 699.18,454.25C699.3,452.56 699.52,451.26 699.84,450.36C700.16,449.46 700.74,448.48 701.55,447.41L703.15,445.24C704,444.32 704.73,443.52 705.35,442.81C705.98,442.11 706.34,441.44 706.45,440.8L706.49,440.26C706.52,439.86 706.5,439.56 706.42,439.36C706.34,439.16 706.13,438.86 705.8,438.48C705.71,438.19 705.56,437.95 705.33,437.8C705.11,437.64 704.61,437.31 703.85,436.83L703.88,436.34C704.2,436.44 704.55,436.51 704.94,436.58C705.33,436.64 705.77,436.69 706.27,436.73C707.02,436.78 707.67,436.74 708.24,436.59C708.81,436.45 709.23,436.39 709.51,436.41C709.83,436.43 710.16,436.55 710.51,436.78C710.85,437 711.14,437.23 711.4,437.47C711.65,437.7 711.81,438 711.9,438.34C711.98,438.69 712.01,439.1 711.98,439.57C711.97,439.78 711.94,440.13 711.91,440.6C711.88,441.06 711.85,441.42 711.83,441.68C711.81,441.97 711.82,442.27 711.85,442.58C711.88,442.89 712.01,443.37 712.21,444.02C712.42,444.67 712.67,445.26 712.98,445.81C713.28,446.36 713.66,446.98 714.1,447.68C714.54,448.38 714.92,449.15 715.24,449.98C715.56,450.82 715.76,451.35 715.84,451.59C715.91,451.83 716.07,452.63 716.3,453.99L716.46,454.76L716.58,456.07C716.23,455.9 716.01,455.77 715.93,455.67C715.85,455.57 715.68,455.3 715.45,454.85C715.22,454.41 715.02,453.99 714.87,453.62ZM718.13,468.31C714.2,464.67 716.7,458.28 716.7,458.28C721.66,464.94 718.01,468.27 718.13,468.31Z" style="fill-rule:nonzero;"/>
                </g>
                <g transform="matrix(0.796763,0,0,0.77299,-501.294,-295.236)">
                    <path d="M697.59,419.2C697.2,419.14 696.81,419.13 696.42,419.16C696.81,419.14 697.21,419.14 697.59,419.2Z" style="fill-rule:nonzero;"/>
                </g>
                <g transform="matrix(0.796763,0,0,0.77299,-501.294,-295.236)">
                    <path d="M709.12,419.79C706.65,419.57 704.59,419.47 702.94,419.48C701.29,419.49 699.18,419.91 696.61,420.73C695.16,421.19 693.83,421.79 692.64,422.51C691.44,423.23 690.44,424.03 689.63,424.91C688.84,425.79 688.35,426.25 688.19,426.28C688.03,426.31 687.91,426.36 687.83,426.43C687.97,425.39 688.04,424.45 688.06,423.58C688.07,422.72 687.96,421.89 687.71,421.1C687.35,419.96 686.55,418.89 685.31,417.89C684.08,416.89 683,416.55 682.06,416.85C681.41,417.06 680.85,417.5 680.38,418.18C679.91,418.86 679.62,419.56 679.51,420.29C679.53,420.68 679.54,421.07 679.52,421.48C679.5,421.89 679.4,422.24 679.21,422.52C679.02,422.8 678.87,423.07 678.76,423.31C678.66,423.55 678.53,423.84 678.37,424.16C678.21,424.48 678.09,424.79 677.98,425.09C677.88,425.4 677.83,425.65 677.82,425.85C678.23,425.66 678.56,425.52 678.82,425.39C679.07,425.27 679.31,425.02 679.52,424.63C679.73,424.24 680.05,423.84 680.5,423.45C680.95,423.05 681.43,422.76 681.95,422.59C682.29,422.48 682.79,422.38 683.46,422.29C684.13,422.19 684.57,422.15 684.77,422.16C684.97,422.17 685.04,422.3 685,422.53C684.95,422.77 684.9,422.96 684.85,423.13C683.81,424.64 683.11,426.11 682.75,427.52C682.39,428.93 682.36,430.11 682.66,431.04C683.48,433.61 685.22,435.23 687.87,435.92C690.52,436.6 693.27,436.72 696.14,436.3C699.01,435.87 701.61,435.29 703.93,434.54C705.02,434.19 706.13,433.56 707.26,432.65C708.39,431.75 709.42,430.67 710.36,429.41C711.3,428.15 712.06,426.9 712.65,425.66C713.24,424.42 713.81,423.64 714.38,423.31C714.94,422.98 715.58,422.5 716.3,421.87C716.58,421.62 716.8,421.38 717,421.14C716.27,420.55 715.52,419.99 714.75,419.45L714.4,419.57C713.36,419.95 711.6,420 709.12,419.79Z" style="fill-rule:nonzero;"/>
                </g>
                <g transform="matrix(0.796763,0,0,0.77299,-501.294,-295.236)">
                    <path d="M668.58,432.37C668.58,432.37 667.45,439.95 672.07,443.89C670.49,441.39 670.97,438.05 670.97,438.05C672.73,439.55 673.6,440.92 674.01,442.08C674.13,439.84 673.29,436.39 668.58,432.37Z" style="fill-rule:nonzero;"/>
                </g>
                <g transform="matrix(0.796763,0,0,0.77299,-501.294,-295.236)">
                    <path d="M672.85,422.21C672.85,422.21 667.4,426.06 668.64,431.12C668.56,431.03 673.32,430.28 672.85,422.21Z" style="fill-rule:nonzero;"/>
                </g>
                <g transform="matrix(0.796763,0,0,0.77299,-501.294,-295.236)">
                    <path d="M673.86,427.42C673.86,427.42 671.62,433.13 675.14,436.4C675.04,436.36 678.31,433.37 673.86,427.42Z" style="fill-rule:nonzero;"/>
                </g>
                <g transform="matrix(0.796763,0,0,0.77299,-501.294,-295.236)">
                    <path d="M716.69,458.28C716.69,458.28 714.19,464.67 718.12,468.31C718.01,468.27 721.66,464.94 716.69,458.28Z" style="fill-rule:nonzero;"/>
                </g>
                <g transform="matrix(0.796763,0,0,0.77299,-501.294,-295.236)">
                    <path d="M693.83,450.85C693.83,450.85 690.23,449.66 688.33,451.94C688.35,451.87 690.31,453.79 693.83,450.85Z" style="fill-rule:nonzero;"/>
                </g>
                <g transform="matrix(0.796763,0,0,0.77299,-501.294,-295.236)">
                    <path d="M699.24,447.06C699.24,447.06 695.46,447.39 694.62,450.23C694.6,450.17 697.16,451.16 699.24,447.06Z" style="fill-rule:nonzero;"/>
                </g>
                <g transform="matrix(0.796763,0,0,0.77299,-501.294,-295.236)">
                    <path d="M680.13,427.45C680.13,427.45 676.74,429.03 676.93,431.95C676.89,431.89 679.59,431.95 680.13,427.45Z" style="fill-rule:nonzero;"/>
                </g>
                <g transform="matrix(0.796763,0,0,0.77299,-501.294,-295.236)">
                    <path d="M677.29,433.69C677.29,433.69 679.13,437.66 682.54,437.46C682.47,437.5 682.55,434.34 677.29,433.69Z" style="fill-rule:nonzero;"/>
                </g>
                <g transform="matrix(0.796763,0,0,0.77299,-501.294,-295.236)">
                    <path d="M675.82,442.69C675.77,442.66 677.78,441.35 675.92,437.78C675.92,437.78 674.22,440.64 675.82,442.69Z" style="fill-rule:nonzero;"/>
                </g>
                <g transform="matrix(0.796763,0,0,0.77299,-501.294,-295.236)">
                    <path d="M717.5,448.78C717.5,448.78 718.13,448.83 716.38,445.36C714.76,442.17 714.59,438.66 714.65,438.13C713.05,444.05 717.5,448.78 717.5,448.78Z" style="fill-rule:nonzero;"/>
                </g>
                <g transform="matrix(0.796763,0,0,0.77299,-501.294,-295.236)">
                    <path d="M714.65,438.13C714.66,438.1 714.66,438.08 714.67,438.05C714.66,438.05 714.66,438.08 714.65,438.13Z" style="fill-rule:nonzero;"/>
                </g>
                <g transform="matrix(0.796763,0,0,0.77299,-501.294,-295.236)">
                    <path d="M718.65,446C718.65,446 715.53,436.28 720.06,426.56C720.01,426.66 712.94,437.76 717.57,444.34C717.9,446 718.65,446 718.65,446Z" style="fill-rule:nonzero;"/>
                </g>
                <g transform="matrix(0.796763,0,0,0.77299,-501.294,-295.236)">
                    <path d="M711.3,434.39C714.3,432.77 714.92,428.33 715.11,426.67C713.4,433.46 707.89,435.26 707.89,435.26C707.89,435.26 707.91,436.22 711.3,434.39Z" style="fill-rule:nonzero;"/>
                </g>
                <g transform="matrix(0.796763,0,0,0.77299,-501.294,-295.236)">
                    <path d="M716.3,426.4C716.21,430.82 714.51,432.37 714.51,432.37C716.51,431.69 716.45,427.52 717.75,425.05C718.17,424.25 718.77,423.66 719.29,423.21C719.08,423.01 718.87,422.81 718.66,422.61C717.59,423.26 716.34,424.43 716.3,426.4Z" style="fill-rule:nonzero;"/>
                </g>
                <g transform="matrix(0.796763,0,0,0.77299,-501.294,-295.236)">
                    <path d="M697.77,413.52C697.28,413.48 696.78,413.46 696.28,413.44C696.85,413.85 697.44,414.1 698.04,414.19L697.77,413.52Z" style="fill-rule:nonzero;"/>
                </g>
                <g transform="matrix(0.796763,0,0,0.77299,-501.294,-295.236)">
                    <path d="M664.62,448.94C664.81,448.25 665.42,447.76 666.13,447.7C667.54,447.58 669.95,447.42 671.61,447.46C672.09,447.47 672.33,446.9 671.99,446.57C667.9,442.58 666.08,436.56 665.38,430.71C662.48,435.76 660.81,441.61 660.81,447.85C660.81,453.18 662.02,458.22 664.18,462.72C664.27,462.62 664.33,462.49 664.3,462.32C663.13,455.76 664.05,451 664.62,448.94Z" style="fill-rule:nonzero;"/>
                </g>
                <g transform="matrix(0.796763,0,0,0.77299,-501.294,-295.236)">
                    <path d="M698.03,414.19C697.43,414.11 696.84,413.86 696.27,413.44C695.92,413.43 695.58,413.41 695.23,413.41C690.49,413.41 685.98,414.37 681.87,416.1C689.44,414.94 698.23,415.54 706.02,415.14C703.39,414.27 700.63,413.72 697.76,413.51L698.03,414.19Z" style="fill-rule:nonzero;"/>
                </g>
                <g transform="matrix(0.796763,0,0,0.77299,-501.294,-295.236)">
                    <path d="M677.82,463.64C676.88,463.64 676.12,464.4 676.12,465.34C676.12,466.28 676.88,467.04 677.82,467.04C678.76,467.04 679.52,466.28 679.52,465.34C679.52,464.4 678.76,463.64 677.82,463.64Z" style="fill-rule:nonzero;"/>
                </g>
                <g transform="matrix(0.796763,0,0,0.77299,-501.294,-295.236)">
                    <path d="M677.08,461.06C677.08,461.57 677.49,461.98 678,461.98C678.51,461.98 678.92,461.57 678.92,461.06C678.92,460.55 678.51,460.14 678,460.14C677.49,460.14 677.08,460.56 677.08,461.06Z" style="fill-rule:nonzero;"/>
                </g>
                <g transform="matrix(0.796763,0,0,0.77299,-501.294,-295.236)">
                    <path d="M677.51,458.88C677.78,458.88 677.99,458.66 677.99,458.4C677.99,458.13 677.77,457.92 677.51,457.92C677.25,457.92 677.03,458.14 677.03,458.4C677.03,458.67 677.25,458.88 677.51,458.88Z" style="fill-rule:nonzero;"/>
                </g>
                <g transform="matrix(0.796763,0,0,0.77299,-501.294,-295.236)">
                    <path d="M695.29,481.64C695.79,481.92 696.32,482.12 696.86,482.26C697.07,482.25 697.28,482.23 697.48,482.22C696.74,482.14 696,481.96 695.29,481.64Z" style="fill-rule:nonzero;"/>
                </g>
                <g transform="matrix(0.796763,0,0,0.77299,-501.294,-295.236)">
                    <path d="M709.41,477.55C706.78,478.19 705.16,480.41 702.65,481.3C702.28,481.45 701.89,481.59 701.5,481.71C702.75,481.48 703.97,481.19 705.17,480.83C706.63,479.99 708.03,478.96 709.69,478.68C710.05,478.63 710.41,478.61 710.77,478.59C711.6,478.17 712.41,477.73 713.19,477.25C711.94,477.19 710.68,477.27 709.41,477.55Z" style="fill-rule:nonzero;"/>
                </g>
                <g transform="matrix(0.796763,0,0,0.77299,-501.294,-295.236)">
                    <path d="M711.04,472.67C708.66,473.29 706.86,474.89 704.68,475.88C702.6,476.83 700.34,477.8 698,477.49C702.72,478.45 707.05,474.78 711.29,473.77C713.24,473.39 715.01,473.91 716.52,474.93C716.98,474.57 717.44,474.19 717.88,473.8C715.87,472.53 713.3,472.01 711.04,472.67Z" style="fill-rule:nonzero;"/>
                </g>
                <g transform="matrix(0.796763,0,0,0.77299,-501.294,-295.236)">
                    <path d="M710.18,470.13C707.94,470.07 705.59,469.32 704.01,467.6C705.47,469.42 707.83,470.38 710.15,470.6C712.38,470.9 714.74,469.93 716.86,470.89C717.76,471.31 718.52,471.91 719.18,472.6C719.46,472.33 719.74,472.05 720.02,471.76C719.21,471 718.29,470.37 717.2,469.99C714.86,469.11 712.53,470.25 710.18,470.13Z" style="fill-rule:nonzero;"/>
                </g>
                <g transform="matrix(0.796763,0,0,0.77299,-501.294,-295.236)">
                    <path d="M699.17,472C698.4,472.56 698.07,473.44 697.79,474.26C698.44,472.48 699.82,471.33 701.68,472.38C703.28,473.27 705.33,473.45 707.07,472.63C707.6,472.4 707.2,471.59 706.7,471.86C706.01,472.23 705.15,472.45 704.32,472.46C703.49,472.48 702.72,472.23 701.86,471.93C701.04,471.63 699.96,471.41 699.17,472Z" style="fill-rule:nonzero;"/>
                </g>
                <g transform="matrix(0.796763,0,0,0.77299,-501.294,-295.236)">
                    <path d="M647.89,443.4C647.02,443.26 646.32,442.82 645.8,442.08C645.28,441.34 645.09,440.53 645.24,439.64C645.38,438.76 645.82,438.06 646.55,437.53C647.28,437 648.09,436.81 648.97,436.95C649.86,437.09 650.56,437.53 651.08,438.27C651.6,439.01 651.78,439.83 651.64,440.73C651.51,441.53 651.12,442.2 650.46,442.74C649.74,443.34 648.88,443.56 647.89,443.4ZM648.06,442.46C648.74,442.57 649.34,442.43 649.86,442.05C650.37,441.67 650.68,441.17 650.78,440.58C650.89,439.93 650.75,439.35 650.37,438.83C649.99,438.31 649.47,438 648.82,437.89C648.16,437.78 647.57,437.91 647.06,438.28C646.54,438.65 646.23,439.15 646.12,439.8C646.02,440.44 646.15,441.02 646.53,441.54C646.9,442.04 647.41,442.35 648.06,442.46Z" style="fill-rule:nonzero;"/>
                </g>
                <g transform="matrix(0.796763,0,0,0.77299,-501.294,-295.236)">
                    <path d="M650.68,431.22L647.27,431.74L647.66,430.74L650.07,430.4L648.55,428.46L648.94,427.45L651.07,430.21L654.8,429.63L654.42,430.62L651.69,431.04L653.4,433.24L653.01,434.24L650.68,431.22Z" style="fill-rule:nonzero;"/>
                </g>
                <g transform="matrix(0.796763,0,0,0.77299,-501.294,-295.236)">
                    <path d="M653.7,420.71L652.56,422.57L653.84,423.36L654.94,421.57L655.7,422.03L654.6,423.82L657.14,425.38L656.64,426.18L651.31,422.9L652.95,420.24L653.7,420.71Z" style="fill-rule:nonzero;"/>
                </g>
                <g transform="matrix(0.796763,0,0,0.77299,-501.294,-295.236)">
                    <path d="M658.18,418.24C657.54,417.63 657.21,416.88 657.2,415.98C657.18,415.08 657.48,414.3 658.1,413.64C658.71,412.99 659.47,412.66 660.37,412.63C661.27,412.6 662.05,412.9 662.7,413.51C663.35,414.13 663.69,414.89 663.7,415.78C663.71,416.68 663.41,417.46 662.78,418.13C662.22,418.72 661.52,419.05 660.68,419.13C659.74,419.23 658.9,418.92 658.18,418.24ZM658.84,417.55C659.34,418.03 659.92,418.25 660.56,418.22C661.2,418.19 661.73,417.96 662.15,417.52C662.6,417.04 662.82,416.49 662.8,415.84C662.78,415.2 662.53,414.65 662.05,414.2C661.57,413.74 661.01,413.52 660.37,413.53C659.74,413.54 659.19,413.78 658.74,414.26C658.29,414.73 658.08,415.29 658.1,415.93C658.11,416.56 658.36,417.1 658.84,417.55Z" style="fill-rule:nonzero;"/>
                </g>
                <g transform="matrix(0.796763,0,0,0.77299,-501.294,-295.236)">
                    <path d="M668.5,409.65L671.61,410.75L670.66,411.4L667.74,410.3L667.6,410.4L669.05,412.51L668.27,413.04L664.73,407.88L665.64,407.25C666.32,406.78 666.9,406.57 667.38,406.62C667.91,406.68 668.34,406.94 668.66,407.41C668.91,407.78 669.02,408.16 668.99,408.57C668.96,408.98 668.8,409.34 668.5,409.65ZM667.13,409.72L667.38,409.55C668.12,409.04 668.29,408.51 667.91,407.95C667.55,407.42 667.01,407.4 666.29,407.9L666.01,408.09L667.13,409.72Z" style="fill-rule:nonzero;"/>
                </g>
                <g transform="matrix(0.796763,0,0,0.77299,-501.294,-295.236)">
                    <path d="M675.1,408.84L672.65,403.08L673.86,402.57C674.44,402.32 674.92,402.19 675.31,402.16C675.72,402.12 676.13,402.17 676.53,402.31C677.35,402.6 677.95,403.18 678.33,404.07C678.71,404.96 678.7,405.8 678.31,406.61C678.12,407.02 677.87,407.34 677.58,407.6C677.31,407.84 676.88,408.09 676.29,408.34L675.1,408.84ZM675.62,407.65L676.01,407.48C676.4,407.31 676.71,407.13 676.93,406.94C677.15,406.74 677.33,406.51 677.46,406.23C677.72,405.66 677.72,405.06 677.45,404.43C677.18,403.8 676.75,403.38 676.16,403.16C675.63,402.97 675,403.03 674.25,403.35L673.86,403.52L675.62,407.65Z" style="fill-rule:nonzero;"/>
                </g>
                <g transform="matrix(0.796763,0,0,0.77299,-501.294,-295.236)">
                    <path d="M693.43,398.55L693.5,399.67C692.93,399.25 692.35,399.06 691.77,399.09C691.13,399.13 690.6,399.39 690.19,399.88C689.78,400.37 689.59,400.94 689.63,401.6C689.67,402.26 689.93,402.79 690.4,403.22C690.87,403.64 691.43,403.83 692.07,403.79C692.4,403.77 692.68,403.7 692.91,403.58C693.04,403.52 693.17,403.44 693.3,403.34C693.43,403.24 693.57,403.12 693.72,402.98L693.79,404.12C693.27,404.46 692.71,404.65 692.12,404.68C691.23,404.74 690.45,404.47 689.78,403.89C689.11,403.3 688.75,402.56 688.7,401.68C688.65,400.88 688.87,400.16 689.36,399.5C689.96,398.7 690.77,398.26 691.8,398.2C692.34,398.16 692.89,398.28 693.43,398.55Z" style="fill-rule:nonzero;"/>
                </g>
                <g transform="matrix(0.796763,0,0,0.77299,-501.294,-295.236)">
                    <path d="M702.14,399.81L699.65,399.49L699.46,400.98L701.88,401.29L701.77,402.17L699.35,401.86L699.08,403.93L701.57,404.25L701.46,405.13L698.04,404.68L698.85,398.48L702.27,398.93L702.14,399.81Z" style="fill-rule:nonzero;"/>
                </g>
                <g transform="matrix(0.796763,0,0,0.77299,-501.294,-295.236)">
                    <path d="M705.62,406.02L707.82,399.71L710.56,405.72L711.99,401.61L712.88,401.92L710.7,408.19L707.95,402.19L706.51,406.33L705.62,406.02Z" style="fill-rule:nonzero;"/>
                </g>
                <g transform="matrix(0.796763,0,0,0.77299,-501.294,-295.236)">
                    <path d="M719.09,406.13L716.36,410.75L715.55,410.27L718.28,405.65L717.04,404.92L717.49,404.16L720.78,406.1L720.33,406.86L719.09,406.13Z" style="fill-rule:nonzero;"/>
                </g>
                <g transform="matrix(0.796763,0,0,0.77299,-501.294,-295.236)">
                    <path d="M724.1,413.13L723.83,416.42L722.95,415.67L723.27,412.56L723.14,412.45L721.47,414.39L720.75,413.77L724.83,409.03L725.67,409.75C726.3,410.29 726.65,410.8 726.72,411.27C726.8,411.8 726.66,412.27 726.29,412.7C726,413.04 725.66,413.24 725.26,413.32C724.86,413.4 724.48,413.34 724.1,413.13ZM723.68,411.82L723.91,412.02C724.59,412.6 725.15,412.64 725.6,412.12C726.02,411.63 725.9,411.11 725.24,410.54L724.98,410.32L723.68,411.82Z" style="fill-rule:nonzero;"/>
                </g>
                <g transform="matrix(0.796763,0,0,0.77299,-501.294,-295.236)">
                    <path d="M732.91,418.65L731.33,416.7L730.16,417.64L731.69,419.54L731,420.1L729.47,418.2L727.84,419.51L729.42,421.46L728.73,422.02L726.56,419.33L731.43,415.4L733.6,418.09L732.91,418.65Z" style="fill-rule:nonzero;"/>
                </g>
                <g transform="matrix(0.796763,0,0,0.77299,-501.294,-295.236)">
                    <path d="M739.09,429.71L738.21,427.71L736.83,428.32L737.68,430.25L736.87,430.61L736.02,428.68L733.29,429.88L732.91,429.02L738.64,426.5L739.9,429.36L739.09,429.71Z" style="fill-rule:nonzero;"/>
                </g>
                <g transform="matrix(0.796763,0,0,0.77299,-501.294,-295.236)">
                    <path d="M738.57,434.79C739.43,434.61 740.24,434.77 740.99,435.27C741.74,435.77 742.21,436.46 742.4,437.34C742.58,438.21 742.43,439.03 741.94,439.78C741.45,440.54 740.77,441.01 739.89,441.19C739.01,441.38 738.2,441.22 737.45,440.72C736.7,440.22 736.23,439.52 736.04,438.63C735.87,437.84 736,437.07 736.41,436.33C736.87,435.51 737.59,435 738.57,434.79ZM738.76,435.73C738.08,435.87 737.58,436.22 737.24,436.76C736.9,437.3 736.79,437.87 736.92,438.46C737.06,439.1 737.39,439.6 737.93,439.95C738.47,440.3 739.07,440.4 739.71,440.27C740.36,440.13 740.86,439.8 741.21,439.27C741.56,438.74 741.67,438.16 741.54,437.52C741.4,436.88 741.07,436.39 740.53,436.05C739.99,435.7 739.4,435.59 738.76,435.73Z" style="fill-rule:nonzero;"/>
                </g>
                <g transform="matrix(0.796763,0,0,0.77299,-501.294,-295.236)">
                    <path d="M739.76,448.19L737.08,450.11L737.09,448.95L739.66,447.18L739.66,447.01L737.1,447L737.11,446.06L743.37,446.09L743.36,447.2C743.36,448.03 743.2,448.62 742.88,448.99C742.53,449.39 742.07,449.59 741.51,449.59C741.07,449.59 740.69,449.46 740.37,449.2C740.05,448.94 739.84,448.6 739.76,448.19ZM740.48,447.02L740.48,447.32C740.48,448.21 740.81,448.66 741.5,448.67C742.14,448.67 742.46,448.24 742.47,447.37L742.47,447.03L740.48,447.02Z" style="fill-rule:nonzero;"/>
                </g>
                <g transform="matrix(0.796763,0,0,0.77299,-501.294,-295.236)">
                    <path d="M735.67,463.58L736.55,461.05L735.34,459.89L735.68,458.93L740.94,464.04L733.68,464.67L734.02,463.69L735.67,463.58ZM736.64,463.51L738.95,463.33L737.26,461.71L736.64,463.51Z" style="fill-rule:nonzero;"/>
                </g>
                <g transform="matrix(0.796763,0,0,0.77299,-501.294,-295.236)">
                    <path d="M732.01,468.08L737.68,471.62L731.21,472.96L734.9,475.27L734.4,476.07L728.77,472.55L735.23,471.21L731.51,468.89L732.01,468.08Z" style="fill-rule:nonzero;"/>
                </g>
                <g transform="matrix(0.796763,0,0,0.77299,-501.294,-295.236)">
                    <path d="M730.16,481.17L725.54,476.95L726.18,476.25L730.8,480.47L730.16,481.17Z" style="fill-rule:nonzero;"/>
                </g>
                <g transform="matrix(0.796763,0,0,0.77299,-501.294,-295.236)">
                    <path d="M722.51,480.07L725.48,486.25L720.85,483.63L721.97,488.86L717,484.17L717.78,483.59L720.52,486.26L719.58,481.89L723.45,484.08L721.73,480.65L722.51,480.07Z" style="fill-rule:nonzero;"/>
                </g>
                <g transform="matrix(0.796763,0,0,0.77299,-501.294,-295.236)">
                    <path d="M710.42,489.08L712.88,488.02L712.92,486.35L713.85,485.95L713.64,493.28L708.26,488.35L709.21,487.94L710.42,489.08ZM711.13,489.74L712.82,491.33L712.87,488.99L711.13,489.74Z" style="fill-rule:nonzero;"/>
                </g>
                <g transform="matrix(0.796763,0,0,0.77299,-501.294,-295.236)">
                    <path d="M705.03,495.67L703.85,490.43L702.05,490.83L701.85,489.96L704.57,489.35L705.94,495.46L705.03,495.67Z" style="fill-rule:nonzero;"/>
                </g>
                <g transform="matrix(0.796763,0,0,0.77299,-501.294,-295.236)">
                    <path d="M688.37,495.72L690.87,495.92L690.99,494.42L688.56,494.23L688.63,493.35L691.06,493.54L691.22,491.46L688.72,491.26L688.79,490.38L692.23,490.65L691.74,496.89L688.3,496.62L688.37,495.72Z" style="fill-rule:nonzero;"/>
                </g>
                <g transform="matrix(0.796763,0,0,0.77299,-501.294,-295.236)">
                    <path d="M681.57,494.39L682.9,489.19L683.81,489.42L682.48,494.62L683.87,494.98L683.65,495.84L679.95,494.9L680.17,494.04L681.57,494.39Z" style="fill-rule:nonzero;"/>
                </g>
                <g transform="matrix(0.796763,0,0,0.77299,-501.294,-295.236)">
                    <path d="M675.35,490.6L672.91,489.46L671.87,491.68L671.02,491.28L673.67,485.61L674.52,486.01L673.28,488.66L675.72,489.8L676.96,487.15L677.82,487.55L675.17,493.22L674.31,492.82L675.35,490.6Z" style="fill-rule:nonzero;"/>
                </g>
                <g transform="matrix(0.796763,0,0,0.77299,-501.294,-295.236)">
                    <path d="M665.42,487.77L669,482.64L669.77,483.18L666.19,488.31L665.42,487.77Z" style="fill-rule:nonzero;"/>
                </g>
                <g transform="matrix(0.796763,0,0,0.77299,-501.294,-295.236)">
                    <path d="M657.95,480.8L658.73,480C658.8,480.71 659.04,481.27 659.46,481.68C659.92,482.13 660.47,482.35 661.1,482.33C661.74,482.31 662.29,482.07 662.76,481.59C663.22,481.12 663.45,480.57 663.45,479.94C663.45,479.31 663.22,478.77 662.76,478.31C662.52,478.08 662.28,477.92 662.04,477.83C661.91,477.78 661.76,477.74 661.6,477.7C661.44,477.67 661.25,477.64 661.05,477.63L661.85,476.82C662.45,476.98 662.96,477.27 663.38,477.69C664.02,478.32 664.34,479.08 664.35,479.96C664.36,480.85 664.05,481.61 663.43,482.25C662.87,482.82 662.18,483.14 661.37,483.21C660.37,483.3 659.51,482.98 658.77,482.26C658.39,481.88 658.11,481.39 657.95,480.8Z" style="fill-rule:nonzero;"/>
                </g>
                <g transform="matrix(0.796763,0,0,0.77299,-501.294,-295.236)">
                    <path d="M653.06,473.4L653.87,473.77C653.75,474.03 653.69,474.23 653.7,474.38C653.71,474.54 653.77,474.71 653.89,474.88C654.04,475.1 654.22,475.23 654.44,475.29C654.66,475.35 654.86,475.32 655.04,475.19C655.29,475.02 655.37,474.69 655.26,474.21L655.12,473.55C655,473.02 655,472.57 655.11,472.21C655.22,471.85 655.45,471.55 655.81,471.3C656.28,470.97 656.78,470.86 657.31,470.97C657.84,471.07 658.27,471.36 658.59,471.83C658.9,472.28 659.02,472.74 658.95,473.21C658.88,473.68 658.63,474.11 658.2,474.52L657.48,473.85C657.76,473.61 657.93,473.4 657.98,473.23C658.09,472.92 658.04,472.61 657.83,472.3C657.66,472.06 657.44,471.91 657.17,471.86C656.9,471.81 656.64,471.87 656.39,472.04C656.29,472.11 656.21,472.19 656.14,472.27C656.08,472.36 656.03,472.45 656,472.56C655.97,472.67 655.96,472.79 655.96,472.92C655.96,473.06 655.98,473.21 656.01,473.37L656.14,474.01C656.33,474.92 656.13,475.57 655.56,475.97C655.17,476.24 654.75,476.31 654.28,476.19C653.81,476.07 653.43,475.8 653.13,475.35C652.74,474.8 652.71,474.14 653.06,473.4Z" style="fill-rule:nonzero;"/>
                </g>
            </g>
        </g>
    </g>
</svg>
