<?xml version="1.0" encoding="UTF-8"?>
<svg width="1200pt" height="1200pt" version="1.1" viewBox="0 0 1200 1200" xmlns="http://www.w3.org/2000/svg">
 <path fill="currentColor" d="m1046.3 725.11c-3.6016-3.7188-7.4414-6.3594-10.559-8.3984-6-3.9609-7.4414-5.3984-7.8008-8.2812-0.23828-2.7617 10.559-8.8789 25.199-13.199-0.96094 10.559-3.7227 20.637-6.8398 29.879zm-277.92 105.6c-0.71875 4.9219 2.6406 9.4805 7.5586 10.32 49.922 7.5586 90.359 10.922 123.36 10.922 29.281 0 52.441-2.6406 71.039-7.3203-8.7617 21.719-41.52 62.52-163.32 62.762h-0.71875c-135.36 0-206.76-85.68-207.48-86.641-3.1211-3.8398-8.8789-4.4414-12.719-1.3203-3.8398 3.2383-4.4414 8.8789-1.3203 12.719 2.8789 3.4805 64.441 77.398 183.96 90.961-73.078 44.762-99.121 154.32-105 184.32-228.36 2.3984-284.76-120.24-285.24-121.44-1.0781-2.6406-3.3594-4.5586-6-5.2812-2.7617-0.71875-5.6406-0.12109-7.8008 1.6797-19.078 14.762-26.16 39.961-28.68 57.84-131.88-141.24-119.16-314.04-119.04-315.84 0.23828-3-1.0781-5.8789-3.4805-7.8008-2.3984-1.9219-5.5195-2.3984-8.3984-1.4414-23.762 8.1602-44.762 26.641-58.199 40.801 2.1602-100.92 83.16-237.36 84-238.8 1.5586-2.5195 1.8008-5.6406 0.48047-8.3984-1.1992-2.6406-3.6016-4.5586-6.4805-5.0391-7.8008-1.4414-18.48 4.1992-28.801 12.121 28.441-62.879 97.32-123.48 135.6-153.84-48.359 121.44-26.879 228.72-26.52 230.28 0.83984 4.1992 4.6797 7.0781 8.7617 7.0781 0.60156 0 1.3203 0 1.9219-0.12109 4.8008-1.0781 7.9219-5.8789 6.9609-10.68-0.48047-2.0391-38.641-193.44 109.2-350.28-23.039 60.84-25.559 138.96 18.238 236.88 1.5586 3.3594 4.8008 5.3984 8.2812 5.3984 1.1992 0 2.3984-0.23828 3.6016-0.83984 4.5586-2.0391 6.6016-7.3203 4.5586-11.879-51.602-115.56-36.961-201.48 1.0781-263.64l0.12109-0.12109c1.4414-1.1992 2.1602-2.7617 2.6406-4.3203 32.52-50.641 80.281-85.078 119.16-106.56 2.5195-1.3203 5.5195-0.60156 7.0781 1.5586 9.4805 13.922 23.281 48.719 14.398 91.559-2.2812 10.801-3.2383 20.879-3.4805 30.602v0.60156c-1.0781 52.078 22.078 87.121 23.281 88.801 2.7617 4.1992 8.2812 5.2812 12.48 2.3984 4.0781-2.7617 5.1602-8.2812 2.3984-12.48-0.23828-0.35937-20.281-30.84-20.16-75.719 38.52-41.398 100.08-102.12 133.68-123.96-6.3594 19.68-17.52 51.719-31.199 82.199-24.48 54.121-32.879 96.602-26.398 133.8 0.60156 3.6016 3.4805 6.4805 7.0781 7.1992 1.1992 0.23828 120.96 25.559 188.64 127.08 26.879 40.32 39.84 65.281 49.441 83.52 15.602 29.879 23.52 44.879 67.922 82.199 25.441 21.359 35.762 43.32 38.16 63.961-16.559 4.0781-44.879 14.16-42.961 33.602 1.0781 11.879 9.4805 17.52 15.719 21.602 6 3.9609 10.32 7.1992 11.762 15-0.12109 0.35938-0.35938 0.71875-0.48047 1.0781l-3 7.0781c-1.6797 3.8398-2.8789 8.1602-4.1992 12.84-5.0391 17.641-11.879 41.52-49.801 55.32-0.48047 0.12109-1.0781 0.23828-1.5586 0.48047-34.559 12.121-94.199 15.84-199.8-0.35938-4.8086-0.71094-9.6094 2.6484-10.328 7.5664zm11.762-275.64c1.8008 2.6406 46.078 65.039 79.32 83.762 1.3203 0.83984 2.8789 1.1992 4.3203 1.1992 3.2383 0 6.2383-1.6797 7.9219-4.5586 2.3984-4.3203 0.83984-9.8398-3.4805-12.238-2.2812-1.3203-4.8008-3.1211-7.3203-5.0391 6.9609-7.5586 16.199-20.52 18.84-38.039 2.2812-15.84-1.3203-32.039-10.559-48.238 3.8398-0.48047 6.1211-0.71875 6.2383-0.71875 4.9219-0.48047 8.6406-4.8008 8.1602-9.7188-0.35938-4.9219-4.5586-8.6406-9.7188-8.1602-2.3984 0.12109-58.801 5.2812-91.68 29.281-3.9648 2.8711-4.9258 8.5117-2.043 12.469zm67.078 51.602c10.078-10.199 26.879-35.398 2.7617-71.52-15.238 3.1211-34.32 8.3984-49.559 17.16 9.1172 12.238 28.199 36.598 46.797 54.359z"/>
</svg>
