<?xml version="1.0" encoding="UTF-8"?>
<svg width="1200pt" height="1200pt" version="1.1" viewBox="0 0 1200 1200" xmlns="http://www.w3.org/2000/svg">
 <path fill="currentColor" d="m488.23 192.04c-0.48047 4.5586-0.83984 9.2383-0.60156 14.039l0.12109 4.5586c0.96094 21.719 3 69.719 35.281 102.6-35.641 12.359-72.121 26.039-104.4 52.559-4.1992 0.48047-13.559 1.4414-26.398 1.4414 13.801-17.16 31.32-48 22.922-87.238-6.8398-32.762-24-46.32-36.48-56.16-11.281-8.8789-15.121-12.359-13.801-22.441 1.3203-10.559 10.801-22.68 25.32-32.16 22.199-14.641 50.398-20.16 71.762-14.039 28.797 8.2812 27.836 19.562 26.273 36.84zm623.28 781.56c2.7617 16.559-7.3203 24.961-17.641 27.238-12.719 2.8789-28.68-2.5195-37.801-19.922-0.35937-0.71875-0.71875-1.5586-1.0781-2.3984-1.3203-2.6406-2.3984-5.5195-3.2383-8.7617-17.281-60.84-77.398-81.48-79.922-82.32-4.6797-1.5586-9.8398 0.96094-11.398 5.6406-1.5586 4.6797 0.96094 9.8398 5.6406 11.398 0.60156 0.12109 53.762 18.719 68.281 70.078 0.48047 1.6797 0.96094 3.3594 1.5586 4.9219-24.238 11.281-74.281 16.078-127.44-31.922-67.32-60.719-238.08-69.84-318.72-66.238-34.078 1.5586-63.359-4.4414-91.68-10.32-40.32-8.2812-82.078-16.922-135.96-3.2383-70.078 17.762-117 124.56-136.92 179.52-12.359-51-34.801-117.84-58.801-183 17.52-6.1211 37.199-54.359 13.199-52.801-14.039 0.96094-26.879-3.3594-35.879-7.6797-8.5195-22.078-16.801-43.199-24.602-62.762 21.48 2.7617 53.16-26.879 46.199-47.641-7.1992-21.121 11.762-57-25.922-52.801-24.84 2.7617-42.48-7.4414-51.359-14.52 34.441-36.121 115.68-123.48 127.68-158.52 12.359-36 57.602-101.4 107.04-90.121 17.879 4.1992 34.559 6.1211 49.078 7.0781h0.12109c7.8008 0.48047 15.121 0.71875 21.359 0.71875-43.922 30.602-90 47.52-108 53.398 1.6797-0.60156 3.3594-1.8008 4.8008-2.8789 5.6406-3.8398 10.559-8.5195 18.121-8.5195h1.3203c3.4805 0.23828 4.5586-3.1211 4.4414-7.1992-0.71875-4.3203-3-7.9219-8.5195-8.5195-8.5195-0.96094-21.961 6-26.16 13.68-0.23828 0.48047-0.48047 1.0781-0.71875 1.5586-0.60156 1.1992-0.96094 2.5195-1.0781 3.7188 0 0.12109-0.12109 0.23828 0 0.35938-0.35938 2.1602 0.23828 4.1992 2.0391 6.1211 1.9219 2.0391 3.8398 2.1602 5.6406 1.6797-4.8008 1.6797-7.5586 2.5195-7.6797 2.5195-4.8008 1.3203-7.5586 6.2383-6.2383 11.039 1.3203 4.8008 6.1211 7.5586 11.039 6.2383 3.2383-0.83984 81.121-22.922 145.68-76.922 0.12109-0.23828 0.23828-0.23828 0.23828-0.23828 32.52-27.48 71.281-40.801 108.6-53.762 2.0391-0.71875 4.0781-1.4414 6-2.1602 0.71875-0.12109 1.3203-0.35938 1.9219-0.71875 18.238-6.2383 35.641-12.602 51.602-20.52-18.359 34.559-45.961 91.922-57 143.76-15.961 74.879-44.16 77.039-105.96 81.84-2.0391 0.12109-4.0781 1.0781-5.6406 2.6406l-68.762 69c-3.4805 3.4805-3.4805 9.1211 0 12.719 1.8008 1.6797 4.0781 2.5195 6.3594 2.5195 2.3984 0 4.6797-0.83984 6.3594-2.6406l66.48-66.602c65.762-5.1602 101.16-12.961 118.8-95.641 4.3203-20.281 11.398-41.641 19.559-62.16 6.7188 8.3984 18.602 21.48 39.121 41.52 20.16 19.68 39.719 29.039 58.68 38.039 24.238 11.52 47.16 22.441 69.121 56.039 29.52 44.762 54.238 67.199 78.238 88.801 19.199 17.398 37.32 33.84 58.199 61.441 30.602 40.441 78.602 69.719 117.24 93.238 23.281 14.16 43.32 26.281 51.961 36.48 22.684 26.777 54.961 123.98 62.402 168.5zm-351.72-382.56c3.3594 9.4805 16.078 18.48 26.762 18.602 5.5195 0 8.6406-3.3594 5.0391-8.2812-6.2383-8.5195-13.32-16.32-20.16-24.238-0.96094-1.0781-2.8789-1.4414-3.7188-1.8008-6.8438 0.35938-10.562 8.6406-7.9219 15.719zm-28.199-39.84c0.71875 11.281 8.0391 21.84 15.359 21 6.8398-0.71875 11.398-4.5586 12.121-10.559-0.35938-9.7188-10.199-19.68-18.121-19.32-5.2812 0.23828-9.7227 2.1602-9.3594 8.8789zm-26.883 181.2c-3.2383-4.0781-8.5195-3.7188-10.32 1.4414-6.4805 16.801-17.281 30.961-27.121 45.719-2.3984 3.4805-5.1602 7.8008-2.8789 11.879 4.6797 8.1602 6.6016 17.16 9.9609 25.68 2.7617 6.9609 7.1992 9.7188 15.602 6.8398 20.641-7.1992 37.68-31.078 38.039-56.641-0.12109-0.96094 0.48047-4.4414-0.96094-6-8.3984-8.875-14.758-19.316-22.32-28.918zm-244.32 7.4414v8.8789c-0.12109 3.3594-0.35938 6.6016-0.35938 9.8398 0.23828 10.68 6 15.359 15.238 10.801 9.3594-4.5586 18.719-10.68 22.32-21.121 6.4805-18.359 12.602-36.719 15.961-55.922 1.5586-9.4805-1.3203-17.879-8.0391-24.359-9.8398-9.2383-20.16-18-30.719-26.281-7.4414-6-14.039-4.3203-19.199 3.4805-8.5195 13.078-7.1992 23.762 4.3203 33.961 2.2812 2.0391 4.8008 3.6016 6.8398 5.7617 5.1602 5.3984 8.7617 10.922 0.83984 17.281-3.4805 2.6406-4.8008 6.9609-6 11.16-2.2812 8.7578-1.3203 17.641-1.2031 26.52zm68.883-77.039c-3.6016 14.398-6.3594 23.281 3.3594 28.559 2.7617 1.4414 3.7188 3.6016 2.5195 6.4805-6.2383 15.359 2.5195 24.238 13.441 32.281 10.32 7.6797 18.602 7.1992 26.52-3 7.8008-10.078 15.121-20.641 22.078-31.441 7.9219-12.48-1.3203-35.16-15.961-38.16-10.922-2.1602-21.359-9.4805-31.68-4.4414-10.438-1.6797-18 0.24219-20.277 9.7227zm8.2773-54.84c2.5195 4.0781 3.8398 9.1211 5.1602 13.801 2.1602 7.4414 6.6016 11.039 12.359 10.078 7.1992 0 12.121-0.35938 14.879-5.5195 2.7617-5.1602 0.48047-9.6016-2.8789-13.559-2.7617-3.2383-4.5586-6.9609-5.8789-11.039-4.3203-13.922-8.3984-15-19.922-5.8789-3.957 3.2344-7.4375 6.1172-3.7188 12.117zm54.242-93.961c12.602 0 20.641-4.5586 20.879-11.641 0.35938-6.3594-6.7188-13.559-13.078-13.32-9.1211 0.35938-16.078 7.4414-16.441 16.441-0.35938 6.9609 4.1992 8.0391 8.6406 8.5195zm-61.68 99.48c-3.9609-7.3203-8.1602-13.801-15.602-12.961-10.32-0.23828-20.641 4.0781-26.16 9.9609-6.4805 6.7188-7.1992 17.879-1.4414 24.359 5.3984 6 14.52 6.7188 19.441 14.039 1.1992 1.9219 5.6406 0.96094 8.3984-0.48047 5.2812-2.7617 10.32-6 13.801-10.801 5.5195-7.6797 6-15.598 1.5625-24.117zm-5.6406 174.48c7.5586 4.5586 12.359 10.32 15 18.48 2.7617 8.1602 9.1211 9.6016 15.84 6.2383 5.3984-2.7617 9.9609-3 15.84-1.4414 9.3594 2.6406 14.281-1.8008 14.398-11.641 0.12109-5.3984-1.3203-10.441-3.7188-15.121-4.6797-9.7188-10.199-19.199-14.281-29.16-5.5195-13.078-16.559-17.281-28.801-18.961-10.32-1.4414-21.602 8.2812-25.922 20.52-3.5977 10.086 1.2031 24.727 11.645 31.086zm77.281 6.8398c0.71875 0.83984 3.2383 0.96094 4.5586 0.35938 5.8789-2.0391 11.52-1.3203 17.398 0.35938 6.2383 1.8008 12.84 1.5586 16.078-5.5195 3.1211-6.6016-0.48047-11.762-5.6406-15.238-9.2383-6.3594-17.16-13.801-23.641-23.281-5.3984-7.6797-14.641-8.5195-23.281-6-7.1992 2.0391-8.5195 8.3984-8.5195 15.238 0.96484 15.84 13.684 23.762 23.047 34.082zm46.438-18.961c5.0391-1.0781 7.4414-4.9219 8.5195-9.8398 2.6406-12.48 6.4805-24.602 11.16-36.602 3.6016-9.2383 0.23828-16.441-8.6406-18.961-11.762-3.2383-21.48-9-31.078-16.32-8.3984-6.4805-14.039-4.1992-18.961 5.0391-4.5586 8.5195-7.1992 17.641-8.6406 29.039-0.60156 3.2383 1.4414 7.3203 5.5195 10.199 12 8.5195 20.762 19.922 29.52 31.559 3.1211 4.207 7.082 7.0859 12.602 5.8867zm41.879-270.24c2.0391 6.3594 0.96094 15.121 6.8398 21.719 2.8789 3.4805 6.8398 5.3984 11.398 4.5586 3.9609-0.83984 5.8789-3.8398 6.4805-7.8008 1.5586-10.32-8.8789-23.762-19.078-25.199-4.5586-0.59766-6.1172 0.96094-5.6406 6.7227zm-0.11719 94.559h-85.922c4.6797 11.039 15.961 27.238 42.48 27.238h0.12109c28.32-0.11719 39.238-16.199 43.32-27.238zm-19.199-103.08c-7.5586 1.5586-8.8789 9-8.0391 14.762 1.0781 6.6016 3.6016 15.121 11.641 15.961 6.3594 0.60156 10.078-5.0391 9.8398-12.602-0.003906-8.7578-7.082-19.559-13.441-18.121zm-27.844-22.199c-0.23828 9.8398 6.8398 18.121 17.641 18 3.1211 0 6.3594-2.5195 6.3594-8.2812 0-8.0391-10.078-17.641-18.238-17.16-4.918 0.24219-5.6406 3.7227-5.7617 7.4414zm-45.957-23.039c-6.1211-0.83984-11.52 7.1992-8.2812 10.441 6.6016 6.6016 11.039 17.641 22.559 12.602 3.6016 0.12109 5.8789 0.35938 8.1602 0.48047 4.4414 0.23828 8.7617-0.35938 10.801-4.9219 2.1602-5.0391-2.0391-7.1992-4.9219-10.441-7.7969-8.8789-18.598-6.9609-28.316-8.1602zm-23.16 0.96094c7.9219 2.2812 23.641-9.3594 23.641-17.762 0-6.3594-11.398-16.559-17.52-15.84-3 0.23828-4.9219 2.0391-5.8789 4.5586-2.0391 6.1211-5.0391 12.121-5.1602 20.039-0.003906 3.0039-0.72266 7.4414 4.918 9.0039zm-13.68 28.078c-1.0781 4.4414 8.5195 13.68 13.68 13.441 6.9609-0.23828 11.762-3.7188 12.602-10.68 0.12109-8.0391-9.2383-19.801-15.359-18.602-8.1641 1.5625-9.3633 9.3594-10.922 15.84zm-10.562 27.48c-0.60156 7.1992 3.7188 9 10.32 8.2812 5.2812-0.12109 11.398 0.35938 11.52-7.9219 0.12109-6.3594-6.4805-12.48-12.84-12.121-7.5586 0.36328-8.6406 6.1211-9 11.762zm-11.16 27.359c-0.71875 4.5586 10.078 17.762 13.801 17.879 4.8008 0.12109 14.641-9.8398 14.52-14.641-0.12109-6.4805-7.0781-13.68-13.801-13.559-5.7578 1.5625-13.199 1.9219-14.52 10.32zm-31.68 27c7.5586 3.2383 8.2812 9.7188 8.6406 16.199 0.35938 7.4414 2.7617 11.879 11.16 11.16 9.9609-0.83984 17.398-6.7188 17.281-14.039-0.23828-13.559-17.398-30.48-30.238-30.238-4.6797 0.12109-7.5586 2.2812-9 6.2383-1.3242 3.8398-2.1641 8.7617 2.1562 10.68zm-57.117 24.84c8.0391 2.1602 12.84 5.0391 8.8789 13.199-0.35938 11.039 5.2812 14.762 14.52 9.9609 9.6016-5.0391 18.602-11.16 26.762-18.359 5.7617-5.0391 8.7617-11.16 5.0391-18.238-3.8398-7.1992-9.9609-11.398-18.719-9.3594-2.0391 0.48047-3.6016 1.9219-6.1211-0.35937-11.52-10.68-30.719-5.3984-36 9.7188-2.4023 6.4805-0.60156 11.758 5.6406 13.438zm-30.48-1.5586c-0.71875 4.4414 2.0391 8.2812 6.7188 7.8008 7.1992-0.83984 10.559-5.8789 11.16-13.078-0.96094-3.9609-1.0781-9.6016-6.7188-9-7.9219 0.71875-10.082 7.6758-11.16 14.277zm-17.641 56.398c5.2812 3.9609 10.68 2.7617 15.238-1.3203 4.0781-3.4805 6.6016-3.2383 10.441 0.60156 4.8008 4.6797 11.16 8.6406 17.52 3.1211 6.6016-5.6406 10.559-13.32 11.281-23.039 0.12109-7.8008-5.0391-12.48-14.762-12.359-6.8398 0-13.32 1.3203-18.84-5.0391-3.2383-3.7188-9.4805-4.0781-12 0.71875-3.7188 7.3203-9.4805 13.32-12.121 21.238-1.918 6.1211-2.5195 11.758 3.2422 16.078zm-120.6-25.438c-11.398 11.281-6.1211 23.641-3.1211 34.922 2.5195 9.4805 4.9219 20.641 16.32 25.559 5.7617 2.5195 11.16 2.6406 12.84-3.7188 3.3594-13.078 5.8789-26.281 11.16-38.762 0.23828-0.83984 0.12109-1.9219 0.12109-2.8789 0.23828-11.16-4.1992-18.84-13.32-21.602-9.1172-2.8789-16.559-0.71875-24 6.4805zm-18.719-114c-0.23828-1.4414-1.5586-2.8789-2.8789-3.7188-10.441-7.1992-25.441-0.23828-26.762 12.48-0.83984 7.5586-1.1992 15.121-2.0391 22.559-2.6406 23.398 8.8789 45.84 4.8008 69.359-0.23828 3.3594-0.60156 6.6016-0.48047 9.8398 0.12109 6.1211 3.7188 8.1602 8.2812 4.6797 14.281-11.281 30.359-20.52 40.68-36.602 7.5586-11.762 9.4805-23.039 0.48047-33.48-11.402-13.316-18.48-28.199-22.082-45.117zm83.758-95.762c4.4414 2.5195 8.1602 1.3203 11.281-2.6406 0.71875-0.83984 2.2812-0.96094 3.4805-1.5586 3.6016-1.5586 9.7188-1.3203 8.3984-7.4414-1.1992-5.7617-6.8398-5.1602-11.641-5.6406-1.5586 0.23828-3.6016 0.35938-5.5195 0.96094-4.1992 1.3203-7.9219 3.3594-8.6406 8.3984-0.35938 3.0039-0.23828 6.1211 2.6406 7.9219zm-78.477 7.6797c4.3203 6.3594 8.8789 4.5586 13.199 0.83984 12.961-11.16 27.238-11.641 42.48-6.1211 2.8789 1.0781 5.8789 2.2812 8.0391-0.83984 3.2383-4.6797 3.3594-10.078 1.8008-15.121-1.3203-4.3203-5.2812-5.5195-9.4805-5.6406-3.3594-0.12109-6.6016 0-9.9609 0-15.84-0.71875-30.48 3.2383-43.559 12.602-5.4023 3.9609-6.6016 8.5234-2.5195 14.281zm-27.363 58.562c6.9609-2.5195 12.48-5.7617 15.121-13.801 2.3984-7.3203 9.6016-12.602 10.078-21.359-0.83984-2.7617 0.12109-6.6016-3.7188-8.2812-3-1.3203-5.8789-0.71875-8.2812 1.4414-10.32 9.3594-18.84 20.281-22.559 33.961-1.918 7.3164 2.4023 10.559 9.3594 8.0391zm-26.52 45.359c3.8398-0.83984 20.762-22.199 20.762-26.281-0.12109-5.2812-8.6406-9.3594-13.441-6-8.2812 5.8789-14.039 13.801-16.441 23.762-1.4375 6.3594 2.5234 9.8398 9.1211 8.5195zm-6.957 111c-19.078 8.5195-24.238 17.762-21.602 38.879 1.0781 8.8789 5.7617 11.039 13.559 6.2383 13.801-8.2812 17.16-22.199 20.16-35.16 0.12109-9.2383-5.1602-13.078-12.117-9.957zm-23.043-2.5195c7.5586 2.3984 14.281-0.83984 19.32-6.8398 10.199-12.359 19.078-25.199 14.16-42.84-1.3203-4.3203-0.71875-9.1211-0.96094-13.68h0.48047c0.12109-1.3203 0.23828-2.6406 0.23828-3.9609 0.48047-8.6406 1.8008-18.719-7.4414-22.68-9.3594-4.0781-17.52 2.0391-24.602 8.2812-1.6797 1.5586-3.3594 3.2383-4.8008 5.0391-11.879 14.16-22.801 28.922-32.039 44.879-4.3203 7.3203-8.7617 14.641-11.281 22.922-2.6406 8.3984 1.6797 13.68 10.441 12.602 2.5195-0.23828 5.0391-1.0781 7.5586-1.9219 9.4883-3.1211 18.848-4.9219 28.926-1.8008zm37.203 156.48c18.359-16.078 33.359-35.398 48.359-54.48 3.2383-3.9609 4.6797-8.3984 5.3984-13.441 4.6797-30.238-13.68-50.762-30.238-71.641-5.0391-6.3594-12.238-3.7188-14.039 4.8008-4.9219 24-18.84 42.238-35.398 59.16-7.8008 8.0391-15.121 16.441-23.039 24.359-12.719 12.602-17.641 28.199-18.359 48.602-0.12109 6 4.6797 11.879 13.441 11.398 6.3594-0.23828 12.48 0.83984 18.48 1.9219 13.914 2.6367 25.074-1.6797 35.395-10.68zm35.52 73.199c-11.641-13.801-10.32-28.199-9.1211-43.441 0.48047-6.6016 2.7617-13.801-4.1992-17.762-6.9609-3.9609-13.32 0.48047-19.199 4.0781-1.6797 0.96094-3.1211 2.5195-4.5586 3.8398-20.281 17.879-26.16 41.039-25.078 59.762 0.12109 30.238 3.9609 52.32 17.039 72 3.1211 4.6797 4.8008 9.8398 6 15.48 2.3984 12.48 1.8008 25.441 4.9219 37.922 1.8008 7.5586 5.8789 7.8008 11.52 5.3984 4.3203-1.8008 7.9219-5.0391 10.199-9.1211 6.1211-10.559 10.32-21.719 12.961-33.84 3.6016-16.801 1.0781-34.441 6.8398-50.641 5.875-16.438 2.5156-31.918-7.3242-43.676zm83.52-47.641c-3.8398-9-4.8008-18.121-3.2383-27.961 2.0391-11.762-4.0781-22.922-13.199-26.16-3.6016-1.1992-8.1602-3-10.559 1.5586-6.2383 12.602-17.039 16.32-30 15.961-9-0.23828-14.281 3.7188-15.48 12.719-0.71875 4.5586-1.1992 9.1211-1.5586 13.078 1.4414 8.3984-2.1602 19.32 8.7617 21.359 11.398 2.1602 13.559 9.4805 15.48 18.48 2.5195 11.762 8.6406 16.922 19.559 16.922 14.16 0.23828 30.602-8.8789 31.801-18.602 1.1914-9.1172 2.1523-18.477-1.5664-27.355zm6.7188-92.281c13.199-6.2383 20.879-17.762 28.68-29.16 4.0781-6 7.8008-12.238 7.9219-19.801 0-2.6406-0.23828-5.2812-1.4414-7.6797-4.6797-9.3594-10.801-18-14.879-27.719-2.1602-4.9219-7.6797-5.8789-12.961-5.0391-18.48 3-34.801 38.039-23.16 52.559 7.4414 9.2383 7.1992 16.559 3.1211 25.922-1.5586 3.6016-2.8789 7.9219 0.71875 11.039 3.6016 3.1211 7.8008 1.8008 12-0.12109zm49.922 81.602c-3.8398-13.801-9.2383-27.238-14.398-40.68-3.1211-8.3984-11.039-8.8789-18.121-9-6-0.12109-12.238 1.8008-14.281 8.5195-3.2383 10.559-5.0391 21.238 1.1992 31.441 6.4805 10.32 10.559 21.121 8.8789 29.879-0.71875 11.281-0.48047 18.84 1.6797 26.16 1.4414 4.6797 4.1992 7.5586 9.6016 5.3984 19.441-7.918 31.32-30.719 25.441-51.719zm12-45.121c1.9219 3.4805 4.9219 6.1211 7.3203 9.3594 4.8008 6.4805 11.281 9.7188 18.961 6.8398 7.0781-2.7617 9.7188-9.4805 9.9609-16.801 0.35938-7.9219 0.12109-15.84 0.12109-23.762h0.12109v-11.879c0-3.9609-0.23828-7.9219-0.23828-11.762 0.12109-6.8398-2.3984-12.961-5.5195-18.719-5.8789-11.039-19.922-18.121-27.84-12.602-16.199 11.281-31.078 24.48-39.121 43.199-5.0391 12 1.8008 23.039 14.641 22.801 11.031-0.23438 16.914 4.5664 21.594 13.324zm47.879 51.84c-0.12109-6.2383-3.8398-10.32-9.2383-12.84-13.559-6.3594-30.238 0.12109-36 14.039-2.5195 6.3594-3.6016 13.199-4.0781 18.719 0 6-0.83984 12.121 4.3203 13.32 6.4805 1.5586 12.238 4.0781 18.121 6.7188 2.7617 1.0781 5.8789 0.60156 8.3984-1.5586 11.996-9.957 18.836-22.438 18.477-38.398zm26.039 40.32c1.0781-8.0391-3.2383-11.281-12.121-10.801-3.8398 0.23828-7.8008-0.83984-11.762-0.96094-4.0781-0.23828-6.8398 1.9219-7.8008 6-0.83984 3.7188 0.83984 7.5586 3.9609 8.1602 6.3594 1.1992 11.281 5.1602 17.16 6.9609 8.2812 2.6406 10.805 0.60156 10.562-9.3594zm21 0.12109c5.5195-0.12109 9.3594-0.23828 13.199-2.0391 15.121-7.3203 14.398-12.238 7.8008-22.32-6.3594-9.8398-10.922-21-15.359-31.922-3.2383-7.6797-6.9609-13.199-16.441-12.238-10.68 1.0781-20.879 2.2812-25.199 14.641-3.8398 11.281-2.2812 21.359 5.5195 30.359 4.9219 5.6406 10.441 10.922 15.48 16.559 4.5586 4.9219 9.8398 7.5586 15 6.9609zm53.641 18.48c-1.4414-6-3.7188-11.762-6-17.52-1.0781-2.7617-3.2383-5.2812-6.6016-5.2812-12.719-0.23828-24.48 3-35.16 9.9609-1.8008 1.1992-3.6016 3.2383-3 5.7617 0.71875 2.6406 3.4805 3.7188 5.3984 3.4805 10.199-0.83984 18.121 4.4414 26.281 9.2383 3.3594 1.9219 7.3203 2.5195 8.6406 3 9.2422 0.95703 11.883-2.5234 10.441-8.6406zm82.918-22.32c7.0781-0.35938 12.121-3.3594 17.762-7.1992 8.5195-5.7617 10.922-12.238 7.1992-21.719-4.4414-11.039-9.6016-14.281-20.879-13.68-7.4414 0.48047-14.039 3.2383-20.52 6.3594-6.3594 3.1211-12.602 5.7617-20.879 3.2383-15.48 0.23828-28.32 8.1602-39.961 18.719-2.5195 2.1602-3 5.3984-3.4805 8.8789-1.5586 13.68 5.1602 22.199 16.199 28.801 14.52 8.7617 20.281 8.2812 31.922-3.6016 2.5195-2.5195 5.0391-5.2812 7.4414-7.9219 6.8359-7.1953 15.477-11.395 25.195-11.875zm54.363 23.398c-1.1992-10.078-15.121-22.078-28.922-22.078-12.48 0.83984-23.52 8.7617-31.32 22.32-3.9609 7.1992-2.7617 10.922 5.3984 12.48 14.641 2.7617 29.281 2.7617 43.922 0.23828 6.2422-1.1992 11.762-4.9219 10.922-12.961zm83.277-11.758c0-16.801-23.641-40.32-40.32-40.199-2.2812 0-5.5195-0.35938-6.7188 0.96094-8.8789 9.1211-21.121 10.078-31.922 14.641-4.1992 1.6797-9.8398 2.1602-10.32 7.8008-0.60156 6.2383 5.1602 7.8008 9.3594 10.199 5.6406 3.3594 12.719 6 12 14.039-0.71875 9.6016 4.1992 13.922 12.238 16.441 6.2383 1.9219 12.719 3.2383 18.84 5.5195 22.566 8.5156 35.523-10.684 36.844-29.402zm55.32 26.758c0.71875-7.3203-4.4414-14.039-12.48-14.879-6.2383-0.60156-12.359-0.71875-18.359-2.6406-5.3984-1.6797-8.8789 1.5586-10.199 6.6016-1.3203 5.5195-6.4805 14.398-0.48047 15.84 9.4805 2.1602 16.559 11.039 27 9.4805 8.4023 0.23828 13.559-4.9219 14.52-14.402zm9.3594-73.918c-1.9219-6.8398-4.0781-14.16-12.121-16.32-6-1.6797-8.6406-5.0391-9.8398-10.801-0.83984-4.1992-2.5195-8.2812-4.5586-12-8.6406-16.441-22.922-19.801-38.039-9.6016-8.1602 5.5195-13.68 13.32-18.238 21.719-6.9609 12.84-5.2812 19.078 6.6016 27.48 2.7617 1.9219 5.2812 3.9609 7.6797 6.2383 6.1211 6.1211 13.32 9.6016 22.199 8.8789 6.6016-0.60156 12.121 1.3203 17.16 5.7617 6.7188 5.6406 13.441 4.4414 19.68-0.96094 6.2383-5.1562 8.0391-12.598 9.4766-20.395zm204 29.758c-0.35938-0.60156-9.1211-16.559-28.68-25.68-4.4414-2.1602-9.8398-0.23828-12 4.3203-2.0391 4.4414-0.12109 9.8398 4.3203 12 13.922 6.4805 20.281 17.641 20.52 18 1.5586 3 4.6797 4.6797 7.9219 4.6797 1.4414 0 2.8789-0.35938 4.1992-1.0781 4.4414-2.4023 6-7.8008 3.7188-12.242z"/>
</svg>
