<?xml version="1.0" encoding="UTF-8"?>
<svg width="1200pt" height="1200pt" version="1.1" viewBox="0 0 1200 1200" xmlns="http://www.w3.org/2000/svg">
 <path fill="currentColor" d="m634.95 570.01c0-10.105 8.1953-18.301 18.301-18.301 10.105 0 18.301 8.1953 18.301 18.301s-8.1953 18.301-18.301 18.301c-10.105 0-18.301-8.1953-18.301-18.301zm194.59 102.31c24 11.52 69 37.922 88.801 81.238 28.801 63-30 180.6-151.92 243.6-5.5195 2.8789-11.16 5.2812-16.68 7.1992-7.3203 29.281 15.238 67.68 15.48 68.039 1.5586 2.6406 1.6797 5.8789 0.35938 8.5195-1.1992 2.7617-3.8398 4.6797-6.8398 5.0391-12.84 1.9219-23.281-0.96094-31.078-4.9219 2.6406 13.441 9.2383 30 14.281 40.32 1.3203 2.8789 1.1992 6.2383-0.48047 8.7617-1.6797 2.6406-4.5586 4.1992-7.6797 4.1992h-0.12109c-44.398-0.71875-120.6-60.359-147.84-83.039-3.1211 14.762-1.6797 34.68-0.60156 42.84 0.35938 3.3594-1.0781 6.7188-3.9609 8.6406-2.8789 1.9219-6.6016 2.0391-9.4805 0.35938-52.922-30.719-96.48-138.6-112.08-181.44-16.559 36-22.199 110.4-22.922 140.16-0.12109 3.2383-1.9219 6.2383-4.9219 7.8008-3 1.4414-6.4805 1.1992-9.2383-0.60156-30-20.879-39.121-87-41.879-119.76-7.8008 10.32-16.199 27.238-21.961 42.602-1.1992 3.2383-4.1992 5.5195-7.6797 5.7617-3.6016 0.35938-6.8398-1.4414-8.5195-4.4414-18.961-33.121-17.762-147.48-16.441-193.2-11.398 11.52-26.641 32.762-38.16 52.078-1.9219 3.3594-5.7617 5.0391-9.4805 4.3203s-6.6016-3.8398-7.1992-7.5586c-2.3984-17.398 7.9219-51.121 16.559-75.238-21.238 20.398-40.559 53.52-47.879 67.922-1.9219 3.8398-6.1211 5.7617-10.199 4.8008-4.0781-1.0781-6.9609-4.8008-6.8398-9 1.5586-76.559 51.602-158.88 73.199-191.04-36 3.6016-83.879 35.879-101.4 49.801-3.1211 2.5195-7.6797 2.6406-10.922 0.23828-3.3594-2.5195-4.5586-6.8398-3-10.559 30.121-75.238 82.199-119.76 112.56-140.64-18.961-4.8008-34.078-13.559-35.039-14.039-3.3594-2.0391-5.0391-6-4.1992-9.8398 0.96094-3.8398 4.1992-6.6016 8.1602-6.9609 76.32-5.6406 134.64-33.961 166.56-53.52-40.68-1.8008-85.801-21.84-104.76-57.238-19.32-36.121-35.641-41.762-35.762-41.762-3.6016-1.1992-6.2383-4.5586-6.3594-8.2812-0.12109-3.7188 1.9219-7.1992 5.3984-8.6406l32.16-13.68c-5.7617-7.8008-12.48-19.801-14.039-34.922-3.4805-33.48 38.641-72 39.121-72.48 9.1211-8.2812 23.16-4.4414 34.441 1.0781-0.60156-41.398 26.398-58.559 27.719-59.281 2.2812-1.4414 5.1602-1.8008 7.6797-0.83984s4.5586 3 5.5195 5.5195c15.359 44.039 58.559 76.199 81.238 90.602-6.7188-131.88 55.801-174.24 58.559-176.04 3.1211-2.1602 7.1992-2.0391 10.199 0.23828 3 2.1602 4.4414 6 3.3594 9.6016-25.922 94.68 4.0781 141.72 20.039 159 5.2812-15.602 14.039-45.84 19.199-86.16 8.5195-66.121 70.441-99.359 73.078-100.8 3.2383-1.6797 7.1992-1.1992 9.9609 1.0781 2.7617 2.3984 3.8398 6.1211 2.7617 9.6016-0.12109 0.48047-15.602 50.039-26.879 106.68-7.8008 38.879 3.4805 77.039 10.559 95.398 12.359-13.078 34.199-41.039 41.039-82.559 11.398-68.281 55.441-81.121 57.359-81.602 3.2383-0.83984 6.6016 0.12109 8.8789 2.5195 2.2812 2.5195 3 6 1.9219 9.2383-10.32 28.441-21.84 80.398-9.1211 98.879 15.602 22.441 18.719 64.68 19.199 87.719 16.559-16.441 35.039-59.641 44.641-91.32 1.1992-3.7188 4.5586-6.2383 8.3984-6.3594 3.9609 0 7.3203 2.1602 8.6406 5.7617 10.68 27.961 8.8789 99.48 7.6797 128.04 18.359-8.0391 39.84-34.801 50.641-52.559 2.3984-3.9609 7.4414-5.3984 11.52-3.4805 4.1992 2.0391 6.2383 6.8398 4.5586 11.16-6.3594 17.762-7.3203 32.039-2.6406 41.398 3.7188 7.5586 10.078 9.6016 10.32 9.7188 2.7617 0.83984 4.9219 3 5.8789 5.7617 0.96094 2.6406 0.60156 5.6406-0.96094 8.0391-3.9609 5.5195-5.2812 10.199-3.9609 14.039 2.0391 6.4805 11.398 10.922 14.52 12 2.2812 0.71875 4.1992 2.5195 5.2812 4.8008 0.96094 2.2812 1.0781 4.8008 0.12109 7.0781-1.4414 3.6016-3.3594 6.8398-5.5195 9.9609l2.1602 0.12109c3.1211 0.35938 5.7617 2.0391 7.1992 4.8008 1.4414 2.6406 1.3203 5.8789-0.12109 8.5195-0.12109 0.23828-10.68 20.039-3.6016 37.559 9.1211 22.32 15.84 70.078-12.48 93.359 19.801 14.641 57.48 48.719 66 101.28 0.12109 0.60156 0.23828 1.1992 0.23828 1.9219 0 0.60156-0.12109 1.3203-0.23828 1.9219-0.085938 0.39453-0.28906 0.75781-0.43359 1.1406-0.070312 0.20312-0.13281 0.40625-0.22656 0.61328-0.40625 0.91016-0.94922 1.7539-1.6914 2.4727-0.070313 0.085938-0.097657 0.19141-0.17969 0.26563-0.60156 0.58984-1.332 0.9375-2.0273 1.3203-1.3555 0.75781-2.7734 1.2734-4.1992 1.2734-0.83984 0-1.5586-0.12109-2.3984-0.35938-0.35938-0.12109-0.71875-0.23828-1.0781-0.35937-11.504-3-120.95-30.719-177.82-1.1992zm-213.6-113.28c0.60156 10.078 4.5586 41.641 32.16 45.121 27.84 3.6016 41.879-20.641 45.961-29.398-3.3594-7.4414-14.039-26.398-36.602-29.879-22.441-3.4844-36.602 8.8789-41.52 14.156zm126.6 508.56c-6.1211-14.039-13.801-36.238-11.762-57.719-6.8398 1.1992-13.68 1.9219-20.398 1.9219-12.359 0-24.602-2.2812-36.719-6.6016-65.16-23.52-104.04-102.84-111.48-119.52-22.922-12.719-172.32-102.12-132.6-240 33.961-117.84 157.44-145.92 206.76-152.4-41.039-29.039-133.68-45.48-170.16-36.359-11.398 9.3594-72 55.32-166.92 71.039 6.8398 1.6797 14.16 2.5195 21.121 1.8008 4.3203-0.48047 8.2812 2.2812 9.4805 6.4805s-0.71875 8.6406-4.6797 10.559c-0.71875 0.35938-69.602 35.039-113.4 115.44 27.602-17.641 70.199-39.359 102.96-33.121 3 0.48047 5.5195 2.6406 6.7188 5.5195 1.0781 2.8789 0.60156 6.1211-1.1992 8.6406-0.71875 0.83984-55.68 75.121-73.68 152.28 14.762-21.48 35.281-45.602 56.879-53.879 3.3594-1.3203 7.0781-0.48047 9.6016 2.1602 2.5195 2.5195 3.2383 6.3594 1.9219 9.7188-6.1211 14.641-13.922 35.641-19.32 54.602 12-15.961 26.281-31.32 38.16-34.078 2.6406-0.60156 5.5195 0.12109 7.6797 1.9219s3.3594 4.4414 3.2383 7.1992c-1.6797 38.641-3 133.44 6.7188 180.24 8.1602-16.68 20.641-36.719 34.68-40.801 2.6406-0.71875 5.5195-0.23828 7.8008 1.4414 2.1602 1.5586 3.6016 4.1992 3.7188 6.9609 0.71875 22.801 6.3594 77.52 22.199 107.16 2.5195-39.719 10.559-116.64 35.762-143.16 2.2812-2.2812 5.5195-3.2383 8.5195-2.5195 3.1211 0.71875 5.6406 3 6.6016 6 0.48047 1.4414 42.719 129.72 95.16 177.84-0.23828-14.16 0.96094-32.52 8.0391-44.762 1.3203-2.2812 3.6016-3.9609 6.2383-4.4414 2.7617-0.35938 5.3984 0.35938 7.4414 2.1602 24.238 21.238 89.52 72.48 131.4 84.48-6.1211-15.48-13.441-38.762-9.3594-53.641 0.96094-3.3594 3.6016-5.8789 6.9609-6.4805 3.3594-0.71875 6.8398 0.71875 8.8789 3.4805 0.35938 0.35156 6.2383 7.6719 17.039 10.434zm112.46-463.36c73.57 7.2617 117.52 25.656 140.7 39.18-15.145-39.898-49.043-64.586-59.832-71.785-25.078 8.6406-57.719 6-78.719 2.8789 5.7617 3.2383 12.719 5.5195 17.16 6.4805 4.0781 0.83984 7.0781 4.4414 7.1992 8.6406 0 4.1992-2.7617 7.9219-6.8398 8.8789-6.8398 1.6797-13.32 3.6016-19.441 5.6406-0.082031 0.027344-0.15625 0.050782-0.22656 0.085938zm101.77 40.789c-29.242-11.363-73.523-22.645-137.63-25.355-5.2578 2.7461-9.793 5.4961-13.969 8.125 0.60156-0.12109 1.0781-0.23828 1.6797-0.35938 4.0781-1.1992 8.5195 0.83984 10.32 4.6797 1.9219 3.9609 0.83984 8.5195-2.6406 11.16-1.0781 1.8008-0.48047 8.5195 1.3203 16.078 38.195-22.871 97.391-20.531 140.92-14.328z"/>
</svg>
