<?xml version="1.0" encoding="UTF-8"?>
<svg width="1200pt" height="1200pt" version="1.1" viewBox="0 0 1200 1200" xmlns="http://www.w3.org/2000/svg">
 <path fill="currentColor" d="m1098 800.15c-24-34.32-56.879-81.48-114.24-114.72-138.72-80.281-255-162.72-345.72-244.92-15.359-13.922-29.52-26.398-42.719-37.801-0.35938-0.35938-0.71875-0.71875-1.1992-1.0781-36.121-30.961-64.922-53.16-88.559-68.762 1.0781-10.922 4.3203-37.559 11.52-68.641 9.8398-42.719 5.2812-112.56 5.1602-115.44-0.23828-3.6016-2.6406-6.7188-6.1211-7.9219-3.3594-1.1992-7.1992-0.23828-9.6016 2.3984-0.60156 0.71875-9.1211 10.078-19.801 22.922-11.039 12.961-24.359 29.398-34.199 43.559-10.441 15.121-23.879 29.039-33.602 38.281-0.96094-8.3984-1.8008-16.32-2.6406-23.879-4.0781-36.359-7.0781-62.641-4.1992-78.719 0.83984-4.4414-1.8008-8.8789-6.1211-10.199-4.3203-1.4414-9 0.60156-10.922 4.8008-0.60156 1.3203-64.559 138.48-88.922 173.28-0.60156 0.83984-1.1992 1.8008-1.8008 2.7617-0.23828 0-0.35938 0.12109-0.60156 0.12109-13.199 2.8789-53.281 11.762-79.559 41.641-11.762 13.441-21.961 18.602-32.641 24-14.398 7.3203-29.281 14.762-45 41.281-13.441 22.559-24.961 34.078-36 45.238-9.3594 9.3594-18.121 18.238-26.281 32.281-9.6016 16.32-12.238 27.121-14.281 34.922-1.5586 6.3594-2.2812 9-5.2812 12-2.3984 2.5195-3.1211 6.1211-1.9219 9.3594 0.35938 0.96094 27.602 76.199 52.32 153.12 0.12109 0.48047 0.35938 0.96094 0.48047 1.5586 7.3203 22.801 14.398 45.719 20.52 66.84 18.359 63.84 77.398 137.4 120.48 191.04 20.762 25.801 38.641 48.121 43.68 59.281 1.4414 3.2383 4.6797 5.3984 8.1602 5.3984h0.23828c3.7188-0.12109 6.9609-2.5195 8.1602-5.8789 0.23828-0.60156 21.719-57.238 73.441-104.28 37.078 21.48 75.961 31.801 103.44 30.961 64.32-2.1602 115.92 0.12109 189.96 18.121 49.801 12 103.92 12.602 143.4 12.961 19.922 0.23828 37.199 0.35938 46.199 2.1602 9.7188 1.8008 12.121 6.2383 17.52 18.48 4.6797 10.68 11.039 25.199 27.719 39.602 16.199 14.16 41.398 18.961 65.52 18.961 28.559 0 55.559-6.7188 64.68-12.84 9.8398-6.4805 12.719-17.039 12.719-26.281 4.4414-0.12109 8.7617-0.60156 12.84-1.4414 15.84-3 27.719-10.801 34.559-22.559 12.719-21.84 14.039-33 15.359-44.879 0.83984-7.1992 1.6797-14.641 5.2812-25.801 14.281-44.281 10.32-78.602-12.121-105.12-5.7461-6.7266-11.984-15.727-19.305-26.168zm-618.36-543.24c5.3984-41.398 18-72 21.121-79.32 0 0 0.12109-0.12109 0.12109-0.23828 1.4414-1.8008 2.8789-3.4805 4.3203-5.1602 0.60156 24 0.35938 62.16-5.6406 87.961-6 25.801-9.2383 48.238-10.922 62.039-9-5.3984-17.281-9.6016-24.84-12.961 5.8789-9.1172 12.238-25.078 15.84-52.32zm-190.44 177.12c3.9609 8.1602 15.48 33.719 16.199 58.922 0.83984 29.16-8.2812 94.922-16.801 121.2-1.3203 3.9609-5.2812 6.4805-9.4805 6.2383-4.1992-0.48047-7.5586-3.7188-8.0391-7.9219-0.12109-1.0781-12.84-97.68-42.961-155.16-0.83984 20.398-0.48047 50.281 6 80.762 0.83984 4.0781-1.0781 8.1602-4.8008 9.9609-3.7188 1.8008-8.2812 0.83984-10.922-2.2812-1.6797-2.1602-10.078-12.359-18.602-25.441 1.5586 23.52 4.8008 50.281 11.398 65.16 14.281 32.398 29.52 91.922 29.52 161.64 0 4.6797-3.6016 8.6406-8.2812 9-4.6797 0.35938-8.8789-2.8789-9.6016-7.5586-0.12109-0.71875-12.48-74.879-36.719-119.28-9.9609-18.121-17.762-37.68-23.52-54.961-0.35938 21 0.71875 45 6 65.16 4.5586 17.762 11.16 35.398 18.121 54.121 12 32.039 24.48 65.281 26.039 99.48 0.23828 4.4414-2.8789 8.3984-7.3203 9.2383-0.48047 0.12109-1.0781 0.12109-1.6797 0.12109-3.7188 0-7.1992-2.3984-8.5195-6-0.23828-0.71875-25.32-73.199-48.719-101.88-7.8008-9.4805-14.039-21.961-18.961-34.801 0.48047 16.441 1.9219 32.879 4.9219 45.602-7.8008-24.121-15.84-48.121-23.281-69.719-12.84-38.039-23.762-68.762-27.84-80.039 3.4805-5.1602 4.6797-10.32 6.1211-15.719 1.8008-7.0781 3.9609-15.961 12.238-30.238 6.9609-12 14.641-19.68 23.52-28.559 11.398-11.398 24.238-24.238 38.762-48.84 12.961-21.84 24.359-27.719 37.68-34.32 11.16-5.7617 23.879-12.121 38.039-28.199 16.441-18.602 39.84-27.84 55.801-32.398 6-1.8008 10.922-2.8789 14.039-3.6016 5.2812-1.1992 8.2812-1.8008 10.32-5.5195-18.949 31.793-27.109 92.633-28.672 105.83zm82.562-33.48c-14.879-78.719 10.078-171.96 22.68-211.68 0.96094 11.16 2.3984 23.52 3.9609 37.32 1.4414 12.48 2.8789 25.922 4.3203 40.441 0 0.60156 0.12109 1.0781 0.12109 1.6797 0.71875 7.4414 1.4414 15.238 2.1602 23.398 0.35938 5.2812 0.71875 10.32 0.96094 15.121v0.96094c2.0391 49.922-7.8008 75.48-10.199 80.762-9.7266 9.2383-18.605 11.516-24.004 11.996zm158.76 173.64c17.398-12 40.32-25.199 51.238-25.199 10.199 0 20.879 9.1211 27.602 16.559-33.121 21.242-63 15-78.84 8.6406zm144.72-10.441c-3.9609 1.6797-8.5195 0.23828-10.922-3.3594-14.281-21.719-83.172-51.562-116.29-51.562-15.84 0-43.668-21.875-59.027-40.477 0.71875 1.5586 1.5586 3.1211 2.2812 4.6797 18.48 35.16 1.1992 79.199 0.35938 81-1.5586 3.9609-5.6406 6.1211-9.8398 5.5195-4.1992-0.71875-7.3203-4.1992-7.4414-8.5195-0.23828-4.6797-2.7617-10.078-5.8789-15.238-5.5195 38.16-23.762 66.961-24.719 68.398-1.6797 2.6406-4.5586 4.1992-7.5586 4.1992-0.96094 0-1.8008-0.12109-2.7617-0.48047-3.8398-1.1992-6.4805-4.9219-6.2383-9 4.9219-96.48-17.641-165.36-27.48-190.44 3.2383-2.1602 6.4805-4.9219 9.8398-8.2812 0.71875-0.60156 1.1992-1.3203 1.5586-2.0391 0.12109-0.23828 0.96094-1.6797 2.0391-4.4414 3.8398-9.4805 11.641-34.078 11.039-76.922 6 0.48047 12.602 1.8008 20.398 4.4414 0.48047 0.23828 1.0781 0.48047 1.5586 0.48047 12.121 4.3203 26.879 11.641 45.961 23.879 16.68 10.922 36.602 25.32 60.602 44.879 10.199 8.3984 21.238 17.641 33.121 27.84-15.84-0.23828-38.16-9.7188-55.441-18.48 5.6406 6.3594 9.5391 18.898 21.539 22.379 43.32 12.719 52.738 38.699 52.98 40.141 0.48047 3.8398-1.5586 7.6797-5.0391 9.3594-3.6016 1.6797-7.8008 0.96094-10.559-2.0391-7.0781-7.5586-19.199-12-31.078-14.398 15.48 9.1211 33.961 36.035 58.68 43.715 48.48 15 63.359 52.523 63.719 54.805 0.84375 4.207-1.4375 8.4062-5.3984 9.9648zm373.56 444.48c-4.8008 1.4414-7.6797 6.3594-6.2383 11.16 0 0 0.71875 2.5195 0.83984 5.8789-22.801-2.8789-45.48-12.121-59.16-22.801-25.922-20.039-64.078-37.922-64.441-38.039-4.5586-2.1602-6.4805-7.4414-4.4414-12 2.1602-4.4414 7.4414-6.4805 12-4.3203 1.6797 0.71875 40.32 18.84 67.922 40.199 12.359 9.6016 34.68 18 55.32 19.68-0.60156 0.003906-1.2031 0.003906-1.8008 0.24219zm18.84-96.117c-6.2383-0.60156-22.078-3.8398-32.398-21.121-5.5195-9.1211-6.7188-19.078-3.4805-29.52 4.6797-15.359 17.281-26.879 20.641-28.441 1.0781-0.60156 1.9219-0.71875 2.2812-0.71875 0.23828 0 0.35938 0 0.48047 0.12109-0.23828 0.71875-0.71875 1.5586-1.1992 2.3984-3.3594 6.8398-10.441 21.121 2.3984 39.359 4.3203 6 9.1211 11.641 13.441 16.68 5.2812 6 14.16 16.199 13.68 18.48-0.84375 0.96094-6.4844 3.6016-15.844 2.7617z"/>
</svg>
