<?xml version="1.0" encoding="UTF-8"?>
<svg width="1200pt" height="1200pt" version="1.1" viewBox="0 0 1200 1200" xmlns="http://www.w3.org/2000/svg">
 <path fill="currentColor" d="m1139.7 675.12c0.37109 1.3555 0.37109 2.5781 0.12109 3.9375-2.0898 11.82-23.641 32.629-39.887 45.926l-12.059-10.094c-15.383-16.379-27.695-37.176-24.742-42.227 1.8477-3.3242 5.0508-3.8164 14.773-3.9375 9.3594 0 21.047-0.12109 31.02-8.6172 3.9375-3.3242 12.191-2.7109 19.703 1.5977 5.1719 2.9531 9.9727 7.8828 11.074 13.176zm-1079.6-166.45c11.449-84.086 55.031-130.87 83.102-152.79-11.566-3.9375-19.453-10.223-19.945-10.715-2.832-2.3398-4.0664-6.1562-3.0703-9.7305 0.98438-3.4453 4.0664-6.1562 7.6328-6.6484 33.238-4.6797 75.227-46.789 84.336-56.137-0.74219 8.7344-1.2344 17.855-1.2344 27.203-0.98438 67.344 13.906 144.66 48.637 174.71 63.527 55.031 80.27 117.2 80.398 117.82 1.1055 4.1875 4.9219 7.0195 8.9883 7.0195 0.86328 0 1.5977-0.12109 2.3398-0.37109 5.0508-1.2344 8.0039-6.2773 6.7695-11.207-0.74219-2.832-18.215-68.207-86.305-127.3-33.613-29.184-46.043-115-41.988-180.61v-0.12109c0.37109-1.3555 0.49219-2.7109 0.37109-4.0664 2.3398-32.508 8.8672-59.594 18.84-71.281 3.8164-4.3086 7.8828-7.6328 17.484 0.49219 1.5977 1.3555 3.2031 2.5938 4.8008 3.9375 4.6797 11.82 26.352 61.309 75.227 96.527 51.707 37.43 90 116.47 92.34 132.11 0.74219 4.6797 4.6797 8.0039 9.2266 8.0039 0.49219 0 0.86328-0.12109 1.3555-0.12109 5.0508-0.74219 8.6172-5.543 7.8828-10.586-3.6953-24.133-46.297-105.64-99.852-144.42-24.504-17.723-41.855-39.77-52.945-57.625 62.051 40.262 136.54 68.578 140.23 69.938 4.8008 1.8477 10.223-0.61328 12.059-5.4102 1.7266-4.8008-0.61328-10.223-5.4102-12.059-0.98438-0.37109-77.566-29.543-138.88-69.434 289.08-92.219 509.95 6.6484 592.44 54.168 66.109 38.039 98.496 73.621 100.46 83.352 3.2031 16.246 1.7266 27.203 0.12109 40.008-1.7266 13.789-3.6953 29.305 0.61328 52.32 3.6953 20.316 18.348 38.41 36.816 61.188 9.3594 11.566 19.945 24.625 30.168 39.516 31.766 46.164 48.504 76.586 57.121 95.785-12.434-4.8008-24.863-3.4453-33.359 3.8164-4.8008 4.0664-11.449 4.1875-18.961 4.1875-9.9727 0.12109-23.52 0.12109-30.898 13.297-11.82 20.555 18.348 54.66 27.828 64.633l0.74219 0.74219 14.891 12.434c1.2344 47.52-61.68 132.11-108.21 155.38-37.922 18.961-56.387 9.4805-161.28-50.352-14.531-8.2422-30.66-17.484-48.637-27.574-4.1875-2.3398-8.375-4.8008-12.805-7.2617-143.8-80.398-146.02-179.26-146.02-186.16v-0.37109c0.25391-5.1719-3.6953-9.4805-8.8672-9.7188-5.293 0-9.4805 3.6953-9.7188 8.8672-0.12109 4.5586-3.5742 114.62 155.5 203.64 1.7266 0.98438 3.4453 1.9688 5.1719 2.9531 5.6641 3.0703 11.074 6.1562 16.379 9.1094-29.797 64.883 2.4609 127.05 2.832 127.8 1.3555 2.7109 1.3555 5.9023 0 8.6172-1.3555 2.7109-4.0664 4.5586-7.1406 4.9219-11.566 1.5977-22.402-5.293-30.66-12.926 4.0664 20.555 18.84 38.664 19.078 38.902 2.3398 2.832 2.832 6.8984 1.1055 10.223-1.5977 3.0859-4.8008 4.9219-8.2422 4.9219l-0.76172-0.003907c-92.578-6.8984-195.5-96.887-230.59-130.26-2.2188 25.98 9.3594 48.266 9.4805 48.637 1.8477 3.3242 1.3555 7.5117-1.2344 10.344-2.4609 2.9531-6.5273 4.0664-10.094 2.7109-192.67-68.82-263.34-163.25-285.5-202.78-3.9375 14.891-1.2344 28.812-1.2344 28.934 0.86328 4.1875-1.1055 8.4961-4.9219 10.344-3.9375 1.8477-8.4961 0.86328-11.207-2.3398-104.03-123.12-114.25-251.89-114.5-295.48-6.2773 5.4102-14.652 14.281-21.793 23.387-2.5781 3.3242-7.0195 4.4297-10.957 2.832-3.8125-1.6289-6.1523-5.6953-5.5391-9.8711zm368.36 214.09c5.4102 0 9.8516-4.4297 9.8516-9.8516 0-5.4258-4.4297-9.8516-9.8516-9.8516-5.4102 0-9.8516 4.4297-9.8516 9.8516s4.4375 9.8516 9.8516 9.8516zm93.07-152.79c9.3594 0 16.992-8.375 16.992-18.719s-7.6328-18.707-16.992-18.707-16.871 8.375-16.871 18.707c0 10.332 7.5234 18.719 16.871 18.719zm50.484 171.62c9.2266 0 16.871-8.375 16.871-18.707 0-10.344-7.6328-18.719-16.871-18.719-9.3594 0-16.992 8.375-16.992 18.719 0 10.328 7.6328 18.707 16.992 18.707zm-7.2578-99.363c5.4102 0 9.8516-4.4297 9.8516-9.8516 0-5.4102-4.4297-9.8516-9.8516-9.8516-5.4102 0-9.8516 4.4297-9.8516 9.8516-0.003906 5.4258 4.4258 9.8516 9.8516 9.8516zm94.797 276.65c0 5.543 4.4297 9.8516 9.8516 9.8516 5.543 0 9.8516-4.3086 9.8516-9.8516 0-5.4102-4.3086-9.8516-9.8516-9.8516-5.4219 0-9.8516 4.4297-9.8516 9.8516zm-41.613-115.11c0 18.961 9.7188 34.344 21.793 34.344 11.941 0 21.672-15.383 21.672-34.344 0-18.961-9.7305-34.223-21.672-34.223-12.074-0.003906-21.793 15.262-21.793 34.223zm-28.32 61.559c-5.293 0.86328-8.6172 7.7539-7.3906 15.266 1.2344 7.5117 6.5273 12.926 11.941 12.059 5.293-0.86328 8.6172-7.6328 7.3906-15.266-1.2266-7.5-6.5195-12.922-11.941-12.059zm133.82-150.32c0-10.344-7.5117-18.707-16.871-18.707s-16.992 8.375-16.992 18.707c0 10.344 7.6328 18.59 16.992 18.59s16.871-8.2461 16.871-18.59zm80.52-60.203c9.3594 0 16.992-8.375 16.992-18.707 0-10.344-7.6328-18.719-16.992-18.719s-16.871 8.375-16.871 18.719c0.011719 10.332 7.5117 18.707 16.871 18.707zm-8.4961-63.781c5.4102 0 9.8516-4.4297 9.8516-9.8516 0-5.4102-4.4297-9.8516-9.8516-9.8516-5.543 0-9.8516 4.4297-9.8516 9.8516 0.011718 5.4258 4.3203 9.8516 9.8516 9.8516zm20.195 102.19c-5.4102 0-9.8516 4.4297-9.8516 9.8516 0 5.4258 4.4297 9.8516 9.8516 9.8516 5.4258 0 9.8516-4.4297 9.8516-9.8516s-4.4414-9.8516-9.8516-9.8516zm108.21-337.58c-5.543 0-9.8516 4.4297-9.8516 9.8516 0 5.4258 4.3086 9.8516 9.8516 9.8516 5.4102 0 9.8516-4.4297 9.8516-9.8516 0-5.4258-4.4258-9.8516-9.8516-9.8516zm-19.57-33.613c1.2344 7.5117 6.5273 12.926 11.941 12.059 5.293-0.86328 8.7344-7.7539 7.5117-15.266-1.2344-7.5117-6.6484-12.926-12.059-12.059-5.3086 0.85547-8.6328 7.7539-7.3945 15.266zm-44.57-19.57c0 5.4102 4.4297 9.8516 9.8516 9.8516 5.4102 0 9.8516-4.4297 9.8516-9.8516 0-5.4258-4.4297-9.8516-9.8516-9.8516s-9.8516 4.4258-9.8516 9.8516zm-49.367 127.67c0.49219 0.37109 55.645 40.008 68.699 90.863 1.1055 4.1875 4.9219 7.0195 8.9883 7.0195 0.86328 0 1.5977-0.12109 2.3398-0.37109 5.0508-1.2344 8.0039-6.2773 6.7695-11.328-0.61328-2.2188-1.2344-4.4297-1.9688-6.6484 3.9375-2.4609 8.9883-6.1562 14.16-11.328 9.9727 9.3594 53.184 56.387 42.719 157.22-11.941 113.76-68.449 129.52-115.49 120.53-46.906-9.1094-48.012-6.2773-39.516 8.4961 8.4961 14.652 134.07 68.449 176.43 50.352 42.48-18.098 19.824-25.859 9.6016-26.594-20.93-1.5977-37.055-29.051-24.254-73.008 20.809-71.773 55.285-212.5-27.336-274.55 2.832-10.094 3.9375-21.672 2.4609-35.207 3.2031-0.86328 5.1719-1.4766 5.543-1.5977 4.9219-1.4766 7.6328-6.7695 6.1562-11.566-1.5977-4.9219-6.7695-7.6328-11.699-6.1562-0.12109 0.12109-4.3086 1.4766-11.82 3.0859h-0.25391c-0.61328 0.12109-1.1055 0.25391-1.5977 0.37109-19.332 4.0664-57.625 9.6016-103.41 3.5742-4.1875-0.49219-8.2422 1.8477-9.8516 5.7852-1.5938 4.0352-0.23828 8.4609 3.3359 11.055zm-7.8828 101.69c1.7266 5.293 8.8672 7.5117 16.246 5.1719 7.2617-2.3398 11.82-8.375 10.094-13.547-1.5977-5.1719-8.8672-7.5117-16.129-5.1719-7.2578 2.3516-11.809 8.375-10.211 13.547zm-38.16-64.883c0 10.344 7.5117 18.59 16.871 18.59s16.992-8.2422 16.992-18.59c0-10.344-7.6328-18.707-16.992-18.707-9.3711-0.003906-16.871 8.375-16.871 18.707zm-10.715 212.25c-5.293 0.86328-8.7344 7.6328-7.5117 15.145 1.2344 7.6328 6.6484 13.055 12.059 12.059 5.293-0.86328 8.6172-7.6328 7.3906-15.145-1.2227-7.6172-6.5273-13.043-11.938-12.059zm-7.6328-94.801c-5.4102 0-9.8516 4.3086-9.8516 9.8516 0 5.4102 4.4297 9.8516 9.8516 9.8516 5.543 0 9.8516-4.4297 9.8516-9.8516 0-5.543-4.3086-9.8516-9.8516-9.8516zm-17.977-78.789c-11.82 0-21.422 11.449-21.422 25.488 0 14.16 9.6016 25.609 21.422 25.609 11.82 0 21.539-11.449 21.539-25.609 0-14.043-9.7188-25.488-21.539-25.488zm-36.938-234.66c1.5977 5.1719 8.8672 7.5117 16.129 5.1719 7.2617-2.3398 11.82-8.4961 10.223-13.668-1.7266-5.1719-8.9883-7.5117-16.246-5.1719-7.2734 2.3398-11.832 8.4961-10.105 13.668zm-27.453 191.07c0 14.039 9.6016 25.488 21.422 25.488 11.941 0 21.539-11.449 21.539-25.488 0-14.16-9.6016-25.609-21.539-25.609-11.824 0-21.422 11.449-21.422 25.609zm25.367 123.73c-1.2344-7.5117-6.5273-12.926-11.941-12.059-5.293 0.86328-8.7344 7.6328-7.5117 15.266 1.2344 7.5117 6.6484 12.926 12.059 12.059 5.293-0.98438 8.6172-7.7539 7.3945-15.266zm-41.004 69.074c0 14.16 9.6016 25.609 21.422 25.609 11.941 0 21.539-11.449 21.539-25.609 0-14.16-9.6016-25.488-21.539-25.488-11.824 0-21.422 11.328-21.422 25.488zm-21.539-137.15c1.7266 5.1719 8.9883 7.5117 16.246 5.1719 7.2617-2.3398 11.82-8.4961 10.223-13.668-1.7266-5.1719-8.9883-7.5117-16.246-5.1719-7.2734 2.3398-11.832 8.4961-10.223 13.668zm-32.016-247.11c0 5.543 4.4297 9.8516 9.8516 9.8516 5.4102 0 9.8516-4.3086 9.8516-9.8516 0-5.4102-4.4297-9.8516-9.8516-9.8516-5.4141 0-9.8516 4.4414-9.8516 9.8516zm-25.609 278.87c4.5586 18.469 17.605 31.02 29.305 28.188 11.699-2.9531 17.363-20.195 12.805-38.531-4.4297-18.469-17.605-31.02-29.184-28.188-11.691 2.9375-17.473 20.18-12.926 38.531zm-23.641-77.328c0 5.4102 4.4297 9.8516 9.8516 9.8516 5.4102 0 9.8516-4.4297 9.8516-9.8516 0-5.543-4.4297-9.8516-9.8516-9.8516-5.4102 0.011718-9.8516 4.3164-9.8516 9.8516zm-1.1055 324.66c0-5.4102-4.4297-9.8516-9.8516-9.8516-5.543 0-9.8516 4.4297-9.8516 9.8516 0 5.4258 4.3086 9.8516 9.8516 9.8516 5.4258 0 9.8516-4.4297 9.8516-9.8516zm-43.953-561.53c0 14.16 9.6016 25.488 21.422 25.488 11.82 0 21.539-11.328 21.539-25.488s-9.7188-25.609-21.539-25.609c-11.812 0.003907-21.422 11.449-21.422 25.609zm-19.691 368.11c0 5.4102 4.4297 9.8516 9.8516 9.8516 5.4102 0 9.8516-4.4297 9.8516-9.8516 0-5.543-4.4297-9.8516-9.8516-9.8516-5.4258 0-9.8516 4.3203-9.8516 9.8516zm-8.8711 108.47c0 14.16 9.6016 25.609 21.422 25.609 11.941 0 21.539-11.449 21.539-25.609 0-14.039-9.6016-25.488-21.539-25.488-11.82 0-21.422 11.449-21.422 25.488zm-23.52 60.457c-11.941 0-21.672 15.383-21.672 34.344 0 18.961 9.7188 34.344 21.672 34.344 11.941 0 21.672-15.383 21.672-34.344 0-18.961-9.7188-34.344-21.672-34.344zm-17.602-205.73c0 5.4102 4.4297 9.8516 9.8516 9.8516 5.543 0 9.8516-4.4297 9.8516-9.8516 0-5.543-4.3086-9.8516-9.8516-9.8516-5.4141 0-9.8516 4.3086-9.8516 9.8516zm-27.699 58.477c4.4297 18.348 17.605 31.02 29.184 28.066 11.699-2.832 17.484-20.062 12.926-38.41-4.5586-18.469-17.605-31.02-29.305-28.188-11.566 2.832-17.363 20.062-12.805 38.531zm-17.973 153.04c-9.3594 0-16.871 8.375-16.871 18.719s7.5117 18.707 16.871 18.707c9.3594 0 16.992-8.375 16.992-18.707-0.003906-10.355-7.6328-18.719-16.992-18.719zm-33.855-56.266c0 10.344 7.6328 18.719 16.992 18.719s16.871-8.375 16.871-18.719-7.5117-18.707-16.871-18.707c-9.3594-0.003906-16.992 8.3633-16.992 18.707zm-19.703-66.973c0 5.4102 4.4297 9.8516 9.8516 9.8516 5.543 0 9.8516-4.4297 9.8516-9.8516 0-5.4258-4.3086-9.8516-9.8516-9.8516-5.4219 0-9.8516 4.4258-9.8516 9.8516zm-9.8516 108.09c-7.2617 2.3398-11.82 8.375-10.094 13.547 1.5977 5.293 8.8672 7.5117 16.129 5.1719 7.2617-2.3398 11.82-8.375 10.223-13.547-1.7266-5.1719-8.8672-7.5117-16.258-5.1719zm-42.348-138.5c0 5.4102 4.4297 9.8516 9.8516 9.8516 5.4102 0 9.8516-4.4297 9.8516-9.8516 0-5.4258-4.4297-9.8516-9.8516-9.8516-5.4219 0-9.8516 4.4297-9.8516 9.8516zm-8.7461 83.715c0 14.16 9.6016 25.488 21.539 25.488 11.82 0 21.422-11.328 21.422-25.488s-9.6016-25.488-21.422-25.488c-11.93 0-21.539 11.328-21.539 25.488zm-41.977-170.76c0 10.344 7.6328 18.707 16.871 18.707 9.3594 0 16.992-8.375 16.992-18.707 0-10.344-7.6328-18.719-16.992-18.719-9.2422 0.011719-16.871 8.375-16.871 18.719zm-11.328 52.691c-11.941 0-21.672 15.383-21.672 34.344 0 18.961 9.7188 34.344 21.672 34.344 12.059 0 21.793-15.383 21.793-34.344-0.003907-18.945-9.7344-34.344-21.793-34.344zm-43.094-143.55c0 14.16 9.6016 25.609 21.422 25.609 11.82 0 21.539-11.449 21.539-25.609 0-14.039-9.7188-25.488-21.539-25.488-11.82 0.011718-21.422 11.461-21.422 25.488zm-6.6484 76.824c0 5.4102 4.4297 9.8516 9.8516 9.8516 5.4258 0 9.8516-4.4297 9.8516-9.8516 0-5.543-4.4297-9.8516-9.8516-9.8516s-9.8516 4.3203-9.8516 9.8516zm748.43-93.938c-16.871 3.2031-41.855 6.0352-71.531 4.8008 14.281 13.789 32.258 33.852 44.074 57.984 11.449-7.9922 30.527-26.953 27.457-62.785z"/>
</svg>
