<?xml version="1.0" encoding="UTF-8"?>
<svg width="1200pt" height="1200pt" version="1.1" viewBox="0 0 1200 1200" xmlns="http://www.w3.org/2000/svg">
 <path fill="currentColor" d="m1090.2 647.4c0.35938-3-0.83984-6-3.2383-7.9219-2.2812-1.9219-5.5195-2.5195-8.2812-1.5586-0.23828 0-21.238 6.3594-35.879-1.4414-6.2383-3.3594-10.32-8.7617-12.719-16.68-7.6797-25.801 16.559-48.961 26.879-57.48 13.559 8.1602 24.602 15.238 32.16 20.039 15.121 9.7188 22.32 27.961 17.879 45.359-3.6016 13.922-8.1602 29.039-14.52 44.398-2.5234-6.5938-2.8828-17.633-2.2812-24.715zm-978.6-213.96c10.441 27.48 34.922 41.398 57.602 54.238 19.078 10.801 38.762 21.961 50.52 40.441 35.762 57.121 154.44 163.08 213.48 163.08 4.4414 0 8.5195-0.60156 12.238-1.8008 51.961-17.879 64.922-103.08 54.84-179.52-4.3203-32.281-40.922-252.12-77.52-324 343.32-6.1211 403.2 263.64 405.6 275.4 0.71875 3.4805 3.4805 6.2383 7.0781 6.9609 78.121 15.961 154.44 54.84 205.2 84.359-14.52 13.199-37.441 40.078-27.84 72.359 3.8398 12.602 11.039 21.84 21.602 27.359 12.719 6.8398 27.602 6.6016 37.559 5.2812 0.35938 9.3594 2.1602 21.961 8.7617 29.879 0.96094 1.1992 2.1602 2.2812 3.2383 3.2383-13.199 25.922-32.52 51.48-62.16 72.121-93.359 65.039-226.8 73.801-287.76 59.16-56.16-13.441-70.922 1.5586-94.199 31.559-4.8008 6.2383-10.32 13.32-17.039 20.641-30.84 34.441-49.32 124.2-54.84 153.84-56.039-15.961-134.04-78.48-134.88-79.199-2.2812-1.6797-5.1602-2.3984-7.9219-1.6797s-5.0391 2.6406-6.1211 5.2812c-2.1602 5.3984-3.4805 16.559-4.0781 26.281-106.68-69-156.84-182.64-157.44-183.84-1.0781-2.6406-3.4805-4.5586-6.2383-5.2812-2.8789-0.60156-5.7617 0.12109-7.9219 2.0391-10.078 8.8789-15.121 23.281-17.641 35.641-64.441-94.922-92.398-239.4-92.762-240.96-0.48047-2.7617-2.2812-5.1602-4.8008-6.3594-2.6406-1.3203-5.6406-1.1992-8.1602 0.12109-8.8789 4.5586-16.32 11.281-22.078 17.398-15.234-79.676 1.3242-135.84 13.684-164.04zm531.96-0.36328c2.7617 4.1992 8.3984 5.3984 12.48 2.6406 2.2812-1.4414 5.3984-3.3594 9.1211-5.5195 10.922 15.602 26.762 25.68 45.238 28.68 3.8398 0.71875 7.6797 0.96094 11.52 0.96094 15.121 0 29.52-4.6797 38.879-12.961 4.9219-4.3203 7.3203-10.078 6.7188-16.199-1.5586-18.719-30.961-37.559-36.84-41.039-1.5586-0.96094-3.4805-1.3203-5.0391-1.3203-31.078 1.0781-77.398 31.078-79.441 32.398-4.0781 2.6406-5.2773 8.2812-2.6367 12.359zm69.719 8.043c15.48 2.5195 29.398-2.1602 35.641-7.6797 0.71875-0.71875 0.71875-0.96094 0.71875-1.1992-0.48047-5.8789-13.68-17.762-26.039-25.801-12.359 1.1992-28.559 8.0391-42.48 15 9.9609 13.438 22.684 18.117 32.16 19.68zm-535.2 30.957c21 11.879 42.719 24.121 56.879 46.559 37.199 59.281 165.6 167.04 204.6 153.72 40.199-13.801 51.961-91.078 42.84-160.2-10.922-82.922-53.641-293.16-81.121-328.2-0.48047-0.48047-0.96094-1.0781-1.3203-1.6797-0.83984-0.83984-1.6797-1.5586-2.3984-2.1602-20.16-13.922-39-6.9609-48.48-1.5586-4.1992 2.3984-8.7617 4.8008-13.68 6.9609-29.16 12.602-175.92 80.281-204.6 179.52-20.039 69 9.7227 85.801 47.281 107.04z"/>
</svg>
