<?xml version="1.0" encoding="UTF-8"?>
<svg width="1200pt" height="1200pt" version="1.1" viewBox="0 0 1200 1200" xmlns="http://www.w3.org/2000/svg">
 <path fill="currentColor" d="m492.09 359.34c4.3203 4.6797 6.9609 11.039 6.9609 17.879 0 14.641-12 26.52-26.641 26.52s-26.641-11.879-26.641-26.52 12-26.641 26.641-26.641c7.3203 0 13.922 3 18.719 7.6797 0.35938 0.36328 0.59766 0.72266 0.96094 1.082zm614.52 262.68c48.719 169.08 37.199 416.64-7.3203 456.72-5.7617 5.2812-12.238 7.9219-19.078 7.9219-1.8008 0-3.6016-0.23828-5.5195-0.60156-31.441-6.3594-60.719-64.801-105.12-160.32-26.039-55.922-52.922-113.76-75.719-137.16-44.879-46.199-66.48-66.961-115.2-101.16-9.2383-6.4805-24.359-23.039-42.961-45.121-17.16 3.2383-73.078 12.84-146.88 12.84-20.16 0-41.641-0.71875-63.961-2.5195-43.441-3.3594-78.238-2.8789-109.08-2.5195-51.961 0.60156-93 1.0781-147.96-15.719-91.078-27.719-177.96-159.6-201.96-265.44-11.16-48.961 0.60156-100.08 33.121-143.76 47.641-64.199 133.08-103.56 240.48-111.12 107.64-7.5586 207.24 46.199 271.8 92.398 63.961 45.961 106.08 92.52 113.76 101.4h0.12109c28.801 12.238 287.28 126.96 365.52 275.28 0.48047 0.83984 0.96094 1.6797 1.3203 2.6406 6.2305 11.887 11.152 24.008 14.633 36.246zm-402.36-125.16s258.48-24.48 351.24 193.2c2.8789 6.8398 5.6406 13.559 8.1602 20.281h0.12109c1.4414-31.32-20.762-105.24-30.238-133.44-1.0781-3.3594-0.23828-6.9609 2.2812-9.3594 2.3984-2.3984 6-3.1211 9.2383-2.0391l18 6.2383c-86.762-132.36-321.84-237.36-345.24-247.56-16.32 1.1992-36 10.922-56.762 21.121-30.84 15.238-62.641 30.84-90.84 21.719-24.238-7.9219-44.52-8.1602-56.641-7.0781-2.7617-6.4805-6.9609-12.121-12.238-16.68-7.8008-6.6016-17.762-10.68-28.922-10.68-24.602 0-44.641 20.039-44.641 44.641 0 24.602 20.039 44.52 44.641 44.52 3.6016 0 7.0781-0.48047 10.441-1.3203h0.12109c8.6406-2.0391 16.32-6.7188 22.199-13.078 18.121 5.2812 46.078 15.238 74.762 32.52 27.84 16.68 78.84 79.441 128.04 140.16 13.078 16.078 25.801 31.801 37.32 45.719 0.60156 0.60156 1.0781 1.1992 1.5586 1.8008 18.602 22.199 33.961 39.48 42.121 45.121 50.039 35.16 72 56.281 117.84 103.44 7.9219 8.1602 15.961 19.559 24.238 33.121 1.4414-4.9219 2.7617-10.922 3.7188-16.801 0.60156-3.1211 2.6406-5.7617 5.6406-6.9609 2.8789-1.0781 6.2383-0.71875 8.7617 1.1992 9.8398 7.5586 42.238 3.6016 59.281-0.96094 4.3203-9.1211 6.2383-49.68 5.1602-83.762-0.12109-3.4805 1.8008-6.7188 4.8008-8.2812 3.1211-1.5586 6.8398-1.3203 9.6016 0.83984 5.0391 3.7188 10.078 6.6016 14.762 8.8789-0.35938-0.83984-0.71875-1.5586-1.0781-2.2812-68.289-137.28-161.05-179.88-337.45-204.24zm366.6 232.44c-1.8008-0.12109-8.7617-0.48047-18.238-3 47.039 122.4 30.602 300.48 25.801 342.12 2.1602 0.48047 5.0391 0.48047 8.8789-3 4.9219-4.4414 9.3594-12.719 13.441-24.121 0.12109-0.12109 0.12109-0.12109 0.12109-0.23828 10.078-52.801 21.355-168.36-30.004-311.76z"/>
</svg>
