<?xml version="1.0" encoding="UTF-8"?>
<svg width="1200pt" height="1200pt" version="1.1" viewBox="0 0 1200 1200" xmlns="http://www.w3.org/2000/svg">
 <path fill="currentColor" d="m897.32 305.05c-10.68-9-57.602-46.32-137.4-79.441-82.559-34.32-217.32-70.32-390.48-46.922-4.6797 0.60156-8.0391 4.8008-7.8008 9.4805 0.35938 4.6797 4.3203 8.3984 9 8.3984 7.3203 0 22.801 1.0781 37.441 4.6797-46.078 6.9609-130.32 24-166.44 58.32-2.7617 2.5195-3.6016 6.6016-2.0391 10.078 1.5586 3.4805 5.0391 5.5195 8.8789 5.3984 8.0391-0.60156 18.602-0.60156 28.078 0.48047-38.039 13.68-107.64 43.559-125.52 82.559-1.5586 3.4805-0.83984 7.5586 1.9219 10.199 2.6406 2.6406 6.7188 3.3594 10.199 1.6797 9.2383-4.4414 23.281-9.6016 35.879-12-25.32 19.441-64.922 56.641-77.879 106.32-1.0781 3.8398 0.60156 7.9219 4.0781 9.9609 3.3594 2.0391 7.8008 1.6797 10.68-1.0781 7.4414-6.9609 18.602-15.719 28.32-21.359-8.7617 19.922-24.238 51.84-41.16 70.922-28.68 32.039-58.922 121.2-58.922 150.84 0 3.9609 2.6406 7.4414 6.4805 8.6406 3.8398 1.0781 7.9219-0.35938 10.078-3.7188 0.12109-0.23828 9.9609-15.48 21.84-31.078-8.0391 36.359-15.84 90.602-0.48047 122.76 1.5586 3.2383 4.9219 5.2812 8.5195 5.0391 3.7188-0.12109 6.8398-2.5195 8.0391-5.8789 2.2812-6.3594 8.2812-20.281 15.961-32.16-5.3984 29.398-11.879 73.68-7.3203 99.359 0.71875 4.0781 4.0781 7.1992 8.2812 7.4414 4.0781 0.23828 7.9219-2.2812 9.1211-6.2383 3.1211-9.8398 10.922-29.879 21.602-47.039-8.1602 29.762-16.922 71.641-13.199 104.64 0.35938 4.0781 3.6016 7.3203 7.8008 7.9219 4.1992 0.60156 8.0391-1.8008 9.4805-5.6406 4.5586-11.762 15.961-38.52 27.359-56.398 0.83984 13.199 0.35938 29.16-5.0391 39.961-1.8008 3.7188-0.83984 8.2812 2.2812 10.922 3.2383 2.6406 7.9219 2.8789 11.16 0.23828 5.0391-3.7188 22.441-17.281 35.52-32.16 0.83984 19.32-0.12109 46.922-8.3984 74.16-1.1992 3.7188 0.23828 7.8008 3.6016 10.078 3.2383 2.1602 7.5586 2.0391 10.68-0.48047l13.078-10.559c0.71875 13.078 2.5195 30.359 7.0781 41.879 1.4414 3.6016 5.0391 5.7617 9 5.6406 3.9609-0.35938 7.1992-3.1211 8.1602-6.9609 0-0.23828 4.9219-20.039 14.281-39.961-1.0781 29.16 0.71875 69 15.961 90.961 1.6797 2.3984 4.4414 3.8398 7.3203 3.8398 0.60156 0 1.1992 0 1.8008-0.12109 3.4805-0.71875 6.3594-3.4805 7.0781-6.9609 0-0.35937 8.1602-36.719 34.68-57.121 13.922-10.68 21.961-23.879 26.641-35.762 3.2383 10.32 5.8789 21.84 5.2812 31.078-0.23828 4.3203 2.6406 8.2812 6.8398 9.3594 4.1992 1.0781 8.5195-1.0781 10.32-5.0391 1.0781-2.1602 24.602-53.879 18.238-108.24-2.2812-19.922 0-38.039 3.4805-52.559 4.9219 38.398 15.359 94.801 35.52 118.08 2.2812 2.6406 5.7617 3.6016 9 2.8789 3.3594-0.83984 5.8789-3.4805 6.6016-6.8398 0.12109-0.60156 11.879-51.961 29.641-86.281 3.4805 15 8.8789 28.078 17.398 31.199 4.0781 1.4414 8.6406-0.12109 10.801-3.8398 0.60156-0.83984 9.6016-16.199 12.48-39.238 4.1992 11.762 6.9609 29.16 4.0781 54.121-0.48047 4.0781 1.8008 7.9219 5.6406 9.4805 3.7188 1.4414 8.0391 0.12109 10.559-3.1211 1.0781-1.5586 22.922-31.559 30.84-63.602 3.8398 9.9609 6.6016 25.32 3.8398 48.121-0.35937 3.3594 1.0781 6.6016 3.9609 8.5195 2.7617 1.9219 6.3594 2.0391 9.3594 0.35938 0.60156-0.23828 8.3984-4.5586 16.078-12.121 0.23828 6.3594 0.23828 13.078-0.48047 19.32-0.48047 3.9609 1.9219 7.8008 5.6406 9.3594 3.8398 1.4414 8.1602 0.23828 10.559-3.1211 1.3203-1.8008 27.359-37.68 23.281-80.039 9.4805 13.801 16.801 39.602 4.0781 86.879-0.96094 3.6016 0.48047 7.5586 3.6016 9.7188 3.1211 2.1602 7.1992 2.1602 10.32-0.12109 1.0781-0.71875 23.281-16.68 32.398-46.68 13.441 13.801 33.84 39.121 32.52 63.961-0.23828 4.4414 2.6406 8.2812 6.9609 9.2383 4.3203 1.0781 8.6406-1.1992 10.32-5.1602 0.83984-2.1602 18.48-44.039 7.4414-87.961 17.879 12.84 35.879 28.68 39.602 40.68 1.3203 4.3203 5.8789 7.0781 10.32 6.1211 4.4414-0.83984 7.5586-4.9219 7.1992-9.6016-0.12109-1.9219-4.3203-48.602-32.879-87.48-20.281-27.602-37.199-56.16-45.238-75.359 4.1992 1.9219 7.3203 3.6016 8.1602 4.5586 1.4414 4.3203 6 6.9609 10.559 5.8789 4.4414-0.96094 7.4414-5.2812 6.9609-9.8398-0.35938-2.6406-1.9219-14.762-4.6797-29.039 8.7617 8.7617 18 15.719 26.16 17.16 3 0.48047 6.1211-0.48047 8.1602-2.7617 2.1602-2.2812 2.8789-5.5195 2.0391-8.5195-4.8008-17.16-13.68-65.879 2.3984-84.961 7.9219-9.3594 13.32-16.199 16.922-21.359 6.8398 7.9219 17.16 18.602 27.961 25.559 3.1211 2.0391 7.3203 1.8008 10.32-0.48047s4.1992-6.3594 3-9.9609c-3.2383-9.9609-5.8789-21.719-6.9609-31.32 6.2383 6.1211 14.039 12.238 22.199 14.762 2.8789 0.96094 6 0.35938 8.3984-1.5586 2.2812-1.9219 3.6016-4.9219 3.2383-7.9219-1.5586-14.641-1.8008-37.32 1.4414-48.359 52.922 0.23828 112.2 4.0781 164.52 15.48 9.2383 24.84 6.6016 52.199 6.6016 52.559-0.48047 3.8398 1.5586 7.4414 5.0391 9.1211 1.3203 0.60156 2.5195 0.83984 3.8398 0.83984 2.3984 0 4.6797-0.96094 6.4805-2.7617 0.71875-0.71875 69.238-72.961 12.238-180-52.68-98.863-192.24-111.46-215.88-112.91zm-665.88 393.6c-1.0781 3.9609-4.6797 6.7188-8.7617 6.7188h-0.12109c-4.0781 0-7.6797-2.8789-8.6406-6.8398-16.199-66.84-2.6406-117.12 8.8789-144.12-8.1602 4.6797-17.641 10.922-25.922 16.801-3.7188 2.6406-8.8789 2.0391-12-1.3203-3-3.3594-3-8.5195 0-12 9.9609-11.281 18.48-39.359 20.879-49.199 1.1992-4.8008 6.1211-7.6797 10.801-6.6016 4.9219 1.1992 7.8008 6.1211 6.6016 10.922-0.48047 2.0391-3.1211 12.602-7.5586 24.719 20.398-11.52 26.398-9.7188 28.922-9 2.7617 0.83984 4.9219 3 5.8789 5.6406 0.96094 2.7617 0.48047 5.7617-1.0781 8.1602-0.35938 0.48047-29.762 43.801-24 114.24 14.398-42.359 41.039-106.08 75.48-119.52 4.5586-1.8008 9.8398 0.48047 11.641 5.0391 1.8008 4.6797-0.48047 9.8398-5.1602 11.641-34.68 13.684-66.48 109.08-75.84 144.72zm147.36 23.281c-0.23828 0.23828-26.879 20.039-29.281 43.922-0.96094 10.801-5.5195 24.602-10.922 37.801 7.9219-10.078 15.602-22.078 21-35.641 1.9219-4.5586 7.1992-6.8398 11.762-5.0391 4.5586 1.9219 6.8398 7.0781 5.0391 11.762-19.078 47.641-60.961 76.801-62.641 78.121-1.5586 0.96094-3.3594 1.5586-5.1602 1.5586-2.1602 0-4.3203-0.83984-6.1211-2.3984-3-2.7617-3.8398-7.3203-1.6797-11.039 0.23828-0.48047 28.32-50.762 30.84-76.922 3.1211-31.922 35.16-55.68 36.602-56.641 3.9609-2.8789 9.6016-2.0391 12.48 1.9219 3 4.0703 2.043 9.7109-1.918 12.594zm-0.71875-352.32c-0.48047 0.23828-39.238 23.641-58.199 57.961 12.719-8.7617 29.16-17.398 45.961-19.801 5.0391-0.71875 9.4805 2.7617 10.199 7.6797 0.60156 4.9219-2.7617 9.4805-7.6797 10.199-29.52 4.0781-60.359 34.559-60.719 34.922-1.6797 1.6797-4.0781 2.6406-6.3594 2.6406-1.3203 0-2.7617-0.35938-3.9609-0.96094-3.4805-1.6797-5.5195-5.3984-4.9219-9.2383 7.8008-57.602 73.68-97.199 76.559-98.879 4.1992-2.5195 9.7188-1.0781 12.238 3.1211 2.5195 4.3125 1.1992 9.8359-3.1172 12.355zm101.4 206.88c-0.83984 0-1.6797-0.12109-2.5195-0.35938-3.6016-1.0781-6.2383-4.3203-6.3594-8.0391-1.1992-19.801 3.7188-40.559 7.9219-54.238-15 6.1211-30.48 19.32-36.48 25.32-3 2.8789-7.4414 3.4805-11.039 1.3203-3.4805-2.0391-5.1602-6.3594-3.9609-10.32 23.762-78.84 103.8-116.4 107.28-117.96 4.4414-2.1602 9.8398-0.12109 11.879 4.4414 2.0391 4.4414 0.12109 9.8398-4.4414 11.879-0.60156 0.35938-53.879 25.441-83.52 75.359 10.441-6.1211 22.441-11.16 34.078-11.16 3 0 5.8789 1.4414 7.4414 3.9609 1.6797 2.5195 2.0391 5.7617 0.83984 8.5195-0.12109 0.23828-6.7188 16.32-10.199 35.641 12.602-13.32 29.641-28.32 45.48-32.281 4.8008-1.1992 9.7188 1.6797 10.922 6.4805 1.1992 4.8008-1.8008 9.7188-6.6016 10.922-18.359 4.5586-44.879 35.52-53.52 46.922-1.6836 2.3945-4.3242 3.5938-7.2031 3.5938zm82.199 61.441c-24 10.441-37.922 62.039-41.281 81-0.60156 3.4805-3.1211 6.2383-6.4805 7.1992-0.83984 0.23828-1.5586 0.23828-2.3984 0.23828-2.6406 0-5.1602-1.0781-6.8398-3.1211-22.078-26.039-21.359-74.398-21.359-76.441 0.12109-4.9219 4.0781-8.8789 9.1211-8.7617 5.0391 0.12109 9 4.1992 8.8789 9.1211 0 0.35938-0.35938 24.48 6.8398 45.359 6.9609-24.48 21.238-60.238 46.441-71.16 4.5586-1.9219 9.8398 0.12109 11.762 4.6797 2.0352 4.5664-0.125 9.9648-4.6836 11.887zm25.441-341.88c-3 3.9609-8.6406 4.6797-12.48 1.6797-1.6797-1.1992-29.039-21.359-77.398-15.359 14.039 3.3594 27.602 9.1211 35.762 18.84 3.2383 3.8398 2.7617 9.4805-1.0781 12.719-1.6797 1.4414-3.7188 2.0391-5.7617 2.0391-2.6406 0-5.1602-1.0781-6.9609-3.1211-13.32-15.961-56.641-17.52-72.121-16.922-4.8008 0.23828-8.2812-2.7617-9.2383-7.0781-0.96094-4.3203 1.3203-8.6406 5.3984-10.32 87.84-36.238 140.16 3.2383 142.32 4.9219 3.957 3.1211 4.6758 8.7617 1.5586 12.602zm149.4 279.12c-35.281 21.719-39.238 126.96-37.801 165.72 0.23828 3.8398-2.1602 7.3203-5.7617 8.7617-1.0781 0.35938-2.1602 0.48047-3.2383 0.48047-2.6406 0-5.1602-1.0781-6.9609-3.2383-10.078-12.359-18.719-32.879-24.238-48.48l-8.2812 15.84c-1.6797 3.1211-4.5586 5.0391-8.3984 4.8008-3.4805-0.12109-6.6016-2.2812-7.9219-5.5195-17.879-42.48 6.4805-93 7.5586-95.16 2.1602-4.4414 7.5586-6.3594 12-4.0781 4.4414 2.1602 6.3594 7.5586 4.1992 12-0.23828 0.35938-13.922 28.801-12.121 58.078l6.9609-13.199c1.6797-3.2383 5.2812-5.1602 9-4.8008 3.6016 0.48047 6.7188 3 7.6797 6.6016 0 0.23828 4.6797 16.441 11.641 33.238 1.4414-46.68 9.6016-123.84 46.199-146.4 4.3203-2.5195 9.8398-1.1992 12.48 3 2.5234 4.1953 1.2031 9.7148-2.9961 12.355zm-15.598-191.04c-22.922-3.7188-33.359-29.398-36.48-39 5.3984-7.4414 21-25.441 40.441-22.32 20.641 3.3594 28.441 29.762 30.238 37.32-2.4023 6.9609-11.402 27.48-34.199 24zm189.6 120.72h-3.9609c-34.68 0-66.359 1.4414-91.199 3.1211 24.359-7.5586 47.641-12.359 48-12.359 4.4414-0.96094 7.5586-4.9219 7.1992-9.4805-0.23828-4.4414-3.8398-8.0391-8.2812-8.3984-47.281-3.3594-82.559-9.8398-107.4-16.199 102.36 3.4805 266.88 25.078 299.64 45 4.9219 3 9.1211 6.7188 12.719 10.922-51.117-9.4844-106.8-12.484-156.72-12.605zm192.6 58.801c-2.5195-23.52-11.281-55.441-39.238-72.48-34.801-21.121-183.96-40.922-287.04-46.441 61.68-8.5195 130.8-8.6406 136.68-8.6406h0.48047c3.1211 0 6-1.6797 7.6797-4.3203 1.5586-2.7617 1.6797-6.1211 0.23828-8.8789-21.84-41.879-21.602-82.68-20.16-99.359 32.398 2.8789 151.08 19.32 195.6 102.84 33.477 63 19.676 111.24 5.7578 137.28zm-131.32-206.66c8.7969 10.801-4.9453 41.074-25.738 41.879-20.809 0.80469-17.785-13.598-17.785-13.598 0-9.6094 34.715-39.082 43.523-28.281zm-234.24-6.4219c0 10.129-5.7344 18.324-12.805 18.324-7.0664 0-12.805-8.207-12.805-18.324 0-10.117 5.7344-18.324 12.805-18.324 7.0703 0 12.805 8.1992 12.805 18.324z"/>
</svg>
