<?xml version="1.0" encoding="UTF-8"?>
<svg fill="currentColor" width="1200pt" height="1200pt" version="1.1" viewBox="0 0 1200 1200" xmlns="http://www.w3.org/2000/svg">
 <path fill="currentColor" d="m995.02 698.93c-2.1602-1.3203-4.8008-1.6797-7.3203-0.96094-1.1406 0.38281-6.4922 2.1953-12.539 5.7109-19.801-20.316-40.57-40.934-65.699-55.668-13.176-8.0156-25.211-16.559-36.816-26.41-21.527-20.902-52.969-36.469-77.578-51.145-24.012-16.738-75.805-73.824-98.473-94.848-1.8594-1.9453-4.8125 0.85156-3.2539 2.8438 0 0 56.426 73.812 56.426 73.812 16.957 26.977 47.652 45.875 75.742 56.762 27.648 12.695 49.883 36.469 76.859 50.676 23.797 13.066 43.754 31.621 63.07 51.238-1.3789 1.3086-2.6523 2.7344-3.8633 4.2734-19.547-20.617-39.73-41.699-65.723-54.191-45.395-22.645-94.789-41.93-128.65-80.941-2.5195-2.6523-6.8164 0.99609-4.7031 3.9258 12.312 17.172 26.062 34.738 43.836 46.414 25.523 17.426 56.16 30.012 84.121 42.59 25.309 11.23 46.078 30.852 66.742 49.453-0.32422 0.73047-0.75781 1.3789-1.0312 2.1484-34.727-34.656-103.95-65.664-125.81-70.754-21.121-4.9219-67.922-41.281-84.238-54.961-2.2812-1.9219-5.6406-1.9219-7.8008 0.12109-41.398 37.441-80.281 19.078-81.84 18.238-1.9219-0.96094-4.1992-0.83984-6 0.35938-1.6797 1.1992-2.7617 3.1211-2.7617 5.2812 0.60156 17.281 16.441 38.641 25.199 49.199-23.52 12.602-27.84 47.039-32.16 80.398-1.8008 14.281-3.7188 29.039-6.9609 42-9.3594 36.238-1.9219 96.602 2.2812 123.72-17.16-13.078-22.922-28.922-22.441-81.719 0.35938-38.16 8.8789-75 16.441-107.52 5.2812-22.199 10.199-43.199 11.879-62.039 2.0391-22.078-0.35938-35.762-3.8398-44.281-0.35938-1.1992-0.83984-2.1602-1.4414-3.1211-3.7188-8.6406-14.52-30-34.441-39.719-23.16-11.16-32.52-49.801-47.879-57.719-15.238-7.9219-23.641-30.121-10.801-56.16 6.1211-12.602 7.6797-25.199 7.6797-34.922 1.5586 1.1992 3 2.2812 4.5586 3.2383-0.48047 12.719-1.6797 25.441-4.1992 37.441l-2.8789 11.762c-1.0781 4.8008-1.5586 10.441-0.48047 16.68 1.9219 11.281 11.398 19.32 19.078 25.441 25.078 19.922 42.961 46.199 62.641 71.16 3.3594 4.8008 11.281 0.48047 9-4.9219-9.6016-24.238-20.879-46.078-36.48-67.32-8.3984-12.48-23.762-18.719-31.441-30.238-0.71875-1.9219-1.4414-4.5586-1.1992-8.0391 0.71875-15.359-0.35938-31.32-3.1211-46.68 2.0391 0.71875 3.9609 1.1992 5.8789 1.3203 2.8789 8.1602 8.0391 24.238 12.48 45.121 5.0391 23.879 32.879 41.762 51.359 53.52 5.3984 3.4805 12.121 7.8008 12.961 8.5195 0.48047 1.9219-0.48047 4.4414-1.9219 5.3984-2.1602 1.4414-5.8789-0.96094-7.3203-2.1602-2.0391-1.6797-5.0391-1.6797-7.1992-0.23828-2.1602 1.5586-3 4.3203-2.1602 6.8398 2.6406 8.0391 9.9609 26.039 21.238 26.039 0.48047 0 0.96094-0.12109 1.3203-0.12109 8.3984-1.0781 29.762-13.199 34.559-24.719 2.0391-4.5586 1.5586-9.1211-1.1992-12.84-5.5195-7.1992-13.078-12-19.68-16.32-3-1.9219-5.8789-3.6016-8.0391-5.5195-2.8789-2.2812-7.6797-5.0391-13.922-8.5195-7.8008-4.3203-22.32-12.48-24.961-17.039 0.48047-0.48047 2.3984-0.96094 3.8398-0.96094 1.6797-0.12109 3.3594-0.96094 4.4414-2.2812 1.1992-1.4414 1.5586-3.1211 1.3203-4.9219-0.35938-1.9219-3.8398-18.602-12.84-25.441-1.4414-1.0781-3.3594-1.4414-5.0391-1.0781l-9 2.0391c0.23828-10.68-0.35937-25.441-3.8398-34.078 0.60156-0.12109 1.3203-0.35938 1.9219-0.60156 0.48047 2.0391 1.3203 4.8008 2.7617 7.9219 3.2383 7.5586 0.96094 6.9609 10.922 12.48 9.9609 5.6406 20.52 38.16 27.84 34.078 7.1992-3.9609-4.0781-24.719-11.281-41.641-4.1992-9.7188-12-15.238-17.879-18.121 7.9219-4.5586 14.52-11.039 13.559-20.039-0.71875-7.8008-5.8789-12.602-11.641-15.719 21.84-15.48 60.121-27.961 75.48-32.039 4.0781-1.0781 6.8398-4.9219 6.7188-9.1211-0.23828-4.1992-3.3594-7.8008-7.5586-8.5195-1.1992-0.12109-2.8789-0.96094-3.1211-1.3203l-0.35938-1.0781c-4.3203-15.238-7.5586-26.16-27.48-26.879-3.3594-0.12109-4.1992-1.0781-7.3203-7.5586-1.6797-3.4805-3.7188-7.4414-7.0781-10.801-5.0391-5.0391-11.16-6.2383-16.078-7.0781-5.0391-0.96094-6.9609-1.5586-8.5195-3.8398-6.3594-9.9609-14.879-13.32-21.121-15.84-1.8008-0.60156-3.4805-1.3203-4.9219-2.0391-0.48047-0.23828-1.1992-1.4414-1.9219-2.6406-2.4258-3.6016-5.9648-8.8086-14.52-12.336 1.7266-50.184-4.3906-85.727-4.9336-88.703-0.69531-3.8398-3.7812-6.8047-7.6562-7.3203-3.9492-0.53906-7.6445 1.5117-9.3242 5.0273-11.172 23.352-24.648 46.727-38.809 69.086-3.6016 0.39453-9.1914 0.34766-11.41-3.0703-7.8008-12.602-20.039-9.6016-26.641-8.0391-3.2383 0.71875-6.2383 1.4414-8.6406 1.0781-2.5195-0.35938-4.6797-1.4414-7.1992-2.5195-6.7188-3.1211-15.961-7.1992-29.641 1.1992-3.7188 2.2812-4.8008 1.9219-8.0391 0.60156-3.8398-1.6797-10.922-4.5586-19.32 1.3203-1.5586 1.0781-3 0.96094-7.0781 0.48047-5.2812-0.60156-13.441-1.6797-21.121 5.5195-0.48047 0-2.2812-0.35938-3.3594-0.60156-4.4414-1.0781-14.641-3.4805-21.84 7.0781-0.96094-0.12109-2.0391-0.48047-2.8789-0.71875-4.5586-1.0781-16.32-4.0781-22.559 6-0.23828 0-0.35938-0.12109-0.60156-0.12109-5.7617-1.4414-19.078-4.6797-26.641 9.7188-0.48047 0.23828-2.1602 0.23828-3.2383 0.23828-5.5195 0.12109-16.922 0.35938-21.84 15.121h-0.12109c-4.1992-0.48047-16.559-1.4414-20.762 13.559-4.6797 0.35938-16.68 1.0781-18.961 17.039-0.48047 0.12109-0.96094 0.12109-1.4414 0.23828-3.8398 0.48047-15 1.9219-16.441 14.398-5.3984 0.48047-17.16 1.9219-21.238 16.801-0.71875 0.23828-1.5586 0.35938-2.2812 0.35938-5.2812 0.83984-17.641 2.5195-19.922 17.762-0.60156 4.5586-1.9219 5.5195-5.0391 7.8008-3.8398 2.7617-9.6016 6.9609-11.398 16.922-0.71875 3.8398-1.3203 4.0781-4.9219 5.6406-4.5586 1.8008-12 4.9219-14.879 15.719-1.9219 6.7188-4.3203 7.9219-7.6797 9.7188-3.4805 1.6797-9.3594 4.6797-10.559 12.719-0.23828 1.5586-0.23828 1.5586-2.7617 3.1211-3.6016 2.3984-9.6016 6.2383-10.801 17.16-0.35938 0.12109-1.3203 0.48047-2.0391 0.71875-4.1992 1.4414-12.961 4.3203-14.762 17.641-0.23828 1.8008-0.60156 2.3984-0.60156 2.3984-0.23828 0.23828-0.96094 0.48047-1.5586 0.71875-3.1211 1.1992-10.441 4.0781-11.16 14.281 0 1.6797-0.35938 2.1602-0.35938 2.1602-0.12109 0.23828-0.71875 0.60156-1.1992 0.83984-3 1.9219-10.199 6.2383-7.8008 18.48 0.60156 3 0.48047 3.9609 0.35938 4.1992-1.9219 5.1602-0.71875 9 2.2812 14.641 0.60156 0.96094 1.3203 1.9219 2.2812 2.6406 0.71875 0.60156 75 62.762 95.16 131.28 23.52 79.68 54.359 139.08 94.32 181.32 23.398 24.602 39.121 63.961 53.039 98.762 10.32 25.922 19.32 48.359 29.762 59.52 6.3594 6.8398 12.961 14.762 19.441 22.559 17.281 20.762 33.602 40.441 49.32 44.52 0.83984 0.23828 1.5586 0.35938 2.2812 0.35938 3.7188 0 7.0781-2.2812 8.3984-5.8789l13.559-35.641c1.0781-3 0.60156-6.2383-1.3203-8.7617-1.9219-2.3984-4.8008-3.7188-8.0391-3.3594-2.5195 0.23828-9-0.23828-10.68-2.7617-5.0391-7.5586-47.879-107.52-48.602-122.64-0.83984-18.121-16.32-68.762-34.32-87.84-19.68-20.641-85.801-99.602-95.039-131.64-1.8008-6.1211-3.4805-12.238-5.0391-18.121-8.0391-29.16-15-54.238-29.762-74.52-8.5195-11.762-24-23.762-40.32-36.48-18.359-14.16-37.199-28.801-48.121-44.16l-11.52-15c1.4414-2.3984 2.5195-5.5195 3.1211-9.4805 0.23828-1.5586 0.48047-2.1602 0.48047-2.1602 0.35938-0.23828 1.4414-0.60156 2.1602-0.83984s1.6797-0.60156 2.6406-0.96094c12.84 13.922 47.16 49.559 75.238 67.078 17.641 11.16 30.48 45.121 42.961 77.879 9.9609 26.16 20.16 53.16 33.359 69.961l3.4805 4.3203c29.879 37.922 70.68 89.879 91.078 136.56 6.9609 16.078 11.762 34.078 16.922 53.16 10.078 37.922 21.602 81 54.48 122.04 1.1992 1.4414 3 2.1602 4.6797 2.1602 0.96094 0 1.9219-0.23828 2.8789-0.71875 0.60156-0.23828 14.16-7.6797 15.961-21.84 0.23828-2.0391-0.60156-4.0781-2.1602-5.3984-0.35938-0.35938-42.238-36.719-35.281-130.44 8.1602-108.96-12.602-154.68-16.922-162.72-1.9219-3.7188-7.5586-13.078-15.359-26.039-20.398-33.719-58.32-96.48-65.762-119.28-2.1602-6.3594-3.8398-13.32-5.7617-20.52-7.3203-28.68-16.559-64.441-51.84-99.48-29.281-28.922-43.68-49.559-49.559-59.16 1.1992-1.5586 2.0391-3.4805 2.6406-5.7617 0.96094-3.9609 1.3203-3.9609 6.1211-4.4414 4.4414-0.48047 7.9219-1.5586 10.559-3.6016 21.84 20.281 83.641 81.359 87.961 126.24 5.3984 56.039 38.762 95.762 58.68 119.64 3 3.6016 5.6406 6.7188 7.9219 9.6016 15.359 19.68 26.879 43.441 36.84 100.56 9.7188 55.68 15.359 128.64 14.16 181.68-1.1992 52.32 16.922 88.559 17.641 90 0.83984 1.8008 2.5195 3 4.4414 3.2383 0.35938 0.12109 0.60156 0.12109 0.96094 0.12109 1.5586 0 3.1211-0.71875 4.1992-1.8008 0.12109-0.12109 11.52-11.52 26.52-11.762 2.1602-0.12109 4.1992-1.3203 5.1602-3.1211 1.0781-1.9219 0.96094-4.1992-0.12109-6.1211-0.23828-0.35938-24.84-40.078-29.879-74.52-3.1211-21.121 0-39.238 2.8789-56.641 1.8008-11.281 3.6016-21.961 3.6016-32.762 0-13.32-4.0781-31.559-8.3984-50.879-4.5586-20.398-9.2383-41.52-9.2383-57.48 0.12109-34.801-14.641-80.641-33-102.36-4.5586-5.3984-10.32-11.52-16.559-18.121-18.48-19.559-41.641-43.922-48.121-66.359-8.7617-30.238-13.801-50.039-9-74.879 4.6797-24.121-41.398-96.961-57.48-121.32 1.1992-1.5586 2.1602-3.4805 2.7617-5.8789 0.71875-2.7617 1.4414-3.3594 1.4414-3.3594 0.48047-0.23828 2.6406-0.35938 3.9609-0.35938 4.5586-0.12109 13.078-0.23828 17.879-8.8789 1.5586-2.8789 1.6797-3 7.3203-1.5586 1.8008 0.35938 4.6797 1.0781 7.8008 1.0781 6.3594 23.879 24.719 69.48 37.078 95.16 10.68 21.961 4.1992 34.078-2.0391 45.719-1.8008 3.2383-3.3594 6.3594-4.5586 9.3594-11.281 28.559-5.0391 55.922 18.602 81.121 21 22.32 35.398 31.922 46.922 39.602 5.6406 3.8398 10.559 7.0781 15.48 11.16 10.68 9 6.9609 33.359 4.6797 41.879-0.83984 2.8789 0.60156 6 3.3594 7.0781 0.83984 0.35938 1.5586 0.48047 2.3984 0.48047 2.0391 0 3.9609-0.96094 5.1602-2.8789 1.4414-2.3984 35.52-59.641 3.4805-80.879-9.6016-6.3594-19.559-10.68-29.039-14.879-17.879-7.8008-32.039-14.039-36.48-30-2.2812-8.1602-4.9219-14.641-7.1992-20.52-5.8789-14.52-9.4805-23.281-2.6406-43.801 3.4805-10.441 7.0781-13.801 10.441-16.922 7.6797-7.0781 12.359-13.199 10.68-47.52-2.0391-41.281 5.6406-80.52 9-95.281 0.35938-0.12109 0.60156-0.35938 0.96094-0.60156 0.35938 0 1.4414 0.48047 2.1602 0.71875 1.8008 0.83984 4.0781 1.8008 7.0781 2.2812-3.9609 25.199-12.48 85.441-6.9609 100.8 0.71875 2.0391 2.5195 3.6016 4.6797 3.9609h0.96094c1.8008 0 3.6016-0.71875 4.6797-2.1602 2.2812-2.7617 49.68-61.32 69.359-96.602 2.375 1.4414 4.9336 2.3633 7.5234 3.0117-47.102 70.922-97.668 127.15-98.363 127.92-3.3359 3.6953-3.0586 9.3711 0.625 12.719 3.6719 3.3125 9.3711 3.0586 12.719-0.625 0.76953-0.83984 58.668-65.195 109-143.81 0.26562-0.37109 0.52734-0.73047 0.71875-1.1406 0.81641-1.2852 1.6445-2.5664 2.4609-3.8633-2.375 19.969-7.8359 48.18-20.148 83.426-21.816 62.484-6.3594 93.613 2.8906 105.42-1.3555 2.5664-2.6172 5.1602-4.0664 7.7031-2.4492 4.3203-0.92578 9.8047 3.3945 12.254 1.3906 0.79297 2.9141 1.1758 4.4141 1.1758 3.1445 0 6.1914-1.6445 7.8359-4.5703 1.7031-3.0117 3.3125-6.0469 4.9062-9.0859 2.5195 20.785-4.332 57.926-7.3906 75.266-3.8398 21.602 36 70.32 63.121 82.32 27.121 12 33.359 33 33.359 33 1.8008 11.398-1.6797 37.441-12.602 64.801-13.32 33.121-29.281 118.32-30.602 162.72-1.3203 45.719 28.801 88.922 30.121 90.719 0.71875 1.0781 1.6797 1.8008 2.8789 2.1602 10.078 3.6016 24 4.4414 34.922 4.4414 9.2383 0 16.441-0.60156 17.039-0.71875 1.6797-0.12109 3.2383-0.96094 4.3203-2.3984 0.96094-1.3203 1.4414-3.1211 1.0781-4.8008-7.5586-35.641-0.12109-82.801 6.3594-124.44 4.5586-29.762 9-57.961 7.3203-78.359-0.83984-11.879 4.6797-24 16.559-35.762 24-24.121 67.199-39.84 80.398-38.641 18.121 1.4414 28.922 4.5586 57.84 13.078l13.078 3.7188c11.879 3.4805 27.719 12.238 43.801 22.68-4.8008-1.1992-9.6016-1.6797-14.52-1.1992-40.078 3.7188-96.238 57.602-114.36 78-20.039 22.32-20.281 46.441-20.52 67.68 0 2.8789 0 5.6406-0.12109 8.3984-0.23828 7.6797-3.3594 14.281-6.3594 20.52-5.0391 10.441-11.16 23.281 3.9609 36.48 17.039 14.762 20.879 46.68 20.879 46.922 0.23828 2.6406 2.1602 4.6797 4.6797 5.2812 0.23828 0 18.48 3.9609 26.641 7.9219 0.83984 0.35938 1.6797 0.60156 2.6406 0.60156 2.0391 0 4.0781-1.1992 5.1602-3.1211 0.35937-0.60156 6.9609-12.84 3.1211-25.68-2.2812-7.6797-7.5586-13.68-15.719-18-20.16-10.922-22.801-38.16-15-58.199 2.2812-5.8789 3.9609-12.602 5.8789-19.801 5.7617-22.441 12.359-47.879 37.559-63l9.3594-5.6406c30.121-18.359 51.84-31.68 93.961-26.039 27.48 3.7188 36.84 16.801 45.238 28.441 3.9609 5.5938 7.9062 10.922 13.379 14.375 1.2344 4.1406 2.293 8.3281 3.2031 12.613-2.9141 0.023438-5.9766 0.22656-9.0234 0.50391-9.7188 0.96094-19.199 4.8008-28.32 8.6406-9.9609 3.9609-20.16 8.1602-30.719 8.8789-22.199 1.1992-39.719 6.7188-63.602 30.84-18.719 19.078-19.68 44.039-20.398 62.281-0.12109 5.0391-0.35938 9.7188-0.83984 13.68-2.2812 16.078-19.32 33.48-19.559 33.719-1.0781 1.0781-1.8008 2.6406-1.6797 4.3203 0 1.5586 0.71875 3.1211 1.9219 4.1992 0.23828 0.35938 6.4805 6 16.078 6 3.7188 0 7.9219-0.83984 12.48-3 8.0391-3.9609 12 0 12.602 0.71875 1.9219 2.3984 5.3984 3 8.0391 1.1992 2.5195-1.6797 3.3594-5.0391 1.9219-7.8008-3.6016-6.7188-12.359-26.398-10.199-37.68l0.48047-2.0391c3.1211-16.199 9.1211-46.32 27.961-59.879 14.52-10.441 26.281-12.238 38.762-14.039 4.9219-0.71875 9.9609-1.4414 15.121-2.7617 9-2.0391 18.961-6.9609 28.559-11.641 7.9219-3.9258 15.984-7.8008 23.449-10.188 0.070313 4.7383-0.17969 9.3359-0.76953 13.801-8.207 7.9062-24.758 12.816-54.359 16.188-25.199 2.8789-34.441 14.398-41.762 23.52-3.2383 4.0781-6.1211 7.4414-9.7188 9.6016-10.441 6.1211-18.238 16.199-20.16 26.281-1.3203 6.8398 0.12109 13.078 3.9609 18.121 4.9219 6.3594 5.5195 25.199 4.6797 35.641-0.12109 2.5195 1.1992 4.8008 3.4805 5.8789 0.71875 0.35938 1.6797 0.60156 2.5195 0.60156 1.5586 0 3-0.60156 4.0781-1.6797 0.83984-0.71875 18.238-17.762 9-45.238-2.8789-8.5195 3.8398-18.48 8.0391-23.641 12.121-14.641 30.238-23.762 36.48-22.922 5.3633 0.71875 12.301 0.94922 19.211 0.96094-1.2344 0.61328-2.4609 1.2617-3.6836 1.8594-23.832 11.629-48.227 23.652-48.133 67.906-4.3203 7.7031-12.238 14.965-15.863 17.746-1.9688 1.5117-2.7969 4.0781-2.1016 6.4688 0.71875 2.375 2.7969 4.0781 5.2812 4.2734l15.742 1.2461c0.57422 3.1445 1.1172 6.2539 1.8711 9.6367 6.8398 31.078 25.922 37.922 45.48 37.922 8.5195 0 17.16-1.3203 24.961-2.3984 8.1602-1.3203 15.961-2.5195 23.16-2.5195 21.359 0 35.398-2.6406 44.281-8.6406-2.5195-5.3984-5.3984-10.801-8.5195-16.078-15.359-27.48-35.762-52.559-58.801-73.199-1.9219-1.6797-2.1602-4.8008-0.60156-6.8398 1.4414-1.8008 3.9609-2.2812 5.7617-1.0781 24.719 15.84 47.281 35.762 66.719 58.68 1.8008 2.6406 4.4414 5.6406 7.1992 8.8789 4.8008 5.6406 10.199 11.879 12.48 18.238 6.6016-0.60156 14.039-2.5195 21.602-6.8398 23.52-13.441 38.398-44.039 44.281-90.961 12.953-103.2-9.9648-139.67-136.45-216.83zm-775.73-195.9c-22.801-29.039-68.039-70.199-84.48-84.719 0.71875-1.4414 1.3203-3.1211 1.6797-5.0391 0.35938-0.23828 0.83984-0.35938 1.1992-0.60156 1.8008-0.83984 3.9609-1.9219 6.2383-3.7188 13.559 15.84 27.121 26.879 40.199 37.441 16.559 13.32 32.16 25.922 46.441 47.398 13.32 19.922 17.641 43.922 18.602 62.641-6.4805-16.203-16.32-36.121-29.879-53.402zm-0.96094-89.039c9.3594 8.7617 18.961 17.762 32.641 33.238 22.559 25.559 25.32 42.238 28.922 65.398 1.6797 10.559 3.6016 22.68 7.9219 37.078 7.9219 26.879 21.602 45.719 37.441 67.441 10.559 14.52 22.559 30.961 34.199 52.078 16.199 29.641 21.359 65.762 22.801 90.238-7.8008-15.121-17.16-30-26.879-45.359-19.801-31.441-42.121-67.199-58.559-116.52-4.6797-13.68-8.7617-26.398-12.602-38.039-20.762-63.961-32.281-99.238-56.039-115.56-19.559-13.441-47.641-47.879-59.281-62.52 2.6406-2.7617 4.8008-6.7188 5.8789-12.602 0.12109-0.83984 0.35937-1.5586 0.60156-2.0391 18.594 24.484 29.992 35.043 42.953 47.164zm350.55-88.957c10.621-13.43 27.227-25.5 36.684-31.766 5.8789 7.9219 14.039 9.3594 19.559 10.441 3.4805 0.60156 5.6406 1.0781 6.7188 2.1602 1.1992 1.1992 2.2812 3.4805 3.4805 6 0.60156 1.1992 1.1992 2.5195 2.0391 3.9609-16.008 5.7227-46.379 18.637-76.32 42.516 3.1367-11.254 5.7188-22.391 7.8398-33.312zm-44.027 80.352c-5.6289-12.602-10.273-37.402 4.7031-80.293 23.664-67.738 23.363-110.9 22.766-122.14 1.8945-3.3594 3.8398-6.6953 5.6758-10.066 3.3125 43.969 3.4805 130.85-33.145 212.5zm560.16 479.3c-4.3203-5.7617-7.3203-10.32-9.9609-11.762-8.3984-4.8008-19.32-9.6016-25.32-17.762-8.0391-9-5.8789-23.641-0.12109-31.078 2.5195-4.0781 8.6406-2.0391 8.8789 2.5195 1.4414 5.6406 3.2383 11.398 5.3984 12.719 9.7188 6.3594 23.16 9.1211 29.281 20.879 5.7656 7.8047 2.5234 33.965-8.1562 24.484zm-353.88-303.72c0.71875 1.6797 0.60156 3.4805-0.12109 5.0391-0.60156 1.0781-12.238 23.52-45.961 23.52-6.4805 0-13.922-0.83984-22.199-2.8789-1.9219-0.48047-3.4805-1.8008-4.1992-3.6016s-0.48047-3.8398 0.60156-5.3984c0.12109-0.35938 22.68-34.922 68.281-20.039 1.5586 0.48047 2.9961 1.7969 3.5977 3.3594zm-278.69-118.86c-5.2812 3.9609-11.52 7.4414-20.281 7.4414-4.9219 0-10.559-1.0781-17.281-3.8398-12.359-5.1602-12.48-15-12.48-21.602 0-5.3984-0.23828-8.6406-3.3594-11.641-13.32-12.84-8.5195-38.16-8.2812-39.238 0.35938-1.8008 1.5586-3.2383 3.1211-4.0781 1.6797-0.83984 3.6016-0.96094 5.2812-0.12109 20.281 9.1211 29.16 31.441 29.398 41.398 0 1.0781 1.0781 3.2383 3.9609 5.1602 2.3984 1.5586 8.8789 4.8008 18.602 0.83984 19.559-7.8008 39.48 1.9219 40.32 2.2812 1.6797 0.96094 2.8789 2.5195 3.2383 4.4414 0.23828 1.9219-0.35938 3.8398-1.6797 5.2812-0.35937 0.35938-3.8398 3.7188-11.762 8.7617-5.2812 3.3594-11.879 3.3594-17.762 3.3594-4.3164 0.11328-9.1172 0.11328-11.035 1.5547zm-1.6797 21c-2.3984-1.3203-3.4805-3.9609-2.8789-6.6016 0.60156-2.6406 2.8789-4.4414 5.5195-4.5586 27.48-1.1992 32.039-7.1992 36-12.602 2.0391-2.6406 4.4414-5.7617 8.6406-8.1602 8.0391-4.4414 17.039-3.4805 21.359 2.2812 3.4805 4.6797 4.0781 12.719-4.8008 21.359-3.4805 3.4805-7.3203 8.5195-11.16 13.441-8.2812 10.68-14.762 19.199-22.32 19.199h-0.71875c-1.9219-0.12109-5.5195-1.0781-8.0391-5.6406-4.4414-7.8008-17.164-16.082-21.602-18.719zm26.637 307.2c2.0391-19.199 3.9609-37.32 2.3984-51.719-1.8008-16.199-4.0781-23.398-7.3203-33.48-2.7617-8.8789-6.2383-19.922-10.32-40.559-16.68-85.199 39-157.92 41.398-160.92 2.0391-2.6406 5.6406-3.1211 8.2812-1.1992 2.6406 1.9219 3.2383 5.5195 1.4414 8.2812-20.762 30.48-26.281 77.52-27.359 111.72-0.96094 32.641 9.2383 57 15.48 68.762 5.2812-9.6016 12-27.602 4.1992-49.441-13.199-36.84-8.0391-65.281-7.8008-66.48 0.48047-2.6406 2.7617-4.6797 5.5195-4.8008 2.6406-0.23828 5.1602 1.4414 6.1211 3.9609 3.3594 9.9609 6.3594 14.16 10.559 20.039 4.9219 6.8398 10.922 15.238 19.801 35.398 13.559 30.84 3.4805 53.641-12.238 82.559-15.121 27.48-26.762 139.32-19.922 163.56 6.4805 22.68 36 46.199 36.359 46.441 2.0391 1.6797 2.7617 4.4414 1.8008 6.9609-1.0781 2.5195-3.4805 3.9609-6.2383 3.7188-19.32-2.1602-32.281 3.2383-32.398 3.3594-0.83984 0.23828-1.5586 0.48047-2.3984 0.48047-0.96094 0-2.0391-0.35937-2.8789-0.83984-1.6797-0.83984-2.7617-2.3984-3-4.1992-3.4805-21.48-8.0391-30.238-12.48-38.52-4.8008-9-9.2383-17.398-11.52-37.801-2.1641-20.879 0.23828-43.438 2.5156-65.277zm338.4 96.359c-8.1602 20.762 6.9609 36 7.0781 36.121 2.1602 2.0391 2.3984 5.2812 0.83984 7.6797-1.1992 1.6797-3.1211 2.6406-5.0391 2.6406-0.83984 0-1.6797-0.12109-2.3984-0.48047-17.039-7.6797-27.602-19.559-30.602-34.32-3.4805-16.801 3.7188-35.879 20.16-53.762 4.6797-5.0391 9.4805-12.238 14.52-19.68 10.801-16.199 23.16-34.441 40.922-42.719 56.879-26.398 88.68-10.801 97.559 1.0781 5.1602 6.9609 3.7188 12.961 0.71875 16.32-5.7617 6.4805-17.52 6.9609-33.719 7.5586-11.879 0.48047-26.641 0.96094-41.641 4.1992-28.918 6.0039-57.359 47.762-68.398 75.363zm-58.199-123.84c-37.68 42.719-38.762 147.84-29.641 156 16.078 14.52 16.078 33.602 16.078 34.441 0 3.1211-2.3984 5.6406-5.5195 6-2.5195 0.23828-5.1602 0.23828-7.8008 0.23828-23.398 0-45-8.1602-45.961-8.6406-2.3984-0.83984-3.8398-3.1211-3.8398-5.6406 1.4414-156.36 1.8008-198.36 62.16-243.6 60.48-45.238 105-13.68 106.8-12.359s2.6406 3.4805 2.3984 5.6406c-0.23828 2.1602-1.6797 3.9609-3.7188 4.8008-0.47656 0.24219-55.32 22.801-90.957 63.121zm-198.31 83.699c-7.5586 49.559 31.922 78.238 33.602 79.441 2.3984 1.8008 3.2383 5.0391 1.8008 7.6797-0.96094 2.0391-3.1211 3.2383-5.2812 3.2383-0.60156 0-1.3203-0.12109-1.9219-0.23828-6.4805-2.1602-20.641-3.1211-25.68-3.2383-1.9219-0.12109-3.7188-1.0781-4.8008-2.7617-40.559-62.879-38.398-90.84-35.398-129.48 0.48047-6.6016 1.0781-13.441 1.4414-20.879 0.83984-18.84 9.1211-39.84 18-62.039 15.121-38.039 30.719-77.52 4.6797-102.84-46.32-45.238-36.238-86.16-35.762-87.961 0.71875-2.5195 3-4.3203 5.6406-4.4414 2.5195-0.12109 4.9219 1.5586 5.8789 4.0781 19.922 57.238 90 96.121 90.719 96.602 1.6797 0.83984 2.8789 2.5195 3.1211 4.4414 0.23828 1.9219-0.48047 3.7188-1.8008 5.1602-25.68 24.719-44.641 150-52.801 203.4zm183.79-262.26c-5.3984-5.0391-21.238-18.719-29.762-21.359-4.4414-1.3203-6.2383-0.12109-7.0781 0.96094-0.35938 0.96094-0.71875 1.4414-0.71875 1.4414-1.5586 2.6406-4.9219 3.7188-7.6797 2.3984-2.7617-1.3203-4.1992-4.5586-3.1211-7.4414 0.35938-0.83984 0.71875-1.8008 1.3203-2.6406 2.7617-5.8789 9-24.359-10.922-41.039-1.4414 2.1602-3.3594 4.4414-6 5.8789-3.4805 1.9219-7.5586 2.1602-11.762 0.71875-8.3984-2.8789-25.68-9-19.559-33.602 3.9609-15.84-6.1211-36.84-6.2383-37.078-1.1992-2.3984-0.60156-5.2812 1.4414-7.0781 1.9219-1.8008 4.8008-2.0391 7.0781-0.60156 0.96094 0.60156 23.641 14.641 45 44.879 0.48047 0.23828 28.32 26.762 39.602 57.84 4.0781 5.0391 17.398 21.719 18.48 31.68 0.23828 2.5195-1.0781 4.9219-3.3594 6-0.83984 0.48047-1.6797 0.60156-2.6406 0.60156-1.4453 0-3.0039-0.48047-4.082-1.5586zm-6.2656-78.324c-1.5117-1.5352 0.625-4.1172 2.4102-2.8672 22.176 15.168 44.977 29.93 65.438 47.23 16.777 12.816 31.777 28.297 46.32 43.512 0.74219 0.79297 0.70703 2.0391-0.085938 2.7969-0.71875 0.67187-1.8125 0.70703-2.5664 0.12109-9.5039-7.3203-19.02-14.664-28.656-21.684-31.211-18.641-58.234-42.352-82.859-69.109z"/>
</svg>
