<svg xmlns="http://www.w3.org/2000/svg" viewBox="0 0 24 24" fill="none" stroke="currentColor" stroke-width="2" stroke-linecap="round" stroke-linejoin="round">
  <!-- Lion representing honor/prestige -->
  <circle cx="12" cy="12" r="8"></circle>
  <path fill="currentColor" d="M4 12c2-2 4-2 8-2s6 0 8 2"></path>
  <circle cx="12" cy="10" r="4"></circle>
  <circle cx="9" cy="8" r="1.5"></circle>
  <circle cx="15" cy="8" r="1.5"></circle>
  <path fill="currentColor" d="M12 14c-1.5 0-3 1-3 2h6c0-1-1.5-2-3-2z"></path>
  <path fill="currentColor" d="M6 8c1-1 2-1 3-1"></path>
  <path fill="currentColor" d="M15 7c1-1 2-1 3-1"></path>
  <path fill="currentColor" d="M8 6c1-1 2-1 4-1s3 0 4 1"></path>
  <path fill="currentColor" d="M4 16c1 1 3 1 8 1s7 0 8-1"></path>
</svg>
