<?xml version="1.0" encoding="UTF-8"?>
<svg width="1200pt" height="1200pt" version="1.1" viewBox="0 0 1200 1200" xmlns="http://www.w3.org/2000/svg">
 <path fill="currentColor" d="m1112.9 264.06c-4.1992-0.60156-7.6797 2.3984-8.8789 6.2383-0.83984 2.6406-84.602 257.52-273.72 308.16-4.1992-18.48-12.84-62.879-7.4414-92.039 8.5195-45.602-25.32-74.641-52.199-80.641-23.641-5.3984-78.719-17.879-151.2 117.84-92.641-21-146.16-99.238-185.4-156.84l-8.7617-12.84c-35.52-51.359-74.879-50.641-90.719-47.762-30.238-47.039-72.359-120.12-82.078-174.48 0.12109-0.12109 0-0.23828-0.12109-0.35937 0-0.48047-0.12109-0.83984-0.23828-1.1992-0.35938-0.96094-0.96094-1.9219-1.6797-2.6406-0.23828-0.48047-0.60156-0.83984-1.0781-1.0781-0.12109-0.23828-0.35938-0.35938-0.71875-0.48047-0.35938-0.35938-0.83984-0.71875-1.3203-0.83984-0.23828-0.12109-0.60156-0.23828-0.83984-0.35938-0.12109-0.12109-0.35937-0.12109-0.48047-0.12109-0.71875-0.23828-1.4414-0.35938-2.2812-0.35938-0.96094 0-1.9219 0.12109-2.7617 0.48047h-0.23828c-0.83984 0.35938-80.16 28.441-92.398 97.199-20.762 3.2383-74.039 21.719-78 121.44-9.6016 244.68 55.922 444.24 194.88 592.92 3.2383 3.4805 8.5195 3.8398 12.238 0.96094 0.23828-0.23828 24-18.84 55.922-13.441 12.238 2.0391 20.281 10.199 32.641 22.559 19.441 19.559 46.199 46.32 108.24 69.48 27 10.078 122.28 43.801 214.68 55.68 21.84 2.7617 41.879 4.1992 60 4.1992 60.48 0 101.04-15.48 120.96-46.32 4.8008-0.60156 9.6016-1.5586 14.398-3.1211 85.078-33.48 90.602-160.44 89.398-239.52 9.3594-13.559 54.359-81.359 93.359-170.4 40.441-92.16 82.68-226.92 54.359-345.48-0.96094-3.957-4.4414-6.7188-8.5234-6.8398zm-779.4 60.84c0.60156-0.23828 5.0391-1.6797 12.238-1.8008 12 18.121 20.398 29.641 20.641 30 2.8789 3.9609 2.0391 9.6016-1.9219 12.48-4.0781 3-9.6016 2.1602-12.602-1.9219-1.3203-1.8008-12.961-17.762-28.441-41.641 2.4062 3.0039 6.3633 4.2031 10.086 2.8828zm-168.48-92.398v-0.12109c0.12109-0.48047 0.23828-0.96094 0.23828-1.5586v-0.48047-0.23828c5.0391-44.039 42.238-69.48 64.559-80.879 2.6406-1.3203 5.0391-2.5195 7.1992-3.4805 1.8008 7.4414 3.9609 15 6.6016 22.801-8.1602 35.52-17.641 93.238-7.0781 138.72 13.32 56.879 18.961 71.281 20.398 74.281v0.12109c18.602 16.559 35.16 32.762 43.922 50.641 2.1602 4.5586 0.23828 9.9609-4.1992 12.121-1.1992 0.60156-2.6406 0.83984-3.9609 0.83984-3.2383 0-6.4805-1.8008-8.0391-5.0391-7.4414-15.238-23.16-30.359-40.801-46.199-0.23828-0.23828-0.48047-0.48047-0.83984-0.83984-1.8008-2.1602-5.2812-8.6406-12.359-35.281-29.281-26.879-57.602-58.32-64.68-102-1.3203-8.2852-1.5625-16.086-0.96094-23.406zm111.36 628.2c-26.039-36-15-84.719-33.48-122.88-5.6406-12.359-15.359-23.52-22.801-35.039-15.602-27.719-21.719-57.359-24.84-86.641-1.9219-7.0781-5.1602-108.24 7.1992-87.48 6.7188 61.32 7.3203 130.32 48.602 179.4 33.719 43.199 21.121 101.16 31.078 150.36 0.72266 3.2422-4.0781 5.1602-5.7578 2.2812zm10.68-180c-0.83984 0.96094-2.0391 1.3203-3.2383 1.0781-21.48-3.6016-38.281-22.441-45.238-42.359-6.9609-19.801-8.3984-40.922-3.2383-61.199 0.96094-4.0781 7.1992-3.4805 7.5586 0.60156 6.4805 36.602 14.281 72.121 43.801 96.602 1.5547 1.3164 1.7969 3.7188 0.35547 5.2773zm88.922-229.44c-12.719 35.879-55.559 60.238-91.922 43.68-4.3203-1.8008-2.1602-8.3984 2.3984-7.4414 41.039 3.7188 67.559-22.078 83.398-57.359 2.1602-5.1602 4.4414-10.441 7.3203-15.719 0.83984-1.5586 2.7617-2.0391 4.3203-1.1992 1.0781 0.60156 1.8008 1.8008 1.6797 2.8789-0.59766 12-2.875 23.758-7.1953 35.16zm534.36 349.32c3 0.71875 2.5195 5.2812-0.48047 5.5195-48.238 6.2383-94.32 20.281-125.04 59.398-2.2812 3.3594-7.9219 0.48047-6.3594-3.3594 17.398-52.195 81.719-74.277 131.88-61.559zm-143.64-377.28c19.801 4.4414 44.879 25.922 38.52 59.762-6.8398 36.359 5.1602 90.238 8.7617 104.88-16.199 26.641-37.199 38.281-99.359 28.559-54.359-8.3984-76.199-67.199-80.762-81.602 66.719-126.48 113.04-116.04 132.84-111.6zm-91.922 327.84c-15.48 38.039-67.559 52.078-99.48 25.559-3.3594-2.6406-0.12109-8.2812 3.8398-6.6016 32.762 10.199 66 1.5586 90.121-23.039 2.6406-2.7578 7.3203 0.60156 5.5195 4.082zm-117.36-51.359c15-41.762 72.359-47.762 105.6-24.48 3.1211 2.0391 0.96094 7.3203-2.7617 6.6016-35.762-4.0781-70.801-4.9219-97.078 21.961-2.7617 2.5156-7.1992-0.72266-5.7617-4.082zm6.8398 40.559c-0.96094-2.2812-0.96094-4.8008 0-7.0781 0.35938-0.83984 9.1211-21.84 32.398-31.078 17.762-6.9609 38.641-5.1602 62.039 5.6406 4.3203 1.9219 6.3594 6.8398 4.6797 11.281-0.23828 0.71875-7.0781 18.602-27.602 28.078-8.2812 3.8398-17.52 5.7617-27.602 5.7617-11.762 0-24.719-2.6406-38.762-7.8008-2.2695-0.84375-4.1914-2.6445-5.1523-4.8047zm4.2031 74.16c-3-1.9219-0.96094-6.8398 2.5195-6 41.762 6.6016 84.359 8.1602 116.16-22.68 2.0391-2.1602 5.6406 0.23828 4.4414 2.8789-18.844 47.641-84.723 51.121-123.12 25.801zm288.48 201.6c-2.8789 5.2812-6.6016 9.9609-10.922 14.16-17.641-0.96094-35.398-4.8008-52.559-6.9609-19.32-3.1211-38.641-7.5586-57.48-13.441-19.199-6.3594-37.801-12.961-54-25.922-1.4414-1.1992-1.5586-3.2383-0.35937-4.6797 1.0781-1.1992 2.8789-1.5586 4.1992-0.71875 15.48 9.6016 35.039 14.641 53.398 19.441 36.961 8.2812 76.078 12.84 113.64 14.52 2.8789 0.23828 5.6406 0.12109 8.3984-0.23828-1.793 0.71875-3.2344 2.0391-4.3164 3.8398zm53.641-78.48c-4.4414 8.2812-12 14.16-21.961 17.039-4.8008 1.3203-9.2383 1.9219-13.199 1.9219-22.559 0-33.359-18.602-35.879-27-1.4414-4.6797 1.1992-9.6016 5.7617-11.16 10.441-3.3594 40.078-14.52 52.68-25.078 2.2812-1.9219 5.2812-2.6406 8.2812-1.8008 2.8789 0.83984 5.1602 3 6 5.8789 0.83594 2.2773 7.3164 23.277-1.6836 40.199zm7.9219-76.922c-39 4.9219-71.52 22.801-99.48 49.559-1.6797 1.5586-4.3203 1.3203-5.7617-0.35937-0.83984-1.0781-1.0781-2.6406-0.60156-3.9609 16.199-39.719 65.398-61.801 106.56-51.238 3.2461 0.83984 2.6445 5.8789-0.71484 6zm43.559-88.801c-99.238-62.398-123.12-149.76-128.28-175.8 82.078-21.602 157.2-82.801 217.92-177.6 27.961-43.68 47.039-85.078 57.961-111.84 25.559 193.2-119.28 422.64-147.6 465.24z"/>
</svg>
