<?xml version="1.0" encoding="UTF-8"?>
<svg width="1200pt" height="1200pt" version="1.1" viewBox="0 0 1200 1200" xmlns="http://www.w3.org/2000/svg">
 <path fill="currentColor" d="m1095.8 725.21c-5.2812-3.4805-14.039-8.7617-25.199-15.48-47.641-28.801-146.88-88.68-184.56-136.44-22.922-29.281-58.441-54.84-89.52-73.68-6.2383-38.16-63.961-203.28-266.16-264.84-115.08-35.039-212.64 4.5586-274.32 43.922-95.16 60.719-170.52 165.6-183 254.88-20.281 145.44-26.879 285.12 115.08 394.8 43.32 33.48 95.16 50.398 152.88 50.398 26.398 0 54-3.6016 82.559-10.68 98.879-24.602 179.28-84.48 188.16-104.28 1.0781-2.2812 1.0781-5.0391 0-7.3203-0.96094-2.2812-3-4.0781-5.3984-4.9219-1.8008-0.60156-27-9.3594-48.359-33.961-0.48047-0.48047-0.96094-1.0781-1.4414-1.6797-0.12109-0.23828-0.23828-0.35938-0.48047-0.48047-15.121-18.238-27.84-44.52-28.078-81.84 28.559-2.1602 120.96-11.281 156.96-41.641 38.52 10.559 100.92 29.16 123.12 43.801 30.84 20.281 177.48 65.039 259.32 65.039 10.078 0 19.199-0.71875 27-2.1602 27.48-5.2812 40.801-13.199 43.199-25.559 3.5977-18.113-19.324-33.113-41.762-47.875zm-544.56 110.88c14.039 14.039 28.68 22.801 38.281 27.719-20.16 20.52-87.359 66.121-170.4 86.879-59.52 14.879-146.04 20.52-219.96-36.48-22.441-17.281-40.922-35.52-55.922-54.359 35.762 27.602 89.762 53.641 168.48 57.84 7.6797 0.35938 15.238 0.60156 22.559 0.60156 129.6 0 196.56-60 216.96-82.199zm-23.52-400.8c-12.121-1.6797-23.16-9.9609-32.641-24.719 9.4805-8.8789 27.48-21.961 43.32-18.961 11.281 2.1602 20.762 12.48 28.32 30.602-7.3203 5.5156-22.801 15.477-39 13.078zm406.08 325.8c-53.039-13.68-100.92-30.602-115.92-40.441-25.078-16.441-93.121-36.48-132-47.039-0.48047-0.23828-1.0781-0.35938-1.6797-0.48047-6.9609-1.9219-12.84-3.4805-17.398-4.6797l5.7617-18.719 35.641 5.7617h0.12109l0.26562 0.035156c2.6289 0.70703 76.273 20.594 142.18 61.344 26.508 16.391 55.848 31.57 83.328 44.305-0.10156 0.007813-0.19922 0.007813-0.29297-0.085937zm157.2 19.918c-13.789 2.6406-32.832 2.2812-54.637-0.10937-0.035156 0-0.058593-0.023438-0.097656-0.035157-19.801-3.2148-106.84-36.504-176.04-79.285-55.922-34.586-115.61-54.215-138.1-60.898 5.5312-17.305 18.469-56.965 28.656-84.898 8.1602-22.441 3.4805-45.719-2.7617-62.52 9.8398 5.0391 22.078 11.641 35.398 19.559 30.602 18.238 66.359 43.441 88.559 71.641 39.602 50.281 136.92 109.08 189.24 140.64 10.922 6.6016 19.559 11.762 24.961 15.359 9.6016 6.2383 34.922 22.922 33.719 29.16 0.019531 0.10547-1.8984 6.1055-28.898 11.387zm-239.08-166.58c-5.0898 6.8867-19.031 5.2305-31.152-3.707-12.121-8.9414-17.82-21.781-12.73-28.668 5.0898-6.8867 19.031-5.2305 31.152 3.707s17.82 21.777 12.73 28.668z"/>
</svg>
