<?xml version="1.0" encoding="UTF-8"?>
<svg width="1200pt" height="1200pt" version="1.1" viewBox="0 0 1200 1200" xmlns="http://www.w3.org/2000/svg">
 <path fill="currentColor" d="m651.09 116.94-0.085938 0.085938c0.33594-0.12109 0.68359-0.28906 1.0078-0.37109 0.35938 0 0.60156-0.12109 0.96094-0.12109 0.48047-0.12109 0.83984-0.12109 1.3203-0.12109 1.8008 0 3.4805 0.60156 5.0391 1.8008 0.60156 0.35938 1.0781 0.71875 1.5586 1.3203 0.60156 0.71875 1.0781 1.4414 1.4414 2.2812 0.12109 0.35938 0.35938 0.83984 0.48047 1.3203 0.23828 0.71875 0.23828 1.5586 0.23828 2.2812 0.12109 2.3984 0.48047 12.84 0 28.68 30.48-26.281 97.078-80.398 142.2-93.961h0.23828c0.35938-0.12109 0.83984-0.12109 1.1992-0.12109 0.25391-0.058594 0.52734 0.023437 0.79297 0 0.66016-0.023437 1.3203-0.17969 1.9688-0.12109 0.60156 0.12109 1.0781 0.35938 1.4414 0.48047 0.60156 0.23828 1.0781 0.48047 1.5586 0.71875 0.12109 0 0.23828 0 0.23828 0.12109 0.12109 0.12109 0.35938 0.23828 0.48047 0.35938 0.23828 0.12109 0.35938 0.12109 0.48047 0.35938l0.12109 0.12109c0.48047 0.35937 0.96094 0.83984 1.3203 1.4414 0.23828 0.23828 0.35937 0.35938 0.48047 0.60156 0.12109 0.12109 0.23828 0.48047 0.48047 0.96094 5.0391 9.1211 36.961 79.559-67.559 212.52-86.762 110.16-103.08 166.08-106.2 181.32-5.3984-4.0781-10.68-8.0391-15.602-11.879 6.9609-25.32 30.121-82.199 107.64-180.6 61.078-77.52 72.602-131.4 72-162.12-11.52 29.52-35.879 75.48-85.078 126.48-75 77.879-104.76 124.2-108.36 130.08-0.23828 0.35938-0.35938 0.60156-0.35938 0.60156-5.6406 14.398-10.199 27.359-14.52 39.359-1.8008 5.0391-3.4805 9.7188-5.1602 14.281-0.23828-0.60156-0.48047-1.1992-0.60156-1.8008-1.0781-4.8008-5.7617-7.9219-10.68-6.9609-2.6406 0.60156-4.8008 2.1602-6.1211 4.3203 1.8008-5.0391 3.6016-10.32 5.6406-15.84 7.1992-20.52 15.48-43.801 28.441-71.879 23.16-50.281 31.441-108.12 34.32-147.96 0.83984-11.16 1.1992-21 1.3203-28.801-31.32 30.238-103.92 106.44-137.52 190.92-30.961 78-55.68 146.4-67.68 180.24-10.68 4.3203-17.879 8.0391-23.16 13.801-0.48047 0.48047-0.83984 0.96094-1.3203 1.5586-2.1602 2.7617-4.4414 6.9609-7.9219 13.078-18.238 32.16-60.359 106.8-150.48 114.48-4.6797-10.801-14.641-37.559-17.879-72.602-0.71875-7.5586-1.0781-15.48-1.0781-23.762 0.12109-23.398 3.7188-49.441 13.68-76.199 32.766-88.32 269.85-326.54 399.27-370.75zm-479.32 575.95c-3.7188 1.6797-6.9609 3.3594-9 5.1602-3.2383 2.6406-7.8008 2.7617-11.16 0.23828-3.3594-2.5195-4.5586-7.0781-2.8789-10.801 0.96094-2.1602 22.199-49.68 71.762-105.6 0.48047 8.6406 1.4414 16.801 2.6406 24.48 6.2383 39.359 19.32 65.398 20.281 67.441 1.5586 3 4.6797 4.9219 8.0391 4.9219h0.48047c104.16-5.3984 153-91.68 171.36-124.2 2.6406-4.6797 5.6406-10.078 6.7188-11.281l0.60156-0.60156c4.4414-4.3203 13.801-7.8008 27.84-13.199 16.078-6.1211 38.16-14.52 68.16-29.762 32.52-16.559 47.039-37.199 58.801-65.039 1.0781 1.1992 2.2812 2.5195 3.6016 3.8398 2.5195 2.5195 5.2812 5.0391 8.3984 7.8008 7.6797 6.8398 17.398 14.398 28.801 22.922 0.35938 0.35937 0.83984 0.71875 1.3203 1.0781 15.84 11.879 34.922 25.199 56.879 40.441 28.559 19.922 58.078 40.441 79.32 57.719 36.359 29.52 61.559 88.801 81.961 136.44 12.48 29.16 23.16 54.359 34.801 70.32 13.801 18.719 45.48 49.68 79.078 82.441 39.84 39 85.199 83.16 93 100.92 13.199 30.121-5.5195 69.359-31.32 87.121-14.16 9.8398-22.922 23.16-30.719 34.801-9.3594 14.16-16.68 25.441-30.84 28.559-4.6797 1.0781-11.879-0.71875-20.52-4.4414h-0.12109c-25.32-10.922-63.359-38.52-88.922-60.359-3.7188-3.2383-9.4805-2.7617-12.719 0.96094-3.2383 3.8398-2.7617 9.4805 0.96094 12.719 9.6016 8.1602 44.039 36.961 76.559 54.84-17.52 5.8789-51 10.441-102.96-8.3984-31.078-11.398-55.078-23.16-78.238-34.441-41.039-20.16-76.441-37.68-132.36-41.281-103.68-6.7188-222.84-33.602-224.52-182.76 0-4.9219-4.0781-8.8789-9-8.8789h-0.12109c-4.9219 0.12109-8.8789 4.0781-8.8789 9.1211 1.3203 116.64 71.039 164.28 138.72 184.56 6 1.8008 12.121 3.3594 18.121 4.8008-7.9219 12.359-26.398 46.32-17.16 80.52 0.71875 3 0 6.2383-2.1602 8.5195s-5.2812 3.2383-8.3984 2.6406c-0.96094-0.23828-18.121-3.9609-35.641-19.559 0.60156 6.4805 2.1602 13.441 5.1602 19.559 1.8008 3.4805 1.0781 7.6797-1.8008 10.441-1.6797 1.6797-3.9609 2.5195-6.2383 2.5195-1.4414 0-2.8789-0.35937-4.3203-1.0781-3.1211-1.6797-71.641-39.238-105.6-102.84-0.48047 4.0781-0.48047 9.2383 0.60156 15.602 0.60156 3.7188-1.3203 7.5586-4.6797 9.3594s-7.4414 1.3203-10.32-1.3203c-2.2812-2.0391-51.719-47.762-72-127.8-1.3203 4.4414-2.0391 9.3594-1.9219 14.52 0.23828 3.9609-2.2812 7.4414-6 8.7617-3.7188 1.3203-7.8008 0.12109-10.199-3.1211-2.5195-3.4805-58.441-80.281-60.121-139.8-5.6406 3-11.039 7.5586-10.68 13.922 0.12109 4.6797-3.2383 8.7617-7.8008 9.3594-4.4414 0.71875-8.8789-2.2812-9.9609-6.8398-0.71484-3.0039-16.086-68.762 25.316-135.96zm768.72 259.2c4.1992 28.078 31.441 44.641 57.121 47.281 8.7617 1.3203 15.238 9.9609 21.359 20.398 1.4414 2.3984 5.3984 1.4414 5.5195-1.4414 3.2383-54.84-62.762-61.559-81.48-105.48-10.547-9.1211-4.1992 33.719-2.5195 39.242zm-339.47-228.24c1.9219 4.0781 3.3594 9.4805 4.3203 16.68 1.5586 13.68 14.398 34.441 37.922 37.68 24.719 3.3594 34.68-3 45.238-11.762 5.1602-4.1992 11.52-6.6016 17.52-7.8008-3-4.1992-5.6406-8.7617-6.8398-13.199l-0.35938-1.3203c-4.4414-15.602-9.8398-35.039-34.199-39.359-19.559-3.3594-27.961 2.2812-36.84 8.2812-3.6016 2.3984-7.3203 4.9219-11.762 6.8398-5.0508 2.1602-10.211 3.3633-15 3.9609z"/>
</svg>
