<?xml version="1.0" encoding="UTF-8"?>
<svg width="1200pt" height="1200pt" version="1.1" viewBox="0 0 1200 1200" xmlns="http://www.w3.org/2000/svg">
 <path fill="currentColor" d="m988.78 671.71c-68.281-23.039-105.96-64.441-162.84-126.96-29.641-32.52-63.238-69.359-108.48-112.08-122.16-114.96-258-90.961-285.6-84.48-120.6-106.56-298.32-131.64-316.56-134.04-1.9922-0.51562-3.9961-0.26562-5.7734 0.52734-0.26563 0.10937-0.46875 0.28906-0.71875 0.42187-0.57422 0.32422-1.1289 0.67188-1.6211 1.1289-0.48047 0.40625-0.86328 0.875-1.2617 1.3906-0.070313 0.097656-0.16797 0.15625-0.22656 0.25391-0.48047 0.48047-0.71875 0.96094-0.96094 1.4414 0 0.10938-0.097656 0.22656-0.10938 0.33594 0 0.011718-0.011719 0.023437-0.023438 0.035156 0 0.011719 0 0.023438-0.011718 0.046875-33.816 77.508-27.926 170.72 16.703 269.34 14.281 31.441 30.121 58.559 43.922 79.559-0.71875 16.078-9 105.24-96.238 167.52-2.7617 2.0391-4.1992 5.3984-3.7188 8.6406 0.48047 3.3594 2.8789 6.2383 6.1211 7.3203 0.35938 0.12109 42.961 15.48 101.76 102.84 25.32 37.801 67.441 69 119.28 91.559 0.96094 0.48047 2.0391 0.96094 3 1.3203h0.12109c57.602 24.48 126.96 38.281 198.84 38.281 20.641 0 41.641-1.1992 62.52-3.4805 14.52-1.6797 27.48-3.3594 39.121-5.0391 0.60156 0 1.3203-0.12109 2.0391-0.23828 39.719-5.7617 63.961-11.281 82.922-15.602 33.359-7.6797 51.602-12 113.04-7.9219 113.64 7.5586 185.28-30.602 198.84-72.238 21.48-3.1211 40.68-7.6797 57.48-13.32 46.199-15.359 74.52-39.359 82.441-70.801 15.59-62.52-60.008-97.32-144.01-125.76zm51.359 180.96c-30.719 9.6016-69.961 15.48-116.4 17.039-122.88 4.3203-162.24 11.398-163.8 11.641-4.9219 0.96094-8.0391 5.6406-7.1992 10.559 0.83984 4.3203 4.5586 7.3203 8.8789 7.3203 0.48047 0 1.0781 0 1.5586-0.12109s40.199-7.1992 161.28-11.398c16.801-0.60156 32.641-1.6797 47.52-3.3594-18.719 31.078-85.078 57.602-176.76 51.602-64.078-4.1992-84.48 0.48047-118.2 8.1602-17.281 3.9609-39 9-73.199 14.16-1.4414-40.199 54.602-78.48 113.76-118.92 52.922-36.238 107.64-73.559 126.72-117.36 9.7188-22.199 4.4414-86.879-25.801-133.68-26.039-40.441-65.879-62.16-114.96-62.879-74.16-1.4414-153 73.801-206.16 136.8-60.238 71.52-109.44 153.48-124.92 194.4-13.199 34.559-31.559 52.801-46.922 62.52-12.602 7.9219-23.039 10.078-27.121 10.68-48.121-21.121-87-50.039-110.4-84.84-43.078-64.199-78.359-91.801-96.961-102.96 64.559-51.602 84-115.68 89.762-150.6 10.801 14.762 18.121 23.398 18.84 24.238 3.2383 3.7188 8.8789 4.1992 12.719 0.96094 3.7188-3.2383 4.1992-8.8789 0.96094-12.719-1.6797-1.9219-164.16-194.28-95.52-369 0-0.023437 0.011719-0.035156 0.023438-0.046875 35.746 16.367 179.72 91.094 222.31 249.28 1.0781 4.0078 4.7148 6.6602 8.6875 6.6602 0.76953 0 1.5586-0.097656 2.3398-0.30078 4.8008-1.2969 7.6445-6.2383 6.3477-11.039-33.379-124.01-125.86-198.95-186.16-236.08 0.070313 0.011719 0.14453 0.035157 0.21484 0.046876 66.121 15.719 173.64 50.52 251.76 121.32 2.3984 2.1602 5.6406 2.8789 8.6406 1.9219 1.4414-0.35938 144.6-41.879 273.12 79.078 44.762 42.238 78.121 78.84 107.52 111.12 56.641 62.281 97.68 107.28 170.4 131.88 16.32 5.5195 30.961 10.922 44.039 16.199-3.1211 2.6406-6 6.2383-7.9219 10.801-5.0391 11.52-3 25.32 6.2383 40.922 3.9609 6.8398 7.5586 12.48 10.68 17.398 15.125 23.641 18.246 28.441 4.0859 78.602zm-354.96-232.68c6.2383-8.0391 24.238-27.961 48.238-24.719 23.879 3.2383 30.359 25.199 31.801 32.281-2.3984 4.8008-11.762 18.238-40.922 15.238-27.355-2.8828-36.355-16.441-39.117-22.801z"/>
</svg>
