<?xml version="1.0" encoding="UTF-8"?>
<svg width="1200pt" height="1200pt" version="1.1" viewBox="0 0 1200 1200" xmlns="http://www.w3.org/2000/svg">
 <path fill="currentColor" d="m282.56 572.52c-1.9219 0-3.9609-0.60156-5.6406-2.0391-87.48-71.039-124.32-131.76-137.52-193.56-81.961 47.762-56.281 172.8-29.281 304.92 6.9609 33.602 14.16 68.52 19.32 101.88 22.199 141.84 108.6 310.2 279.12 318 126.36 5.8789 169.32-61.922 181.08-87.961-40.559-6.6016-85.922-25.68-88.078-26.52-4.5586-1.9219-6.6016-7.1992-4.6797-11.762 1.9219-4.5586 7.1992-6.7188 11.762-4.8008 0.48047 0.23828 54 22.68 94.32 26.762 24.719 2.3984 42.602-14.039 51.238-24.602-33.121-14.762-56.039-31.801-57.602-33-3.9609-3-4.6797-8.6406-1.6797-12.602 2.8789-3.9609 8.5195-4.8008 12.48-1.8008 0.71875 0.48047 63.121 46.922 129 50.879 45 2.7617 84.84-19.68 105.24-33.961-43.078-10.199-58.922-35.16-59.762-36.602-2.5195-4.3203-1.1992-9.8398 3-12.359 4.3203-2.6406 9.8398-1.3203 12.359 3 0.96094 1.4414 25.32 38.281 101.16 31.441 62.641-5.5195 105.12-65.52 119.16-88.441-13.32-4.8008-28.559-11.039-45.84-18.121-29.039-12-59.16-24.359-82.32-30.238-70.801-18.121-117.12-57.961-119.04-59.641-3.7188-3.2383-4.0781-8.8789-0.83984-12.719 3.2383-3.7188 8.8789-4.0781 12.719-0.83984 0.35938 0.35937 45.121 38.762 111.6 55.68 24.359 6.2383 55.078 18.84 84.719 31.078 31.078 12.719 82.922 34.078 92.16 28.801-0.12109-0.12109-0.12109-0.83984-0.35938-2.2812-2.5195-14.641 1.8008-34.68 8.8789-56.762-6.8398-8.5195-20.281-29.16-13.441-52.32 6.4805-21.719 27.719-28.078 42.48-28.68 5.5195-16.559 9.3594-31.078 7.1992-35.762-1.9219-4.0781-2.2812-4.9219-18.961-1.5586-17.16 3.4805-42.961 8.7617-81.602-1.0781-73.801-18.84-272.52-152.52-332.4-216.84-42.48-45.602-77.762-59.762-122.4-77.879-17.16-6.8398-36.719-14.762-58.199-25.078-52.559-25.32-102.12-27.719-126.36-27 17.281 23.879 31.801 40.68 32.039 41.039 3.3594 3.7188 2.8789 9.4805-0.83984 12.719-3.7188 3.2383-9.4805 2.8789-12.719-0.96094-1.4414-1.5586-21-24.359-41.762-54.48-0.60156-0.71875-1.1992-1.4414-1.5586-2.2812-14.762-21.359-29.762-46.199-39.48-69.84-9.4805-23.039-38.879-50.16-75.121-74.762 28.922 30.48 60.48 69.121 69.84 100.56 2.5195 8.1602 5.0391 16.68 7.5586 25.559 15.48 53.398 34.922 119.76 61.922 153.96 3 3.9609 2.3984 9.6016-1.5586 12.719-1.6797 1.1992-3.6016 1.9219-5.5195 1.9219-2.6406 0-5.2812-1.1992-7.0781-3.4805-29.16-36.961-48.238-102.36-65.039-160.08-2.5195-8.7617-5.0391-17.281-7.4414-25.441-16.078-53.52-109.08-135.84-117.84-143.4-20.398-9.9609-40.801-18.238-59.16-24 19.32 22.68 42.48 62.762 43.32 123.36 0 0.35938 0.12109 0.83984 0.12109 1.3203 2.7617 17.039 24.602 144.84 74.879 200.4 52.559 58.078 101.04 60.602 101.52 60.602 5.0391 0.12109 8.8789 4.3203 8.7617 9.2383-0.23828 4.9219-4.1992 8.7617-9 8.7617h-0.23828c-2.2812-0.12109-56.281-2.3984-114.36-66.602-32.398-35.762-53.281-96.719-65.52-144.12-0.96094 24.48-0.35938 47.762 3.3594 70.559 10.32 62.879 44.398 122.64 133.68 195.12 3.8398 3.1211 4.4414 8.7617 1.3203 12.602-1.8008 2.293-4.4297 3.3711-7.082 3.3711zm377.16-65.039c-0.71875 1.3203-18.121 31.801-51.48 34.922-1.6797 0.12109-3.2383 0.23828-4.9219 0.23828-30.961 0-49.68-27.238-50.398-28.441-2.0391-3-2.1602-6.9609-0.12109-9.9609 0.71875-1.0781 17.039-25.441 52.199-26.879 35.039-1.9219 52.922 19.078 53.762 19.922 2.4023 2.8789 2.7734 6.957 0.96094 10.199zm-145.67-18.48c37.078-67.801 135-84.84 167.76-4.3203 1.3203 3.6016-3.8398 6.1211-6 3.1211-48.238-54.48-105.96-40.441-156.72 5.1602-2.5352 2.6406-7.0938-0.83984-5.043-3.9609z"/>
</svg>
