<?xml version="1.0" encoding="UTF-8"?>
<svg width="1200pt" height="1200pt" version="1.1" viewBox="0 0 1200 1200" xmlns="http://www.w3.org/2000/svg">
 <path fill="currentColor" d="m737.8 609.27c3.3594 2.6406 4.3203 7.3203 2.2812 11.16-1.5586 2.8789-15.602 28.559-37.801 31.441-1.4414 0.12109-2.8789 0.23828-4.3203 0.23828-20.641 0-37.559-18.121-38.281-18.961-2.3984-2.6406-3-6.3594-1.6797-9.6016 0.35938-0.83984 9-20.879 32.762-26.879 23.879-6.2266 46.078 11.773 47.039 12.602zm396.98 287.69c-0.25391 25.309-8.5078 42.359-24.527 50.664-6.0352 3.1211-12.949 4.668-20.387 5.0742-0.011719 5.4961-1.332 12.18-5.2812 18.875-6.2383 10.441-17.762 17.281-33.961 20.16-2.3984 0.48047-4.9219 0.71875-7.6797 0.71875-22.199 0-53.762-13.922-89.641-29.762-39.48-17.398-83.641-37.078-116.16-36.719-12.719 0.12109-28.559 2.1602-46.922 4.4414-69.602 8.6406-173.88 21.961-249.48-58.32-42.602 23.281-91.559 33.84-139.8 33.84-26.039 0-51.961-3.1211-76.441-8.8789-103.44-24.238-181.2-89.641-237.72-199.92-19.559-37.922-42.84-178.08 15.121-299.52 45.48-95.16 129.12-156 248.52-180.96 285.96-59.641 401.64 193.2 417.6 232.08 0.011718 0.011719 0.011718 0.023438 0.011718 0.035156 14.281 3.6133 51.504 18.984 74.941 83.207 14.652 40.152 50.328 66.156 88.105 93.684 28.441 20.734 57.84 42.156 78.059 70.465 13.465 18.84 30.59 35.062 47.16 50.746 38.953 36.883 79.223 75.031 78.48 150.09zm-591.14-431.09c-4.6797 1.8008-6.9609 7.0781-5.1602 11.762 1.4414 3.4805 4.8008 5.6406 8.3984 5.6406 1.0781 0 2.2812-0.23828 3.3594-0.60156 4.0781-1.6797 102.6-40.922 136.08-94.078 2.6406-4.1992 1.3203-9.8398-2.8789-12.48-4.1992-2.6406-9.8398-1.3203-12.48 2.8789-30.117 48.121-126.36 86.531-127.32 86.879zm-44.281-22.547c1.8008 2.2812 4.3203 3.3594 6.9609 3.3594 1.9219 0 3.9609-0.71875 5.6406-2.0391 2.7617-2.2812 68.281-56.879 88.922-144.6 1.1992-4.8008-1.8008-9.7188-6.7188-10.801-4.6797-1.0781-9.6016 1.8008-10.801 6.7188-19.199 81.602-82.199 134.28-82.801 134.76-3.8438 3.1211-4.4414 8.8711-1.2031 12.602zm-56.398-35.172c-0.96094 4.9219 2.2812 9.6016 7.0781 10.559 0.60156 0.12109 1.1992 0.23828 1.8008 0.23828 4.1992 0 7.9219-3 8.7617-7.3203 0.71875-3.4805 16.922-87.48 3.4805-156-0.96094-4.9219-5.7617-8.0391-10.559-7.1992-4.9219 0.96094-8.0391 5.7617-7.1992 10.68 12.836 64.922-3.125 148.2-3.3633 149.04zm-124.8-132.95c0.48047 0.71875 45.961 68.879 59.52 133.44 0.83984 4.1992 4.5586 7.0781 8.7617 7.0781 0.60156 0 1.1992 0 1.8008-0.12109 4.9219-1.0781 8.0391-5.8789 6.9609-10.68-14.16-68.039-60.121-136.8-62.039-139.68-2.7617-4.1992-8.3984-5.2812-12.48-2.5195-4.2031 2.7617-5.2852 8.4023-2.5234 12.48zm-115.32 79.32c79.32 40.68 115.2 88.801 115.56 89.281 1.8008 2.3984 4.4414 3.6016 7.1992 3.6016 1.9219 0 3.7188-0.48047 5.3984-1.6797 3.9609-3 4.8008-8.5195 1.9219-12.602-1.5586-2.0391-38.398-51.84-121.8-94.559-4.4414-2.2812-9.8398-0.48047-12.121 3.9609-2.2773 4.3164-0.59766 9.8359 3.8438 11.996zm-64.801 72.949c0.96094 0.12109 87.238 20.879 123.36 64.801 1.8008 2.1602 4.3203 3.2383 6.9609 3.2383 2.0391 0 4.0781-0.60156 5.7617-2.0391 3.8398-3.1211 4.3203-8.7617 1.1992-12.602-39.961-48.719-129.36-70.078-133.08-70.922-4.9219-1.1992-9.7188 1.8008-10.801 6.6016-1.2031 4.9219 1.7969 9.7227 6.5977 10.922zm-23.879 123.61c0.60156-0.12109 66.961-12.238 113.64 13.559 1.3203 0.71875 2.8789 1.0781 4.3203 1.0781 3.1211 0 6.2383-1.6797 7.9219-4.6797 2.3984-4.3203 0.71875-9.8398-3.6016-12.238-52.441-28.801-122.64-16.078-125.64-15.48-4.9219 0.96094-8.1602 5.6406-7.1992 10.559 0.95703 4.8047 5.6367 8.043 10.559 7.2031zm119.64 77.391c5.5195 0.23828 9.1211-3.6016 9.3594-8.5195 0.23828-5.0391-3.4805-9.2383-8.5195-9.4805-2.7617-0.12109-67.441-2.7617-110.16 37.078-3.7188 3.3594-3.8398 9-0.48047 12.719 1.8008 1.9219 4.1992 2.8789 6.6016 2.8789 2.1602 0 4.4414-0.83984 6.1211-2.3984 37.078-34.668 96.477-32.277 97.078-32.277zm21.359 60.121c4.4414-2.2812 6.3594-7.5586 4.1992-12.121-2.1602-4.4414-7.5586-6.3594-12-4.0781-2.3984 1.0781-58.199 28.559-79.32 73.078-2.1602 4.4414-0.23828 9.8398 4.3203 12 1.1992 0.60156 2.5195 0.83984 3.8398 0.83984 3.3594 0 6.6016-1.9219 8.1602-5.1602 18.359-38.75 70.32-64.309 70.801-64.559zm48.602 40.68c3.8398-3.1211 4.4414-8.7617 1.4414-12.602-3.1211-3.8398-8.8789-4.5586-12.719-1.4414-1.8008 1.5586-46.32 37.68-62.52 89.281-1.4414 4.8008 1.1992 9.8398 6 11.281 0.83984 0.35938 1.6797 0.48047 2.6406 0.48047 3.8398 0 7.4414-2.5195 8.5195-6.3594 14.516-46.32 56.273-80.27 56.637-80.641zm43.078 24.719c-4.0781-2.8789-9.7188-1.8008-12.48 2.2812-1.3203 2.0391-32.641 48-38.762 86.16-0.71875 4.9219 2.6406 9.4805 7.5586 10.32 0.48047 0.12109 0.96094 0.12109 1.4414 0.12109 4.3203 0 8.1602-3.1211 8.7617-7.5586 5.5195-34.199 35.52-78.359 35.762-78.84 2.8789-4.0742 1.7969-9.7109-2.2812-12.484zm10.055-39.973c12.758-13.078 13.824-24.469 15.324-42.047 0.875-10.246 1.8711-21.863 5.5195-35.832 8.0625-30.973 33.445-48.66 48.551-56.723l-0.011718-0.011718c-24.121-27-45.84-63.602-48.48-108.84-13.922 3.9609-40.801 14.879-63.602 43.922-12.121 15.48-27.961 54.602-21.602 98.52 5.7656 39.105 27.234 73.051 64.301 101.01zm47.664 62.062c-4.1992-2.7617-9.7188-1.5586-12.48 2.5195-0.83984 1.4414-22.32 34.801-20.762 84.121 0.23828 4.9219 4.1992 8.7617 9 8.7617h0.35938c4.9219-0.23828 8.8789-4.3203 8.6406-9.3594-1.4414-43.441 17.641-73.32 17.879-73.559 2.6445-4.2148 1.5664-9.8555-2.6367-12.484zm58.32 72.723c-7.0781-11.879-5.7617-39.121-4.5586-48.602 0.60156-4.9219-3-9.4805-7.9219-10.078-4.8008-0.48047-9.3594 3-9.9609 7.9219-0.48047 4.1992-4.4414 40.801 7.0781 60 1.6797 2.8789 4.6797 4.4414 7.6797 4.4414 1.5586 0 3.2383-0.48047 4.6797-1.3203 4.2031-2.5234 5.6445-8.0547 3.0039-12.363zm50.883-11.531c-11.641-20.52-13.68-46.199-13.801-46.441-0.35938-4.9219-4.6797-8.7617-9.6016-8.2812-4.9219 0.35938-8.6406 4.6797-8.2812 9.6016 0.12109 1.1992 2.2812 29.879 16.078 54 1.6797 2.8789 4.6797 4.5586 7.8008 4.5586 1.5586 0 3-0.35938 4.4414-1.1992 4.3203-2.3984 5.8828-7.918 3.3633-12.238zm40.797-26.043c-5.8789-10.559-10.32-29.52-10.441-29.762-1.0781-4.8008-6-7.8008-10.801-6.6016-4.8008 1.0781-7.8008 5.8789-6.7188 10.801 0.23828 0.83984 5.1602 21.48 12.238 34.32 1.5586 3 4.6797 4.6797 7.8008 4.6797 1.5586 0 3-0.35938 4.3203-1.1992 4.4414-2.3867 6.0039-7.7852 3.6016-12.238zm562.23 85.539c0.66016-67.199-35.051-101.03-72.863-136.84-17.184-16.273-34.945-33.109-49.414-53.363-18.527-25.934-46.738-46.488-74.004-66.371-38.293-27.898-77.879-56.746-94.402-102.06-19.848-54.371-49.066-68.074-60.551-71.449-0.011719 0.011718-0.011719 0.023437-0.023437 0.035156-19.441 26.039-81 69.238-151.2 74.879-50.281 4.0781-74.879 14.762-83.879 19.801 2.7617 19.559 2.5195 34.078 2.5195 35.398-0.12109 4.9219-4.1992 8.5195-9.1211 8.8789-5.0391-0.12109-9-4.1992-8.8789-9.1211 0-0.35938 0.23828-16.922-3.2383-38.039-3.6016-21.719-11.16-48.48-26.762-67.68-23.879-29.398-69.84-39.359-88.922-42.359-0.23828 3.4805-0.48047 6.8398-0.60156 10.078v0.83984c-1.0781 101.16 105.96 158.76 107.16 159.36 4.3203 2.2812 6 7.8008 3.7188 12.121-1.6797 3.1211-4.8008 4.9219-8.0391 4.9219-1.3203 0-2.7617-0.35938-4.0781-1.0781-0.60156-0.35938-27.238-14.641-54.961-41.641 0 0-0.011719 0-0.011719-0.011719-10.789 5.1133-36.91 20.051-44.074 47.605-3.2539 12.492-4.1875 23.293-4.9922 32.832-1.5586 18.059-2.9883 34.008-18.383 50.953 0.011719 0 0.011719 0.011719 0.023438 0.011719 92.281 59.281 175.32 18.359 220.56-3.9609 4.8008-2.2812 9.1211-4.4414 12.84-6.1211 12.84-5.8789 31.199-12.48 41.879-2.5195 10.199 9.7188 3.9609 26.879 3.2383 28.801-19.32 55.32-52.801 95.16-93.602 121.8 68.762 70.559 162.36 58.68 231.36 50.039 18.84-2.3984 35.16-4.4414 48.961-4.5586 36.238-0.12109 82.441 20.16 123.48 38.281 34.441 15.121 70.199 30.84 87 27.84 10.801-1.9219 18.121-5.8789 21.602-11.641 2.2695-3.6953 2.7461-7.8594 2.6289-10.848-42.625-6.707-95.219-39.984-120.39-57.422-4.0938-2.8203-5.1133-8.4258-2.2695-12.516 2.8203-4.0938 8.4258-5.1484 12.516-2.2695 47.641 32.965 112.97 66.406 140.38 52.246 9.7891-5.0547 14.637-16.465 14.805-34.859zm-545.3-125.85 9 15.961c1.5586 3 4.6797 4.5586 7.8008 4.5586 1.5586 0 3-0.35938 4.4414-1.0781 4.3203-2.3984 5.8789-7.9219 3.4805-12.238l-9-15.961c-2.3984-4.3203-7.8008-5.8789-12.238-3.4805-4.3242 2.3984-5.8867 7.9102-3.4844 12.238zm456.24 9.6016c-1.5586-2.7617-4.5586-4.5586-7.6797-4.5586h-0.23828c-3.1211 0-6.1211 1.5586-7.6797 4.3203-6 10.078-12.48 32.281-6 52.199 4.0781 12.719 12.84 22.199 25.441 27.602 24.961 10.801 51.48 25.922 51.719 26.039 1.3203 0.83984 2.8789 1.1992 4.4414 1.1992 1.5586 0 3-0.35938 4.4414-1.1992 2.6406-1.4414 4.4414-4.3203 4.5586-7.4414 0.12109-1.6797 1.0781-40.441-30.359-58.559-24.484-14.043-38.523-39.254-38.645-39.602z"/>
</svg>
