<?xml version="1.0" encoding="UTF-8"?>
<svg width="1200pt" height="1200pt" version="1.1" viewBox="0 0 1200 1200" xmlns="http://www.w3.org/2000/svg">
 <path fill="currentColor" d="m1070.3 772.8c-12.719-19.078-25.199-41.398-38.52-65.039-34.078-60.961-76.68-136.8-152.88-205.68-89.16-80.641-177.6-130.2-248.88-139.68-9.1211-1.1992-18.602-2.8789-28.199-4.6797 1.1992-17.52 2.2812-60.48-10.801-115.92-17.762-75.48-98.762-91.441-102.24-92.16-1.0781-0.12109-2.2812-0.12109-3.3594 0-28.199 5.2812-50.52 30.48-62.281 46.199h-0.12109c-26.16-46.078-61.559-77.52-104.52-92.398-2.5195-0.83984-5.2812-0.60156-7.5586 0.71875-3.7188 2.2812-68.52 41.762-98.281 172.56-0.12109 0.48047-0.23828 0.96094-0.35938 1.4414-7.4414 32.641-12.602 70.922-14.16 115.8-11.52 0.71875-33.238 3.9609-58.441 16.559-16.32 8.1602-23.762 14.641-29.281 19.441-6.1211 5.3984-8.7617 7.6797-22.559 9-3.7188 0.48047-6.7188 3-7.8008 6.6016-0.96094 3.6016 0.48047 7.4414 3.4805 9.7188 1.5586 1.0781 8.5195 5.3984 23.879 6.1211-17.762 18.238-42.602 46.68-46.078 66.121-0.60156 3 0.48047 6.1211 2.7617 8.2812 2.2812 2.0391 5.3984 2.8789 8.3984 2.0391 7.9219-2.1602 16.32-3.9609 23.039-4.9219-9.7188 17.762-25.199 49.078-29.398 75.48-0.48047 3.3594 0.83984 6.7188 3.6016 8.6406 2.6406 2.0391 6.2383 2.3984 9.2383 0.96094 9.7188-4.8008 21.238-8.3984 27.359-9.2383-3.4805 31.68-11.52 148.56 43.68 231.72 2.0391 3.1211 5.8789 4.5586 9.4805 3.7188 3.7188-0.83984 6.4805-3.9609 6.9609-7.6797 0-0.12109 1.6797-12.359 10.441-22.801 7.0781 34.32 28.441 116.4 73.801 146.04 2.8789 1.9219 6.4805 1.9219 9.4805 0.23828 3-1.8008 4.6797-5.0391 4.3203-8.5195-0.48047-6.7188-0.12109-23.281 5.2812-37.32 5.1602 8.6406 13.441 18 26.281 22.078 2.5195 0.83984 5.3984 0.48047 7.6797-1.0781 2.2812-1.4414 3.7188-3.8398 3.9609-6.6016 0.48047-5.2812 3.4805-18.961 10.32-25.801 18.961 31.078 94.199 142.44 225.48 179.76 36.121 10.32 72.121 14.52 106.68 14.52 109.44 0 203.64-42.719 236.28-70.199 11.281 1.4414 22.559 2.5195 33.602 3.1211 2.3984 0.12109 4.8008 0.12109 7.0781 0.12109 19.441 0 39-4.1992 57.961-11.16h0.23828c0.96094-0.35938 1.9219-0.71875 2.8789-1.1992 46.801-17.879 89.52-51.84 116.4-78.719 0.96094-0.96094 1.9219-1.8008 2.7617-2.6406 0 0 0.12109-0.12109 0.12109-0.23828 9.6016-9.7188 16.922-18.359 21.48-24.719 22.199-31.32 3.4805-55.68-24.961-92.641-10.09-13.086-21.492-27.965-33.73-45.965zm-674.76-378.24c-8.1602 43.922-60.121 99.602-80.52 120-50.641-90.359-80.16-214.92-84.359-234.12 24.84-106.68 73.199-148.8 86.16-158.4 40.801 15.48 69.719 46.199 90.359 82.199-0.23828 19.32-1.918 138-11.641 190.32zm80.16 21.723c0 4.9219-4.3203 8.6406-9 8.8789-5.0391-0.12109-9-4.0781-9-9.1211 0.12109-1.4414 0.23828-93.238-33.121-175.68 0.12109-6.8398 0.23828-12.961 0.35938-18.238 2.1602-0.60156 4.1992-2.0391 5.3984-4.1992 0-0.12109 0.83984-1.5586 2.3984-3.8398 9.8398 20.16 18 42.719 24.719 67.559 3.6016 13.32 6.4805 26.398 8.8789 38.762 15.719 5.3984 66.238 22.199 117.6 33.602-0.35938 6.2383-0.83984 9.6016-0.83984 9.7188-0.60156 4.3203 2.0391 8.3984 6.1211 9.7188-48-9.8398-96.121-25.078-119.52-32.762 6.2461 42.602 6.125 73.801 6.0039 75.602zm165.72 250.2c-47.52-14.039-53.52-59.398-54.359-73.441 11.16-8.3984 48.84-34.441 82.199-23.762 34.68 11.039 51.121 59.762 54.121 72.359-6.9609 9.2422-34.082 39.004-81.961 24.844zm236.16 344.28c-3.9609 3.7188-9.4805 7.8008-16.32 12.238-64.801-11.16-122.28-31.078-125.4-32.16-4.6797-1.6797-7.0781-6.7188-5.5195-11.52 1.6797-4.6797 6.8398-7.0781 11.52-5.5195 0.83984 0.35938 71.879 24.84 143.64 34.68-2.7617-0.48047-5.7617 0.23828-7.9219 2.2812zm132.84-23.043c4.3203-14.281 2.8789-30 1.3203-47.879-0.48047-5.3984-0.96094-11.16-1.4414-17.281-0.96094-16.32 4.1992-28.441 10.441-36.719 1.1992 10.199 4.1992 23.281 11.16 37.559 8.0391 16.801 23.762 22.199 39.238 22.441-17.398 14.762-38.281 29.879-60.719 41.879z"/>
</svg>
