<?xml version="1.0" encoding="UTF-8"?>
<svg width="1200pt" height="1200pt" version="1.1" viewBox="0 0 1200 1200" xmlns="http://www.w3.org/2000/svg">
 <path fill="currentColor" d="m603.62 452.52c-0.48047 1.5586-13.559 40.559-48.48 40.559-35.16 0-48-43.68-48.602-45.602-0.71875-2.2812-0.35938-4.9219 0.96094-7.0781 1.1992-2.0391 3.3594-3.6016 5.7617-4.0781 2.3984-0.60156 57.84-12.719 86.641 5.7617 3.4766 2.2773 5.0391 6.4766 3.7188 10.438zm366.97 33.734c18.504 2.1719 37.297 5.4844 55.656 9.6836 18.336 4.3203 36.492 9.6133 53.508 17.363 1.668 0.75781 3.6602 0.10938 4.5586-1.5234 0.9375-1.7148 0.3125-3.8633-1.4023-4.8008-34.441-18.324-71.891-28.223-109.95-36.023-10.367-1.9219-12.781 13.98-2.375 15.301zm158.99 186.46c0.83984 7.0781-0.48047 12.359-4.0781 16.078-6.9609 7.1992-21.238 8.2812-27.961 8.1602-17.16-8.0391-35.039-12-54-16.078-17.641-3.9609-35.879-7.9219-56.52-15.719-41.879-15.719-111.12-92.879-111.84-93.602-3.3594-3.7188-9-4.0781-12.719-0.71875s-4.0781 9-0.71875 12.719c3 3.2383 72.84 81.121 118.92 98.52 21.84 8.1602 41.641 12.48 59.039 16.32 18.359 4.0781 34.078 7.5586 49.199 14.398 1.9219 3.9609 5.5195 12.961 1.9219 19.078-4.4414 7.5586-32.879 36.719-81.238 29.039-25.559-4.0781-75.238-16.68-116.52-55.559l-1.4414-1.4414c-2.1602-2.0391-4.3203-4.1992-6.3594-6.4805-1.8008-1.8008-3.4805-3.7188-5.1602-5.6406-1.4414-1.6797-3-3.4805-4.5586-5.3984-2.0391-2.5195-4.0781-5.1602-6-7.9219-11.52-15.84-21.602-34.559-29.16-56.879-1.6797-4.6797-6.7188-7.1992-11.398-5.6406-4.8008 1.6797-7.3203 6.7188-5.6406 11.52 11.281 33.359 27.719 59.398 46.32 79.801-18.961 6.6016-56.52 18.719-97.441 27.359-24.359 5.1602-49.922 9-73.441 9.7188-14.281 0.48047-33.602 2.3984-56.039 4.6797-109.92 11.039-293.88 29.641-376.8-71.039-3.2383-3.8398-8.8789-4.3203-12.719-1.1992-3.8398 3.1211-4.3203 8.8789-1.1992 12.719 57.602 69.719 157.32 86.52 251.28 86.52 51.359 0 101.04-5.0391 141.24-9.1211 22.078-2.1602 41.16-4.0781 54.84-4.5586 13.801-0.48047 28.078-1.9219 42.359-3.9609 12.238-1.8008 24.48-4.0781 36.48-6.6016-15.719 10.441-36 28.68-35.641 37.801 0.23828 4.0781-2.3984 7.8008-6.3594 9-3.8398 1.1992-8.1602-0.35938-10.32-3.9609-1.1992-1.9219-4.5586-6-7.9219-7.8008-8.7617 4.1992-35.879 18.961-47.16 46.559-8.0391 19.559-6.6016 42 4.1992 66.84 1.0781 2.1602 1.0781 4.6797 0.12109 6.9609-0.96094 2.2812-2.7617 4.0781-4.9219 4.9219-1.8008 0.71875-16.68 5.8789-33.238-14.879-3 3.9609-5.8789 10.441-4.5586 20.762 0.35938 2.8789-0.71875 5.7617-2.8789 7.6797-2.0391 2.0391-5.0391 2.8789-7.9219 2.2812-10.801-2.3984-30.84-14.762-29.16-45 0-1.6797 0.12109-3.2383 0.12109-4.6797-4.0781 7.1992-9.3594 13.922-16.078 18-1.6797 0.96094-41.039 25.078-31.199 53.879 1.4414 4.3203-0.48047 9-4.4414 11.039-4.0781 1.9219-9 0.71875-11.52-3.1211-4.6797-6.9609-12.961-17.398-20.879-24.238-0.23828 6.4805 0.48047 14.641 4.8008 22.68 1.8008 3.2383 1.3203 7.4414-1.1992 10.199-1.6797 2.0391-4.1992 3-6.7188 3-1.0781 0-2.2812-0.23828-3.3594-0.60156-4.3203-1.8008-41.879-17.879-48.719-46.199-3.6016-15-22.559-16.68-27.84-16.922-6.6016 2.3984-27.719 8.0391-58.559-1.1992-3.6016-1.0781-6.1211-4.3203-6.4805-8.0391-0.23828-3.7188 1.9219-7.1992 5.2812-8.7617 11.16-5.1602 27.238-16.199 27.961-23.398 1.1992-11.281-12.719-36.121-26.398-43.559-0.96094 3.1211-1.4414 10.078 0.96094 17.398 1.8008 5.3984 4.6797 9.1211 7.6797 9.9609 3.9609 0.96094 6.7188 4.4414 6.8398 8.5195 0 3.9609-2.5195 7.5586-6.4805 8.7617-0.83984 0.23828-22.801 6.7188-41.52-4.1992-11.281-6.4805-18.84-17.641-22.441-32.879-5.7617-24.121-6.6016-40.559-6.1211-50.762-4.8008 1.3203-9.6016 3.4805-11.762 6.6016-0.96094 1.4414-2.0391 3.8398-0.48047 8.7617 0.96094 3.2383 0.12109 6.7188-2.2812 9-2.2812 2.3984-5.7617 3.3594-9 2.2812-1.8008-0.60156-44.52-14.281-44.52-56.16 0-13.801-2.2812-22.922-4.5586-28.559-3.8398 7.8008-7.3203 20.039-3.2383 35.641 0.83984 3.4805-0.35938 7.1992-3.2383 9.3594-2.8789 2.2812-6.7188 2.5195-9.8398 0.71875-11.641-6.3594-29.52-27.48-21.961-63.359-16.32-0.60156-44.281-3.7188-57.961-17.879-1.6797-1.8008-2.6406-4.1992-2.3984-6.7188 0.12109-2.5195 1.3203-4.8008 3.2383-6.4805 0.60156-0.60156 4.9219-4.4414 6.3594-10.559-17.398 7.4414-42.84 11.281-61.922-7.8008-9.4805-9.4805-13.559-19.559-12.121-29.879 2.5195-16.801 19.078-26.398 21-27.359 2.7617-1.5586 6.2383-1.4414 8.8789 0.12109 2.7617 1.6797 4.4414 4.5586 4.4414 7.8008 0 4.8008 1.6797 16.078 6.3594 19.801 0.71875 0.48047 2.5195 1.9219 7.1992 0.83984 8.1602-2.0391 11.641-11.281 11.398-19.078-0.35937-7.1992-3.7188-15.359-12.48-16.801-30-4.9219-45.121-28.68-45.719-29.641-1.5586-2.6406-1.8008-5.7617-0.48047-8.5195 1.1992-2.7617 3.8398-4.6797 6.8398-5.1602 0.23828 0 31.199-5.1602 33.602-21.84 2.7617-19.441-2.8789-44.281-27.121-55.441-3.8398-1.6797-5.8789-5.8789-5.0391-9.9609 0.83984-4.0781 4.3203-7.0781 8.5195-7.1992 2.7617-0.12109 66.121-3.3594 73.801-78.48 5.3984 3.8398 11.16 8.3984 16.32 13.32 7.1992 6.7188 13.199 14.039 16.078 21.48 8.1602 21.121 23.52 37.078 32.641 45.238-11.039 15.359-32.879 54.48-29.281 117.72 0.23828 5.0391 4.5586 8.6406 9.4805 8.5195 4.9219-0.23828 8.7617-4.5586 8.3984-9.4805-4.1992-74.039 30.121-111.6 30.48-111.96 1.8008-1.8008 2.6406-4.4414 2.3984-6.9609-0.23828-2.6406-1.5586-4.9219-3.6016-6.4805-0.23828-0.23828-23.879-17.641-33.719-43.078-6-15.602-20.762-29.52-34.199-39.602-0.12109-0.12109-0.12109-0.23828-0.23828-0.23828-0.12109 0-0.12109-0.12109-0.23828-0.12109-2.3984-1.9219-4.6797-3.4805-6.9609-5.0391 2.6406-2.2812 5.0391-5.3984 6.7188-9.3594 8.2812-19.441-0.23828-41.16-8.6406-57.961-4.9219-9.9609-1.5586-18.602 2.0391-27.84 2.2812-5.7617 4.4414-11.281 4.0781-16.922 13.441 4.1992 29.039 11.281 41.039 22.559 13.199 12.359 22.922 21 29.641 26.762-3.8398 2.7617-7.0781 6.7188-8.3984 12.121-0.96094 3.8398 0.71875 7.8008 3.9609 9.9609 1.9219 1.0781 46.68 29.762 20.16 102-1.6797 4.6797 0.71875 9.8398 5.2812 11.52 1.0781 0.35938 2.1602 0.60156 3.1211 0.60156 3.7188 0 7.0781-2.2812 8.5195-6 24.359-66.121-4.3203-103.2-19.559-117.12 1.9219-0.71875 4.0781-1.1992 5.3984-1.3203 3.7188-0.35938 6.8398-3 7.9219-6.6016 0.96094-3.6016-0.35938-7.4414-3.3594-9.7188-0.12109-0.12109-11.762-8.6406-40.441-35.398-10.801-10.078-23.398-17.16-35.52-22.199 34.078 0.60156 48.602 14.281 49.32 15.121 2.1602 2.1602 5.2812 3.1211 8.3984 2.5195 2.7617-0.60156 5.1602-1.8008 7.3203-3.3594 8.7617 21.961 25.441 41.762 26.398 42.961 2.8789 3.3594 7.9219 4.0781 11.762 1.6797 0.23828-0.12109 36.48-21.961 112.32-15.359 54.961 4.8008 87.359 27.961 115.92 48.359 11.52 8.2812 22.441 16.199 33.719 21.719 39.84 19.559 166.2 34.32 233.16 27.238 65.16-6.8398 194.88 31.441 219.72 44.762 10.68 5.7617 14.281 11.52 19.801 20.16 4.0781 6.4805 9 14.398 18 23.879 5.2812 5.6406 11.879 11.762 20.641 18.48-6.6016 0.96094-19.801 1.1992-39.359-4.4414-33.121-9.6016-75.961-12.359-84.48-0.96094-0.12109 0.48047 0.35938 2.8789 3.9609 7.0781 14.281 16.801 54.84 35.398 74.16 35.039 19.078-0.83984 57.121 4.6797 80.52 17.16 1.6797 8.2812 2.0391 16.441 2.0391 24.359 0 7.4414-0.48047 14.52-0.83984 20.762-0.23828 5.2812-0.60156 9.8398-0.60156 13.68 0 13.801 5.7617 25.32 11.762 37.68 6.2227 12.602 12.586 25.684 14.746 43.922zm-577.08-157.68c33.121 2.5195 60.84-20.762 69.84-37.922 2.6406-5.0391 4.8008-10.441 6.8398-15.719 3.3594-8.3984 6.9609-17.281 12.602-23.641-7.3203-4.9219-16.078-11.52-22.68-18.48-15-15.84-24.84-26.281-67.68-28.441-30.602-1.6797-51.719 16.801-70.199 32.879-5.6406 4.9219-10.922 9.4805-16.078 13.078 8.5195 6 18.719 15 27.121 28.559l2.5195 4.0781c15.477 25.09 26.637 43.211 57.715 45.609zm268.92 154.68c-6-0.35938-147.84-10.441-254.16 52.199-4.1992 2.5195-5.6406 8.0391-3.1211 12.359 1.6797 2.8789 4.6797 4.4414 7.8008 4.4414 1.5586 0 3.1211-0.48047 4.5586-1.3203 101.28-59.641 242.16-49.801 243.6-49.68 4.8008 0.12109 9.2383-3.3594 9.6016-8.2812 0.35547-4.918-3.3633-9.2383-8.2812-9.7188z"/>
</svg>
