<?xml version="1.0" encoding="UTF-8"?>
<svg width="1200pt" height="1200pt" version="1.1" viewBox="0 0 1200 1200" xmlns="http://www.w3.org/2000/svg">
 <path fill="currentColor" d="m72.984 732.2c2.0391-0.71875 50.281-18.602 97.32-65.52 6.8398-6.8398 13.801-13.32 20.879-19.199 11.762 4.8008 47.762 23.762 75.84 83.398 37.199 78.719 93.48 85.68 158.64 93.84l7.9219 1.0781h0.48047c11.039 3.2383 25.68 4.5586 42.238 4.5586 74.52 0 188.16-26.879 194.04-28.199 3.1211-0.83984 5.6406-3.1211 6.4805-6.1211 0.60156-1.5586 53.52-164.52 212.4-256.08 51.121-9.1211 83.398-21.359 117-34.078l6.1211-2.3984c46.801-17.762 114.12 5.0391 114.84 5.2812 3.3594 1.1992 7.1992 0.23828 9.6016-2.5195 2.3984-2.6406 3-6.4805 1.4414-9.8398-1.1992-2.6406-31.801-65.641-110.04-72-31.922-2.6406-74.398 2.5195-114 12.48-8.6406 0-132.96 0.23828-195.6-24.961-32.16-12.961-199.92-74.762-344.76-20.039-127.44 48.121-272.52 216.24-312.36 328.92-1.1992 3.2383-0.35938 6.9609 2.1602 9.3594 2.5195 2.5156 6.1172 3.2344 9.3594 2.0352zm776.04-252.84c17.641-9.1211 41.039-17.879 66.48-24.602 0.23828 0.12109 0.35938 0 0.60156-0.12109 0.83984 0 1.6797-0.23828 2.3984-0.60156 29.52-7.5586 61.559-12.48 90.238-12.48 6.1211 0 12.238 0.23828 18 0.71875 42.359 3.4805 68.641 26.039 82.559 42.961-9.6016-2.1602-21.359-4.3203-34.32-5.5195-88.078-21.48-176.64-10.32-226.08-0.23828 0-0.11719 0-0.11719 0.12109-0.11719zm-37.199 27.359c0.48047 0 0.96094-0.12109 1.4414-0.23828 0.35938-0.12109 0.71875-0.12109 1.1992-0.23828 0 0 0.12109 0 0.35938-0.12109h0.23828c0.12109-0.12109 0.23828-0.12109 0.35938-0.12109 8.5195-2.5195 73.078-20.398 152.16-20.398 12.238 0 24.719 0.48047 37.559 1.4414l-5.3984 2.0391c-33.121 12.602-65.039 24.719-116.28 33.719-21.602 3.7188-46.68 6.9609-76.801 9.3594-44.879 3.7188-82.078 14.762-110.52 26.52 54.242-40.32 107.04-50.398 115.68-51.961zm-264.49 5.4023c25.078 0 45.602 10.922 45.602 24.359 0 13.441-20.52 24.359-45.602 24.359-25.199 0-45.602-10.922-45.602-24.359 0-13.441 20.414-24.359 45.602-24.359zm-247.56 94.078c28.68 14.641 46.199 63 63.238 109.8 12.359 33.961 24.359 66.719 40.922 87.719-52.68-7.4414-91.922-19.68-120.6-80.52-25.801-54.48-57.84-78.359-76.441-88.199 37.215-27.121 72.973-39 92.883-28.801z"/>
</svg>
