<?xml version="1.0" encoding="UTF-8"?>
<svg width="1200pt" height="1200pt" version="1.1" viewBox="0 0 1200 1200" xmlns="http://www.w3.org/2000/svg">
 <path fill="currentColor" d="m1120.7 600.06c3.9609 117.12-60.121 195.6-95.879 229.92 9.1211-29.762 15.359-54 18.961-74.039 0.12109-0.12109 0.12109-0.23828 0.12109-0.35938v-0.12109c0.35938-1.3203 0.60156-2.5195 0.71875-3.7188v-0.12109c11.52-65.879-6.7188-86.281-51.238-111.12-50.16-28.078-98.398-115.32-106.8-131.16 11.398-70.801 111.96-122.4 134.88-133.32 18.238 14.16 94.547 81.602 99.238 224.04zm-93.598 148.68c10.199-59.16-6.6016-72.602-42.48-92.52-50.398-28.078-96.238-105.96-110.64-132.48-31.922 21.602-148.56 108.96-136.92 223.68 3 5.3984 14.641 24.602 36.238 41.641h0.12109c1.0781 0.83984 2.1602 1.6797 3.2383 2.3984 0.12109 0.12109 0.12109 0.12109 0.12109 0.23828 25.559 18.84 63.84 33.719 117 21.84 99.48-22.199 128.4-57.602 133.32-64.68zm-236.89 103.8c1.8008 2.8789 1.8008 6.6016 0 9.4805-1.9219 3-5.2812 4.5586-8.6406 4.1992-6.7188-0.71875-12.84-3.4805-18.359-6.9609 8.2812 30.84 20.762 58.68 21 59.039 1.3203 3 0.96094 6.4805-1.0781 9.1211-2.0391 2.6406-5.2812 3.9609-8.5195 3.4805-5.8789-0.96094-11.039-2.6406-15.48-4.8008 6.6016 44.879-0.60156 84.48-0.96094 86.398-0.60156 3.4805-3.1211 6.2383-6.4805 7.0781-0.71875 0.23828-1.5586 0.35938-2.2812 0.35938-2.6406 0-5.1602-1.0781-6.8398-3.1211-273.84-320.4-618.48-247.56-621.84-246.72-4.4414 0.96094-9-1.5586-10.559-5.8789-5.5195-16.078-5.5195-35.398-4.1992-49.68-4.0781 5.0391-6.8398 10.922-7.9219 13.801-1.3203 3.8398-5.1602 6.3594-9.3594 5.8789-4.0781-0.48047-7.4414-3.7188-7.9219-7.8008-8.8789-64.441 20.16-122.88 37.078-150.48-8.1602 3.2383-14.039 8.2812-14.16 8.3984-3 2.5195-7.1992 2.8789-10.559 0.83984s-5.0391-6-4.0781-9.7188c11.398-47.398 58.078-102.72 83.52-130.2-6.3594 2.2812-10.801 5.2812-10.922 5.3984-3.4805 2.3984-8.1602 2.0391-11.281-0.96094-3.1211-2.8789-3.7188-7.5586-1.4414-11.281 58.559-94.801 158.76-164.4 324.96-225.72 138.96-51.238 390.96-40.559 490.2 21 47.16 29.16 65.52 59.16 71.398 83.52 0 0.12109 0.12109 0.35937 0.12109 0.48047 0.71875 1.1992 0.96094 2.6406 0.96094 3.9609v0.23828c3.2383 17.879-0.12109 32.398-3 40.68-3.4805-2.6406-5.6406-4.0781-6.2383-4.4414-2.5195-1.6797-5.6406-1.9219-8.3984-0.71875-0.35938 0.12109-1.4414 0.60156-3.1211 1.3203 2.1602-4.8008 6.3594-16.68 3.4805-32.762-6-6.2383-30.48-28.68-67.559-21.84-29.039 5.2812-46.68-6-63.719-17.039-14.281-9.1211-29.16-18.719-53.039-21-26.52-2.5195-35.52-1.0781-44.16 0.23828-9.8398 1.5586-19.199 3-47.281-0.23828-53.039-6.1211-147 18.238-195.24 109.32 2.1602 0.83984 4.1992 1.6797 6.1211 2.6406 0.035157 0.011719 0.058594 0.035157 0.085938 0.046875 0.69531-1.3672 1.5586-2.5547 2.6055-3.5508 8.0039-7.2227 17.734-12.863 27.816-15.984 9.875-2.9648 19.754-4.4297 29.594-4.7266-4.1289-4.1406-7.8242-8.7227-10.906-13.945-1.4883-3.0352 2.9141-5.7734 4.9688-3.1328 10.453 10.223 25.078 15.742 39.648 20.16 5.0508 0.99609 10.094 2.125 15.109 3.4922 20.746 5.0625 38.773 20.137 56.41 30.551 37.957 1.5117 62.195-24.66 62.785-59.102-0.63672-8.1367-2.6055-16.234-5.7969-23.902-2.6406-7.332-8.5938-17.113-12.793-23.82-0.74219-1.0195-0.49219-2.4961 0.61328-3.1562 3.8633-1.2109 9.2539 7.9805 12.625 10.586 20.293 22.738 28.285 56.34 16.465 85.285-0.16797 0.43359-0.37109 0.85156-0.55078 1.2852 7.7656 2.1953 15.023 6.1328 21.145 10.945 2.0391 1.5469 0.21484 4.9336-2.1836 4.1289-13.453-2.8672-32.746-5.6875-41.34 5.5078-0.94922 1.1289-2.0156 2.1016-3.0703 3.0977 21.672 0.43359 44.113-1.5703 64.586 4.0664 3.3359 0.875 2.375 6.1914-1.1406 5.7109-36.949-3.3828-72.66 12.613-109.97 1.7031-13.223-4.0781-23.891-11.531-33.84-16.871-19.633-11.195-40.68-14.676-62.941-14.305-17.34 0.61328-34.105 2.9414-49.066 10.766 3.5391 3.8047 6.3828 8.0625 8.4102 12.684 2.9766-1.2734 6.3008-2.0273 9.6484-3.1094 20.531-3.7812 42.324-5.5547 62.566 0.46875 23.375 8.4844 45.422 15.602 69.07 19.715 47.074 8.7344 96.133 6.6133 141.88-8.8203 4.5117-1.6914 7.5234 5.375 3 7.3672-68.473 33.852-150.79 31.402-222.3 9.2031-15.047-4.7656-31.559-7.8242-46.621-1.2734-3.7578 0.88672-6.875 3.0703-10.391 3.2539v0.011719c0.71875 8.7461-0.48047 16.656-2.7461 24.086 16.02-6.4062 34.262-8.2578 50.449-5.2578 23.746 4.8359 48.023 13.234 71.891 15.59 54.562 7.2852 109.34-6.5273 160.39-27.562 2.9531-1.2109 6.3359 0.19141 7.5469 3.1445 1.0781 2.6172 0.085938 5.5781-2.207 7.0547-24.336 15.73-50.484 29.449-78.816 38.902-42.145 15.289-90.012 17.352-134.38 10.402-10.488-1.5586-29.449-5.0039-39.301-5.5664-23.207-2.1719-40.859 5.0039-63.145 13.199-0.011719 0.011719-0.023438 0.035156-0.035156 0.046875-7.4414 12.238-14.039 25.559-17.16 42-6.8398 36.359 12.359 54.238 41.281 81.359 13.559 12.602 28.801 27 43.922 45.602 32.281 39.961 71.281 56.641 90.121 62.762 0.23828 4.3203 0.48047 8.6406 0.96094 12.961 0.12109 1.0781 0.48047 2.1602 0.96094 3.1211 0.12109 0.12109 0.71875 1.4414 2.1602 3.7188 4.6797 7.6797 17.039 26.039 37.922 42.961v0.12109c5.2812 4.1992 11.16 8.3984 17.641 12.359 1.418 21.508 12.113 38.91 12.219 39.148zm-258-463.44c-0.23828-0.12109-0.35938-0.12109-0.48047-0.23828-4.5586-2.1602-6.4805-7.5586-4.3203-12 1.0781-2.2812 2.1602-4.4414 3.2383-6.6016-56.762-12.121-142.2 6.3594-192 42.48-3 2.2812-4.3203 6.2383-3.2383 9.8398 1.0781 3.7188 4.3203 6.2383 8.1602 6.4805 3.4805 0.12109 9.1211 0.96094 14.52 2.7617-27.602 11.879-80.762 39.359-90 76.922-0.60156 2.8789 0.12109 5.8789 2.0391 8.1602 2.0391 2.1602 4.9219 3.2383 7.9219 2.8789 6.8398-0.83984 14.039-0.48047 18.961 0.71875-11.762 9.7188-30.719 28.559-36.359 52.922-0.71875 3.2383 0.35938 6.7188 3 8.8789 2.5195 2.1602 6.1211 2.7617 9.2383 1.4414 0.12109-0.12109 8.8789-3.6016 17.398-3-17.641 16.801-49.801 51.602-49.801 81.719 0 3.2383 1.8008 6.2383 4.5586 7.8008 2.8789 1.5586 6.3594 1.5586 9.1211-0.12109 6.9609-4.1992 16.199-7.6797 22.559-8.1602-2.2812 17.398-5.2812 57.602 8.3984 86.398 7.5586 0.83984 15.238 1.8008 23.16 3-20.398-22.801-16.078-75.84-12.602-94.801 0.60156-3.7188-1.0781-7.4414-4.1992-9.3594-8.7617-5.1602-19.922-3.6016-29.281-0.48047 9.9609-24 38.16-51.602 50.281-61.922 2.0391-1.6797 3.1211-4.1992 3.2383-6.7188 0-2.6406-1.0781-5.1602-3-6.8398-8.6406-7.9219-19.68-9.2383-28.922-8.3984 11.281-20.52 32.52-34.441 32.762-34.559 3.4805-2.2812 5.0391-6.7188 3.6016-10.68-4.4414-12.121-18.359-15.602-29.52-16.199 17.398-28.559 69-51.961 89.879-59.16 2.6406-0.96094 4.6797-3.1211 5.6406-5.7617 0.83984-2.7617 0.35938-5.6406-1.1992-7.9219-4.3203-6.1211-10.922-10.078-17.52-12.602 48.488-26.52 119.77-38.879 164.77-26.879zm155.51-109.57c-2.7617 0.48047-5.0391 2.1602-6.4805 4.5586-0.71875 1.3203-17.879 33.359 5.7617 67.441 10.801 15.719 26.52 20.641 41.039 20.641 12 0 23.16-3.3594 30.48-6.8398 2.7617-1.3203 4.6797-4.0781 5.0391-7.1992 2.5195-28.199-3.6016-49.441-18.359-63.121-22.559-21-56.039-15.719-57.48-15.48zm274.41 46.441c-2.8789 9.9258-8.2578 19.934-16.812 25.812-1.9688 1.4023-2.9883 3.9258-2.375 6.4219 6.4688 15.07 36.469-12.203 41.52-20.328 5.9414-6.875 2.5312-18.359-6.3242-20.711-6.8516-1.9961-14.016 1.9414-16.008 8.8047zm-98.125 79.512c4.2344-0.52734 10.078 1.9805 13.273-1.3203 0.69531-1.332 0.17969-2.9883-1.1641-3.6836-23.207-11.879-47.242-22.871-62.977-44.242-1.8008-3.5156-7.2461-2.4102-7.0938 1.6797 2.832 28.367 32.27 44.781 57.961 47.566zm-43.68-58.43c1.7891 0.21484 3.4219-1.0547 3.6484-2.8438 0.74219-6.0703 0.66016-12.191-0.046875-18.277-2.375-18.406-9.2148-37.586-26.219-48.023-2.543-1.5586-5.3164 1.8711-3.4062 4.1406 11.051 19.633 16.777 41.316 23.34 62.832 0.37891 1.1406 1.3984 2.0156 2.6836 2.1719zm81.215 51.336c1.957-3.0469 0.68359-7.043-2.4844-8.6523-14.051-8.7734-32.172-23.953-26.988-41.578 5.832-21.562 4.4023-49.465-13.262-65.473-0.67188-0.53906-1.6445-0.60156-2.3867-0.085938-1.0312 0.69531-1.1289 2.1367-0.33594 3.0469 14.219 21.984-1.5469 46.152-1.6094 69.121-1.1289-2.7461-2.0156-5.6406-2.5312-8.7617-2.7227-11.797 0.070312-23.219-1.7031-35.93-1.6445-13.57-9.2148-29.594-24.254-32.484-2.3984-0.53906-3.8984 2.9023-1.8594 4.3086 21.035 16.285 5.2188 45.504 11.137 67.668 2.7227 14.195 12.254 26.832 23.328 34.895 11.305 8.0625 23.664 13.008 36.086 16.402 2.5078 0.83594 5.375-0.125 6.8633-2.4766zm10.031-7.5586c1.5977-0.070313 2.832-1.4141 2.7617-3-0.34766-8.293-4.5117-15.73-8.0742-21.816-12.684-17.902-9.7422-37.645-11.496-58.441 0-3.3125-4.9805-4.1758-6.0859-1.0195-8.4492 21.133-9.1797 49.234 7.7891 66.301 4.7148 5.7734 9.4062 10.344 12.406 16.402 0.49219 0.97266 1.5234 1.6328 2.6992 1.5742zm11.02-20.016c1.1172 0.71875 2.5781 0.91016 3.8984 0.35938 2.1367-0.88672 3.1445-3.3477 2.2578-5.4727-7.5703-15.035-9.8984-29.977-12.086-46.883-0.097656-2.9023-4.3203-3.8633-5.6055-1.1992-8.3516 17.422-5.1484 41.723 11.535 53.195z"/>
</svg>
