<svg xmlns="http://www.w3.org/2000/svg" width="24" height="24" viewBox="0 0 24 24">
  <title>telescope</title>
  <g fill="currentColor">
    <path d="M4.417,19.582A9.092,9.092,0,0,1,2.59,17L.474,19.111c-.848.85-.536,2.394.743,3.672a4.413,4.413,0,0,0,1.677,1.082A2.545,2.545,0,0,0,3.681,24a1.665,1.665,0,0,0,1.208-.474L7,21.41A8.962,8.962,0,0,1,4.417,19.582Z" fill="currentColor"></path>
    <path d="M10.033,13.967a11.011,11.011,0,0,1-2.551-3.862L4.594,12.991a2.513,2.513,0,0,0-.4,2.645,6.668,6.668,0,0,0,1.641,2.532,5.525,5.525,0,0,0,3.642,1.824,2.1,2.1,0,0,0,1.534-.587l2.883-2.882A11.156,11.156,0,0,1,10.033,13.967Z" fill="currentColor"></path>
    <path d="M21.553,2.447a8.956,8.956,0,0,0-3.387-2.2,3.1,3.1,0,0,0-3.295.468L9.714,5.871c-1.41,1.411-.665,4.284,1.733,6.682a8.956,8.956,0,0,0,3.387,2.2A4.573,4.573,0,0,0,16.259,15a2.556,2.556,0,0,0,1.87-.717l5.156-5.156h0C24.7,7.718,23.951,4.845,21.553,2.447Zm.318,5.268c-.148.147-.594.2-1.256-.018a7.036,7.036,0,0,1-2.6-1.715C16.285,4.25,15.911,2.5,16.286,2.129A.67.67,0,0,1,16.75,2a2.62,2.62,0,0,1,.791.146,7.069,7.069,0,0,1,2.6,1.715C21.871,5.594,22.245,7.34,21.871,7.715Z" fill="currentColor"></path>
  </g>
</svg>