<svg xmlns="http://www.w3.org/2000/svg" width="24" height="24" viewBox="0 0 24 24">
  <title>detached-property</title>
  <g fill="currentColor">
    <rect x="9" y="5" width="2" height="3" rx="0.5" fill="currentColor"></rect>
    <rect x="13" y="5" width="2" height="3" rx="0.5" fill="currentColor"></rect>
    <path d="M4.351,4.937,5,4.693V9H7V3.943l5-1.875,5,1.875V9h2V4.693l.649.244A1.023,1.023,0,0,0,20,5a1,1,0,0,0,.351-1.937l-8-3a1,1,0,0,0-.7,0l-8,3a1,1,0,0,0,.7,1.874Z" fill="currentColor"></path>
    <path d="M22,11H2a1,1,0,0,0-1,1V22a1,1,0,0,0,1,1h8V17.5a.5.5,0,0,1,.5-.5h3a.5.5,0,0,1,.5.5V23h8a1,1,0,0,0,1-1V12A1,1,0,0,0,22,11ZM6.5,19h-2a.5.5,0,0,1-.5-.5v-3a.5.5,0,0,1,.5-.5h2a.5.5,0,0,1,.5.5v3A.5.5,0,0,1,6.5,19Zm13,0h-2a.5.5,0,0,1-.5-.5v-3a.5.5,0,0,1,.5-.5h2a.5.5,0,0,1,.5.5v3A.5.5,0,0,1,19.5,19Z" fill="currentColor"></path>
  </g>
</svg>