<svg xmlns="http://www.w3.org/2000/svg" viewBox="0 0 64 64"><title>graphics tablet</title><g stroke-linecap="round" stroke-width="3" fill="none" stroke="currentColor" stroke-linejoin="round" class="nc-icon-wrapper" transform="translate(0.5 0.5)"><circle cx="10" cy="33" r="3"></circle><polyline points="54 25 54 47 18 47 18 19 32 19"></polyline><line x1="10" y1="19" x2="10" y2="24"></line><line x1="10" y1="42" x2="10" y2="47"></line><path d="M62,17V51a5,5,0,0,1-5,5H7a5,5,0,0,1-5-5V15a5,5,0,0,1,5-5H41"></path><path d="M33,32l2-8L54.757,4.243a4.242,4.242,0,0,1,6,0h0a4.242,4.242,0,0,1,0,6L41,30Z"></path></g></svg>