<svg xmlns="http://www.w3.org/2000/svg" viewBox="0 0 64 64"><title>watch dev</title><g stroke-linecap="round" stroke-width="3" fill="none" stroke="currentColor" stroke-linejoin="round" class="nc-icon-wrapper" transform="translate(0.5 0.5)"><polyline data-cap="butt" points="20,12 22,2 42,2 44,12 "></polyline> <polyline data-cap="butt" points="44,52 42,62 22,62 20,52 "></polyline> <polyline points=" 52,28 56,28 56,36 52,36 "></polyline> <polyline points=" 28,26 22,32 28,38 "></polyline> <polyline points=" 36,26 42,32 36,38 "></polyline> <path d="M48,52H16 c-2.209,0-4-1.791-4-4V16c0-2.209,1.791-4,4-4h32c2.209,0,4,1.791,4,4v32C52,50.209,50.209,52,48,52z"></path></g></svg>