<svg xmlns="http://www.w3.org/2000/svg" viewBox="0 0 48 48"><g class="nc-icon-wrapper"><path fill="#E6E6E6" d="M44 7H4a3 3 0 00-3 3v28a3 3 0 003 3h40a3 3 0 003-3V10a3 3 0 00-3-3z"/><path fill="#009EE3" d="M30.292 19.203h-2.8a.389.389 0 00-.384.328l-1.132 7.18a.234.234 0 00.231.27h1.437a.273.273 0 00.269-.23l.321-2.036a.389.389 0 01.384-.328h.886c1.844 0 2.909-.893 3.187-2.662.125-.774.005-1.382-.357-1.807-.399-.467-1.105-.715-2.042-.715zm.323 2.623c-.153 1.005-.921 1.005-1.663 1.005h-.422l.296-1.877a.234.234 0 01.231-.197c.615 0 1.155-.025 1.423.288.147.173.191.428.135.781z"/><path fill="#113984" d="M10.32 19.203h-2.8a.389.389 0 00-.384.328l-1.132 7.18a.234.234 0 00.231.27h1.337a.389.389 0 00.384-.328l.306-1.937a.389.389 0 01.384-.328h.886c1.844 0 2.909-.893 3.187-2.662.125-.774.005-1.382-.357-1.807-.4-.468-1.105-.716-2.042-.716zm.323 2.623c-.153 1.005-.921 1.005-1.663 1.005h-.423l.296-1.877a.234.234 0 01.231-.197h.194c.505 0 .983 0 1.229.288.147.173.192.428.136.781zM18.69 21.794h-1.341a.234.234 0 00-.231.197l-.059.375c-.13-.189-.389-.698-1.678-.698-1.481 0-2.747 1.123-2.993 2.697-.128.785.054 1.536.499 2.06.409.481.993.682 1.689.682 1.194 0 1.856-.767 1.856-.767l-.06.373a.234.234 0 00.231.27h1.208a.389.389 0 00.384-.328l.725-4.59a.234.234 0 00-.23-.271zm-1.869 2.61a1.494 1.494 0 01-1.513 1.28c-.389 0-.7-.125-.9-.362-.198-.235-.273-.569-.21-.942a1.501 1.501 0 011.503-1.29c.381 0 .69.126.894.365.204.241.285.578.226.949z"/><path fill="#009EE3" d="M38.662 21.794h-1.341a.234.234 0 00-.231.197l-.059.375c-.13-.189-.389-.698-1.678-.698-1.481 0-2.747 1.123-2.993 2.697-.128.785.054 1.536.499 2.06.409.481.993.682 1.689.682 1.194 0 1.856-.767 1.856-.767l-.06.373a.234.234 0 00.231.27h1.208a.389.389 0 00.384-.328l.725-4.59a.233.233 0 00-.23-.271zm-1.869 2.61c-.13.766-.738 1.28-1.513 1.28-.389 0-.7-.125-.9-.362-.198-.235-.273-.569-.21-.942a1.501 1.501 0 011.503-1.29c.381 0 .69.126.894.365.204.241.285.578.226.949z"/><path fill="#113984" d="M25.831 21.794h-1.348a.39.39 0 00-.322.171l-1.859 2.738-.788-2.631a.39.39 0 00-.373-.278h-1.325a.233.233 0 00-.221.309l1.484 4.356-1.396 1.97a.233.233 0 00.19.368h1.346a.391.391 0 00.32-.167l4.482-6.469a.233.233 0 00-.19-.367z"/><path fill="#009EE3" d="M40.242 19.401l-1.149 7.312a.234.234 0 00.231.27h1.156a.389.389 0 00.384-.328l1.133-7.18a.234.234 0 00-.231-.27h-1.294a.23.23 0 00-.23.196z"/></g></svg>